  0
SECTION
  2
HEADER
  9
$ACADVER
  1
AC1014
  9
$HANDSEED
  5
FFFF
  9
$MEASUREMENT
 70
     1
  0
ENDSEC
  0
SECTION
  2
TABLES
  0
TABLE
  2
VPORT
  5
8
330
0
100
AcDbSymbolTable
 70
     4
  0
VPORT
  5
2E
330
8
100
AcDbSymbolTableRecord
100
AcDbViewportTableRecord
  2
*ACTIVE
 70
     0
 10
0.0
 20
0.0
 11
1.0
 21
1.0
 12
210.0
 22
148.5
 13
0.0
 23
0.0
 14
10.0
 24
10.0
 15
10.0
 25
10.0
 16
0.0
 26
0.0
 36
1.0
 17
0.0
 27
0.0
 37
0.0
 40
341.0
 41
1.24
 42
50.0
 43
0.0
 44
0.0
 50
0.0
 51
0.0
 71
     0
 72
   100
 73
     1
 74
     3
 75
     0
 76
     0
 77
     0
 78
     0
  0
ENDTAB
  0
TABLE
  2
LTYPE
  5
5
330
0
100
AcDbSymbolTable
 70
     1
  0
LTYPE
  5
14
330
5
100
AcDbSymbolTableRecord
100
AcDbLinetypeTableRecord
  2
BYBLOCK
 70
     0
  3

 72
    65
 73
     0
 40
0.0
  0
LTYPE
  5
15
330
5
100
AcDbSymbolTableRecord
100
AcDbLinetypeTableRecord
  2
BYLAYER
 70
     0
  3

 72
    65
 73
     0
 40
0.0
  0
LTYPE
  5
16
330
5
100
AcDbSymbolTableRecord
100
AcDbLinetypeTableRecord
  2
CONTINUOUS
 70
     0
  3
Solid line
 72
    65
 73
     0
 40
0.0
  0
ENDTAB
  0
TABLE
  2
LAYER
  5
2
100
AcDbSymbolTable
 70
1
  0
LAYER
  5
50
100
AcDbSymbolTableRecord
100
AcDbLayerTableRecord
  2
0
 70
0
  6
CONTINUOUS
  0
ENDTAB
  0
TABLE
  2
STYLE
  5
3
330
0
100
AcDbSymbolTable
 70
     1
  0
STYLE
  5
11
330
3
100
AcDbSymbolTableRecord
100
AcDbTextStyleTableRecord
  2
STANDARD
 70
     0
 40
0.0
 41
1.0
 50
0.0
 71
     0
 42
2.5
  3
txt
  4

  0
ENDTAB
  0
TABLE
  2
VIEW
  5
6
330
0
100
AcDbSymbolTable
 70
     0
  0
ENDTAB
  0
TABLE
  2
UCS
  5
7
330
0
100
AcDbSymbolTable
 70
     0
  0
ENDTAB
  0
TABLE
  2
APPID
  5
9
330
0
100
AcDbSymbolTable
 70
     2
  0
APPID
  5
12
330
9
100
AcDbSymbolTableRecord
100
AcDbRegAppTableRecord
  2
ACAD
 70
     0
  0
ENDTAB
  0
TABLE
  2
DIMSTYLE
  5
A
330
0
100
AcDbSymbolTable
 70
     1
  0
DIMSTYLE
105
27
330
A
100
AcDbSymbolTableRecord
100
AcDbDimStyleTableRecord
  2
ISO-25
 70
     0
  3

  4

  5

  6

  7

 40
1.0
 41
2.5
 42
0.625
 43
3.75
 44
1.25
 45
0.0
 46
0.0
 47
0.0
 48
0.0
140
2.5
141
2.5
142
0.0
143
0.03937007874016
144
1.0
145
0.0
146
1.0
147
0.625
 71
     0
 72
     0
 73
     0
 74
     0
 75
     0
 76
     0
 77
     1
 78
     8
170
     0
171
     3
172
     1
173
     0
174
     0
175
     0
176
     0
177
     0
178
     0
270
     2
271
     2
272
     2
273
     2
274
     3
340
11
275
     0
280
     0
281
     0
282
     0
283
     0
284
     8
285
     0
286
     0
287
     3
288
     0
  0
ENDTAB
  0
TABLE
  2
BLOCK_RECORD
  5
1
330
0
100
AcDbSymbolTable
 70
     1
  0
BLOCK_RECORD
  5
1F
330
1
100
AcDbSymbolTableRecord
100
AcDbBlockTableRecord
  2
*MODEL_SPACE
  0
BLOCK_RECORD
  5
1B
330
1
100
AcDbSymbolTableRecord
100
AcDbBlockTableRecord
  2
*PAPER_SPACE
  0
ENDTAB
  0
ENDSEC
  0
SECTION
  2
BLOCKS
  0
BLOCK
  5
20
330
1F
100
AcDbEntity
  8
0
100
AcDbBlockBegin
  2
*MODEL_SPACE
 70
     0
 10
0.0
 20
0.0
 30
0.0
  3
*MODEL_SPACE
  1

  0
ENDBLK
  5
21
330
1F
100
AcDbEntity
  8
0
100
AcDbBlockEnd
  0
BLOCK
  5
1C
330
1B
100
AcDbEntity
 67
     1
  8
0
100
AcDbBlockBegin
  2
*PAPER_SPACE
  1

  0
ENDBLK
  5
1D
330
1B
100
AcDbEntity
 67
     1
  8
0
100
AcDbBlockEnd
  0
ENDSEC
  0
SECTION
  2
ENTITIES
  0
SPLINE
  5
100
100
AcDbEntity
  8
0
 62
7
100
AcDbSpline
 70
8
 71
3
 72
8
 73
4
 74
0
 40
0
 40
0
 40
0
 40
0
 40
1
 40
1
 40
1
 40
1
 10
138.467003
 20
10.953742
 30
0.0
 10
138.467003
 20
15.580097
 30
0.0
 10
142.208232
 20
19.341250
 30
0.0
 10
146.834554
 20
19.341250
 30
0.0
  0
SPLINE
  5
101
100
AcDbEntity
  8
0
 62
7
100
AcDbSpline
 70
8
 71
3
 72
8
 73
4
 74
0
 40
0
 40
0
 40
0
 40
0
 40
1
 40
1
 40
1
 40
1
 10
146.834554
 20
19.341250
 30
0.0
 10
151.460877
 20
19.341250
 30
0.0
 10
155.222246
 20
15.580097
 30
0.0
 10
155.222246
 20
10.953742
 30
0.0
  0
SPLINE
  5
102
100
AcDbEntity
  8
0
 62
7
100
AcDbSpline
 70
8
 71
3
 72
8
 73
4
 74
0
 40
0
 40
0
 40
0
 40
0
 40
1
 40
1
 40
1
 40
1
 10
155.222246
 20
10.953742
 30
0.0
 10
155.222246
 20
6.327396
 30
0.0
 10
151.460877
 20
2.565971
 30
0.0
 10
146.834554
 20
2.565971
 30
0.0
  0
SPLINE
  5
103
100
AcDbEntity
  8
0
 62
7
100
AcDbSpline
 70
8
 71
3
 72
8
 73
4
 74
0
 40
0
 40
0
 40
0
 40
0
 40
1
 40
1
 40
1
 40
1
 10
146.834554
 20
2.565971
 30
0.0
 10
142.208232
 20
2.565971
 30
0.0
 10
138.467003
 20
6.327396
 30
0.0
 10
138.467003
 20
10.953742
 30
0.0
  0
LINE
  5
104
100
AcDbEntity
  8
0
 62
7
100
AcDbLine
 10
138.467003
 20
10.953742
 30
0.0
 11
138.467003
 21
10.953742
 31
0.0
  0
SPLINE
  5
105
100
AcDbEntity
  8
0
 62
7
100
AcDbSpline
 70
8
 71
3
 72
8
 73
4
 74
0
 40
0
 40
0
 40
0
 40
0
 40
1
 40
1
 40
1
 40
1
 10
77.611742
 20
124.752881
 30
0.0
 10
81.010890
 20
124.752881
 30
0.0
 10
83.774431
 20
127.501556
 30
0.0
 10
83.774431
 20
130.900694
 30
0.0
  0
SPLINE
  5
106
100
AcDbEntity
  8
0
 62
7
100
AcDbSpline
 70
8
 71
3
 72
8
 73
4
 74
0
 40
0
 40
0
 40
0
 40
0
 40
1
 40
1
 40
1
 40
1
 10
83.774431
 20
130.900694
 30
0.0
 10
83.774431
 20
134.299839
 30
0.0
 10
81.010890
 20
137.063380
 30
0.0
 10
77.611742
 20
137.063380
 30
0.0
  0
SPLINE
  5
107
100
AcDbEntity
  8
0
 62
7
100
AcDbSpline
 70
8
 71
3
 72
8
 73
4
 74
0
 40
0
 40
0
 40
0
 40
0
 40
1
 40
1
 40
1
 40
1
 10
77.611742
 20
137.063380
 30
0.0
 10
74.212608
 20
137.063380
 30
0.0
 10
71.447811
 20
134.299839
 30
0.0
 10
71.447817
 20
130.900694
 30
0.0
  0
SPLINE
  5
108
100
AcDbEntity
  8
0
 62
7
100
AcDbSpline
 70
8
 71
3
 72
8
 73
4
 74
0
 40
0
 40
0
 40
0
 40
0
 40
1
 40
1
 40
1
 40
1
 10
71.447817
 20
130.900694
 30
0.0
 10
71.447804
 20
127.501556
 30
0.0
 10
74.212608
 20
124.752881
 30
0.0
 10
77.611742
 20
124.752881
 30
0.0
  0
LINE
  5
109
100
AcDbEntity
  8
0
 62
7
100
AcDbLine
 10
77.611742
 20
124.752881
 30
0.0
 11
77.611742
 21
124.752881
 31
0.0
  0
SPLINE
  5
10a
100
AcDbEntity
  8
0
 62
7
100
AcDbSpline
 70
8
 71
3
 72
8
 73
4
 74
0
 40
0
 40
0
 40
0
 40
0
 40
1
 40
1
 40
1
 40
1
 10
37.394462
 20
14.819798
 30
0.0
 10
44.721583
 20
14.819798
 30
0.0
 10
50.655770
 20
20.754308
 30
0.0
 10
50.655770
 20
28.081820
 30
0.0
  0
SPLINE
  5
10b
100
AcDbEntity
  8
0
 62
7
100
AcDbSpline
 70
8
 71
3
 72
8
 73
4
 74
0
 40
0
 40
0
 40
0
 40
0
 40
1
 40
1
 40
1
 40
1
 10
50.655770
 20
28.081820
 30
0.0
 10
50.655770
 20
35.409429
 30
0.0
 10
44.721583
 20
41.342422
 30
0.0
 10
37.394462
 20
41.342422
 30
0.0
  0
SPLINE
  5
10c
100
AcDbEntity
  8
0
 62
7
100
AcDbSpline
 70
8
 71
3
 72
8
 73
4
 74
0
 40
0
 40
0
 40
0
 40
0
 40
1
 40
1
 40
1
 40
1
 10
37.394462
 20
41.342422
 30
0.0
 10
30.067250
 20
41.342422
 30
0.0
 10
24.133146
 20
35.409429
 30
0.0
 10
24.133146
 20
28.081820
 30
0.0
  0
SPLINE
  5
10d
100
AcDbEntity
  8
0
 62
7
100
AcDbSpline
 70
8
 71
3
 72
8
 73
4
 74
0
 40
0
 40
0
 40
0
 40
0
 40
1
 40
1
 40
1
 40
1
 10
24.133146
 20
28.081820
 30
0.0
 10
24.133146
 20
20.754308
 30
0.0
 10
30.067250
 20
14.819798
 30
0.0
 10
37.394462
 20
14.819798
 30
0.0
  0
LINE
  5
10e
100
AcDbEntity
  8
0
 62
7
100
AcDbLine
 10
37.394462
 20
14.819798
 30
0.0
 11
37.394462
 21
14.819798
 31
0.0
  0
SPLINE
  5
10f
100
AcDbEntity
  8
0
 62
7
100
AcDbSpline
 70
8
 71
3
 72
8
 73
4
 74
0
 40
0
 40
0
 40
0
 40
0
 40
1
 40
1
 40
1
 40
1
 10
95.433222
 20
9.309674
 30
0.0
 10
103.618520
 20
8.889915
 30
0.0
 10
108.305827
 20
8.557601
 30
0.0
 10
113.972572
 20
8.050398
 30
0.0
  0
SPLINE
  5
110
100
AcDbEntity
  8
0
 62
7
100
AcDbSpline
 70
8
 71
3
 72
8
 73
4
 74
0
 40
0
 40
0
 40
0
 40
0
 40
1
 40
1
 40
1
 40
1
 10
113.972572
 20
8.050398
 30
0.0
 10
117.015824
 20
7.735578
 30
0.0
 10
119.953903
 20
7.508204
 30
0.0
 10
121.493019
 20
7.438247
 30
0.0
  0
SPLINE
  5
111
100
AcDbEntity
  8
0
 62
7
100
AcDbSpline
 70
8
 71
3
 72
8
 73
4
 74
0
 40
0
 40
0
 40
0
 40
0
 40
1
 40
1
 40
1
 40
1
 10
121.493019
 20
7.438247
 30
0.0
 10
125.848018
 20
7.210880
 30
0.0
 10
128.401551
 20
7.875493
 30
0.0
 10
128.471511
 20
9.187240
 30
0.0
  0
SPLINE
  5
112
100
AcDbEntity
  8
0
 62
7
100
AcDbSpline
 70
8
 71
3
 72
8
 73
4
 74
0
 40
0
 40
0
 40
0
 40
0
 40
1
 40
1
 40
1
 40
1
 10
128.471511
 20
9.187240
 30
0.0
 10
128.488998
 20
9.554529
 30
0.0
 10
128.191671
 20
10.009270
 30
0.0
 10
127.876852
 20
10.166679
 30
0.0
  0
SPLINE
  5
113
100
AcDbEntity
  8
0
 62
7
100
AcDbSpline
 70
8
 71
3
 72
8
 73
4
 74
0
 40
0
 40
0
 40
0
 40
0
 40
1
 40
1
 40
1
 40
1
 10
127.876852
 20
10.166679
 30
0.0
 10
124.991010
 20
11.478426
 30
0.0
 10
124.361371
 20
12.108064
 30
0.0
 10
124.431332
 20
13.332359
 30
0.0
  0
SPLINE
  5
114
100
AcDbEntity
  8
0
 62
7
100
AcDbSpline
 70
8
 71
3
 72
8
 73
4
 74
0
 40
0
 40
0
 40
0
 40
0
 40
1
 40
1
 40
1
 40
1
 10
124.431332
 20
13.332359
 30
0.0
 10
124.501296
 20
14.714070
 30
0.0
 10
126.092877
 20
15.798442
 30
0.0
 10
128.051752
 20
15.693502
 30
0.0
  0
SPLINE
  5
115
100
AcDbEntity
  8
0
 62
7
100
AcDbSpline
 70
8
 71
3
 72
8
 73
4
 74
0
 40
0
 40
0
 40
0
 40
0
 40
1
 40
1
 40
1
 40
1
 10
128.051752
 20
15.693502
 30
0.0
 10
131.007553
 20
15.553588
 30
0.0
 10
132.878979
 20
13.699648
 30
0.0
 10
132.739058
 20
11.076155
 30
0.0
  0
SPLINE
  5
116
100
AcDbEntity
  8
0
 62
7
100
AcDbSpline
 70
8
 71
3
 72
8
 73
4
 74
0
 40
0
 40
0
 40
0
 40
0
 40
1
 40
1
 40
1
 40
1
 10
132.739058
 20
11.076155
 30
0.0
 10
132.564160
 20
7.875493
 30
0.0
 10
129.276048
 20
5.496862
 30
0.0
 10
123.871653
 20
4.762284
 30
0.0
  0
SPLINE
  5
117
100
AcDbEntity
  8
0
 62
7
100
AcDbSpline
 70
8
 71
3
 72
8
 73
4
 74
0
 40
0
 40
0
 40
0
 40
0
 40
1
 40
1
 40
1
 40
1
 10
123.871653
 20
4.762284
 30
0.0
 10
117.907579
 20
3.975236
 30
0.0
 10
106.749222
 20
3.835314
 30
0.0
 10
95.275812
 20
4.429977
 30
0.0
  0
LINE
  5
118
100
AcDbEntity
  8
0
 62
7
100
AcDbLine
 10
95.275812
 20
4.429977
 30
0.0
 11
57.620176
 21
6.406337
 31
0.0
  0
SPLINE
  5
119
100
AcDbEntity
  8
0
 62
7
100
AcDbSpline
 70
8
 71
3
 72
8
 73
4
 74
0
 40
0
 40
0
 40
0
 40
0
 40
1
 40
1
 40
1
 40
1
 10
57.620176
 20
6.406337
 30
0.0
 10
50.187177
 20
6.791121
 30
0.0
 10
45.062633
 20
7.140915
 30
0.0
 10
39.186009
 20
7.665614
 30
0.0
  0
SPLINE
  5
11a
100
AcDbEntity
  8
0
 62
7
100
AcDbSpline
 70
8
 71
3
 72
8
 73
4
 74
0
 40
0
 40
0
 40
0
 40
0
 40
1
 40
1
 40
1
 40
1
 10
39.186009
 20
7.665614
 30
0.0
 10
35.915375
 20
7.980433
 30
0.0
 10
32.872123
 20
8.207807
 30
0.0
 10
31.018198
 20
8.312747
 30
0.0
  0
SPLINE
  5
11b
100
AcDbEntity
  8
0
 62
7
100
AcDbSpline
 70
8
 71
3
 72
8
 73
4
 74
0
 40
0
 40
0
 40
0
 40
0
 40
1
 40
1
 40
1
 40
1
 10
31.018198
 20
8.312747
 30
0.0
 10
27.187898
 20
8.505131
 30
0.0
 10
24.634355
 20
7.770553
 30
0.0
 10
24.564405
 20
6.388850
 30
0.0
  0
SPLINE
  5
11c
100
AcDbEntity
  8
0
 62
7
100
AcDbSpline
 70
8
 71
3
 72
8
 73
4
 74
0
 40
0
 40
0
 40
0
 40
0
 40
1
 40
1
 40
1
 40
1
 10
24.564405
 20
6.388850
 30
0.0
 10
24.529400
 20
5.794194
 30
0.0
 10
25.054114
 20
5.269495
 30
0.0
 10
26.453320
 20
4.744796
 30
0.0
  0
SPLINE
  5
11d
100
AcDbEntity
  8
0
 62
7
100
AcDbSpline
 70
8
 71
3
 72
8
 73
4
 74
0
 40
0
 40
0
 40
0
 40
0
 40
1
 40
1
 40
1
 40
1
 10
26.453320
 20
4.744796
 30
0.0
 10
28.149836
 20
4.010218
 30
0.0
 10
28.779474
 20
3.398068
 30
0.0
 10
28.727004
 20
2.366158
 30
0.0
  0
SPLINE
  5
11e
100
AcDbEntity
  8
0
 62
7
100
AcDbSpline
 70
8
 71
3
 72
8
 73
4
 74
0
 40
0
 40
0
 40
0
 40
0
 40
1
 40
1
 40
1
 40
1
 10
28.727004
 20
2.366158
 30
0.0
 10
28.656994
 20
0.984454
 30
0.0
 10
26.960531
 20
-0.082431
 30
0.0
 10
24.984164
 20
0.005014
 30
0.0
  0
SPLINE
  5
11f
100
AcDbEntity
  8
0
 62
7
100
AcDbSpline
 70
8
 71
3
 72
8
 73
4
 74
0
 40
0
 40
0
 40
0
 40
0
 40
1
 40
1
 40
1
 40
1
 10
24.984164
 20
0.005014
 30
0.0
 10
22.151025
 20
0.162424
 30
0.0
 10
20.279597
 20
2.086321
 30
0.0
 10
20.419519
 20
4.622362
 30
0.0
  0
SPLINE
  5
120
100
AcDbEntity
  8
0
 62
7
100
AcDbSpline
 70
8
 71
3
 72
8
 73
4
 74
0
 40
0
 40
0
 40
0
 40
0
 40
1
 40
1
 40
1
 40
1
 10
20.419519
 20
4.622362
 30
0.0
 10
20.594416
 20
7.910476
 30
0.0
 10
23.882297
 20
10.219149
 30
0.0
 10
29.286693
 20
10.953727
 30
0.0
  0
SPLINE
  5
121
100
AcDbEntity
  8
0
 62
7
100
AcDbSpline
 70
8
 71
3
 72
8
 73
4
 74
0
 40
0
 40
0
 40
0
 40
0
 40
1
 40
1
 40
1
 40
1
 10
29.286693
 20
10.953727
 30
0.0
 10
35.233267
 20
11.740775
 30
0.0
 10
46.304407
 20
11.880697
 30
0.0
 10
57.882526
 20
11.286034
 30
0.0
  0
LINE
  5
122
100
AcDbEntity
  8
0
 62
7
100
AcDbLine
 10
57.882526
 20
11.286034
 30
0.0
 11
95.433222
 21
9.309674
 31
0.0
  0
SPLINE
  5
123
100
AcDbEntity
  8
0
 62
7
100
AcDbSpline
 70
8
 71
3
 72
8
 73
4
 74
0
 40
0
 40
0
 40
0
 40
0
 40
1
 40
1
 40
1
 40
1
 10
32.662244
 20
56.339698
 30
0.0
 10
28.202306
 20
49.466146
 30
0.0
 10
25.578813
 20
45.566107
 30
0.0
 10
22.308434
 20
40.913784
 30
0.0
  0
SPLINE
  5
124
100
AcDbEntity
  8
0
 62
7
100
AcDbSpline
 70
8
 71
3
 72
8
 73
4
 74
0
 40
0
 40
0
 40
0
 40
0
 40
1
 40
1
 40
1
 40
1
 10
22.308434
 20
40.913784
 30
0.0
 10
20.506964
 20
38.430206
 30
0.0
 10
18.845423
 20
35.999105
 30
0.0
 10
18.005906
 20
34.704846
 30
0.0
  0
SPLINE
  5
125
100
AcDbEntity
  8
0
 62
7
100
AcDbSpline
 70
8
 71
3
 72
8
 73
4
 74
0
 40
0
 40
0
 40
0
 40
0
 40
1
 40
1
 40
1
 40
1
 10
18.005906
 20
34.704846
 30
0.0
 10
15.627267
 20
31.049451
 30
0.0
 10
14.927671
 20
28.495915
 30
0.0
 10
16.029538
 20
27.778824
 30
0.0
  0
SPLINE
  5
126
100
AcDbEntity
  8
0
 62
7
100
AcDbSpline
 70
8
 71
3
 72
8
 73
4
 74
0
 40
0
 40
0
 40
0
 40
0
 40
1
 40
1
 40
1
 40
1
 10
16.029538
 20
27.778824
 30
0.0
 10
16.344358
 20
27.586440
 30
0.0
 10
16.886544
 20
27.621415
 30
0.0
 10
17.183875
 20
27.813829
 30
0.0
  0
SPLINE
  5
127
100
AcDbEntity
  8
0
 62
7
100
AcDbSpline
 70
8
 71
3
 72
8
 73
4
 74
0
 40
0
 40
0
 40
0
 40
0
 40
1
 40
1
 40
1
 40
1
 10
17.183875
 20
27.813829
 30
0.0
 10
19.772386
 20
29.650275
 30
0.0
 10
20.611904
 20
29.895144
 30
0.0
 10
21.661301
 20
29.213036
 30
0.0
  0
SPLINE
  5
128
100
AcDbEntity
  8
0
 62
7
100
AcDbSpline
 70
8
 71
3
 72
8
 73
4
 74
0
 40
0
 40
0
 40
0
 40
0
 40
1
 40
1
 40
1
 40
1
 10
21.661301
 20
29.213036
 30
0.0
 10
22.815638
 20
28.460955
 30
0.0
 10
22.955560
 20
26.537073
 30
0.0
 10
21.888675
 20
24.893005
 30
0.0
  0
SPLINE
  5
129
100
AcDbEntity
  8
0
 62
7
100
AcDbSpline
 70
8
 71
3
 72
8
 73
4
 74
0
 40
0
 40
0
 40
0
 40
0
 40
1
 40
1
 40
1
 40
1
 10
21.888675
 20
24.893005
 30
0.0
 10
20.279597
 20
22.409434
 30
0.0
 10
17.743556
 20
21.727326
 30
0.0
 10
15.539822
 20
23.144012
 30
0.0
  0
SPLINE
  5
12a
100
AcDbEntity
  8
0
 62
7
100
AcDbSpline
 70
8
 71
3
 72
8
 73
4
 74
0
 40
0
 40
0
 40
0
 40
0
 40
1
 40
1
 40
1
 40
1
 10
15.539822
 20
23.144012
 30
0.0
 10
12.846364
 20
24.893005
 30
0.0
 10
12.444101
 20
28.950686
 30
0.0
 10
14.507913
 20
33.987793
 30
0.0
  0
SPLINE
  5
12b
100
AcDbEntity
  8
0
 62
7
100
AcDbSpline
 70
8
 71
3
 72
8
 73
4
 74
0
 40
0
 40
0
 40
0
 40
0
 40
1
 40
1
 40
1
 40
1
 10
14.507913
 20
33.987793
 30
0.0
 10
16.799099
 20
39.532096
 30
0.0
 10
22.255964
 20
49.291264
 30
0.0
 10
28.517125
 20
58.910743
 30
0.0
  0
LINE
  5
12c
100
AcDbEntity
  8
0
 62
7
100
AcDbLine
 10
28.517125
 20
58.910743
 30
0.0
 11
49.050342
 21
90.532318
 31
0.0
  0
SPLINE
  5
12d
100
AcDbEntity
  8
0
 62
7
100
AcDbSpline
 70
8
 71
3
 72
8
 73
4
 74
0
 40
0
 40
0
 40
0
 40
0
 40
1
 40
1
 40
1
 40
1
 10
49.050342
 20
90.532318
 30
0.0
 10
53.108009
 20
96.776232
 30
0.0
 10
55.958636
 20
101.043770
 30
0.0
 10
59.351682
 20
105.870997
 30
0.0
  0
SPLINE
  5
12e
100
AcDbEntity
  8
0
 62
7
100
AcDbSpline
 70
8
 71
3
 72
8
 73
4
 74
0
 40
0
 40
0
 40
0
 40
0
 40
1
 40
1
 40
1
 40
1
 10
59.351682
 20
105.870997
 30
0.0
 10
61.258092
 20
108.546960
 30
0.0
 10
62.989597
 20
111.065513
 30
0.0
 10
64.004012
 20
112.621889
 30
0.0
  0
SPLINE
  5
12f
100
AcDbEntity
  8
0
 62
7
100
AcDbSpline
 70
8
 71
3
 72
8
 73
4
 74
0
 40
0
 40
0
 40
0
 40
0
 40
1
 40
1
 40
1
 40
1
 10
64.004012
 20
112.621889
 30
0.0
 10
66.085319
 20
115.840045
 30
0.0
 10
66.732445
 20
118.428556
 30
0.0
 10
65.560620
 20
119.180621
 30
0.0
  0
SPLINE
  5
130
100
AcDbEntity
  8
0
 62
7
100
AcDbSpline
 70
8
 71
3
 72
8
 73
4
 74
0
 40
0
 40
0
 40
0
 40
0
 40
1
 40
1
 40
1
 40
1
 10
65.560620
 20
119.180621
 30
0.0
 10
65.070896
 20
119.495440
 30
0.0
 10
64.353813
 20
119.320543
 30
0.0
 10
63.216964
 20
118.358598
 30
0.0
  0
SPLINE
  5
131
100
AcDbEntity
  8
0
 62
7
100
AcDbSpline
 70
8
 71
3
 72
8
 73
4
 74
0
 40
0
 40
0
 40
0
 40
0
 40
1
 40
1
 40
1
 40
1
 10
63.216964
 20
118.358598
 30
0.0
 10
61.712825
 20
117.256731
 30
0.0
 10
60.855820
 20
117.011870
 30
0.0
 10
59.998815
 20
117.571551
 30
0.0
  0
SPLINE
  5
132
100
AcDbEntity
  8
0
 62
7
100
AcDbSpline
 70
8
 71
3
 72
8
 73
4
 74
0
 40
0
 40
0
 40
0
 40
0
 40
1
 40
1
 40
1
 40
1
 10
59.998815
 20
117.571551
 30
0.0
 10
58.844478
 20
118.323616
 30
0.0
 10
58.757026
 20
120.334958
 30
0.0
 10
59.823911
 20
121.996506
 30
0.0
  0
SPLINE
  5
133
100
AcDbEntity
  8
0
 62
7
100
AcDbSpline
 70
8
 71
3
 72
8
 73
4
 74
0
 40
0
 40
0
 40
0
 40
0
 40
1
 40
1
 40
1
 40
1
 10
59.823911
 20
121.996506
 30
0.0
 10
61.380519
 20
124.375137
 30
0.0
 10
63.969029
 20
125.022271
 30
0.0
 10
66.120294
 20
123.640559
 30
0.0
  0
SPLINE
  5
134
100
AcDbEntity
  8
0
 62
7
100
AcDbSpline
 70
8
 71
3
 72
8
 73
4
 74
0
 40
0
 40
0
 40
0
 40
0
 40
1
 40
1
 40
1
 40
1
 10
66.120294
 20
123.640559
 30
0.0
 10
68.866221
 20
121.856584
 30
0.0
 10
69.216015
 20
117.851387
 30
0.0
 10
67.152203
 20
112.796793
 30
0.0
  0
SPLINE
  5
135
100
AcDbEntity
  8
0
 62
7
100
AcDbSpline
 70
8
 71
3
 72
8
 73
4
 74
0
 40
0
 40
0
 40
0
 40
0
 40
1
 40
1
 40
1
 40
1
 10
67.152203
 20
112.796793
 30
0.0
 10
64.861017
 20
107.252716
 30
0.0
 10
59.456622
 20
97.598262
 30
0.0
 10
53.142991
 20
87.873835
 30
0.0
  0
LINE
  5
136
100
AcDbEntity
  8
0
 62
7
100
AcDbLine
 10
53.142991
 20
87.873835
 30
0.0
 11
32.662244
 21
56.339698
 31
0.0
  0
SPLINE
  5
137
100
AcDbEntity
  8
0
 62
7
100
AcDbSpline
 70
8
 71
3
 72
8
 73
4
 74
0
 40
0
 40
0
 40
0
 40
0
 40
1
 40
1
 40
1
 40
1
 10
104.737877
 20
87.156752
 30
0.0
 10
101.012517
 20
94.467558
 30
0.0
 10
98.948702
 20
98.682626
 30
0.0
 10
96.570070
 20
103.842168
 30
0.0
  0
SPLINE
  5
138
100
AcDbEntity
  8
0
 62
7
100
AcDbSpline
 70
8
 71
3
 72
8
 73
4
 74
0
 40
0
 40
0
 40
0
 40
0
 40
1
 40
1
 40
1
 40
1
 10
96.570070
 20
103.842168
 30
0.0
 10
95.310793
 20
106.640565
 30
0.0
 10
94.034025
 20
109.299033
 30
0.0
 10
93.334427
 20
110.663249
 30
0.0
  0
SPLINE
  5
139
100
AcDbEntity
  8
0
 62
7
100
AcDbSpline
 70
8
 71
3
 72
8
 73
4
 74
0
 40
0
 40
0
 40
0
 40
0
 40
1
 40
1
 40
1
 40
1
 10
93.334427
 20
110.663249
 30
0.0
 10
91.358063
 20
114.563274
 30
0.0
 10
89.486639
 20
116.434701
 30
0.0
 10
88.332302
 20
115.840038
 30
0.0
  0
SPLINE
  5
13a
100
AcDbEntity
  8
0
 62
7
100
AcDbSpline
 70
8
 71
3
 72
8
 73
4
 74
0
 40
0
 40
0
 40
0
 40
0
 40
1
 40
1
 40
1
 40
1
 10
88.332302
 20
115.840038
 30
0.0
 10
87.999992
 20
115.682628
 30
0.0
 10
87.755133
 20
115.192912
 30
0.0
 10
87.772622
 20
114.825623
 30
0.0
  0
SPLINE
  5
13b
100
AcDbEntity
  8
0
 62
7
100
AcDbSpline
 70
8
 71
3
 72
8
 73
4
 74
0
 40
0
 40
0
 40
0
 40
0
 40
1
 40
1
 40
1
 40
1
 10
87.772622
 20
114.825623
 30
0.0
 10
88.087442
 20
111.677431
 30
0.0
 10
87.860073
 20
110.820659
 30
0.0
 10
86.758206
 20
110.260986
 30
0.0
  0
SPLINE
  5
13c
100
AcDbEntity
  8
0
 62
7
100
AcDbSpline
 70
8
 71
3
 72
8
 73
4
 74
0
 40
0
 40
0
 40
0
 40
0
 40
1
 40
1
 40
1
 40
1
 10
86.758206
 20
110.260986
 30
0.0
 10
85.516653
 20
109.631347
 30
0.0
 10
83.785147
 20
110.470865
 30
0.0
 10
82.893160
 20
112.219617
 30
0.0
  0
SPLINE
  5
13d
100
AcDbEntity
  8
0
 62
7
100
AcDbSpline
 70
8
 71
3
 72
8
 73
4
 74
0
 40
0
 40
0
 40
0
 40
0
 40
1
 40
1
 40
1
 40
1
 10
82.893160
 20
112.219617
 30
0.0
 10
81.546430
 20
114.843110
 30
0.0
 10
82.228538
 20
117.396646
 30
0.0
 10
84.554705
 20
118.585965
 30
0.0
  0
SPLINE
  5
13e
100
AcDbEntity
  8
0
 62
7
100
AcDbSpline
 70
8
 71
3
 72
8
 73
4
 74
0
 40
0
 40
0
 40
0
 40
0
 40
1
 40
1
 40
1
 40
1
 10
84.554705
 20
118.585965
 30
0.0
 10
87.422823
 20
120.037626
 30
0.0
 10
91.130693
 20
118.376086
 30
0.0
 10
94.471275
 20
114.073557
 30
0.0
  0
SPLINE
  5
13f
100
AcDbEntity
  8
0
 62
7
100
AcDbSpline
 70
8
 71
3
 72
8
 73
4
 74
0
 40
0
 40
0
 40
0
 40
0
 40
1
 40
1
 40
1
 40
1
 10
94.471275
 20
114.073557
 30
0.0
 10
98.126674
 20
109.299033
 30
0.0
 10
103.828399
 20
99.697049
 30
0.0
 10
109.040405
 20
89.465426
 30
0.0
  0
LINE
  5
140
100
AcDbEntity
  8
0
 62
7
100
AcDbLine
 10
109.040405
 20
89.465426
 30
0.0
 11
126.162837
 21
55.867469
 31
0.0
  0
SPLINE
  5
141
100
AcDbEntity
  8
0
 62
7
100
AcDbSpline
 70
8
 71
3
 72
8
 73
4
 74
0
 40
0
 40
0
 40
0
 40
0
 40
1
 40
1
 40
1
 40
1
 10
126.162837
 20
55.867469
 30
0.0
 10
129.538398
 20
49.238764
 30
0.0
 10
131.812091
 20
44.639144
 30
0.0
 10
134.295665
 20
39.269724
 30
0.0
  0
SPLINE
  5
142
100
AcDbEntity
  8
0
 62
7
100
AcDbSpline
 70
8
 71
3
 72
8
 73
4
 74
0
 40
0
 40
0
 40
0
 40
0
 40
1
 40
1
 40
1
 40
1
 10
134.295665
 20
39.269724
 30
0.0
 10
135.642391
 20
36.296437
 30
0.0
 10
136.971628
 20
33.533022
 30
0.0
 10
137.811146
 20
31.871474
 30
0.0
  0
SPLINE
  5
143
100
AcDbEntity
  8
0
 62
7
100
AcDbSpline
 70
8
 71
3
 72
8
 73
4
 74
0
 40
0
 40
0
 40
0
 40
0
 40
1
 40
1
 40
1
 40
1
 10
137.811146
 20
31.871474
 30
0.0
 10
139.560140
 20
28.460933
 30
0.0
 10
141.484036
 20
26.624488
 30
0.0
 10
142.708263
 20
27.254126
 30
0.0
  0
SPLINE
  5
144
100
AcDbEntity
  8
0
 62
7
100
AcDbSpline
 70
8
 71
3
 72
8
 73
4
 74
0
 40
0
 40
0
 40
0
 40
0
 40
1
 40
1
 40
1
 40
1
 10
142.708263
 20
27.254126
 30
0.0
 10
143.232961
 20
27.516475
 30
0.0
 10
143.442841
 20
28.233566
 30
0.0
 10
143.180491
 20
29.702722
 30
0.0
  0
SPLINE
  5
145
100
AcDbEntity
  8
0
 62
7
100
AcDbSpline
 70
8
 71
3
 72
8
 73
4
 74
0
 40
0
 40
0
 40
0
 40
0
 40
1
 40
1
 40
1
 40
1
 10
143.180491
 20
29.702722
 30
0.0
 10
142.970612
 20
31.556654
 30
0.0
 10
143.197986
 20
32.396172
 30
0.0
 10
144.107459
 20
32.868401
 30
0.0
  0
SPLINE
  5
146
100
AcDbEntity
  8
0
 62
7
100
AcDbSpline
 70
8
 71
3
 72
8
 73
4
 74
0
 40
0
 40
0
 40
0
 40
0
 40
1
 40
1
 40
1
 40
1
 10
144.107459
 20
32.868401
 30
0.0
 10
145.331732
 20
33.498039
 30
0.0
 10
147.115707
 20
32.571077
 30
0.0
 10
148.007671
 20
30.804589
 30
0.0
  0
SPLINE
  5
147
100
AcDbEntity
  8
0
 62
7
100
AcDbSpline
 70
8
 71
3
 72
8
 73
4
 74
0
 40
0
 40
0
 40
0
 40
0
 40
1
 40
1
 40
1
 40
1
 10
148.007671
 20
30.804589
 30
0.0
 10
149.301928
 20
28.286036
 30
0.0
 10
148.567350
 20
25.697525
 30
0.0
 10
146.293679
 20
24.543188
 30
0.0
  0
SPLINE
  5
148
100
AcDbEntity
  8
0
 62
7
100
AcDbSpline
 70
8
 71
3
 72
8
 73
4
 74
0
 40
0
 40
0
 40
0
 40
0
 40
1
 40
1
 40
1
 40
1
 10
146.293679
 20
24.543188
 30
0.0
 10
143.372881
 20
23.056537
 30
0.0
 10
139.735040
 20
24.753068
 30
0.0
 10
136.394460
 20
29.055596
 30
0.0
  0
SPLINE
  5
149
100
AcDbEntity
  8
0
 62
7
100
AcDbSpline
 70
8
 71
3
 72
8
 73
4
 74
0
 40
0
 40
0
 40
0
 40
0
 40
1
 40
1
 40
1
 40
1
 10
136.394460
 20
29.055596
 30
0.0
 10
132.739058
 20
33.830353
 30
0.0
 10
127.072314
 20
43.327398
 30
0.0
 10
121.807839
 20
53.646232
 30
0.0
  0
LINE
  5
14a
100
AcDbEntity
  8
0
 62
7
100
AcDbLine
 10
121.807839
 20
53.646232
 30
0.0
 11
104.737877
 21
87.156752
 31
0.0
  0
SPLINE
  5
14b
100
AcDbEntity
  8
0
 62
7
100
AcDbSpline
 70
8
 71
3
 72
8
 73
4
 74
0
 40
0
 40
0
 40
0
 40
0
 40
1
 40
1
 40
1
 40
1
 10
64.205583
 20
14.819810
 30
0.0
 10
71.532714
 20
14.819810
 30
0.0
 10
77.466901
 20
20.754316
 30
0.0
 10
77.466901
 20
28.081831
 30
0.0
  0
SPLINE
  5
14c
100
AcDbEntity
  8
0
 62
7
100
AcDbSpline
 70
8
 71
3
 72
8
 73
4
 74
0
 40
0
 40
0
 40
0
 40
0
 40
1
 40
1
 40
1
 40
1
 10
77.466901
 20
28.081831
 30
0.0
 10
77.466901
 20
35.409442
 30
0.0
 10
71.532714
 20
41.342423
 30
0.0
 10
64.205583
 20
41.342423
 30
0.0
  0
SPLINE
  5
14d
100
AcDbEntity
  8
0
 62
7
100
AcDbSpline
 70
8
 71
3
 72
8
 73
4
 74
0
 40
0
 40
0
 40
0
 40
0
 40
1
 40
1
 40
1
 40
1
 10
64.205583
 20
41.342423
 30
0.0
 10
56.878369
 20
41.342423
 30
0.0
 10
50.944274
 20
35.409442
 30
0.0
 10
50.944274
 20
28.081831
 30
0.0
  0
SPLINE
  5
14e
100
AcDbEntity
  8
0
 62
7
100
AcDbSpline
 70
8
 71
3
 72
8
 73
4
 74
0
 40
0
 40
0
 40
0
 40
0
 40
1
 40
1
 40
1
 40
1
 10
50.944274
 20
28.081831
 30
0.0
 10
50.944274
 20
20.754316
 30
0.0
 10
56.878369
 20
14.819810
 30
0.0
 10
64.205583
 20
14.819810
 30
0.0
  0
LINE
  5
14f
100
AcDbEntity
  8
0
 62
7
100
AcDbLine
 10
64.205583
 20
14.819810
 30
0.0
 11
64.205583
 21
14.819810
 31
0.0
  0
SPLINE
  5
150
100
AcDbEntity
  8
0
 62
7
100
AcDbSpline
 70
8
 71
3
 72
8
 73
4
 74
0
 40
0
 40
0
 40
0
 40
0
 40
1
 40
1
 40
1
 40
1
 10
91.016736
 20
14.819798
 30
0.0
 10
98.343853
 20
14.819798
 30
0.0
 10
104.278045
 20
20.754308
 30
0.0
 10
104.278045
 20
28.081820
 30
0.0
  0
SPLINE
  5
151
100
AcDbEntity
  8
0
 62
7
100
AcDbSpline
 70
8
 71
3
 72
8
 73
4
 74
0
 40
0
 40
0
 40
0
 40
0
 40
1
 40
1
 40
1
 40
1
 10
104.278045
 20
28.081820
 30
0.0
 10
104.278045
 20
35.409429
 30
0.0
 10
98.343853
 20
41.342422
 30
0.0
 10
91.016736
 20
41.342422
 30
0.0
  0
SPLINE
  5
152
100
AcDbEntity
  8
0
 62
7
100
AcDbSpline
 70
8
 71
3
 72
8
 73
4
 74
0
 40
0
 40
0
 40
0
 40
0
 40
1
 40
1
 40
1
 40
1
 10
91.016736
 20
41.342422
 30
0.0
 10
83.689519
 20
41.342422
 30
0.0
 10
77.755425
 20
35.409429
 30
0.0
 10
77.755425
 20
28.081820
 30
0.0
  0
SPLINE
  5
153
100
AcDbEntity
  8
0
 62
7
100
AcDbSpline
 70
8
 71
3
 72
8
 73
4
 74
0
 40
0
 40
0
 40
0
 40
0
 40
1
 40
1
 40
1
 40
1
 10
77.755425
 20
28.081820
 30
0.0
 10
77.755425
 20
20.754308
 30
0.0
 10
83.689519
 20
14.819798
 30
0.0
 10
91.016736
 20
14.819798
 30
0.0
  0
LINE
  5
154
100
AcDbEntity
  8
0
 62
7
100
AcDbLine
 10
91.016736
 20
14.819798
 30
0.0
 11
91.016736
 21
14.819798
 31
0.0
  0
SPLINE
  5
155
100
AcDbEntity
  8
0
 62
7
100
AcDbSpline
 70
8
 71
3
 72
8
 73
4
 74
0
 40
0
 40
0
 40
0
 40
0
 40
1
 40
1
 40
1
 40
1
 10
117.827674
 20
14.820003
 30
0.0
 10
125.154806
 20
14.820003
 30
0.0
 10
131.088994
 20
20.754507
 30
0.0
 10
131.088994
 20
28.082022
 30
0.0
  0
SPLINE
  5
156
100
AcDbEntity
  8
0
 62
7
100
AcDbSpline
 70
8
 71
3
 72
8
 73
4
 74
0
 40
0
 40
0
 40
0
 40
0
 40
1
 40
1
 40
1
 40
1
 10
131.088994
 20
28.082022
 30
0.0
 10
131.088994
 20
35.409631
 30
0.0
 10
125.154806
 20
41.342611
 30
0.0
 10
117.827674
 20
41.342611
 30
0.0
  0
SPLINE
  5
157
100
AcDbEntity
  8
0
 62
7
100
AcDbSpline
 70
8
 71
3
 72
8
 73
4
 74
0
 40
0
 40
0
 40
0
 40
0
 40
1
 40
1
 40
1
 40
1
 10
117.827674
 20
41.342611
 30
0.0
 10
110.500459
 20
41.342611
 30
0.0
 10
104.566363
 20
35.409631
 30
0.0
 10
104.566363
 20
28.082022
 30
0.0
  0
SPLINE
  5
158
100
AcDbEntity
  8
0
 62
7
100
AcDbSpline
 70
8
 71
3
 72
8
 73
4
 74
0
 40
0
 40
0
 40
0
 40
0
 40
1
 40
1
 40
1
 40
1
 10
104.566363
 20
28.082022
 30
0.0
 10
104.566363
 20
20.754507
 30
0.0
 10
110.500459
 20
14.820003
 30
0.0
 10
117.827674
 20
14.820003
 30
0.0
  0
LINE
  5
159
100
AcDbEntity
  8
0
 62
7
100
AcDbLine
 10
117.827674
 20
14.820003
 30
0.0
 11
117.827674
 21
14.820003
 31
0.0
  0
SPLINE
  5
15a
100
AcDbEntity
  8
0
 62
7
100
AcDbSpline
 70
8
 71
3
 72
8
 73
4
 74
0
 40
0
 40
0
 40
0
 40
0
 40
1
 40
1
 40
1
 40
1
 10
50.800041
 20
38.038894
 30
0.0
 10
58.127155
 20
38.038894
 30
0.0
 10
64.061342
 20
43.973404
 30
0.0
 10
64.061342
 20
51.300916
 30
0.0
  0
SPLINE
  5
15b
100
AcDbEntity
  8
0
 62
7
100
AcDbSpline
 70
8
 71
3
 72
8
 73
4
 74
0
 40
0
 40
0
 40
0
 40
0
 40
1
 40
1
 40
1
 40
1
 10
64.061342
 20
51.300916
 30
0.0
 10
64.061342
 20
58.628525
 30
0.0
 10
58.127155
 20
64.561518
 30
0.0
 10
50.800041
 20
64.561518
 30
0.0
  0
SPLINE
  5
15c
100
AcDbEntity
  8
0
 62
7
100
AcDbSpline
 70
8
 71
3
 72
8
 73
4
 74
0
 40
0
 40
0
 40
0
 40
0
 40
1
 40
1
 40
1
 40
1
 10
50.800041
 20
64.561518
 30
0.0
 10
43.472822
 20
64.561518
 30
0.0
 10
37.538725
 20
58.628525
 30
0.0
 10
37.538725
 20
51.300916
 30
0.0
  0
SPLINE
  5
15d
100
AcDbEntity
  8
0
 62
7
100
AcDbSpline
 70
8
 71
3
 72
8
 73
4
 74
0
 40
0
 40
0
 40
0
 40
0
 40
1
 40
1
 40
1
 40
1
 10
37.538725
 20
51.300916
 30
0.0
 10
37.538725
 20
43.973404
 30
0.0
 10
43.472822
 20
38.038894
 30
0.0
 10
50.800041
 20
38.038894
 30
0.0
  0
LINE
  5
15e
100
AcDbEntity
  8
0
 62
7
100
AcDbLine
 10
50.800041
 20
38.038894
 30
0.0
 11
50.800041
 21
38.038894
 31
0.0
  0
SPLINE
  5
15f
100
AcDbEntity
  8
0
 62
7
100
AcDbSpline
 70
8
 71
3
 72
8
 73
4
 74
0
 40
0
 40
0
 40
0
 40
0
 40
1
 40
1
 40
1
 40
1
 10
77.610966
 20
38.039104
 30
0.0
 10
84.938098
 20
38.039104
 30
0.0
 10
90.872286
 20
43.973609
 30
0.0
 10
90.872286
 20
51.301123
 30
0.0
  0
SPLINE
  5
160
100
AcDbEntity
  8
0
 62
7
100
AcDbSpline
 70
8
 71
3
 72
8
 73
4
 74
0
 40
0
 40
0
 40
0
 40
0
 40
1
 40
1
 40
1
 40
1
 10
90.872286
 20
51.301123
 30
0.0
 10
90.872286
 20
58.628732
 30
0.0
 10
84.938098
 20
64.561712
 30
0.0
 10
77.610966
 20
64.561712
 30
0.0
  0
SPLINE
  5
161
100
AcDbEntity
  8
0
 62
7
100
AcDbSpline
 70
8
 71
3
 72
8
 73
4
 74
0
 40
0
 40
0
 40
0
 40
0
 40
1
 40
1
 40
1
 40
1
 10
77.610966
 20
64.561712
 30
0.0
 10
70.283751
 20
64.561712
 30
0.0
 10
64.349654
 20
58.628732
 30
0.0
 10
64.349654
 20
51.301123
 30
0.0
  0
SPLINE
  5
162
100
AcDbEntity
  8
0
 62
7
100
AcDbSpline
 70
8
 71
3
 72
8
 73
4
 74
0
 40
0
 40
0
 40
0
 40
0
 40
1
 40
1
 40
1
 40
1
 10
64.349654
 20
51.301123
 30
0.0
 10
64.349654
 20
43.973609
 30
0.0
 10
70.283751
 20
38.039104
 30
0.0
 10
77.610966
 20
38.039104
 30
0.0
  0
LINE
  5
163
100
AcDbEntity
  8
0
 62
7
100
AcDbLine
 10
77.610966
 20
38.039104
 30
0.0
 11
77.610966
 21
38.039104
 31
0.0
  0
SPLINE
  5
164
100
AcDbEntity
  8
0
 62
7
100
AcDbSpline
 70
8
 71
3
 72
8
 73
4
 74
0
 40
0
 40
0
 40
0
 40
0
 40
1
 40
1
 40
1
 40
1
 10
64.205598
 20
61.257998
 30
0.0
 10
71.532727
 20
61.257998
 30
0.0
 10
77.466909
 20
67.192508
 30
0.0
 10
77.466909
 20
74.520020
 30
0.0
  0
SPLINE
  5
165
100
AcDbEntity
  8
0
 62
7
100
AcDbSpline
 70
8
 71
3
 72
8
 73
4
 74
0
 40
0
 40
0
 40
0
 40
0
 40
1
 40
1
 40
1
 40
1
 10
77.466909
 20
74.520020
 30
0.0
 10
77.466909
 20
81.847629
 30
0.0
 10
71.532727
 20
87.780622
 30
0.0
 10
64.205598
 20
87.780622
 30
0.0
  0
SPLINE
  5
166
100
AcDbEntity
  8
0
 62
7
100
AcDbSpline
 70
8
 71
3
 72
8
 73
4
 74
0
 40
0
 40
0
 40
0
 40
0
 40
1
 40
1
 40
1
 40
1
 10
64.205598
 20
87.780622
 30
0.0
 10
56.878387
 20
87.780622
 30
0.0
 10
50.944290
 20
81.847629
 30
0.0
 10
50.944290
 20
74.520020
 30
0.0
  0
SPLINE
  5
167
100
AcDbEntity
  8
0
 62
7
100
AcDbSpline
 70
8
 71
3
 72
8
 73
4
 74
0
 40
0
 40
0
 40
0
 40
0
 40
1
 40
1
 40
1
 40
1
 10
50.944290
 20
74.520020
 30
0.0
 10
50.944290
 20
67.192508
 30
0.0
 10
56.878387
 20
61.257998
 30
0.0
 10
64.205598
 20
61.257998
 30
0.0
  0
LINE
  5
168
100
AcDbEntity
  8
0
 62
7
100
AcDbLine
 10
64.205598
 20
61.257998
 30
0.0
 11
64.205598
 21
61.257998
 31
0.0
  0
SPLINE
  5
169
100
AcDbEntity
  8
0
 62
7
100
AcDbSpline
 70
8
 71
3
 72
8
 73
4
 74
0
 40
0
 40
0
 40
0
 40
0
 40
1
 40
1
 40
1
 40
1
 10
91.016736
 20
61.257998
 30
0.0
 10
98.343861
 20
61.257998
 30
0.0
 10
104.278045
 20
67.192508
 30
0.0
 10
104.278045
 20
74.520020
 30
0.0
  0
SPLINE
  5
16a
100
AcDbEntity
  8
0
 62
7
100
AcDbSpline
 70
8
 71
3
 72
8
 73
4
 74
0
 40
0
 40
0
 40
0
 40
0
 40
1
 40
1
 40
1
 40
1
 10
104.278045
 20
74.520020
 30
0.0
 10
104.278045
 20
81.847629
 30
0.0
 10
98.343861
 20
87.780622
 30
0.0
 10
91.016736
 20
87.780622
 30
0.0
  0
SPLINE
  5
16b
100
AcDbEntity
  8
0
 62
7
100
AcDbSpline
 70
8
 71
3
 72
8
 73
4
 74
0
 40
0
 40
0
 40
0
 40
0
 40
1
 40
1
 40
1
 40
1
 10
91.016736
 20
87.780622
 30
0.0
 10
83.689527
 20
87.780622
 30
0.0
 10
77.755426
 20
81.847629
 30
0.0
 10
77.755426
 20
74.520020
 30
0.0
  0
SPLINE
  5
16c
100
AcDbEntity
  8
0
 62
7
100
AcDbSpline
 70
8
 71
3
 72
8
 73
4
 74
0
 40
0
 40
0
 40
0
 40
0
 40
1
 40
1
 40
1
 40
1
 10
77.755426
 20
74.520020
 30
0.0
 10
77.755426
 20
67.192508
 30
0.0
 10
83.689527
 20
61.257998
 30
0.0
 10
91.016736
 20
61.257998
 30
0.0
  0
LINE
  5
16d
100
AcDbEntity
  8
0
 62
7
100
AcDbLine
 10
91.016736
 20
61.257998
 30
0.0
 11
91.016736
 21
61.257998
 31
0.0
  0
SPLINE
  5
16e
100
AcDbEntity
  8
0
 62
7
100
AcDbSpline
 70
8
 71
3
 72
8
 73
4
 74
0
 40
0
 40
0
 40
0
 40
0
 40
1
 40
1
 40
1
 40
1
 10
77.611172
 20
84.477094
 30
0.0
 10
84.938293
 20
84.477094
 30
0.0
 10
90.872480
 20
90.411604
 30
0.0
 10
90.872480
 20
97.739115
 30
0.0
  0
SPLINE
  5
16f
100
AcDbEntity
  8
0
 62
7
100
AcDbSpline
 70
8
 71
3
 72
8
 73
4
 74
0
 40
0
 40
0
 40
0
 40
0
 40
1
 40
1
 40
1
 40
1
 10
90.872480
 20
97.739115
 30
0.0
 10
90.872480
 20
105.066725
 30
0.0
 10
84.938293
 20
110.999718
 30
0.0
 10
77.611172
 20
110.999718
 30
0.0
  0
SPLINE
  5
170
100
AcDbEntity
  8
0
 62
7
100
AcDbSpline
 70
8
 71
3
 72
8
 73
4
 74
0
 40
0
 40
0
 40
0
 40
0
 40
1
 40
1
 40
1
 40
1
 10
77.611172
 20
110.999718
 30
0.0
 10
70.283967
 20
110.999718
 30
0.0
 10
64.349862
 20
105.066725
 30
0.0
 10
64.349862
 20
97.739115
 30
0.0
  0
SPLINE
  5
171
100
AcDbEntity
  8
0
 62
7
100
AcDbSpline
 70
8
 71
3
 72
8
 73
4
 74
0
 40
0
 40
0
 40
0
 40
0
 40
1
 40
1
 40
1
 40
1
 10
64.349862
 20
97.739115
 30
0.0
 10
64.349862
 20
90.411604
 30
0.0
 10
70.283967
 20
84.477094
 30
0.0
 10
77.611172
 20
84.477094
 30
0.0
  0
LINE
  5
172
100
AcDbEntity
  8
0
 62
7
100
AcDbLine
 10
77.611172
 20
84.477094
 30
0.0
 11
77.611172
 21
84.477094
 31
0.0
  0
SPLINE
  5
173
100
AcDbEntity
  8
0
 62
7
100
AcDbSpline
 70
8
 71
3
 72
8
 73
4
 74
0
 40
0
 40
0
 40
0
 40
0
 40
1
 40
1
 40
1
 40
1
 10
104.422106
 20
38.039104
 30
0.0
 10
111.749237
 20
38.039104
 30
0.0
 10
117.683426
 20
43.973609
 30
0.0
 10
117.683426
 20
51.301123
 30
0.0
  0
SPLINE
  5
174
100
AcDbEntity
  8
0
 62
7
100
AcDbSpline
 70
8
 71
3
 72
8
 73
4
 74
0
 40
0
 40
0
 40
0
 40
0
 40
1
 40
1
 40
1
 40
1
 10
117.683426
 20
51.301123
 30
0.0
 10
117.683426
 20
58.628732
 30
0.0
 10
111.749237
 20
64.561712
 30
0.0
 10
104.422106
 20
64.561712
 30
0.0
  0
SPLINE
  5
175
100
AcDbEntity
  8
0
 62
7
100
AcDbSpline
 70
8
 71
3
 72
8
 73
4
 74
0
 40
0
 40
0
 40
0
 40
0
 40
1
 40
1
 40
1
 40
1
 10
104.422106
 20
64.561712
 30
0.0
 10
97.094890
 20
64.561712
 30
0.0
 10
91.160794
 20
58.628732
 30
0.0
 10
91.160794
 20
51.301123
 30
0.0
  0
SPLINE
  5
176
100
AcDbEntity
  8
0
 62
7
100
AcDbSpline
 70
8
 71
3
 72
8
 73
4
 74
0
 40
0
 40
0
 40
0
 40
0
 40
1
 40
1
 40
1
 40
1
 10
91.160794
 20
51.301123
 30
0.0
 10
91.160794
 20
43.973609
 30
0.0
 10
97.094890
 20
38.039104
 30
0.0
 10
104.422106
 20
38.039104
 30
0.0
  0
LINE
  5
177
100
AcDbEntity
  8
0
 62
7
100
AcDbLine
 10
104.422106
 20
38.039104
 30
0.0
 11
104.422106
 21
38.039104
 31
0.0
  0
SPLINE
  5
178
100
AcDbEntity
  8
0
 62
7
100
AcDbSpline
 70
8
 71
3
 72
8
 73
4
 74
0
 40
0
 40
0
 40
0
 40
0
 40
1
 40
1
 40
1
 40
1
 10
37.394462
 20
19.887560
 30
0.0
 10
41.921547
 20
19.887560
 30
0.0
 10
45.588008
 20
23.554223
 30
0.0
 10
45.588008
 20
28.081550
 30
0.0
  0
SPLINE
  5
179
100
AcDbEntity
  8
0
 62
7
100
AcDbSpline
 70
8
 71
3
 72
8
 73
4
 74
0
 40
0
 40
0
 40
0
 40
0
 40
1
 40
1
 40
1
 40
1
 10
45.588008
 20
28.081550
 30
0.0
 10
45.588008
 20
32.608936
 30
0.0
 10
41.921547
 20
36.274660
 30
0.0
 10
37.394462
 20
36.274660
 30
0.0
  0
SPLINE
  5
17a
100
AcDbEntity
  8
0
 62
7
100
AcDbSpline
 70
8
 71
3
 72
8
 73
4
 74
0
 40
0
 40
0
 40
0
 40
0
 40
1
 40
1
 40
1
 40
1
 10
37.394462
 20
36.274660
 30
0.0
 10
32.867315
 20
36.274660
 30
0.0
 10
29.200908
 20
32.608936
 30
0.0
 10
29.200908
 20
28.081550
 30
0.0
  0
SPLINE
  5
17b
100
AcDbEntity
  8
0
 62
7
100
AcDbSpline
 70
8
 71
3
 72
8
 73
4
 74
0
 40
0
 40
0
 40
0
 40
0
 40
1
 40
1
 40
1
 40
1
 10
29.200908
 20
28.081550
 30
0.0
 10
29.200908
 20
23.554223
 30
0.0
 10
32.867315
 20
19.887560
 30
0.0
 10
37.394462
 20
19.887560
 30
0.0
  0
LINE
  5
17c
100
AcDbEntity
  8
0
 62
7
100
AcDbLine
 10
37.394462
 20
19.887560
 30
0.0
 11
37.394462
 21
19.887560
 31
0.0
  0
SPLINE
  5
17d
100
AcDbEntity
  8
0
 62
7
100
AcDbSpline
 70
8
 71
3
 72
8
 73
4
 74
0
 40
0
 40
0
 40
0
 40
0
 40
1
 40
1
 40
1
 40
1
 10
64.205584
 20
19.887577
 30
0.0
 10
68.732680
 20
19.887577
 30
0.0
 10
72.399141
 20
23.554230
 30
0.0
 10
72.399141
 20
28.081559
 30
0.0
  0
SPLINE
  5
17e
100
AcDbEntity
  8
0
 62
7
100
AcDbSpline
 70
8
 71
3
 72
8
 73
4
 74
0
 40
0
 40
0
 40
0
 40
0
 40
1
 40
1
 40
1
 40
1
 10
72.399141
 20
28.081559
 30
0.0
 10
72.399141
 20
32.608946
 30
0.0
 10
68.732680
 20
36.274657
 30
0.0
 10
64.205584
 20
36.274657
 30
0.0
  0
SPLINE
  5
17f
100
AcDbEntity
  8
0
 62
7
100
AcDbSpline
 70
8
 71
3
 72
8
 73
4
 74
0
 40
0
 40
0
 40
0
 40
0
 40
1
 40
1
 40
1
 40
1
 10
64.205584
 20
36.274657
 30
0.0
 10
59.678436
 20
36.274657
 30
0.0
 10
56.012033
 20
32.608946
 30
0.0
 10
56.012033
 20
28.081559
 30
0.0
  0
SPLINE
  5
180
100
AcDbEntity
  8
0
 62
7
100
AcDbSpline
 70
8
 71
3
 72
8
 73
4
 74
0
 40
0
 40
0
 40
0
 40
0
 40
1
 40
1
 40
1
 40
1
 10
56.012033
 20
28.081559
 30
0.0
 10
56.012033
 20
23.554230
 30
0.0
 10
59.678436
 20
19.887577
 30
0.0
 10
64.205584
 20
19.887577
 30
0.0
  0
LINE
  5
181
100
AcDbEntity
  8
0
 62
7
100
AcDbLine
 10
64.205584
 20
19.887577
 30
0.0
 11
64.205584
 21
19.887577
 31
0.0
  0
SPLINE
  5
182
100
AcDbEntity
  8
0
 62
7
100
AcDbSpline
 70
8
 71
3
 72
8
 73
4
 74
0
 40
0
 40
0
 40
0
 40
0
 40
1
 40
1
 40
1
 40
1
 10
91.016735
 20
19.887560
 30
0.0
 10
95.543821
 20
19.887560
 30
0.0
 10
99.210282
 20
23.554223
 30
0.0
 10
99.210282
 20
28.081550
 30
0.0
  0
SPLINE
  5
183
100
AcDbEntity
  8
0
 62
7
100
AcDbSpline
 70
8
 71
3
 72
8
 73
4
 74
0
 40
0
 40
0
 40
0
 40
0
 40
1
 40
1
 40
1
 40
1
 10
99.210282
 20
28.081550
 30
0.0
 10
99.210282
 20
32.608936
 30
0.0
 10
95.543821
 20
36.274660
 30
0.0
 10
91.016735
 20
36.274660
 30
0.0
  0
SPLINE
  5
184
100
AcDbEntity
  8
0
 62
7
100
AcDbSpline
 70
8
 71
3
 72
8
 73
4
 74
0
 40
0
 40
0
 40
0
 40
0
 40
1
 40
1
 40
1
 40
1
 10
91.016735
 20
36.274660
 30
0.0
 10
86.489588
 20
36.274660
 30
0.0
 10
82.823187
 20
32.608936
 30
0.0
 10
82.823187
 20
28.081550
 30
0.0
  0
SPLINE
  5
185
100
AcDbEntity
  8
0
 62
7
100
AcDbSpline
 70
8
 71
3
 72
8
 73
4
 74
0
 40
0
 40
0
 40
0
 40
0
 40
1
 40
1
 40
1
 40
1
 10
82.823187
 20
28.081550
 30
0.0
 10
82.823187
 20
23.554223
 30
0.0
 10
86.489588
 20
19.887560
 30
0.0
 10
91.016735
 20
19.887560
 30
0.0
  0
LINE
  5
186
100
AcDbEntity
  8
0
 62
7
100
AcDbLine
 10
91.016735
 20
19.887560
 30
0.0
 11
91.016735
 21
19.887560
 31
0.0
  0
SPLINE
  5
187
100
AcDbEntity
  8
0
 62
7
100
AcDbSpline
 70
8
 71
3
 72
8
 73
4
 74
0
 40
0
 40
0
 40
0
 40
0
 40
1
 40
1
 40
1
 40
1
 10
117.827676
 20
19.887772
 30
0.0
 10
122.354774
 20
19.887772
 30
0.0
 10
126.021236
 20
23.554423
 30
0.0
 10
126.021236
 20
28.081749
 30
0.0
  0
SPLINE
  5
188
100
AcDbEntity
  8
0
 62
7
100
AcDbSpline
 70
8
 71
3
 72
8
 73
4
 74
0
 40
0
 40
0
 40
0
 40
0
 40
1
 40
1
 40
1
 40
1
 10
126.021236
 20
28.081749
 30
0.0
 10
126.021236
 20
32.609134
 30
0.0
 10
122.354774
 20
36.274844
 30
0.0
 10
117.827676
 20
36.274844
 30
0.0
  0
SPLINE
  5
189
100
AcDbEntity
  8
0
 62
7
100
AcDbSpline
 70
8
 71
3
 72
8
 73
4
 74
0
 40
0
 40
0
 40
0
 40
0
 40
1
 40
1
 40
1
 40
1
 10
117.827676
 20
36.274844
 30
0.0
 10
113.300526
 20
36.274844
 30
0.0
 10
109.634120
 20
32.609134
 30
0.0
 10
109.634120
 20
28.081749
 30
0.0
  0
SPLINE
  5
18a
100
AcDbEntity
  8
0
 62
7
100
AcDbSpline
 70
8
 71
3
 72
8
 73
4
 74
0
 40
0
 40
0
 40
0
 40
0
 40
1
 40
1
 40
1
 40
1
 10
109.634120
 20
28.081749
 30
0.0
 10
109.634120
 20
23.554423
 30
0.0
 10
113.300526
 20
19.887772
 30
0.0
 10
117.827676
 20
19.887772
 30
0.0
  0
LINE
  5
18b
100
AcDbEntity
  8
0
 62
7
100
AcDbLine
 10
117.827676
 20
19.887772
 30
0.0
 11
117.827676
 21
19.887772
 31
0.0
  0
SPLINE
  5
18c
100
AcDbEntity
  8
0
 62
7
100
AcDbSpline
 70
8
 71
3
 72
8
 73
4
 74
0
 40
0
 40
0
 40
0
 40
0
 40
1
 40
1
 40
1
 40
1
 10
50.800041
 20
43.106656
 30
0.0
 10
55.327120
 20
43.106656
 30
0.0
 10
58.993580
 20
46.773319
 30
0.0
 10
58.993580
 20
51.300646
 30
0.0
  0
SPLINE
  5
18d
100
AcDbEntity
  8
0
 62
7
100
AcDbSpline
 70
8
 71
3
 72
8
 73
4
 74
0
 40
0
 40
0
 40
0
 40
0
 40
1
 40
1
 40
1
 40
1
 10
58.993580
 20
51.300646
 30
0.0
 10
58.993580
 20
55.828032
 30
0.0
 10
55.327120
 20
59.493756
 30
0.0
 10
50.800041
 20
59.493756
 30
0.0
  0
SPLINE
  5
18e
100
AcDbEntity
  8
0
 62
7
100
AcDbSpline
 70
8
 71
3
 72
8
 73
4
 74
0
 40
0
 40
0
 40
0
 40
0
 40
1
 40
1
 40
1
 40
1
 10
50.800041
 20
59.493756
 30
0.0
 10
46.272895
 20
59.493756
 30
0.0
 10
42.606488
 20
55.828032
 30
0.0
 10
42.606488
 20
51.300646
 30
0.0
  0
SPLINE
  5
18f
100
AcDbEntity
  8
0
 62
7
100
AcDbSpline
 70
8
 71
3
 72
8
 73
4
 74
0
 40
0
 40
0
 40
0
 40
0
 40
1
 40
1
 40
1
 40
1
 10
42.606488
 20
51.300646
 30
0.0
 10
42.606488
 20
46.773319
 30
0.0
 10
46.272895
 20
43.106656
 30
0.0
 10
50.800041
 20
43.106656
 30
0.0
  0
LINE
  5
190
100
AcDbEntity
  8
0
 62
7
100
AcDbLine
 10
50.800041
 20
43.106656
 30
0.0
 11
50.800041
 21
43.106656
 31
0.0
  0
SPLINE
  5
191
100
AcDbEntity
  8
0
 62
7
100
AcDbSpline
 70
8
 71
3
 72
8
 73
4
 74
0
 40
0
 40
0
 40
0
 40
0
 40
1
 40
1
 40
1
 40
1
 10
77.610968
 20
43.106871
 30
0.0
 10
82.138066
 20
43.106871
 30
0.0
 10
85.804528
 20
46.773523
 30
0.0
 10
85.804528
 20
51.300849
 30
0.0
  0
SPLINE
  5
192
100
AcDbEntity
  8
0
 62
7
100
AcDbSpline
 70
8
 71
3
 72
8
 73
4
 74
0
 40
0
 40
0
 40
0
 40
0
 40
1
 40
1
 40
1
 40
1
 10
85.804528
 20
51.300849
 30
0.0
 10
85.804528
 20
55.828234
 30
0.0
 10
82.138066
 20
59.493943
 30
0.0
 10
77.610968
 20
59.493943
 30
0.0
  0
SPLINE
  5
193
100
AcDbEntity
  8
0
 62
7
100
AcDbSpline
 70
8
 71
3
 72
8
 73
4
 74
0
 40
0
 40
0
 40
0
 40
0
 40
1
 40
1
 40
1
 40
1
 10
77.610968
 20
59.493943
 30
0.0
 10
73.083818
 20
59.493943
 30
0.0
 10
69.417412
 20
55.828234
 30
0.0
 10
69.417412
 20
51.300849
 30
0.0
  0
SPLINE
  5
194
100
AcDbEntity
  8
0
 62
7
100
AcDbSpline
 70
8
 71
3
 72
8
 73
4
 74
0
 40
0
 40
0
 40
0
 40
0
 40
1
 40
1
 40
1
 40
1
 10
69.417412
 20
51.300849
 30
0.0
 10
69.417412
 20
46.773523
 30
0.0
 10
73.083818
 20
43.106871
 30
0.0
 10
77.610968
 20
43.106871
 30
0.0
  0
LINE
  5
195
100
AcDbEntity
  8
0
 62
7
100
AcDbLine
 10
77.610968
 20
43.106871
 30
0.0
 11
77.610968
 21
43.106871
 31
0.0
  0
SPLINE
  5
196
100
AcDbEntity
  8
0
 62
7
100
AcDbSpline
 70
8
 71
3
 72
8
 73
4
 74
0
 40
0
 40
0
 40
0
 40
0
 40
1
 40
1
 40
1
 40
1
 10
104.422107
 20
43.106871
 30
0.0
 10
108.949205
 20
43.106871
 30
0.0
 10
112.615668
 20
46.773523
 30
0.0
 10
112.615668
 20
51.300849
 30
0.0
  0
SPLINE
  5
197
100
AcDbEntity
  8
0
 62
7
100
AcDbSpline
 70
8
 71
3
 72
8
 73
4
 74
0
 40
0
 40
0
 40
0
 40
0
 40
1
 40
1
 40
1
 40
1
 10
112.615668
 20
51.300849
 30
0.0
 10
112.615668
 20
55.828234
 30
0.0
 10
108.949205
 20
59.493943
 30
0.0
 10
104.422107
 20
59.493943
 30
0.0
  0
SPLINE
  5
198
100
AcDbEntity
  8
0
 62
7
100
AcDbSpline
 70
8
 71
3
 72
8
 73
4
 74
0
 40
0
 40
0
 40
0
 40
0
 40
1
 40
1
 40
1
 40
1
 10
104.422107
 20
59.493943
 30
0.0
 10
99.894958
 20
59.493943
 30
0.0
 10
96.228552
 20
55.828234
 30
0.0
 10
96.228552
 20
51.300849
 30
0.0
  0
SPLINE
  5
199
100
AcDbEntity
  8
0
 62
7
100
AcDbSpline
 70
8
 71
3
 72
8
 73
4
 74
0
 40
0
 40
0
 40
0
 40
0
 40
1
 40
1
 40
1
 40
1
 10
96.228552
 20
51.300849
 30
0.0
 10
96.228552
 20
46.773523
 30
0.0
 10
99.894958
 20
43.106871
 30
0.0
 10
104.422107
 20
43.106871
 30
0.0
  0
LINE
  5
19a
100
AcDbEntity
  8
0
 62
7
100
AcDbLine
 10
104.422107
 20
43.106871
 30
0.0
 11
104.422107
 21
43.106871
 31
0.0
  0
SPLINE
  5
19b
100
AcDbEntity
  8
0
 62
7
100
AcDbSpline
 70
8
 71
3
 72
8
 73
4
 74
0
 40
0
 40
0
 40
0
 40
0
 40
1
 40
1
 40
1
 40
1
 10
77.611171
 20
89.544856
 30
0.0
 10
82.138259
 20
89.544856
 30
0.0
 10
85.804717
 20
93.211519
 30
0.0
 10
85.804717
 20
97.738845
 30
0.0
  0
SPLINE
  5
19c
100
AcDbEntity
  8
0
 62
7
100
AcDbSpline
 70
8
 71
3
 72
8
 73
4
 74
0
 40
0
 40
0
 40
0
 40
0
 40
1
 40
1
 40
1
 40
1
 10
85.804717
 20
97.738845
 30
0.0
 10
85.804717
 20
102.266231
 30
0.0
 10
82.138259
 20
105.931955
 30
0.0
 10
77.611171
 20
105.931955
 30
0.0
  0
SPLINE
  5
19d
100
AcDbEntity
  8
0
 62
7
100
AcDbSpline
 70
8
 71
3
 72
8
 73
4
 74
0
 40
0
 40
0
 40
0
 40
0
 40
1
 40
1
 40
1
 40
1
 10
77.611171
 20
105.931955
 30
0.0
 10
73.084032
 20
105.931955
 30
0.0
 10
69.417624
 20
102.266231
 30
0.0
 10
69.417624
 20
97.738845
 30
0.0
  0
SPLINE
  5
19e
100
AcDbEntity
  8
0
 62
7
100
AcDbSpline
 70
8
 71
3
 72
8
 73
4
 74
0
 40
0
 40
0
 40
0
 40
0
 40
1
 40
1
 40
1
 40
1
 10
69.417624
 20
97.738845
 30
0.0
 10
69.417624
 20
93.211519
 30
0.0
 10
73.084032
 20
89.544856
 30
0.0
 10
77.611171
 20
89.544856
 30
0.0
  0
LINE
  5
19f
100
AcDbEntity
  8
0
 62
7
100
AcDbLine
 10
77.611171
 20
89.544856
 30
0.0
 11
77.611171
 21
89.544856
 31
0.0
  0
SPLINE
  5
1a0
100
AcDbEntity
  8
0
 62
7
100
AcDbSpline
 70
8
 71
3
 72
8
 73
4
 74
0
 40
0
 40
0
 40
0
 40
0
 40
1
 40
1
 40
1
 40
1
 10
91.016736
 20
66.325760
 30
0.0
 10
95.543825
 20
66.325760
 30
0.0
 10
99.210283
 20
69.992423
 30
0.0
 10
99.210283
 20
74.519749
 30
0.0
  0
SPLINE
  5
1a1
100
AcDbEntity
  8
0
 62
7
100
AcDbSpline
 70
8
 71
3
 72
8
 73
4
 74
0
 40
0
 40
0
 40
0
 40
0
 40
1
 40
1
 40
1
 40
1
 10
99.210283
 20
74.519749
 30
0.0
 10
99.210283
 20
79.047136
 30
0.0
 10
95.543825
 20
82.712859
 30
0.0
 10
91.016736
 20
82.712859
 30
0.0
  0
SPLINE
  5
1a2
100
AcDbEntity
  8
0
 62
7
100
AcDbSpline
 70
8
 71
3
 72
8
 73
4
 74
0
 40
0
 40
0
 40
0
 40
0
 40
1
 40
1
 40
1
 40
1
 10
91.016736
 20
82.712859
 30
0.0
 10
86.489594
 20
82.712859
 30
0.0
 10
82.823189
 20
79.047136
 30
0.0
 10
82.823189
 20
74.519749
 30
0.0
  0
SPLINE
  5
1a3
100
AcDbEntity
  8
0
 62
7
100
AcDbSpline
 70
8
 71
3
 72
8
 73
4
 74
0
 40
0
 40
0
 40
0
 40
0
 40
1
 40
1
 40
1
 40
1
 10
82.823189
 20
74.519749
 30
0.0
 10
82.823189
 20
69.992423
 30
0.0
 10
86.489594
 20
66.325760
 30
0.0
 10
91.016736
 20
66.325760
 30
0.0
  0
LINE
  5
1a4
100
AcDbEntity
  8
0
 62
7
100
AcDbLine
 10
91.016736
 20
66.325760
 30
0.0
 11
91.016736
 21
66.325760
 31
0.0
  0
SPLINE
  5
1a5
100
AcDbEntity
  8
0
 62
7
100
AcDbSpline
 70
8
 71
3
 72
8
 73
4
 74
0
 40
0
 40
0
 40
0
 40
0
 40
1
 40
1
 40
1
 40
1
 10
64.205598
 20
66.325760
 30
0.0
 10
68.732692
 20
66.325760
 30
0.0
 10
72.399144
 20
69.992423
 30
0.0
 10
72.399144
 20
74.519749
 30
0.0
  0
SPLINE
  5
1a6
100
AcDbEntity
  8
0
 62
7
100
AcDbSpline
 70
8
 71
3
 72
8
 73
4
 74
0
 40
0
 40
0
 40
0
 40
0
 40
1
 40
1
 40
1
 40
1
 10
72.399144
 20
74.519749
 30
0.0
 10
72.399144
 20
79.047136
 30
0.0
 10
68.732692
 20
82.712859
 30
0.0
 10
64.205598
 20
82.712859
 30
0.0
  0
SPLINE
  5
1a7
100
AcDbEntity
  8
0
 62
7
100
AcDbSpline
 70
8
 71
3
 72
8
 73
4
 74
0
 40
0
 40
0
 40
0
 40
0
 40
1
 40
1
 40
1
 40
1
 10
64.205598
 20
82.712859
 30
0.0
 10
59.678452
 20
82.712859
 30
0.0
 10
56.012052
 20
79.047136
 30
0.0
 10
56.012052
 20
74.519749
 30
0.0
  0
SPLINE
  5
1a8
100
AcDbEntity
  8
0
 62
7
100
AcDbSpline
 70
8
 71
3
 72
8
 73
4
 74
0
 40
0
 40
0
 40
0
 40
0
 40
1
 40
1
 40
1
 40
1
 10
56.012052
 20
74.519749
 30
0.0
 10
56.012052
 20
69.992423
 30
0.0
 10
59.678452
 20
66.325760
 30
0.0
 10
64.205598
 20
66.325760
 30
0.0
  0
LINE
  5
1a9
100
AcDbEntity
  8
0
 62
7
100
AcDbLine
 10
64.205598
 20
66.325760
 30
0.0
 11
64.205598
 21
66.325760
 31
0.0
  0
SPLINE
  5
1aa
100
AcDbEntity
  8
0
 62
7
100
AcDbSpline
 70
8
 71
3
 72
8
 73
4
 74
0
 40
0
 40
0
 40
0
 40
0
 40
1
 40
1
 40
1
 40
1
 10
2.214311
 20
10.953712
 30
0.0
 10
2.214311
 20
14.357222
 30
0.0
 10
4.981512
 20
17.124220
 30
0.0
 10
8.385014
 20
17.124220
 30
0.0
  0
SPLINE
  5
1ab
100
AcDbEntity
  8
0
 62
7
100
AcDbSpline
 70
8
 71
3
 72
8
 73
4
 74
0
 40
0
 40
0
 40
0
 40
0
 40
1
 40
1
 40
1
 40
1
 10
8.385014
 20
17.124220
 30
0.0
 10
11.788524
 20
17.124220
 30
0.0
 10
14.540919
 20
14.357222
 30
0.0
 10
14.540919
 20
10.953712
 30
0.0
  0
SPLINE
  5
1ac
100
AcDbEntity
  8
0
 62
7
100
AcDbSpline
 70
8
 71
3
 72
8
 73
4
 74
0
 40
0
 40
0
 40
0
 40
0
 40
1
 40
1
 40
1
 40
1
 10
14.540919
 20
10.953712
 30
0.0
 10
14.540919
 20
7.550195
 30
0.0
 10
11.788524
 20
4.783001
 30
0.0
 10
8.385014
 20
4.783001
 30
0.0
  0
SPLINE
  5
1ad
100
AcDbEntity
  8
0
 62
7
100
AcDbSpline
 70
8
 71
3
 72
8
 73
4
 74
0
 40
0
 40
0
 40
0
 40
0
 40
1
 40
1
 40
1
 40
1
 10
8.385014
 20
4.783001
 30
0.0
 10
4.981512
 20
4.783001
 30
0.0
 10
2.214311
 20
7.550195
 30
0.0
 10
2.214311
 20
10.953712
 30
0.0
  0
LINE
  5
1ae
100
AcDbEntity
  8
0
 62
7
100
AcDbLine
 10
2.214311
 20
10.953712
 30
0.0
 11
2.214311
 21
10.953712
 31
0.0
  0
SPLINE
  5
1af
100
AcDbEntity
  8
0
 62
7
100
AcDbSpline
 70
8
 71
3
 72
8
 73
4
 74
0
 40
0
 40
0
 40
0
 40
0
 40
1
 40
1
 40
1
 40
1
 10
0.000000
 20
10.953742
 30
0.0
 10
0.000000
 20
15.580044
 30
0.0
 10
3.761387
 20
19.341153
 30
0.0
 10
8.387681
 20
19.341153
 30
0.0
  0
SPLINE
  5
1b0
100
AcDbEntity
  8
0
 62
7
100
AcDbSpline
 70
8
 71
3
 72
8
 73
4
 74
0
 40
0
 40
0
 40
0
 40
0
 40
1
 40
1
 40
1
 40
1
 10
8.387681
 20
19.341153
 30
0.0
 10
13.013975
 20
19.341153
 30
0.0
 10
16.755245
 20
15.580044
 30
0.0
 10
16.755245
 20
10.953742
 30
0.0
  0
SPLINE
  5
1b1
100
AcDbEntity
  8
0
 62
7
100
AcDbSpline
 70
8
 71
3
 72
8
 73
4
 74
0
 40
0
 40
0
 40
0
 40
0
 40
1
 40
1
 40
1
 40
1
 10
16.755245
 20
10.953742
 30
0.0
 10
16.755245
 20
6.327448
 30
0.0
 10
13.013975
 20
2.566069
 30
0.0
 10
8.387681
 20
2.566069
 30
0.0
  0
SPLINE
  5
1b2
100
AcDbEntity
  8
0
 62
7
100
AcDbSpline
 70
8
 71
3
 72
8
 73
4
 74
0
 40
0
 40
0
 40
0
 40
0
 40
1
 40
1
 40
1
 40
1
 10
8.387681
 20
2.566069
 30
0.0
 10
3.761387
 20
2.566069
 30
0.0
 10
0.000000
 20
6.327448
 30
0.0
 10
0.000000
 20
10.953742
 30
0.0
  0
LINE
  5
1b3
100
AcDbEntity
  8
0
 62
7
100
AcDbLine
 10
0.000000
 20
10.953742
 30
0.0
 11
0.000000
 21
10.953742
 31
0.0
  0
SPLINE
  5
1b4
100
AcDbEntity
  8
0
 62
7
100
AcDbSpline
 70
8
 71
3
 72
8
 73
4
 74
0
 40
0
 40
0
 40
0
 40
0
 40
1
 40
1
 40
1
 40
1
 10
77.611965
 20
122.541456
 30
0.0
 10
82.232338
 20
122.541456
 30
0.0
 10
85.988747
 20
126.277658
 30
0.0
 10
85.988747
 20
130.898018
 30
0.0
  0
SPLINE
  5
1b5
100
AcDbEntity
  8
0
 62
7
100
AcDbSpline
 70
8
 71
3
 72
8
 73
4
 74
0
 40
0
 40
0
 40
0
 40
0
 40
1
 40
1
 40
1
 40
1
 10
85.988747
 20
130.898018
 30
0.0
 10
85.988747
 20
135.518386
 30
0.0
 10
82.232338
 20
139.274795
 30
0.0
 10
77.611965
 20
139.274795
 30
0.0
  0
SPLINE
  5
1b6
100
AcDbEntity
  8
0
 62
7
100
AcDbSpline
 70
8
 71
3
 72
8
 73
4
 74
0
 40
0
 40
0
 40
0
 40
0
 40
1
 40
1
 40
1
 40
1
 10
77.611965
 20
139.274795
 30
0.0
 10
72.991613
 20
139.274795
 30
0.0
 10
69.233496
 20
135.518386
 30
0.0
 10
69.233504
 20
130.898018
 30
0.0
  0
SPLINE
  5
1b7
100
AcDbEntity
  8
0
 62
7
100
AcDbSpline
 70
8
 71
3
 72
8
 73
4
 74
0
 40
0
 40
0
 40
0
 40
0
 40
1
 40
1
 40
1
 40
1
 10
69.233504
 20
130.898018
 30
0.0
 10
69.233487
 20
126.277658
 30
0.0
 10
72.991613
 20
122.541456
 30
0.0
 10
77.611965
 20
122.541456
 30
0.0
  0
LINE
  5
1b8
100
AcDbEntity
  8
0
 62
7
100
AcDbLine
 10
77.611965
 20
122.541456
 30
0.0
 11
77.611965
 21
122.541456
 31
0.0
  0
SPLINE
  5
1b9
100
AcDbEntity
  8
0
 62
7
100
AcDbSpline
 70
8
 71
3
 72
8
 73
4
 74
0
 40
0
 40
0
 40
0
 40
0
 40
1
 40
1
 40
1
 40
1
 10
140.653095
 20
10.953705
 30
0.0
 10
140.653095
 20
14.372839
 30
0.0
 10
143.418072
 20
17.152547
 30
0.0
 10
146.837182
 20
17.152547
 30
0.0
  0
SPLINE
  5
1ba
100
AcDbEntity
  8
0
 62
7
100
AcDbSpline
 70
8
 71
3
 72
8
 73
4
 74
0
 40
0
 40
0
 40
0
 40
0
 40
1
 40
1
 40
1
 40
1
 10
146.837182
 20
17.152547
 30
0.0
 10
150.256292
 20
17.152547
 30
0.0
 10
153.036154
 20
14.372839
 30
0.0
 10
153.036154
 20
10.953705
 30
0.0
  0
SPLINE
  5
1bb
100
AcDbEntity
  8
0
 62
7
100
AcDbSpline
 70
8
 71
3
 72
8
 73
4
 74
0
 40
0
 40
0
 40
0
 40
0
 40
1
 40
1
 40
1
 40
1
 10
153.036154
 20
10.953705
 30
0.0
 10
153.036154
 20
7.534578
 30
0.0
 10
150.256292
 20
4.754674
 30
0.0
 10
146.837182
 20
4.754674
 30
0.0
  0
SPLINE
  5
1bc
100
AcDbEntity
  8
0
 62
7
100
AcDbSpline
 70
8
 71
3
 72
8
 73
4
 74
0
 40
0
 40
0
 40
0
 40
0
 40
1
 40
1
 40
1
 40
1
 10
146.837182
 20
4.754674
 30
0.0
 10
143.418072
 20
4.754674
 30
0.0
 10
140.653095
 20
7.534578
 30
0.0
 10
140.653095
 20
10.953705
 30
0.0
  0
LINE
  5
1bd
100
AcDbEntity
  8
0
 62
7
100
AcDbLine
 10
140.653095
 20
10.953705
 30
0.0
 11
140.653095
 21
10.953705
 31
0.0
  0
SPLINE
  5
1be
100
AcDbEntity
  8
0
 62
7
100
AcDbSpline
 70
8
 71
3
 72
8
 73
4
 74
0
 40
0
 40
0
 40
0
 40
0
 40
1
 40
1
 40
1
 40
1
 10
64.205590
 20
27.944562
 30
0.0
 10
64.281041
 20
27.944562
 30
0.0
 10
64.342149
 20
28.005672
 30
0.0
 10
64.342149
 20
28.081128
 30
0.0
  0
SPLINE
  5
1bf
100
AcDbEntity
  8
0
 62
7
100
AcDbSpline
 70
8
 71
3
 72
8
 73
4
 74
0
 40
0
 40
0
 40
0
 40
0
 40
1
 40
1
 40
1
 40
1
 10
64.342149
 20
28.081128
 30
0.0
 10
64.342149
 20
28.156584
 30
0.0
 10
64.281041
 20
28.217680
 30
0.0
 10
64.205590
 20
28.217680
 30
0.0
  0
SPLINE
  5
1c0
100
AcDbEntity
  8
0
 62
7
100
AcDbSpline
 70
8
 71
3
 72
8
 73
4
 74
0
 40
0
 40
0
 40
0
 40
0
 40
1
 40
1
 40
1
 40
1
 10
64.205590
 20
28.217680
 30
0.0
 10
64.130137
 20
28.217680
 30
0.0
 10
64.069031
 20
28.156584
 30
0.0
 10
64.069031
 20
28.081128
 30
0.0
  0
SPLINE
  5
1c1
100
AcDbEntity
  8
0
 62
7
100
AcDbSpline
 70
8
 71
3
 72
8
 73
4
 74
0
 40
0
 40
0
 40
0
 40
0
 40
1
 40
1
 40
1
 40
1
 10
64.069031
 20
28.081128
 30
0.0
 10
64.069031
 20
28.005672
 30
0.0
 10
64.130137
 20
27.944562
 30
0.0
 10
64.205590
 20
27.944562
 30
0.0
  0
LINE
  5
1c2
100
AcDbEntity
  8
0
 62
7
100
AcDbLine
 10
64.205590
 20
27.944562
 30
0.0
 11
64.205590
 21
27.944562
 31
0.0
  0
SPLINE
  5
1c3
100
AcDbEntity
  8
0
 62
7
100
AcDbSpline
 70
8
 71
3
 72
8
 73
4
 74
0
 40
0
 40
0
 40
0
 40
0
 40
1
 40
1
 40
1
 40
1
 10
91.016735
 20
27.944550
 30
0.0
 10
91.092186
 20
27.944550
 30
0.0
 10
91.153294
 20
28.005696
 30
0.0
 10
91.153294
 20
28.081114
 30
0.0
  0
SPLINE
  5
1c4
100
AcDbEntity
  8
0
 62
7
100
AcDbSpline
 70
8
 71
3
 72
8
 73
4
 74
0
 40
0
 40
0
 40
0
 40
0
 40
1
 40
1
 40
1
 40
1
 10
91.153294
 20
28.081114
 30
0.0
 10
91.153294
 20
28.156577
 30
0.0
 10
91.092186
 20
28.217671
 30
0.0
 10
91.016735
 20
28.217671
 30
0.0
  0
SPLINE
  5
1c5
100
AcDbEntity
  8
0
 62
7
100
AcDbSpline
 70
8
 71
3
 72
8
 73
4
 74
0
 40
0
 40
0
 40
0
 40
0
 40
1
 40
1
 40
1
 40
1
 10
91.016735
 20
28.217671
 30
0.0
 10
90.941282
 20
28.217671
 30
0.0
 10
90.880175
 20
28.156600
 30
0.0
 10
90.880175
 20
28.081114
 30
0.0
  0
SPLINE
  5
1c6
100
AcDbEntity
  8
0
 62
7
100
AcDbSpline
 70
8
 71
3
 72
8
 73
4
 74
0
 40
0
 40
0
 40
0
 40
0
 40
1
 40
1
 40
1
 40
1
 10
90.880175
 20
28.081114
 30
0.0
 10
90.880175
 20
28.005666
 30
0.0
 10
90.941284
 20
27.944550
 30
0.0
 10
91.016735
 20
27.944550
 30
0.0
  0
LINE
  5
1c7
100
AcDbEntity
  8
0
 62
7
100
AcDbLine
 10
91.016735
 20
27.944550
 30
0.0
 11
91.016735
 21
27.944550
 31
0.0
  0
SPLINE
  5
1c8
100
AcDbEntity
  8
0
 62
7
100
AcDbSpline
 70
8
 71
3
 72
8
 73
4
 74
0
 40
0
 40
0
 40
0
 40
0
 40
1
 40
1
 40
1
 40
1
 10
117.827678
 20
27.944750
 30
0.0
 10
117.903130
 20
27.944750
 30
0.0
 10
117.964238
 20
28.005861
 30
0.0
 10
117.964238
 20
28.081317
 30
0.0
  0
SPLINE
  5
1c9
100
AcDbEntity
  8
0
 62
7
100
AcDbSpline
 70
8
 71
3
 72
8
 73
4
 74
0
 40
0
 40
0
 40
0
 40
0
 40
1
 40
1
 40
1
 40
1
 10
117.964238
 20
28.081317
 30
0.0
 10
117.964238
 20
28.156774
 30
0.0
 10
117.903130
 20
28.217870
 30
0.0
 10
117.827678
 20
28.217870
 30
0.0
  0
SPLINE
  5
1ca
100
AcDbEntity
  8
0
 62
7
100
AcDbSpline
 70
8
 71
3
 72
8
 73
4
 74
0
 40
0
 40
0
 40
0
 40
0
 40
1
 40
1
 40
1
 40
1
 10
117.827678
 20
28.217870
 30
0.0
 10
117.752225
 20
28.217870
 30
0.0
 10
117.691118
 20
28.156774
 30
0.0
 10
117.691118
 20
28.081317
 30
0.0
  0
SPLINE
  5
1cb
100
AcDbEntity
  8
0
 62
7
100
AcDbSpline
 70
8
 71
3
 72
8
 73
4
 74
0
 40
0
 40
0
 40
0
 40
0
 40
1
 40
1
 40
1
 40
1
 10
117.691118
 20
28.081317
 30
0.0
 10
117.691118
 20
28.005861
 30
0.0
 10
117.752225
 20
27.944750
 30
0.0
 10
117.827678
 20
27.944750
 30
0.0
  0
LINE
  5
1cc
100
AcDbEntity
  8
0
 62
7
100
AcDbLine
 10
117.827678
 20
27.944750
 30
0.0
 11
117.827678
 21
27.944750
 31
0.0
  0
SPLINE
  5
1cd
100
AcDbEntity
  8
0
 62
7
100
AcDbSpline
 70
8
 71
3
 72
8
 73
4
 74
0
 40
0
 40
0
 40
0
 40
0
 40
1
 40
1
 40
1
 40
1
 10
104.422107
 20
43.106871
 30
0.0
 10
108.949205
 20
43.106871
 30
0.0
 10
112.615668
 20
46.773523
 30
0.0
 10
112.615668
 20
51.300849
 30
0.0
  0
SPLINE
  5
1ce
100
AcDbEntity
  8
0
 62
7
100
AcDbSpline
 70
8
 71
3
 72
8
 73
4
 74
0
 40
0
 40
0
 40
0
 40
0
 40
1
 40
1
 40
1
 40
1
 10
112.615668
 20
51.300849
 30
0.0
 10
112.615668
 20
55.828234
 30
0.0
 10
108.949205
 20
59.493943
 30
0.0
 10
104.422107
 20
59.493943
 30
0.0
  0
SPLINE
  5
1cf
100
AcDbEntity
  8
0
 62
7
100
AcDbSpline
 70
8
 71
3
 72
8
 73
4
 74
0
 40
0
 40
0
 40
0
 40
0
 40
1
 40
1
 40
1
 40
1
 10
104.422107
 20
59.493943
 30
0.0
 10
99.894958
 20
59.493943
 30
0.0
 10
96.228552
 20
55.828234
 30
0.0
 10
96.228552
 20
51.300849
 30
0.0
  0
SPLINE
  5
1d0
100
AcDbEntity
  8
0
 62
7
100
AcDbSpline
 70
8
 71
3
 72
8
 73
4
 74
0
 40
0
 40
0
 40
0
 40
0
 40
1
 40
1
 40
1
 40
1
 10
96.228552
 20
51.300849
 30
0.0
 10
96.228552
 20
46.773523
 30
0.0
 10
99.894958
 20
43.106871
 30
0.0
 10
104.422107
 20
43.106871
 30
0.0
  0
LINE
  5
1d1
100
AcDbEntity
  8
0
 62
7
100
AcDbLine
 10
104.422107
 20
43.106871
 30
0.0
 11
104.422107
 21
43.106871
 31
0.0
  0
SPLINE
  5
1d2
100
AcDbEntity
  8
0
 62
7
100
AcDbSpline
 70
8
 71
3
 72
8
 73
4
 74
0
 40
0
 40
0
 40
0
 40
0
 40
1
 40
1
 40
1
 40
1
 10
37.394462
 20
27.944550
 30
0.0
 10
37.469910
 20
27.944550
 30
0.0
 10
37.531018
 20
28.005696
 30
0.0
 10
37.531018
 20
28.081114
 30
0.0
  0
SPLINE
  5
1d3
100
AcDbEntity
  8
0
 62
7
100
AcDbSpline
 70
8
 71
3
 72
8
 73
4
 74
0
 40
0
 40
0
 40
0
 40
0
 40
1
 40
1
 40
1
 40
1
 10
37.531018
 20
28.081114
 30
0.0
 10
37.531018
 20
28.156577
 30
0.0
 10
37.469948
 20
28.217671
 30
0.0
 10
37.394462
 20
28.217671
 30
0.0
  0
SPLINE
  5
1d4
100
AcDbEntity
  8
0
 62
7
100
AcDbSpline
 70
8
 71
3
 72
8
 73
4
 74
0
 40
0
 40
0
 40
0
 40
0
 40
1
 40
1
 40
1
 40
1
 10
37.394462
 20
28.217671
 30
0.0
 10
37.319006
 20
28.217671
 30
0.0
 10
37.257897
 20
28.156600
 30
0.0
 10
37.257897
 20
28.081114
 30
0.0
  0
SPLINE
  5
1d5
100
AcDbEntity
  8
0
 62
7
100
AcDbSpline
 70
8
 71
3
 72
8
 73
4
 74
0
 40
0
 40
0
 40
0
 40
0
 40
1
 40
1
 40
1
 40
1
 10
37.257897
 20
28.081114
 30
0.0
 10
37.257897
 20
28.005666
 30
0.0
 10
37.318968
 20
27.944550
 30
0.0
 10
37.394462
 20
27.944550
 30
0.0
  0
LINE
  5
1d6
100
AcDbEntity
  8
0
 62
7
100
AcDbLine
 10
37.394462
 20
27.944550
 30
0.0
 11
37.394462
 21
27.944550
 31
0.0
  0
SPLINE
  5
1d7
100
AcDbEntity
  8
0
 62
7
100
AcDbSpline
 70
8
 71
3
 72
8
 73
4
 74
0
 40
0
 40
0
 40
0
 40
0
 40
1
 40
1
 40
1
 40
1
 10
50.800034
 20
51.163646
 30
0.0
 10
50.875482
 20
51.163646
 30
0.0
 10
50.936590
 20
51.224792
 30
0.0
 10
50.936590
 20
51.300210
 30
0.0
  0
SPLINE
  5
1d8
100
AcDbEntity
  8
0
 62
7
100
AcDbSpline
 70
8
 71
3
 72
8
 73
4
 74
0
 40
0
 40
0
 40
0
 40
0
 40
1
 40
1
 40
1
 40
1
 10
50.936590
 20
51.300210
 30
0.0
 10
50.936590
 20
51.375673
 30
0.0
 10
50.875445
 20
51.436767
 30
0.0
 10
50.800034
 20
51.436767
 30
0.0
  0
SPLINE
  5
1d9
100
AcDbEntity
  8
0
 62
7
100
AcDbSpline
 70
8
 71
3
 72
8
 73
4
 74
0
 40
0
 40
0
 40
0
 40
0
 40
1
 40
1
 40
1
 40
1
 10
50.800034
 20
51.436767
 30
0.0
 10
50.724578
 20
51.436767
 30
0.0
 10
50.663477
 20
51.375696
 30
0.0
 10
50.663477
 20
51.300210
 30
0.0
  0
SPLINE
  5
1da
100
AcDbEntity
  8
0
 62
7
100
AcDbSpline
 70
8
 71
3
 72
8
 73
4
 74
0
 40
0
 40
0
 40
0
 40
0
 40
1
 40
1
 40
1
 40
1
 10
50.663477
 20
51.300210
 30
0.0
 10
50.663477
 20
51.224762
 30
0.0
 10
50.724548
 20
51.163646
 30
0.0
 10
50.800034
 20
51.163646
 30
0.0
  0
LINE
  5
1db
100
AcDbEntity
  8
0
 62
7
100
AcDbLine
 10
50.800034
 20
51.163646
 30
0.0
 11
50.800034
 21
51.163646
 31
0.0
  0
SPLINE
  5
1dc
100
AcDbEntity
  8
0
 62
7
100
AcDbSpline
 70
8
 71
3
 72
8
 73
4
 74
0
 40
0
 40
0
 40
0
 40
0
 40
1
 40
1
 40
1
 40
1
 10
77.610970
 20
51.163845
 30
0.0
 10
77.686421
 20
51.163845
 30
0.0
 10
77.747529
 20
51.224956
 30
0.0
 10
77.747529
 20
51.300412
 30
0.0
  0
SPLINE
  5
1dd
100
AcDbEntity
  8
0
 62
7
100
AcDbSpline
 70
8
 71
3
 72
8
 73
4
 74
0
 40
0
 40
0
 40
0
 40
0
 40
1
 40
1
 40
1
 40
1
 10
77.747529
 20
51.300412
 30
0.0
 10
77.747529
 20
51.375868
 30
0.0
 10
77.686421
 20
51.436963
 30
0.0
 10
77.610970
 20
51.436963
 30
0.0
  0
SPLINE
  5
1de
100
AcDbEntity
  8
0
 62
7
100
AcDbSpline
 70
8
 71
3
 72
8
 73
4
 74
0
 40
0
 40
0
 40
0
 40
0
 40
1
 40
1
 40
1
 40
1
 10
77.610970
 20
51.436963
 30
0.0
 10
77.535517
 20
51.436963
 30
0.0
 10
77.474410
 20
51.375868
 30
0.0
 10
77.474410
 20
51.300412
 30
0.0
  0
SPLINE
  5
1df
100
AcDbEntity
  8
0
 62
7
100
AcDbSpline
 70
8
 71
3
 72
8
 73
4
 74
0
 40
0
 40
0
 40
0
 40
0
 40
1
 40
1
 40
1
 40
1
 10
77.474410
 20
51.300412
 30
0.0
 10
77.474410
 20
51.224956
 30
0.0
 10
77.535517
 20
51.163845
 30
0.0
 10
77.610970
 20
51.163845
 30
0.0
  0
LINE
  5
1e0
100
AcDbEntity
  8
0
 62
7
100
AcDbLine
 10
77.610970
 20
51.163845
 30
0.0
 11
77.610970
 21
51.163845
 31
0.0
  0
SPLINE
  5
1e1
100
AcDbEntity
  8
0
 62
7
100
AcDbSpline
 70
8
 71
3
 72
8
 73
4
 74
0
 40
0
 40
0
 40
0
 40
0
 40
1
 40
1
 40
1
 40
1
 10
104.422109
 20
51.163845
 30
0.0
 10
104.497561
 20
51.163845
 30
0.0
 10
104.558669
 20
51.224956
 30
0.0
 10
104.558669
 20
51.300412
 30
0.0
  0
SPLINE
  5
1e2
100
AcDbEntity
  8
0
 62
7
100
AcDbSpline
 70
8
 71
3
 72
8
 73
4
 74
0
 40
0
 40
0
 40
0
 40
0
 40
1
 40
1
 40
1
 40
1
 10
104.558669
 20
51.300412
 30
0.0
 10
104.558669
 20
51.375868
 30
0.0
 10
104.497561
 20
51.436963
 30
0.0
 10
104.422109
 20
51.436963
 30
0.0
  0
SPLINE
  5
1e3
100
AcDbEntity
  8
0
 62
7
100
AcDbSpline
 70
8
 71
3
 72
8
 73
4
 74
0
 40
0
 40
0
 40
0
 40
0
 40
1
 40
1
 40
1
 40
1
 10
104.422109
 20
51.436963
 30
0.0
 10
104.346657
 20
51.436963
 30
0.0
 10
104.285550
 20
51.375868
 30
0.0
 10
104.285550
 20
51.300412
 30
0.0
  0
SPLINE
  5
1e4
100
AcDbEntity
  8
0
 62
7
100
AcDbSpline
 70
8
 71
3
 72
8
 73
4
 74
0
 40
0
 40
0
 40
0
 40
0
 40
1
 40
1
 40
1
 40
1
 10
104.285550
 20
51.300412
 30
0.0
 10
104.285550
 20
51.224956
 30
0.0
 10
104.346657
 20
51.163845
 30
0.0
 10
104.422109
 20
51.163845
 30
0.0
  0
LINE
  5
1e5
100
AcDbEntity
  8
0
 62
7
100
AcDbLine
 10
104.422109
 20
51.163845
 30
0.0
 11
104.422109
 21
51.163845
 31
0.0
  0
SPLINE
  5
1e6
100
AcDbEntity
  8
0
 62
7
100
AcDbSpline
 70
8
 71
3
 72
8
 73
4
 74
0
 40
0
 40
0
 40
0
 40
0
 40
1
 40
1
 40
1
 40
1
 10
91.016736
 20
74.382749
 30
0.0
 10
91.092187
 20
74.382749
 30
0.0
 10
91.153295
 20
74.443895
 30
0.0
 10
91.153295
 20
74.519313
 30
0.0
  0
SPLINE
  5
1e7
100
AcDbEntity
  8
0
 62
7
100
AcDbSpline
 70
8
 71
3
 72
8
 73
4
 74
0
 40
0
 40
0
 40
0
 40
0
 40
1
 40
1
 40
1
 40
1
 10
91.153295
 20
74.519313
 30
0.0
 10
91.153295
 20
74.594777
 30
0.0
 10
91.092186
 20
74.655870
 30
0.0
 10
91.016736
 20
74.655870
 30
0.0
  0
SPLINE
  5
1e8
100
AcDbEntity
  8
0
 62
7
100
AcDbSpline
 70
8
 71
3
 72
8
 73
4
 74
0
 40
0
 40
0
 40
0
 40
0
 40
1
 40
1
 40
1
 40
1
 10
91.016736
 20
74.655870
 30
0.0
 10
90.941284
 20
74.655870
 30
0.0
 10
90.880177
 20
74.594799
 30
0.0
 10
90.880177
 20
74.519313
 30
0.0
  0
SPLINE
  5
1e9
100
AcDbEntity
  8
0
 62
7
100
AcDbSpline
 70
8
 71
3
 72
8
 73
4
 74
0
 40
0
 40
0
 40
0
 40
0
 40
1
 40
1
 40
1
 40
1
 10
90.880177
 20
74.519313
 30
0.0
 10
90.880177
 20
74.443865
 30
0.0
 10
90.941285
 20
74.382749
 30
0.0
 10
91.016736
 20
74.382749
 30
0.0
  0
LINE
  5
1ea
100
AcDbEntity
  8
0
 62
7
100
AcDbLine
 10
91.016736
 20
74.382749
 30
0.0
 11
91.016736
 21
74.382749
 31
0.0
  0
SPLINE
  5
1eb
100
AcDbEntity
  8
0
 62
7
100
AcDbSpline
 70
8
 71
3
 72
8
 73
4
 74
0
 40
0
 40
0
 40
0
 40
0
 40
1
 40
1
 40
1
 40
1
 10
64.205598
 20
74.382749
 30
0.0
 10
64.281047
 20
74.382749
 30
0.0
 10
64.342155
 20
74.443895
 30
0.0
 10
64.342155
 20
74.519313
 30
0.0
  0
SPLINE
  5
1ec
100
AcDbEntity
  8
0
 62
7
100
AcDbSpline
 70
8
 71
3
 72
8
 73
4
 74
0
 40
0
 40
0
 40
0
 40
0
 40
1
 40
1
 40
1
 40
1
 10
64.342155
 20
74.519313
 30
0.0
 10
64.342155
 20
74.594777
 30
0.0
 10
64.281009
 20
74.655870
 30
0.0
 10
64.205598
 20
74.655870
 30
0.0
  0
SPLINE
  5
1ed
100
AcDbEntity
  8
0
 62
7
100
AcDbSpline
 70
8
 71
3
 72
8
 73
4
 74
0
 40
0
 40
0
 40
0
 40
0
 40
1
 40
1
 40
1
 40
1
 10
64.205598
 20
74.655870
 30
0.0
 10
64.130142
 20
74.655870
 30
0.0
 10
64.069041
 20
74.594799
 30
0.0
 10
64.069041
 20
74.519313
 30
0.0
  0
SPLINE
  5
1ee
100
AcDbEntity
  8
0
 62
7
100
AcDbSpline
 70
8
 71
3
 72
8
 73
4
 74
0
 40
0
 40
0
 40
0
 40
0
 40
1
 40
1
 40
1
 40
1
 10
64.069041
 20
74.519313
 30
0.0
 10
64.069041
 20
74.443865
 30
0.0
 10
64.130112
 20
74.382749
 30
0.0
 10
64.205598
 20
74.382749
 30
0.0
  0
LINE
  5
1ef
100
AcDbEntity
  8
0
 62
7
100
AcDbLine
 10
64.205598
 20
74.382749
 30
0.0
 11
64.205598
 21
74.382749
 31
0.0
  0
SPLINE
  5
1f0
100
AcDbEntity
  8
0
 62
7
100
AcDbSpline
 70
8
 71
3
 72
8
 73
4
 74
0
 40
0
 40
0
 40
0
 40
0
 40
1
 40
1
 40
1
 40
1
 10
77.611171
 20
97.601845
 30
0.0
 10
77.686623
 20
97.601845
 30
0.0
 10
77.747730
 20
97.662991
 30
0.0
 10
77.747730
 20
97.738409
 30
0.0
  0
SPLINE
  5
1f1
100
AcDbEntity
  8
0
 62
7
100
AcDbSpline
 70
8
 71
3
 72
8
 73
4
 74
0
 40
0
 40
0
 40
0
 40
0
 40
1
 40
1
 40
1
 40
1
 10
77.747730
 20
97.738409
 30
0.0
 10
77.747730
 20
97.813873
 30
0.0
 10
77.686622
 20
97.874966
 30
0.0
 10
77.611171
 20
97.874966
 30
0.0
  0
SPLINE
  5
1f2
100
AcDbEntity
  8
0
 62
7
100
AcDbSpline
 70
8
 71
3
 72
8
 73
4
 74
0
 40
0
 40
0
 40
0
 40
0
 40
1
 40
1
 40
1
 40
1
 10
77.611171
 20
97.874966
 30
0.0
 10
77.535718
 20
97.874966
 30
0.0
 10
77.474611
 20
97.813895
 30
0.0
 10
77.474611
 20
97.738409
 30
0.0
  0
SPLINE
  5
1f3
100
AcDbEntity
  8
0
 62
7
100
AcDbSpline
 70
8
 71
3
 72
8
 73
4
 74
0
 40
0
 40
0
 40
0
 40
0
 40
1
 40
1
 40
1
 40
1
 10
77.474611
 20
97.738409
 30
0.0
 10
77.474611
 20
97.662961
 30
0.0
 10
77.535720
 20
97.601845
 30
0.0
 10
77.611171
 20
97.601845
 30
0.0
  0
LINE
  5
1f4
100
AcDbEntity
  8
0
 62
7
100
AcDbLine
 10
77.611171
 20
97.601845
 30
0.0
 11
77.611171
 21
97.601845
 31
0.0
  0
ENDSEC
  0
SECTION
  2
OBJECTS
  0
DICTIONARY
  5
C
330
0
100
AcDbDictionary
  3
ACAD_GROUP
350
D
  3
ACAD_MLINESTYLE
350
17
  0
DICTIONARY
  5
D
330
C
100
AcDbDictionary
  0
DICTIONARY
  5
1A
330
C
100
AcDbDictionary
  0
DICTIONARY
  5
17
330
C
100
AcDbDictionary
  3
STANDARD
350
18
  0
DICTIONARY
  5
19
330
C
100
AcDbDictionary
  0
ENDSEC
  0
EOF
