  0
SECTION
  2
HEADER
  9
$ACADVER
  1
AC1009
  9
$EXTMIN
 10
0.0
 20
0.0
 30
0.0
  9
$EXTMAX
 10
1000.0
 20
1000.0
 30
0.0
  9
$FILLMODE
 70
 0
  9
$SPLFRAME
 70
 1
  0
ENDSEC
  0
SECTION
  2
TABLES
  0
TABLE
  2
LAYER
 70
1
  0
LAYER
  2
0
 70
     0
 62
     7
  6
CONTINUOUS
  0
ENDTAB
  0
ENDSEC
  0
SECTION
  2
ENTITIES
  0
POLYLINE
  8
0
 62
     7
 66
     1
 10
0
 20
0
 30
0.0
 70
     1
 40
0
 41
0
  0
VERTEX
  8
0
 10
0
 20
1.98608
 30
0.0
 40
0
 41
0
  0
VERTEX
  8
0
 10
3.34722
 20
1.98608
 30
0.0
 40
0
 41
0
  0
VERTEX
  8
0
 10
3.34722
 20
0.00491185
 30
0.0
 40
0
 41
0
  0
VERTEX
  8
0
 10
0
 20
0.00491185
 30
0.0
 40
0
 41
0
  0
VERTEX
  8
0
 10
0
 20
1.98608
 30
0.0
 40
0
 41
0
  0
SEQEND
 8
0
  0
POLYLINE
  8
0
 62
     7
 66
     1
 10
0
 20
0
 30
0.0
 70
     1
 40
0
 41
0
  0
VERTEX
  8
0
 10
0
 20
1.98608
 30
0.0
 40
0
 41
0
  0
VERTEX
  8
0
 10
3.34722
 20
1.98608
 30
0.0
 40
0
 41
0
  0
VERTEX
  8
0
 10
3.34722
 20
0.0153285
 30
0.0
 40
0
 41
0
  0
VERTEX
  8
0
 10
0
 20
0.0153285
 30
0.0
 40
0
 41
0
  0
VERTEX
  8
0
 10
0
 20
1.98608
 30
0.0
 40
0
 41
0
  0
SEQEND
 8
0
  0
POLYLINE
  8
0
 62
     250
 66
     1
 10
0
 20
0
 30
0.0
 70
     1
 40
0
 41
0
  0
VERTEX
  8
0
 10
-0.54221
 20
2.29892
 30
0.0
 40
0
 41
0
  0
VERTEX
  8
0
 10
3.88943
 20
2.29892
 30
0.0
 40
0
 41
0
  0
VERTEX
  8
0
 10
3.88943
 20
-0.307914
 30
0.0
 40
0
 41
0
  0
VERTEX
  8
0
 10
-0.54221
 20
-0.307914
 30
0.0
 40
0
 41
0
  0
VERTEX
  8
0
 10
-0.54221
 20
2.29892
 30
0.0
 40
0
 41
0
  0
SEQEND
 8
0
  0
POLYLINE
  8
0
 62
     33
 66
     1
 10
0
 20
0
 30
0.0
 70
     1
 40
0
 41
0
  0
VERTEX
  8
0
 10
0.11084
 20
1.67999
 30
0.0
 40
0
 41
0
  0
VERTEX
  8
0
 10
0.111111
 20
1.6815
 30
0.0
 40
0
 41
0
  0
VERTEX
  8
0
 10
0.115397
 20
1.69138
 30
0.0
 40
0
 41
0
  0
VERTEX
  8
0
 10
0.115994
 20
1.69214
 30
0.0
 40
0
 41
0
  0
VERTEX
  8
0
 10
0.117025
 20
1.69322
 30
0.0
 40
0
 41
0
  0
VERTEX
  8
0
 10
0.125054
 20
1.69182
 30
0.0
 40
0
 41
0
  0
VERTEX
  8
0
 10
0.133789
 20
1.69111
 30
0.0
 40
0
 41
0
  0
VERTEX
  8
0
 10
0.135091
 20
1.69242
 30
0.0
 40
0
 41
0
  0
VERTEX
  8
0
 10
0.136393
 20
1.69376
 30
0.0
 40
0
 41
0
  0
VERTEX
  8
0
 10
0.136339
 20
1.71043
 30
0.0
 40
0
 41
0
  0
VERTEX
  8
0
 10
0.135037
 20
1.71172
 30
0.0
 40
0
 41
0
  0
VERTEX
  8
0
 10
0.133681
 20
1.71308
 30
0.0
 40
0
 41
0
  0
VERTEX
  8
0
 10
0.117079
 20
1.71297
 30
0.0
 40
0
 41
0
  0
VERTEX
  8
0
 10
0.115777
 20
1.71161
 30
0.0
 40
0
 41
0
  0
VERTEX
  8
0
 10
0.115289
 20
1.71112
 30
0.0
 40
0
 41
0
  0
VERTEX
  8
0
 10
0.111111
 20
1.70435
 30
0.0
 40
0
 41
0
  0
VERTEX
  8
0
 10
0.11084
 20
1.70353
 30
0.0
 40
0
 41
0
  0
VERTEX
  8
0
 10
0.11084
 20
1.79365
 30
0.0
 40
0
 41
0
  0
VERTEX
  8
0
 10
0.11084
 20
1.80071
 30
0.0
 40
0
 41
0
  0
VERTEX
  8
0
 10
0.122396
 20
1.82169
 30
0.0
 40
0
 41
0
  0
VERTEX
  8
0
 10
0.143392
 20
1.83331
 30
0.0
 40
0
 41
0
  0
VERTEX
  8
0
 10
0.15039
 20
1.83331
 30
0.0
 40
0
 41
0
  0
VERTEX
  8
0
 10
0.157389
 20
1.83331
 30
0.0
 40
0
 41
0
  0
VERTEX
  8
0
 10
0.178386
 20
1.82169
 30
0.0
 40
0
 41
0
  0
VERTEX
  8
0
 10
0.189996
 20
1.80071
 30
0.0
 40
0
 41
0
  0
VERTEX
  8
0
 10
0.189996
 20
1.79365
 30
0.0
 40
0
 41
0
  0
VERTEX
  8
0
 10
0.189996
 20
1.78611
 30
0.0
 40
0
 41
0
  0
VERTEX
  8
0
 10
0.178222
 20
1.76533
 30
0.0
 40
0
 41
0
  0
VERTEX
  8
0
 10
0.176107
 20
1.76349
 30
0.0
 40
0
 41
0
  0
VERTEX
  8
0
 10
0.173394
 20
1.76283
 30
0.0
 40
0
 41
0
  0
VERTEX
  8
0
 10
0.16466
 20
1.76365
 30
0.0
 40
0
 41
0
  0
VERTEX
  8
0
 10
0.162326
 20
1.7701
 30
0.0
 40
0
 41
0
  0
VERTEX
  8
0
 10
0.161893
 20
1.77829
 30
0.0
 40
0
 41
0
  0
VERTEX
  8
0
 10
0.157824
 20
1.78339
 30
0.0
 40
0
 41
0
  0
VERTEX
  8
0
 10
0.156196
 20
1.78378
 30
0.0
 40
0
 41
0
  0
VERTEX
  8
0
 10
0.153863
 20
1.78438
 30
0.0
 40
0
 41
0
  0
VERTEX
  8
0
 10
0.143067
 20
1.78176
 30
0.0
 40
0
 41
0
  0
VERTEX
  8
0
 10
0.135851
 20
1.77331
 30
0.0
 40
0
 41
0
  0
VERTEX
  8
0
 10
0.135308
 20
1.77097
 30
0.0
 40
0
 41
0
  0
VERTEX
  8
0
 10
0.134711
 20
1.76869
 30
0.0
 40
0
 41
0
  0
VERTEX
  8
0
 10
0.13737
 20
1.75789
 30
0.0
 40
0
 41
0
  0
VERTEX
  8
0
 10
0.145725
 20
1.75062
 30
0.0
 40
0
 41
0
  0
VERTEX
  8
0
 10
0.148058
 20
1.75003
 30
0.0
 40
0
 41
0
  0
VERTEX
  8
0
 10
0.148221
 20
1.75003
 30
0.0
 40
0
 41
0
  0
VERTEX
  8
0
 10
0.150174
 20
1.74976
 30
0.0
 40
0
 41
0
  0
VERTEX
  8
0
 10
0.15039
 20
1.74971
 30
0.0
 40
0
 41
0
  0
VERTEX
  8
0
 10
0.15039
 20
1.74926
 30
0.0
 40
0
 41
0
  0
VERTEX
  8
0
 10
0.154676
 20
1.74926
 30
0.0
 40
0
 41
0
  0
VERTEX
  8
0
 10
0.167589
 20
1.75279
 30
0.0
 40
0
 41
0
  0
VERTEX
  8
0
 10
0.18164
 20
1.76229
 30
0.0
 40
0
 41
0
  0
VERTEX
  8
0
 10
0.191135
 20
1.7764
 30
0.0
 40
0
 41
0
  0
VERTEX
  8
0
 10
0.194661
 20
1.78936
 30
0.0
 40
0
 41
0
  0
VERTEX
  8
0
 10
0.194661
 20
1.79365
 30
0.0
 40
0
 41
0
  0
VERTEX
  8
0
 10
0.194661
 20
1.79864
 30
0.0
 40
0
 41
0
  0
VERTEX
  8
0
 10
0.190647
 20
1.81199
 30
0.0
 40
0
 41
0
  0
VERTEX
  8
0
 10
0.189942
 20
1.81344
 30
0.0
 40
0
 41
0
  0
VERTEX
  8
0
 10
0.191461
 20
1.81269
 30
0.0
 40
0
 41
0
  0
VERTEX
  8
0
 10
0.205404
 20
1.80851
 30
0.0
 40
0
 41
0
  0
VERTEX
  8
0
 10
0.210069
 20
1.80851
 30
0.0
 40
0
 41
0
  0
VERTEX
  8
0
 10
0.214356
 20
1.80851
 30
0.0
 40
0
 41
0
  0
VERTEX
  8
0
 10
0.227214
 20
1.81204
 30
0.0
 40
0
 41
0
  0
VERTEX
  8
0
 10
0.241265
 20
1.82154
 30
0.0
 40
0
 41
0
  0
VERTEX
  8
0
 10
0.25076
 20
1.83564
 30
0.0
 40
0
 41
0
  0
VERTEX
  8
0
 10
0.254286
 20
1.84861
 30
0.0
 40
0
 41
0
  0
VERTEX
  8
0
 10
0.254286
 20
1.85289
 30
0.0
 40
0
 41
0
  0
VERTEX
  8
0
 10
0.253851
 20
1.85289
 30
0.0
 40
0
 41
0
  0
VERTEX
  8
0
 10
0.253797
 20
1.85311
 30
0.0
 40
0
 41
0
  0
VERTEX
  8
0
 10
0.253526
 20
1.85511
 30
0.0
 40
0
 41
0
  0
VERTEX
  8
0
 10
0.253526
 20
1.85528
 30
0.0
 40
0
 41
0
  0
VERTEX
  8
0
 10
0.252929
 20
1.85761
 30
0.0
 40
0
 41
0
  0
VERTEX
  8
0
 10
0.245714
 20
1.86603
 30
0.0
 40
0
 41
0
  0
VERTEX
  8
0
 10
0.234918
 20
1.86868
 30
0.0
 40
0
 41
0
  0
VERTEX
  8
0
 10
0.232639
 20
1.86808
 30
0.0
 40
0
 41
0
  0
VERTEX
  8
0
 10
0.230306
 20
1.86754
 30
0.0
 40
0
 41
0
  0
VERTEX
  8
0
 10
0.221897
 20
1.86028
 30
0.0
 40
0
 41
0
  0
VERTEX
  8
0
 10
0.219239
 20
1.84947
 30
0.0
 40
0
 41
0
  0
VERTEX
  8
0
 10
0.219835
 20
1.84714
 30
0.0
 40
0
 41
0
  0
VERTEX
  8
0
 10
0.220215
 20
1.84551
 30
0.0
 40
0
 41
0
  0
VERTEX
  8
0
 10
0.225261
 20
1.84139
 30
0.0
 40
0
 41
0
  0
VERTEX
  8
0
 10
0.233507
 20
1.8409
 30
0.0
 40
0
 41
0
  0
VERTEX
  8
0
 10
0.239908
 20
1.83857
 30
0.0
 40
0
 41
0
  0
VERTEX
  8
0
 10
0.240776
 20
1.82989
 30
0.0
 40
0
 41
0
  0
VERTEX
  8
0
 10
0.240126
 20
1.82718
 30
0.0
 40
0
 41
0
  0
VERTEX
  8
0
 10
0.238282
 20
1.82506
 30
0.0
 40
0
 41
0
  0
VERTEX
  8
0
 10
0.217122
 20
1.81324
 30
0.0
 40
0
 41
0
  0
VERTEX
  8
0
 10
0.210069
 20
1.81324
 30
0.0
 40
0
 41
0
  0
VERTEX
  8
0
 10
0.203017
 20
1.81324
 30
0.0
 40
0
 41
0
  0
VERTEX
  8
0
 10
0.182021
 20
1.8249
 30
0.0
 40
0
 41
0
  0
VERTEX
  8
0
 10
0.170464
 20
1.84589
 30
0.0
 40
0
 41
0
  0
VERTEX
  8
0
 10
0.170464
 20
1.85289
 30
0.0
 40
0
 41
0
  0
VERTEX
  8
0
 10
0.170464
 20
1.85994
 30
0.0
 40
0
 41
0
  0
VERTEX
  8
0
 10
0.182021
 20
1.881
 30
0.0
 40
0
 41
0
  0
VERTEX
  8
0
 10
0.203017
 20
1.89261
 30
0.0
 40
0
 41
0
  0
VERTEX
  8
0
 10
0.210069
 20
1.89261
 30
0.0
 40
0
 41
0
  0
VERTEX
  8
0
 10
0.299968
 20
1.89261
 30
0.0
 40
0
 41
0
  0
VERTEX
  8
0
 10
0.299154
 20
1.89233
 30
0.0
 40
0
 41
0
  0
VERTEX
  8
0
 10
0.292318
 20
1.8881
 30
0.0
 40
0
 41
0
  0
VERTEX
  8
0
 10
0.291829
 20
1.88761
 30
0.0
 40
0
 41
0
  0
VERTEX
  8
0
 10
0.290474
 20
1.88632
 30
0.0
 40
0
 41
0
  0
VERTEX
  8
0
 10
0.290419
 20
1.86971
 30
0.0
 40
0
 41
0
  0
VERTEX
  8
0
 10
0.291775
 20
1.86836
 30
0.0
 40
0
 41
0
  0
VERTEX
  8
0
 10
0.293078
 20
1.86706
 30
0.0
 40
0
 41
0
  0
VERTEX
  8
0
 10
0.309679
 20
1.86694
 30
0.0
 40
0
 41
0
  0
VERTEX
  8
0
 10
0.311035
 20
1.86825
 30
0.0
 40
0
 41
0
  0
VERTEX
  8
0
 10
0.312338
 20
1.8696
 30
0.0
 40
0
 41
0
  0
VERTEX
  8
0
 10
0.311632
 20
1.87833
 30
0.0
 40
0
 41
0
  0
VERTEX
  8
0
 10
0.310221
 20
1.88636
 30
0.0
 40
0
 41
0
  0
VERTEX
  8
0
 10
0.311307
 20
1.8874
 30
0.0
 40
0
 41
0
  0
VERTEX
  8
0
 10
0.312067
 20
1.888
 30
0.0
 40
0
 41
0
  0
VERTEX
  8
0
 10
0.32194
 20
1.89233
 30
0.0
 40
0
 41
0
  0
VERTEX
  8
0
 10
0.32346
 20
1.89261
 30
0.0
 40
0
 41
0
  0
VERTEX
  8
0
 10
0.369629
 20
1.89261
 30
0.0
 40
0
 41
0
  0
VERTEX
  8
0
 10
0.369629
 20
1.89728
 30
0.0
 40
0
 41
0
  0
VERTEX
  8
0
 10
0.210069
 20
1.89728
 30
0.0
 40
0
 41
0
  0
VERTEX
  8
0
 10
0.205729
 20
1.89728
 30
0.0
 40
0
 41
0
  0
VERTEX
  8
0
 10
0.192817
 20
1.89381
 30
0.0
 40
0
 41
0
  0
VERTEX
  8
0
 10
0.178765
 20
1.88431
 30
0.0
 40
0
 41
0
  0
VERTEX
  8
0
 10
0.169271
 20
1.87019
 30
0.0
 40
0
 41
0
  0
VERTEX
  8
0
 10
0.165799
 20
1.85724
 30
0.0
 40
0
 41
0
  0
VERTEX
  8
0
 10
0.165799
 20
1.85289
 30
0.0
 40
0
 41
0
  0
VERTEX
  8
0
 10
0.165799
 20
1.84796
 30
0.0
 40
0
 41
0
  0
VERTEX
  8
0
 10
0.16976
 20
1.83461
 30
0.0
 40
0
 41
0
  0
VERTEX
  8
0
 10
0.170518
 20
1.8331
 30
0.0
 40
0
 41
0
  0
VERTEX
  8
0
 10
0.169
 20
1.8339
 30
0.0
 40
0
 41
0
  0
VERTEX
  8
0
 10
0.155003
 20
1.83797
 30
0.0
 40
0
 41
0
  0
VERTEX
  8
0
 10
0.15039
 20
1.83797
 30
0.0
 40
0
 41
0
  0
VERTEX
  8
0
 10
0.14605
 20
1.83797
 30
0.0
 40
0
 41
0
  0
VERTEX
  8
0
 10
0.133138
 20
1.8345
 30
0.0
 40
0
 41
0
  0
VERTEX
  8
0
 10
0.119086
 20
1.82501
 30
0.0
 40
0
 41
0
  0
VERTEX
  8
0
 10
0.109646
 20
1.8109
 30
0.0
 40
0
 41
0
  0
VERTEX
  8
0
 10
0.106174
 20
1.79799
 30
0.0
 40
0
 41
0
  0
VERTEX
  8
0
 10
0.106174
 20
1.79365
 30
0.0
 40
0
 41
0
  0
VERTEX
  8
0
 10
0.106174
 20
1.64494
 30
0.0
 40
0
 41
0
  0
VERTEX
  8
0
 10
0.11084
 20
1.64494
 30
0.0
 40
0
 41
0
  0
VERTEX
  8
0
 10
0.11084
 20
1.67999
 30
0.0
 40
0
 41
0
  0
VERTEX
  8
0
 10
0.11084
 20
1.67999
 30
0.0
 40
0
 41
0
  0
SEQEND
 8
0
  0
POLYLINE
  8
0
 62
     33
 66
     1
 10
0
 20
0
 30
0.0
 70
     1
 40
0
 41
0
  0
VERTEX
  8
0
 10
0.0918511
 20
1.87064
 30
0.0
 40
0
 41
0
  0
VERTEX
  8
0
 10
0.0918511
 20
1.87497
 30
0.0
 40
0
 41
0
  0
VERTEX
  8
0
 10
0.0953233
 20
1.88794
 30
0.0
 40
0
 41
0
  0
VERTEX
  8
0
 10
0.104818
 20
1.9021
 30
0.0
 40
0
 41
0
  0
VERTEX
  8
0
 10
0.118924
 20
1.91165
 30
0.0
 40
0
 41
0
  0
VERTEX
  8
0
 10
0.131836
 20
1.91513
 30
0.0
 40
0
 41
0
  0
VERTEX
  8
0
 10
0.136176
 20
1.91513
 30
0.0
 40
0
 41
0
  0
VERTEX
  8
0
 10
0.369629
 20
1.91513
 30
0.0
 40
0
 41
0
  0
VERTEX
  8
0
 10
0.369629
 20
1.91979
 30
0.0
 40
0
 41
0
  0
VERTEX
  8
0
 10
0.136176
 20
1.91979
 30
0.0
 40
0
 41
0
  0
VERTEX
  8
0
 10
0.131402
 20
1.91979
 30
0.0
 40
0
 41
0
  0
VERTEX
  8
0
 10
0.117079
 20
1.91593
 30
0.0
 40
0
 41
0
  0
VERTEX
  8
0
 10
0.101508
 20
1.90542
 30
0.0
 40
0
 41
0
  0
VERTEX
  8
0
 10
0.0909831
 20
1.88979
 30
0.0
 40
0
 41
0
  0
VERTEX
  8
0
 10
0.0871311
 20
1.87546
 30
0.0
 40
0
 41
0
  0
VERTEX
  8
0
 10
0.0871311
 20
1.87064
 30
0.0
 40
0
 41
0
  0
VERTEX
  8
0
 10
0.0871311
 20
1.64494
 30
0.0
 40
0
 41
0
  0
VERTEX
  8
0
 10
0.0918511
 20
1.64494
 30
0.0
 40
0
 41
0
  0
VERTEX
  8
0
 10
0.0918511
 20
1.87064
 30
0.0
 40
0
 41
0
  0
SEQEND
 8
0
  0
POLYLINE
  8
0
 62
     33
 66
     1
 10
0
 20
0
 30
0.0
 70
     1
 40
0
 41
0
  0
VERTEX
  8
0
 10
0.106174
 20
1.64868
 30
0.0
 40
0
 41
0
  0
VERTEX
  8
0
 10
0.11084
 20
1.64868
 30
0.0
 40
0
 41
0
  0
VERTEX
  8
0
 10
0.11084
 20
0.380075
 30
0.0
 40
0
 41
0
  0
VERTEX
  8
0
 10
0.106174
 20
0.380075
 30
0.0
 40
0
 41
0
  0
VERTEX
  8
0
 10
0.106174
 20
1.64868
 30
0.0
 40
0
 41
0
  0
SEQEND
 8
0
  0
POLYLINE
  8
0
 62
     33
 66
     1
 10
0
 20
0
 30
0.0
 70
     1
 40
0
 41
0
  0
VERTEX
  8
0
 10
0.0871311
 20
1.64868
 30
0.0
 40
0
 41
0
  0
VERTEX
  8
0
 10
0.0918511
 20
1.64868
 30
0.0
 40
0
 41
0
  0
VERTEX
  8
0
 10
0.0918511
 20
0.380129
 30
0.0
 40
0
 41
0
  0
VERTEX
  8
0
 10
0.0871311
 20
0.380129
 30
0.0
 40
0
 41
0
  0
VERTEX
  8
0
 10
0.0871311
 20
1.64868
 30
0.0
 40
0
 41
0
  0
SEQEND
 8
0
  0
POLYLINE
  8
0
 62
     33
 66
     1
 10
0
 20
0
 30
0.0
 70
     1
 40
0
 41
0
  0
VERTEX
  8
0
 10
0.323514
 20
0.108862
 30
0.0
 40
0
 41
0
  0
VERTEX
  8
0
 10
0.321994
 20
0.109133
 30
0.0
 40
0
 41
0
  0
VERTEX
  8
0
 10
0.312067
 20
0.113419
 30
0.0
 40
0
 41
0
  0
VERTEX
  8
0
 10
0.311307
 20
0.114016
 30
0.0
 40
0
 41
0
  0
VERTEX
  8
0
 10
0.310221
 20
0.115101
 30
0.0
 40
0
 41
0
  0
VERTEX
  8
0
 10
0.311632
 20
0.12313
 30
0.0
 40
0
 41
0
  0
VERTEX
  8
0
 10
0.312338
 20
0.131865
 30
0.0
 40
0
 41
0
  0
VERTEX
  8
0
 10
0.311035
 20
0.133167
 30
0.0
 40
0
 41
0
  0
VERTEX
  8
0
 10
0.309679
 20
0.134523
 30
0.0
 40
0
 41
0
  0
VERTEX
  8
0
 10
0.293078
 20
0.134469
 30
0.0
 40
0
 41
0
  0
VERTEX
  8
0
 10
0.291775
 20
0.133113
 30
0.0
 40
0
 41
0
  0
VERTEX
  8
0
 10
0.290419
 20
0.131811
 30
0.0
 40
0
 41
0
  0
VERTEX
  8
0
 10
0.290474
 20
0.115155
 30
0.0
 40
0
 41
0
  0
VERTEX
  8
0
 10
0.291829
 20
0.113799
 30
0.0
 40
0
 41
0
  0
VERTEX
  8
0
 10
0.292318
 20
0.11331
 30
0.0
 40
0
 41
0
  0
VERTEX
  8
0
 10
0.299154
 20
0.109187
 30
0.0
 40
0
 41
0
  0
VERTEX
  8
0
 10
0.299968
 20
0.108862
 30
0.0
 40
0
 41
0
  0
VERTEX
  8
0
 10
0.210069
 20
0.108862
 30
0.0
 40
0
 41
0
  0
VERTEX
  8
0
 10
0.203017
 20
0.108862
 30
0.0
 40
0
 41
0
  0
VERTEX
  8
0
 10
0.182021
 20
0.120526
 30
0.0
 40
0
 41
0
  0
VERTEX
  8
0
 10
0.170464
 20
0.141522
 30
0.0
 40
0
 41
0
  0
VERTEX
  8
0
 10
0.170464
 20
0.148521
 30
0.0
 40
0
 41
0
  0
VERTEX
  8
0
 10
0.170464
 20
0.155574
 30
0.0
 40
0
 41
0
  0
VERTEX
  8
0
 10
0.182021
 20
0.176624
 30
0.0
 40
0
 41
0
  0
VERTEX
  8
0
 10
0.203017
 20
0.188235
 30
0.0
 40
0
 41
0
  0
VERTEX
  8
0
 10
0.210069
 20
0.188235
 30
0.0
 40
0
 41
0
  0
VERTEX
  8
0
 10
0.217557
 20
0.188235
 30
0.0
 40
0
 41
0
  0
VERTEX
  8
0
 10
0.238282
 20
0.176461
 30
0.0
 40
0
 41
0
  0
VERTEX
  8
0
 10
0.240126
 20
0.174292
 30
0.0
 40
0
 41
0
  0
VERTEX
  8
0
 10
0.240776
 20
0.171633
 30
0.0
 40
0
 41
0
  0
VERTEX
  8
0
 10
0.239963
 20
0.162899
 30
0.0
 40
0
 41
0
  0
VERTEX
  8
0
 10
0.233507
 20
0.160565
 30
0.0
 40
0
 41
0
  0
VERTEX
  8
0
 10
0.225315
 20
0.160076
 30
0.0
 40
0
 41
0
  0
VERTEX
  8
0
 10
0.220215
 20
0.156008
 30
0.0
 40
0
 41
0
  0
VERTEX
  8
0
 10
0.219835
 20
0.154326
 30
0.0
 40
0
 41
0
  0
VERTEX
  8
0
 10
0.219239
 20
0.151993
 30
0.0
 40
0
 41
0
  0
VERTEX
  8
0
 10
0.221897
 20
0.141197
 30
0.0
 40
0
 41
0
  0
VERTEX
  8
0
 10
0.230306
 20
0.133981
 30
0.0
 40
0
 41
0
  0
VERTEX
  8
0
 10
0.232639
 20
0.133384
 30
0.0
 40
0
 41
0
  0
VERTEX
  8
0
 10
0.234918
 20
0.132842
 30
0.0
 40
0
 41
0
  0
VERTEX
  8
0
 10
0.245714
 20
0.135446
 30
0.0
 40
0
 41
0
  0
VERTEX
  8
0
 10
0.252929
 20
0.143856
 30
0.0
 40
0
 41
0
  0
VERTEX
  8
0
 10
0.253526
 20
0.146188
 30
0.0
 40
0
 41
0
  0
VERTEX
  8
0
 10
0.253526
 20
0.146406
 30
0.0
 40
0
 41
0
  0
VERTEX
  8
0
 10
0.253797
 20
0.148358
 30
0.0
 40
0
 41
0
  0
VERTEX
  8
0
 10
0.253851
 20
0.148521
 30
0.0
 40
0
 41
0
  0
VERTEX
  8
0
 10
0.254286
 20
0.148521
 30
0.0
 40
0
 41
0
  0
VERTEX
  8
0
 10
0.254286
 20
0.152861
 30
0.0
 40
0
 41
0
  0
VERTEX
  8
0
 10
0.25076
 20
0.165828
 30
0.0
 40
0
 41
0
  0
VERTEX
  8
0
 10
0.241265
 20
0.179933
 30
0.0
 40
0
 41
0
  0
VERTEX
  8
0
 10
0.227214
 20
0.189428
 30
0.0
 40
0
 41
0
  0
VERTEX
  8
0
 10
0.214356
 20
0.1929
 30
0.0
 40
0
 41
0
  0
VERTEX
  8
0
 10
0.210069
 20
0.1929
 30
0.0
 40
0
 41
0
  0
VERTEX
  8
0
 10
0.204807
 20
0.1929
 30
0.0
 40
0
 41
0
  0
VERTEX
  8
0
 10
0.190647
 20
0.188506
 30
0.0
 40
0
 41
0
  0
VERTEX
  8
0
 10
0.189128
 20
0.187638
 30
0.0
 40
0
 41
0
  0
VERTEX
  8
0
 10
0.189996
 20
0.189265
 30
0.0
 40
0
 41
0
  0
VERTEX
  8
0
 10
0.194661
 20
0.204131
 30
0.0
 40
0
 41
0
  0
VERTEX
  8
0
 10
0.194661
 20
0.209068
 30
0.0
 40
0
 41
0
  0
VERTEX
  8
0
 10
0.194661
 20
0.213408
 30
0.0
 40
0
 41
0
  0
VERTEX
  8
0
 10
0.191135
 20
0.226375
 30
0.0
 40
0
 41
0
  0
VERTEX
  8
0
 10
0.18164
 20
0.240481
 30
0.0
 40
0
 41
0
  0
VERTEX
  8
0
 10
0.167589
 20
0.249975
 30
0.0
 40
0
 41
0
  0
VERTEX
  8
0
 10
0.154676
 20
0.253447
 30
0.0
 40
0
 41
0
  0
VERTEX
  8
0
 10
0.15039
 20
0.253447
 30
0.0
 40
0
 41
0
  0
VERTEX
  8
0
 10
0.15039
 20
0.252958
 30
0.0
 40
0
 41
0
  0
VERTEX
  8
0
 10
0.150174
 20
0.252958
 30
0.0
 40
0
 41
0
  0
VERTEX
  8
0
 10
0.148221
 20
0.252688
 30
0.0
 40
0
 41
0
  0
VERTEX
  8
0
 10
0.148058
 20
0.252633
 30
0.0
 40
0
 41
0
  0
VERTEX
  8
0
 10
0.145725
 20
0.25209
 30
0.0
 40
0
 41
0
  0
VERTEX
  8
0
 10
0.137316
 20
0.244875
 30
0.0
 40
0
 41
0
  0
VERTEX
  8
0
 10
0.134711
 20
0.234025
 30
0.0
 40
0
 41
0
  0
VERTEX
  8
0
 10
0.135308
 20
0.231692
 30
0.0
 40
0
 41
0
  0
VERTEX
  8
0
 10
0.135851
 20
0.229358
 30
0.0
 40
0
 41
0
  0
VERTEX
  8
0
 10
0.143067
 20
0.220949
 30
0.0
 40
0
 41
0
  0
VERTEX
  8
0
 10
0.153863
 20
0.218344
 30
0.0
 40
0
 41
0
  0
VERTEX
  8
0
 10
0.156196
 20
0.218888
 30
0.0
 40
0
 41
0
  0
VERTEX
  8
0
 10
0.157824
 20
0.219322
 30
0.0
 40
0
 41
0
  0
VERTEX
  8
0
 10
0.161893
 20
0.224421
 30
0.0
 40
0
 41
0
  0
VERTEX
  8
0
 10
0.162326
 20
0.232614
 30
0.0
 40
0
 41
0
  0
VERTEX
  8
0
 10
0.16466
 20
0.239069
 30
0.0
 40
0
 41
0
  0
VERTEX
  8
0
 10
0.173394
 20
0.239883
 30
0.0
 40
0
 41
0
  0
VERTEX
  8
0
 10
0.176107
 20
0.239232
 30
0.0
 40
0
 41
0
  0
VERTEX
  8
0
 10
0.178222
 20
0.237442
 30
0.0
 40
0
 41
0
  0
VERTEX
  8
0
 10
0.189996
 20
0.216175
 30
0.0
 40
0
 41
0
  0
VERTEX
  8
0
 10
0.189996
 20
0.209068
 30
0.0
 40
0
 41
0
  0
VERTEX
  8
0
 10
0.189996
 20
0.202069
 30
0.0
 40
0
 41
0
  0
VERTEX
  8
0
 10
0.178386
 20
0.181018
 30
0.0
 40
0
 41
0
  0
VERTEX
  8
0
 10
0.157389
 20
0.169354
 30
0.0
 40
0
 41
0
  0
VERTEX
  8
0
 10
0.15039
 20
0.169354
 30
0.0
 40
0
 41
0
  0
VERTEX
  8
0
 10
0.143392
 20
0.169354
 30
0.0
 40
0
 41
0
  0
VERTEX
  8
0
 10
0.122396
 20
0.181018
 30
0.0
 40
0
 41
0
  0
VERTEX
  8
0
 10
0.11084
 20
0.202069
 30
0.0
 40
0
 41
0
  0
VERTEX
  8
0
 10
0.11084
 20
0.209068
 30
0.0
 40
0
 41
0
  0
VERTEX
  8
0
 10
0.11084
 20
0.299183
 30
0.0
 40
0
 41
0
  0
VERTEX
  8
0
 10
0.111111
 20
0.298424
 30
0.0
 40
0
 41
0
  0
VERTEX
  8
0
 10
0.115289
 20
0.291533
 30
0.0
 40
0
 41
0
  0
VERTEX
  8
0
 10
0.115777
 20
0.291044
 30
0.0
 40
0
 41
0
  0
VERTEX
  8
0
 10
0.117079
 20
0.289743
 30
0.0
 40
0
 41
0
  0
VERTEX
  8
0
 10
0.133681
 20
0.289689
 30
0.0
 40
0
 41
0
  0
VERTEX
  8
0
 10
0.135037
 20
0.29099
 30
0.0
 40
0
 41
0
  0
VERTEX
  8
0
 10
0.136339
 20
0.292347
 30
0.0
 40
0
 41
0
  0
VERTEX
  8
0
 10
0.136393
 20
0.309003
 30
0.0
 40
0
 41
0
  0
VERTEX
  8
0
 10
0.135091
 20
0.310304
 30
0.0
 40
0
 41
0
  0
VERTEX
  8
0
 10
0.133735
 20
0.311661
 30
0.0
 40
0
 41
0
  0
VERTEX
  8
0
 10
0.125
 20
0.310901
 30
0.0
 40
0
 41
0
  0
VERTEX
  8
0
 10
0.116971
 20
0.30949
 30
0.0
 40
0
 41
0
  0
VERTEX
  8
0
 10
0.11594
 20
0.310522
 30
0.0
 40
0
 41
0
  0
VERTEX
  8
0
 10
0.115343
 20
0.311281
 30
0.0
 40
0
 41
0
  0
VERTEX
  8
0
 10
0.111111
 20
0.321264
 30
0.0
 40
0
 41
0
  0
VERTEX
  8
0
 10
0.11084
 20
0.322729
 30
0.0
 40
0
 41
0
  0
VERTEX
  8
0
 10
0.11084
 20
0.383872
 30
0.0
 40
0
 41
0
  0
VERTEX
  8
0
 10
0.106174
 20
0.383872
 30
0.0
 40
0
 41
0
  0
VERTEX
  8
0
 10
0.106174
 20
0.209068
 30
0.0
 40
0
 41
0
  0
VERTEX
  8
0
 10
0.106174
 20
0.204782
 30
0.0
 40
0
 41
0
  0
VERTEX
  8
0
 10
0.109646
 20
0.191815
 30
0.0
 40
0
 41
0
  0
VERTEX
  8
0
 10
0.119086
 20
0.17771
 30
0.0
 40
0
 41
0
  0
VERTEX
  8
0
 10
0.133138
 20
0.168215
 30
0.0
 40
0
 41
0
  0
VERTEX
  8
0
 10
0.14605
 20
0.164689
 30
0.0
 40
0
 41
0
  0
VERTEX
  8
0
 10
0.15039
 20
0.164689
 30
0.0
 40
0
 41
0
  0
VERTEX
  8
0
 10
0.155599
 20
0.164689
 30
0.0
 40
0
 41
0
  0
VERTEX
  8
0
 10
0.16976
 20
0.169138
 30
0.0
 40
0
 41
0
  0
VERTEX
  8
0
 10
0.171332
 20
0.169951
 30
0.0
 40
0
 41
0
  0
VERTEX
  8
0
 10
0.17041
 20
0.168378
 30
0.0
 40
0
 41
0
  0
VERTEX
  8
0
 10
0.165799
 20
0.153513
 30
0.0
 40
0
 41
0
  0
VERTEX
  8
0
 10
0.165799
 20
0.148521
 30
0.0
 40
0
 41
0
  0
VERTEX
  8
0
 10
0.165799
 20
0.144235
 30
0.0
 40
0
 41
0
  0
VERTEX
  8
0
 10
0.169271
 20
0.131268
 30
0.0
 40
0
 41
0
  0
VERTEX
  8
0
 10
0.178765
 20
0.117162
 30
0.0
 40
0
 41
0
  0
VERTEX
  8
0
 10
0.192817
 20
0.107668
 30
0.0
 40
0
 41
0
  0
VERTEX
  8
0
 10
0.205729
 20
0.104141
 30
0.0
 40
0
 41
0
  0
VERTEX
  8
0
 10
0.210069
 20
0.104141
 30
0.0
 40
0
 41
0
  0
VERTEX
  8
0
 10
0.369629
 20
0.104141
 30
0.0
 40
0
 41
0
  0
VERTEX
  8
0
 10
0.369629
 20
0.108807
 30
0.0
 40
0
 41
0
  0
VERTEX
  8
0
 10
0.323514
 20
0.108807
 30
0.0
 40
0
 41
0
  0
VERTEX
  8
0
 10
0.323514
 20
0.108862
 30
0.0
 40
0
 41
0
  0
VERTEX
  8
0
 10
0.323514
 20
0.108862
 30
0.0
 40
0
 41
0
  0
SEQEND
 8
0
  0
POLYLINE
  8
0
 62
     33
 66
     1
 10
0
 20
0
 30
0.0
 70
     1
 40
0
 41
0
  0
VERTEX
  8
0
 10
0.136176
 20
0.0862921
 30
0.0
 40
0
 41
0
  0
VERTEX
  8
0
 10
0.131836
 20
0.0862921
 30
0.0
 40
0
 41
0
  0
VERTEX
  8
0
 10
0.118924
 20
0.0898185
 30
0.0
 40
0
 41
0
  0
VERTEX
  8
0
 10
0.104818
 20
0.0993671
 30
0.0
 40
0
 41
0
  0
VERTEX
  8
0
 10
0.0953233
 20
0.113527
 30
0.0
 40
0
 41
0
  0
VERTEX
  8
0
 10
0.0918511
 20
0.126494
 30
0.0
 40
0
 41
0
  0
VERTEX
  8
0
 10
0.0918511
 20
0.13078
 30
0.0
 40
0
 41
0
  0
VERTEX
  8
0
 10
0.0918511
 20
0.383872
 30
0.0
 40
0
 41
0
  0
VERTEX
  8
0
 10
0.0871311
 20
0.383872
 30
0.0
 40
0
 41
0
  0
VERTEX
  8
0
 10
0.0871311
 20
0.13078
 30
0.0
 40
0
 41
0
  0
VERTEX
  8
0
 10
0.0871311
 20
0.126006
 30
0.0
 40
0
 41
0
  0
VERTEX
  8
0
 10
0.0909831
 20
0.111683
 30
0.0
 40
0
 41
0
  0
VERTEX
  8
0
 10
0.101508
 20
0.0960576
 30
0.0
 40
0
 41
0
  0
VERTEX
  8
0
 10
0.117079
 20
0.0855325
 30
0.0
 40
0
 41
0
  0
VERTEX
  8
0
 10
0.131402
 20
0.0816263
 30
0.0
 40
0
 41
0
  0
VERTEX
  8
0
 10
0.136176
 20
0.0816263
 30
0.0
 40
0
 41
0
  0
VERTEX
  8
0
 10
0.369629
 20
0.0816263
 30
0.0
 40
0
 41
0
  0
VERTEX
  8
0
 10
0.369629
 20
0.0862921
 30
0.0
 40
0
 41
0
  0
VERTEX
  8
0
 10
0.136176
 20
0.0862921
 30
0.0
 40
0
 41
0
  0
SEQEND
 8
0
  0
POLYLINE
  8
0
 62
     33
 66
     1
 10
0
 20
0
 30
0.0
 70
     1
 40
0
 41
0
  0
VERTEX
  8
0
 10
0.365885
 20
0.108862
 30
0.0
 40
0
 41
0
  0
VERTEX
  8
0
 10
2.97433
 20
0.108862
 30
0.0
 40
0
 41
0
  0
VERTEX
  8
0
 10
2.97433
 20
0.104141
 30
0.0
 40
0
 41
0
  0
VERTEX
  8
0
 10
0.365885
 20
0.104141
 30
0.0
 40
0
 41
0
  0
VERTEX
  8
0
 10
0.365885
 20
0.108862
 30
0.0
 40
0
 41
0
  0
SEQEND
 8
0
  0
POLYLINE
  8
0
 62
     33
 66
     1
 10
0
 20
0
 30
0.0
 70
     1
 40
0
 41
0
  0
VERTEX
  8
0
 10
0.365885
 20
0.0862921
 30
0.0
 40
0
 41
0
  0
VERTEX
  8
0
 10
2.97433
 20
0.0862921
 30
0.0
 40
0
 41
0
  0
VERTEX
  8
0
 10
2.97433
 20
0.0816263
 30
0.0
 40
0
 41
0
  0
VERTEX
  8
0
 10
0.365885
 20
0.0816263
 30
0.0
 40
0
 41
0
  0
VERTEX
  8
0
 10
0.365885
 20
0.0862921
 30
0.0
 40
0
 41
0
  0
SEQEND
 8
0
  0
POLYLINE
  8
0
 62
     33
 66
     1
 10
0
 20
0
 30
0.0
 70
     1
 40
0
 41
0
  0
VERTEX
  8
0
 10
3.24681
 20
0.322621
 30
0.0
 40
0
 41
0
  0
VERTEX
  8
0
 10
3.24653
 20
0.32121
 30
0.0
 40
0
 41
0
  0
VERTEX
  8
0
 10
3.24224
 20
0.311336
 30
0.0
 40
0
 41
0
  0
VERTEX
  8
0
 10
3.24169
 20
0.310576
 30
0.0
 40
0
 41
0
  0
VERTEX
  8
0
 10
3.24061
 20
0.30949
 30
0.0
 40
0
 41
0
  0
VERTEX
  8
0
 10
3.23258
 20
0.310901
 30
0.0
 40
0
 41
0
  0
VERTEX
  8
0
 10
3.22385
 20
0.311661
 30
0.0
 40
0
 41
0
  0
VERTEX
  8
0
 10
3.22254
 20
0.310304
 30
0.0
 40
0
 41
0
  0
VERTEX
  8
0
 10
3.22119
 20
0.309003
 30
0.0
 40
0
 41
0
  0
VERTEX
  8
0
 10
3.22125
 20
0.292347
 30
0.0
 40
0
 41
0
  0
VERTEX
  8
0
 10
3.2226
 20
0.29099
 30
0.0
 40
0
 41
0
  0
VERTEX
  8
0
 10
3.2239
 20
0.289689
 30
0.0
 40
0
 41
0
  0
VERTEX
  8
0
 10
3.24056
 20
0.289743
 30
0.0
 40
0
 41
0
  0
VERTEX
  8
0
 10
3.24192
 20
0.291044
 30
0.0
 40
0
 41
0
  0
VERTEX
  8
0
 10
3.24235
 20
0.291533
 30
0.0
 40
0
 41
0
  0
VERTEX
  8
0
 10
3.24647
 20
0.298424
 30
0.0
 40
0
 41
0
  0
VERTEX
  8
0
 10
3.24681
 20
0.299183
 30
0.0
 40
0
 41
0
  0
VERTEX
  8
0
 10
3.24681
 20
0.209068
 30
0.0
 40
0
 41
0
  0
VERTEX
  8
0
 10
3.24681
 20
0.202069
 30
0.0
 40
0
 41
0
  0
VERTEX
  8
0
 10
3.23519
 20
0.181018
 30
0.0
 40
0
 41
0
  0
VERTEX
  8
0
 10
3.21419
 20
0.169354
 30
0.0
 40
0
 41
0
  0
VERTEX
  8
0
 10
3.20725
 20
0.169354
 30
0.0
 40
0
 41
0
  0
VERTEX
  8
0
 10
3.20019
 20
0.169354
 30
0.0
 40
0
 41
0
  0
VERTEX
  8
0
 10
3.17919
 20
0.181018
 30
0.0
 40
0
 41
0
  0
VERTEX
  8
0
 10
3.16764
 20
0.202069
 30
0.0
 40
0
 41
0
  0
VERTEX
  8
0
 10
3.16764
 20
0.209068
 30
0.0
 40
0
 41
0
  0
VERTEX
  8
0
 10
3.16764
 20
0.216608
 30
0.0
 40
0
 41
0
  0
VERTEX
  8
0
 10
3.17942
 20
0.237387
 30
0.0
 40
0
 41
0
  0
VERTEX
  8
0
 10
3.18153
 20
0.239178
 30
0.0
 40
0
 41
0
  0
VERTEX
  8
0
 10
3.18419
 20
0.239883
 30
0.0
 40
0
 41
0
  0
VERTEX
  8
0
 10
3.19293
 20
0.239069
 30
0.0
 40
0
 41
0
  0
VERTEX
  8
0
 10
3.19526
 20
0.232614
 30
0.0
 40
0
 41
0
  0
VERTEX
  8
0
 10
3.19569
 20
0.224421
 30
0.0
 40
0
 41
0
  0
VERTEX
  8
0
 10
3.19976
 20
0.219322
 30
0.0
 40
0
 41
0
  0
VERTEX
  8
0
 10
3.20144
 20
0.218888
 30
0.0
 40
0
 41
0
  0
VERTEX
  8
0
 10
3.20372
 20
0.218344
 30
0.0
 40
0
 41
0
  0
VERTEX
  8
0
 10
3.21451
 20
0.220949
 30
0.0
 40
0
 41
0
  0
VERTEX
  8
0
 10
3.22179
 20
0.229358
 30
0.0
 40
0
 41
0
  0
VERTEX
  8
0
 10
3.22239
 20
0.231692
 30
0.0
 40
0
 41
0
  0
VERTEX
  8
0
 10
3.22293
 20
0.234025
 30
0.0
 40
0
 41
0
  0
VERTEX
  8
0
 10
3.22026
 20
0.244875
 30
0.0
 40
0
 41
0
  0
VERTEX
  8
0
 10
3.21192
 20
0.25209
 30
0.0
 40
0
 41
0
  0
VERTEX
  8
0
 10
3.20958
 20
0.252633
 30
0.0
 40
0
 41
0
  0
VERTEX
  8
0
 10
3.20936
 20
0.252688
 30
0.0
 40
0
 41
0
  0
VERTEX
  8
0
 10
3.20742
 20
0.252958
 30
0.0
 40
0
 41
0
  0
VERTEX
  8
0
 10
3.20725
 20
0.252958
 30
0.0
 40
0
 41
0
  0
VERTEX
  8
0
 10
3.20725
 20
0.253447
 30
0.0
 40
0
 41
0
  0
VERTEX
  8
0
 10
3.2029
 20
0.253447
 30
0.0
 40
0
 41
0
  0
VERTEX
  8
0
 10
3.19
 20
0.249975
 30
0.0
 40
0
 41
0
  0
VERTEX
  8
0
 10
3.17594
 20
0.240481
 30
0.0
 40
0
 41
0
  0
VERTEX
  8
0
 10
3.16644
 20
0.226375
 30
0.0
 40
0
 41
0
  0
VERTEX
  8
0
 10
3.16297
 20
0.213408
 30
0.0
 40
0
 41
0
  0
VERTEX
  8
0
 10
3.16297
 20
0.209068
 30
0.0
 40
0
 41
0
  0
VERTEX
  8
0
 10
3.16297
 20
0.203479
 30
0.0
 40
0
 41
0
  0
VERTEX
  8
0
 10
3.16808
 20
0.188397
 30
0.0
 40
0
 41
0
  0
VERTEX
  8
0
 10
3.16906
 20
0.186715
 30
0.0
 40
0
 41
0
  0
VERTEX
  8
0
 10
3.16737
 20
0.187692
 30
0.0
 40
0
 41
0
  0
VERTEX
  8
0
 10
3.15181
 20
0.1929
 30
0.0
 40
0
 41
0
  0
VERTEX
  8
0
 10
3.14665
 20
0.1929
 30
0.0
 40
0
 41
0
  0
VERTEX
  8
0
 10
3.14231
 20
0.1929
 30
0.0
 40
0
 41
0
  0
VERTEX
  8
0
 10
3.12939
 20
0.189428
 30
0.0
 40
0
 41
0
  0
VERTEX
  8
0
 10
3.11535
 20
0.179933
 30
0.0
 40
0
 41
0
  0
VERTEX
  8
0
 10
3.10585
 20
0.165828
 30
0.0
 40
0
 41
0
  0
VERTEX
  8
0
 10
3.10238
 20
0.152861
 30
0.0
 40
0
 41
0
  0
VERTEX
  8
0
 10
3.10238
 20
0.148521
 30
0.0
 40
0
 41
0
  0
VERTEX
  8
0
 10
3.10286
 20
0.148521
 30
0.0
 40
0
 41
0
  0
VERTEX
  8
0
 10
3.10286
 20
0.148358
 30
0.0
 40
0
 41
0
  0
VERTEX
  8
0
 10
3.10314
 20
0.146406
 30
0.0
 40
0
 41
0
  0
VERTEX
  8
0
 10
3.10319
 20
0.146188
 30
0.0
 40
0
 41
0
  0
VERTEX
  8
0
 10
3.10374
 20
0.143856
 30
0.0
 40
0
 41
0
  0
VERTEX
  8
0
 10
3.11094
 20
0.135446
 30
0.0
 40
0
 41
0
  0
VERTEX
  8
0
 10
3.12175
 20
0.132842
 30
0.0
 40
0
 41
0
  0
VERTEX
  8
0
 10
3.12408
 20
0.133384
 30
0.0
 40
0
 41
0
  0
VERTEX
  8
0
 10
3.12636
 20
0.133981
 30
0.0
 40
0
 41
0
  0
VERTEX
  8
0
 10
3.13476
 20
0.141197
 30
0.0
 40
0
 41
0
  0
VERTEX
  8
0
 10
3.13738
 20
0.151993
 30
0.0
 40
0
 41
0
  0
VERTEX
  8
0
 10
3.13683
 20
0.154326
 30
0.0
 40
0
 41
0
  0
VERTEX
  8
0
 10
3.13639
 20
0.156008
 30
0.0
 40
0
 41
0
  0
VERTEX
  8
0
 10
3.13135
 20
0.160076
 30
0.0
 40
0
 41
0
  0
VERTEX
  8
0
 10
3.1231
 20
0.160565
 30
0.0
 40
0
 41
0
  0
VERTEX
  8
0
 10
3.11669
 20
0.162899
 30
0.0
 40
0
 41
0
  0
VERTEX
  8
0
 10
3.11594
 20
0.171633
 30
0.0
 40
0
 41
0
  0
VERTEX
  8
0
 10
3.1166
 20
0.174292
 30
0.0
 40
0
 41
0
  0
VERTEX
  8
0
 10
3.11837
 20
0.176461
 30
0.0
 40
0
 41
0
  0
VERTEX
  8
0
 10
3.13954
 20
0.188235
 30
0.0
 40
0
 41
0
  0
VERTEX
  8
0
 10
3.14665
 20
0.188235
 30
0.0
 40
0
 41
0
  0
VERTEX
  8
0
 10
3.15365
 20
0.188235
 30
0.0
 40
0
 41
0
  0
VERTEX
  8
0
 10
3.17464
 20
0.176624
 30
0.0
 40
0
 41
0
  0
VERTEX
  8
0
 10
3.18625
 20
0.155574
 30
0.0
 40
0
 41
0
  0
VERTEX
  8
0
 10
3.18625
 20
0.148521
 30
0.0
 40
0
 41
0
  0
VERTEX
  8
0
 10
3.18625
 20
0.141522
 30
0.0
 40
0
 41
0
  0
VERTEX
  8
0
 10
3.17464
 20
0.120526
 30
0.0
 40
0
 41
0
  0
VERTEX
  8
0
 10
3.15365
 20
0.108862
 30
0.0
 40
0
 41
0
  0
VERTEX
  8
0
 10
3.14665
 20
0.108862
 30
0.0
 40
0
 41
0
  0
VERTEX
  8
0
 10
3.05675
 20
0.108862
 30
0.0
 40
0
 41
0
  0
VERTEX
  8
0
 10
3.05751
 20
0.109187
 30
0.0
 40
0
 41
0
  0
VERTEX
  8
0
 10
3.0644
 20
0.11331
 30
0.0
 40
0
 41
0
  0
VERTEX
  8
0
 10
3.06489
 20
0.113799
 30
0.0
 40
0
 41
0
  0
VERTEX
  8
0
 10
3.06619
 20
0.115155
 30
0.0
 40
0
 41
0
  0
VERTEX
  8
0
 10
3.06625
 20
0.131811
 30
0.0
 40
0
 41
0
  0
VERTEX
  8
0
 10
3.06494
 20
0.133113
 30
0.0
 40
0
 41
0
  0
VERTEX
  8
0
 10
3.06358
 20
0.134469
 30
0.0
 40
0
 41
0
  0
VERTEX
  8
0
 10
3.04699
 20
0.134523
 30
0.0
 40
0
 41
0
  0
VERTEX
  8
0
 10
3.04568
 20
0.133167
 30
0.0
 40
0
 41
0
  0
VERTEX
  8
0
 10
3.04432
 20
0.131865
 30
0.0
 40
0
 41
0
  0
VERTEX
  8
0
 10
3.04503
 20
0.12313
 30
0.0
 40
0
 41
0
  0
VERTEX
  8
0
 10
3.0465
 20
0.115101
 30
0.0
 40
0
 41
0
  0
VERTEX
  8
0
 10
3.04542
 20
0.114016
 30
0.0
 40
0
 41
0
  0
VERTEX
  8
0
 10
3.04465
 20
0.113419
 30
0.0
 40
0
 41
0
  0
VERTEX
  8
0
 10
3.03467
 20
0.109133
 30
0.0
 40
0
 41
0
  0
VERTEX
  8
0
 10
3.03321
 20
0.108862
 30
0.0
 40
0
 41
0
  0
VERTEX
  8
0
 10
2.9706
 20
0.108862
 30
0.0
 40
0
 41
0
  0
VERTEX
  8
0
 10
2.9706
 20
0.104141
 30
0.0
 40
0
 41
0
  0
VERTEX
  8
0
 10
3.14665
 20
0.104141
 30
0.0
 40
0
 41
0
  0
VERTEX
  8
0
 10
3.15093
 20
0.104141
 30
0.0
 40
0
 41
0
  0
VERTEX
  8
0
 10
3.16385
 20
0.107668
 30
0.0
 40
0
 41
0
  0
VERTEX
  8
0
 10
3.1779
 20
0.117162
 30
0.0
 40
0
 41
0
  0
VERTEX
  8
0
 10
3.18739
 20
0.131268
 30
0.0
 40
0
 41
0
  0
VERTEX
  8
0
 10
3.19092
 20
0.144235
 30
0.0
 40
0
 41
0
  0
VERTEX
  8
0
 10
3.19092
 20
0.148521
 30
0.0
 40
0
 41
0
  0
VERTEX
  8
0
 10
3.19092
 20
0.154108
 30
0.0
 40
0
 41
0
  0
VERTEX
  8
0
 10
3.18576
 20
0.169246
 30
0.0
 40
0
 41
0
  0
VERTEX
  8
0
 10
3.18485
 20
0.170874
 30
0.0
 40
0
 41
0
  0
VERTEX
  8
0
 10
3.18647
 20
0.169897
 30
0.0
 40
0
 41
0
  0
VERTEX
  8
0
 10
3.20204
 20
0.164689
 30
0.0
 40
0
 41
0
  0
VERTEX
  8
0
 10
3.20725
 20
0.164689
 30
0.0
 40
0
 41
0
  0
VERTEX
  8
0
 10
3.21153
 20
0.164689
 30
0.0
 40
0
 41
0
  0
VERTEX
  8
0
 10
3.22444
 20
0.168215
 30
0.0
 40
0
 41
0
  0
VERTEX
  8
0
 10
3.2385
 20
0.17771
 30
0.0
 40
0
 41
0
  0
VERTEX
  8
0
 10
3.24799
 20
0.191815
 30
0.0
 40
0
 41
0
  0
VERTEX
  8
0
 10
3.25151
 20
0.204782
 30
0.0
 40
0
 41
0
  0
VERTEX
  8
0
 10
3.25151
 20
0.209068
 30
0.0
 40
0
 41
0
  0
VERTEX
  8
0
 10
3.25151
 20
0.383872
 30
0.0
 40
0
 41
0
  0
VERTEX
  8
0
 10
3.24685
 20
0.383872
 30
0.0
 40
0
 41
0
  0
VERTEX
  8
0
 10
3.24681
 20
0.322621
 30
0.0
 40
0
 41
0
  0
SEQEND
 8
0
  0
POLYLINE
  8
0
 62
     33
 66
     1
 10
0
 20
0
 30
0.0
 70
     1
 40
0
 41
0
  0
VERTEX
  8
0
 10
3.26585
 20
0.383872
 30
0.0
 40
0
 41
0
  0
VERTEX
  8
0
 10
3.26585
 20
0.13078
 30
0.0
 40
0
 41
0
  0
VERTEX
  8
0
 10
3.26585
 20
0.126494
 30
0.0
 40
0
 41
0
  0
VERTEX
  8
0
 10
3.26232
 20
0.113527
 30
0.0
 40
0
 41
0
  0
VERTEX
  8
0
 10
3.25282
 20
0.0993671
 30
0.0
 40
0
 41
0
  0
VERTEX
  8
0
 10
3.23872
 20
0.0898185
 30
0.0
 40
0
 41
0
  0
VERTEX
  8
0
 10
3.22575
 20
0.0862921
 30
0.0
 40
0
 41
0
  0
VERTEX
  8
0
 10
3.22146
 20
0.0862921
 30
0.0
 40
0
 41
0
  0
VERTEX
  8
0
 10
2.9706
 20
0.0862921
 30
0.0
 40
0
 41
0
  0
VERTEX
  8
0
 10
2.9706
 20
0.0816263
 30
0.0
 40
0
 41
0
  0
VERTEX
  8
0
 10
3.22146
 20
0.0816263
 30
0.0
 40
0
 41
0
  0
VERTEX
  8
0
 10
3.22618
 20
0.0816263
 30
0.0
 40
0
 41
0
  0
VERTEX
  8
0
 10
3.2405
 20
0.0855325
 30
0.0
 40
0
 41
0
  0
VERTEX
  8
0
 10
3.25608
 20
0.0960576
 30
0.0
 40
0
 41
0
  0
VERTEX
  8
0
 10
3.2666
 20
0.111683
 30
0.0
 40
0
 41
0
  0
VERTEX
  8
0
 10
3.27051
 20
0.126006
 30
0.0
 40
0
 41
0
  0
VERTEX
  8
0
 10
3.27051
 20
0.13078
 30
0.0
 40
0
 41
0
  0
VERTEX
  8
0
 10
3.27051
 20
0.383872
 30
0.0
 40
0
 41
0
  0
VERTEX
  8
0
 10
3.26585
 20
0.383872
 30
0.0
 40
0
 41
0
  0
SEQEND
 8
0
  0
POLYLINE
  8
0
 62
     33
 66
     1
 10
0
 20
0
 30
0.0
 70
     1
 40
0
 41
0
  0
VERTEX
  8
0
 10
3.24681
 20
1.64868
 30
0.0
 40
0
 41
0
  0
VERTEX
  8
0
 10
3.25151
 20
1.64868
 30
0.0
 40
0
 41
0
  0
VERTEX
  8
0
 10
3.25151
 20
0.380075
 30
0.0
 40
0
 41
0
  0
VERTEX
  8
0
 10
3.24681
 20
0.380075
 30
0.0
 40
0
 41
0
  0
VERTEX
  8
0
 10
3.24681
 20
1.64868
 30
0.0
 40
0
 41
0
  0
SEQEND
 8
0
  0
POLYLINE
  8
0
 62
     33
 66
     1
 10
0
 20
0
 30
0.0
 70
     1
 40
0
 41
0
  0
VERTEX
  8
0
 10
3.26585
 20
1.64868
 30
0.0
 40
0
 41
0
  0
VERTEX
  8
0
 10
3.27051
 20
1.64868
 30
0.0
 40
0
 41
0
  0
VERTEX
  8
0
 10
3.27051
 20
0.380129
 30
0.0
 40
0
 41
0
  0
VERTEX
  8
0
 10
3.26585
 20
0.380129
 30
0.0
 40
0
 41
0
  0
VERTEX
  8
0
 10
3.26585
 20
1.64868
 30
0.0
 40
0
 41
0
  0
SEQEND
 8
0
  0
POLYLINE
  8
0
 62
     33
 66
     1
 10
0
 20
0
 30
0.0
 70
     1
 40
0
 41
0
  0
VERTEX
  8
0
 10
3.20725
 20
1.83797
 30
0.0
 40
0
 41
0
  0
VERTEX
  8
0
 10
3.20188
 20
1.83797
 30
0.0
 40
0
 41
0
  0
VERTEX
  8
0
 10
3.18744
 20
1.83336
 30
0.0
 40
0
 41
0
  0
VERTEX
  8
0
 10
3.18587
 20
1.83244
 30
0.0
 40
0
 41
0
  0
VERTEX
  8
0
 10
3.18664
 20
1.83401
 30
0.0
 40
0
 41
0
  0
VERTEX
  8
0
 10
3.19086
 20
1.84817
 30
0.0
 40
0
 41
0
  0
VERTEX
  8
0
 10
3.19086
 20
1.85289
 30
0.0
 40
0
 41
0
  0
VERTEX
  8
0
 10
3.19086
 20
1.85724
 30
0.0
 40
0
 41
0
  0
VERTEX
  8
0
 10
3.18733
 20
1.87019
 30
0.0
 40
0
 41
0
  0
VERTEX
  8
0
 10
3.1779
 20
1.88431
 30
0.0
 40
0
 41
0
  0
VERTEX
  8
0
 10
3.16385
 20
1.89381
 30
0.0
 40
0
 41
0
  0
VERTEX
  8
0
 10
3.15093
 20
1.89728
 30
0.0
 40
0
 41
0
  0
VERTEX
  8
0
 10
3.14665
 20
1.89728
 30
0.0
 40
0
 41
0
  0
VERTEX
  8
0
 10
2.9706
 20
1.89728
 30
0.0
 40
0
 41
0
  0
VERTEX
  8
0
 10
2.9706
 20
1.89261
 30
0.0
 40
0
 41
0
  0
VERTEX
  8
0
 10
3.03321
 20
1.89261
 30
0.0
 40
0
 41
0
  0
VERTEX
  8
0
 10
3.03467
 20
1.89233
 30
0.0
 40
0
 41
0
  0
VERTEX
  8
0
 10
3.04465
 20
1.888
 30
0.0
 40
0
 41
0
  0
VERTEX
  8
0
 10
3.04542
 20
1.8874
 30
0.0
 40
0
 41
0
  0
VERTEX
  8
0
 10
3.04644
 20
1.88636
 30
0.0
 40
0
 41
0
  0
VERTEX
  8
0
 10
3.04503
 20
1.87833
 30
0.0
 40
0
 41
0
  0
VERTEX
  8
0
 10
3.04428
 20
1.8696
 30
0.0
 40
0
 41
0
  0
VERTEX
  8
0
 10
3.04563
 20
1.86825
 30
0.0
 40
0
 41
0
  0
VERTEX
  8
0
 10
3.04693
 20
1.86694
 30
0.0
 40
0
 41
0
  0
VERTEX
  8
0
 10
3.06358
 20
1.867
 30
0.0
 40
0
 41
0
  0
VERTEX
  8
0
 10
3.06494
 20
1.86831
 30
0.0
 40
0
 41
0
  0
VERTEX
  8
0
 10
3.06625
 20
1.86965
 30
0.0
 40
0
 41
0
  0
VERTEX
  8
0
 10
3.06614
 20
1.88632
 30
0.0
 40
0
 41
0
  0
VERTEX
  8
0
 10
3.06483
 20
1.88761
 30
0.0
 40
0
 41
0
  0
VERTEX
  8
0
 10
3.06435
 20
1.8881
 30
0.0
 40
0
 41
0
  0
VERTEX
  8
0
 10
3.05751
 20
1.89233
 30
0.0
 40
0
 41
0
  0
VERTEX
  8
0
 10
3.05669
 20
1.89261
 30
0.0
 40
0
 41
0
  0
VERTEX
  8
0
 10
3.14665
 20
1.89261
 30
0.0
 40
0
 41
0
  0
VERTEX
  8
0
 10
3.1536
 20
1.89261
 30
0.0
 40
0
 41
0
  0
VERTEX
  8
0
 10
3.17458
 20
1.881
 30
0.0
 40
0
 41
0
  0
VERTEX
  8
0
 10
3.18619
 20
1.85994
 30
0.0
 40
0
 41
0
  0
VERTEX
  8
0
 10
3.18619
 20
1.85289
 30
0.0
 40
0
 41
0
  0
VERTEX
  8
0
 10
3.18619
 20
1.84589
 30
0.0
 40
0
 41
0
  0
VERTEX
  8
0
 10
3.17458
 20
1.8249
 30
0.0
 40
0
 41
0
  0
VERTEX
  8
0
 10
3.1536
 20
1.81324
 30
0.0
 40
0
 41
0
  0
VERTEX
  8
0
 10
3.14665
 20
1.81324
 30
0.0
 40
0
 41
0
  0
VERTEX
  8
0
 10
3.13911
 20
1.81324
 30
0.0
 40
0
 41
0
  0
VERTEX
  8
0
 10
3.11833
 20
1.82506
 30
0.0
 40
0
 41
0
  0
VERTEX
  8
0
 10
3.11654
 20
1.82718
 30
0.0
 40
0
 41
0
  0
VERTEX
  8
0
 10
3.11589
 20
1.82989
 30
0.0
 40
0
 41
0
  0
VERTEX
  8
0
 10
3.11669
 20
1.83857
 30
0.0
 40
0
 41
0
  0
VERTEX
  8
0
 10
3.1231
 20
1.8409
 30
0.0
 40
0
 41
0
  0
VERTEX
  8
0
 10
3.13135
 20
1.84139
 30
0.0
 40
0
 41
0
  0
VERTEX
  8
0
 10
3.13639
 20
1.84546
 30
0.0
 40
0
 41
0
  0
VERTEX
  8
0
 10
3.13683
 20
1.84708
 30
0.0
 40
0
 41
0
  0
VERTEX
  8
0
 10
3.13738
 20
1.84942
 30
0.0
 40
0
 41
0
  0
VERTEX
  8
0
 10
3.13471
 20
1.86028
 30
0.0
 40
0
 41
0
  0
VERTEX
  8
0
 10
3.12636
 20
1.86749
 30
0.0
 40
0
 41
0
  0
VERTEX
  8
0
 10
3.12403
 20
1.86803
 30
0.0
 40
0
 41
0
  0
VERTEX
  8
0
 10
3.12169
 20
1.86863
 30
0.0
 40
0
 41
0
  0
VERTEX
  8
0
 10
3.11094
 20
1.86603
 30
0.0
 40
0
 41
0
  0
VERTEX
  8
0
 10
3.10374
 20
1.85761
 30
0.0
 40
0
 41
0
  0
VERTEX
  8
0
 10
3.10319
 20
1.85528
 30
0.0
 40
0
 41
0
  0
VERTEX
  8
0
 10
3.10314
 20
1.85511
 30
0.0
 40
0
 41
0
  0
VERTEX
  8
0
 10
3.10281
 20
1.85311
 30
0.0
 40
0
 41
0
  0
VERTEX
  8
0
 10
3.10281
 20
1.85289
 30
0.0
 40
0
 41
0
  0
VERTEX
  8
0
 10
3.10238
 20
1.85289
 30
0.0
 40
0
 41
0
  0
VERTEX
  8
0
 10
3.10238
 20
1.84861
 30
0.0
 40
0
 41
0
  0
VERTEX
  8
0
 10
3.10585
 20
1.83564
 30
0.0
 40
0
 41
0
  0
VERTEX
  8
0
 10
3.11535
 20
1.82154
 30
0.0
 40
0
 41
0
  0
VERTEX
  8
0
 10
3.12939
 20
1.81204
 30
0.0
 40
0
 41
0
  0
VERTEX
  8
0
 10
3.14231
 20
1.80851
 30
0.0
 40
0
 41
0
  0
VERTEX
  8
0
 10
3.14665
 20
1.80851
 30
0.0
 40
0
 41
0
  0
VERTEX
  8
0
 10
3.15196
 20
1.80851
 30
0.0
 40
0
 41
0
  0
VERTEX
  8
0
 10
3.16639
 20
1.81324
 30
0.0
 40
0
 41
0
  0
VERTEX
  8
0
 10
3.16803
 20
1.8141
 30
0.0
 40
0
 41
0
  0
VERTEX
  8
0
 10
3.16721
 20
1.81258
 30
0.0
 40
0
 41
0
  0
VERTEX
  8
0
 10
3.16297
 20
1.79842
 30
0.0
 40
0
 41
0
  0
VERTEX
  8
0
 10
3.16297
 20
1.79365
 30
0.0
 40
0
 41
0
  0
VERTEX
  8
0
 10
3.16297
 20
1.78936
 30
0.0
 40
0
 41
0
  0
VERTEX
  8
0
 10
3.16644
 20
1.7764
 30
0.0
 40
0
 41
0
  0
VERTEX
  8
0
 10
3.17594
 20
1.76229
 30
0.0
 40
0
 41
0
  0
VERTEX
  8
0
 10
3.19
 20
1.75279
 30
0.0
 40
0
 41
0
  0
VERTEX
  8
0
 10
3.2029
 20
1.74926
 30
0.0
 40
0
 41
0
  0
VERTEX
  8
0
 10
3.20725
 20
1.74926
 30
0.0
 40
0
 41
0
  0
VERTEX
  8
0
 10
3.20725
 20
1.74971
 30
0.0
 40
0
 41
0
  0
VERTEX
  8
0
 10
3.20742
 20
1.74976
 30
0.0
 40
0
 41
0
  0
VERTEX
  8
0
 10
3.20936
 20
1.75003
 30
0.0
 40
0
 41
0
  0
VERTEX
  8
0
 10
3.20958
 20
1.75003
 30
0.0
 40
0
 41
0
  0
VERTEX
  8
0
 10
3.21186
 20
1.75062
 30
0.0
 40
0
 41
0
  0
VERTEX
  8
0
 10
3.22026
 20
1.75789
 30
0.0
 40
0
 41
0
  0
VERTEX
  8
0
 10
3.22287
 20
1.76864
 30
0.0
 40
0
 41
0
  0
VERTEX
  8
0
 10
3.22233
 20
1.77097
 30
0.0
 40
0
 41
0
  0
VERTEX
  8
0
 10
3.22174
 20
1.77331
 30
0.0
 40
0
 41
0
  0
VERTEX
  8
0
 10
3.21451
 20
1.78176
 30
0.0
 40
0
 41
0
  0
VERTEX
  8
0
 10
3.20372
 20
1.78438
 30
0.0
 40
0
 41
0
  0
VERTEX
  8
0
 10
3.20144
 20
1.78378
 30
0.0
 40
0
 41
0
  0
VERTEX
  8
0
 10
3.19976
 20
1.78339
 30
0.0
 40
0
 41
0
  0
VERTEX
  8
0
 10
3.19569
 20
1.77829
 30
0.0
 40
0
 41
0
  0
VERTEX
  8
0
 10
3.19521
 20
1.7701
 30
0.0
 40
0
 41
0
  0
VERTEX
  8
0
 10
3.19287
 20
1.76365
 30
0.0
 40
0
 41
0
  0
VERTEX
  8
0
 10
3.18419
 20
1.76283
 30
0.0
 40
0
 41
0
  0
VERTEX
  8
0
 10
3.18153
 20
1.76349
 30
0.0
 40
0
 41
0
  0
VERTEX
  8
0
 10
3.17942
 20
1.76533
 30
0.0
 40
0
 41
0
  0
VERTEX
  8
0
 10
3.16764
 20
1.7866
 30
0.0
 40
0
 41
0
  0
VERTEX
  8
0
 10
3.16764
 20
1.79365
 30
0.0
 40
0
 41
0
  0
VERTEX
  8
0
 10
3.16764
 20
1.80071
 30
0.0
 40
0
 41
0
  0
VERTEX
  8
0
 10
3.17919
 20
1.82169
 30
0.0
 40
0
 41
0
  0
VERTEX
  8
0
 10
3.20019
 20
1.83331
 30
0.0
 40
0
 41
0
  0
VERTEX
  8
0
 10
3.20725
 20
1.83331
 30
0.0
 40
0
 41
0
  0
VERTEX
  8
0
 10
3.21419
 20
1.83331
 30
0.0
 40
0
 41
0
  0
VERTEX
  8
0
 10
3.23519
 20
1.82169
 30
0.0
 40
0
 41
0
  0
VERTEX
  8
0
 10
3.24681
 20
1.80071
 30
0.0
 40
0
 41
0
  0
VERTEX
  8
0
 10
3.24681
 20
1.79365
 30
0.0
 40
0
 41
0
  0
VERTEX
  8
0
 10
3.24681
 20
1.70353
 30
0.0
 40
0
 41
0
  0
VERTEX
  8
0
 10
3.24647
 20
1.70435
 30
0.0
 40
0
 41
0
  0
VERTEX
  8
0
 10
3.24235
 20
1.71112
 30
0.0
 40
0
 41
0
  0
VERTEX
  8
0
 10
3.24186
 20
1.71161
 30
0.0
 40
0
 41
0
  0
VERTEX
  8
0
 10
3.2405
 20
1.71297
 30
0.0
 40
0
 41
0
  0
VERTEX
  8
0
 10
3.2239
 20
1.71308
 30
0.0
 40
0
 41
0
  0
VERTEX
  8
0
 10
3.2226
 20
1.71172
 30
0.0
 40
0
 41
0
  0
VERTEX
  8
0
 10
3.22125
 20
1.71043
 30
0.0
 40
0
 41
0
  0
VERTEX
  8
0
 10
3.22119
 20
1.69376
 30
0.0
 40
0
 41
0
  0
VERTEX
  8
0
 10
3.22254
 20
1.69242
 30
0.0
 40
0
 41
0
  0
VERTEX
  8
0
 10
3.22385
 20
1.69111
 30
0.0
 40
0
 41
0
  0
VERTEX
  8
0
 10
3.23258
 20
1.69182
 30
0.0
 40
0
 41
0
  0
VERTEX
  8
0
 10
3.24056
 20
1.69322
 30
0.0
 40
0
 41
0
  0
VERTEX
  8
0
 10
3.24164
 20
1.69214
 30
0.0
 40
0
 41
0
  0
VERTEX
  8
0
 10
3.24224
 20
1.69138
 30
0.0
 40
0
 41
0
  0
VERTEX
  8
0
 10
3.24653
 20
1.6815
 30
0.0
 40
0
 41
0
  0
VERTEX
  8
0
 10
3.24681
 20
1.68004
 30
0.0
 40
0
 41
0
  0
VERTEX
  8
0
 10
3.24681
 20
1.64494
 30
0.0
 40
0
 41
0
  0
VERTEX
  8
0
 10
3.25151
 20
1.64494
 30
0.0
 40
0
 41
0
  0
VERTEX
  8
0
 10
3.25151
 20
1.79365
 30
0.0
 40
0
 41
0
  0
VERTEX
  8
0
 10
3.25151
 20
1.79799
 30
0.0
 40
0
 41
0
  0
VERTEX
  8
0
 10
3.24799
 20
1.8109
 30
0.0
 40
0
 41
0
  0
VERTEX
  8
0
 10
3.2385
 20
1.82501
 30
0.0
 40
0
 41
0
  0
VERTEX
  8
0
 10
3.22444
 20
1.8345
 30
0.0
 40
0
 41
0
  0
VERTEX
  8
0
 10
3.21153
 20
1.83797
 30
0.0
 40
0
 41
0
  0
VERTEX
  8
0
 10
3.20725
 20
1.83797
 30
0.0
 40
0
 41
0
  0
SEQEND
 8
0
  0
POLYLINE
  8
0
 62
     33
 66
     1
 10
0
 20
0
 30
0.0
 70
     1
 40
0
 41
0
  0
VERTEX
  8
0
 10
3.22146
 20
1.91513
 30
0.0
 40
0
 41
0
  0
VERTEX
  8
0
 10
3.22575
 20
1.91513
 30
0.0
 40
0
 41
0
  0
VERTEX
  8
0
 10
3.23872
 20
1.91165
 30
0.0
 40
0
 41
0
  0
VERTEX
  8
0
 10
3.25282
 20
1.9021
 30
0.0
 40
0
 41
0
  0
VERTEX
  8
0
 10
3.26232
 20
1.88794
 30
0.0
 40
0
 41
0
  0
VERTEX
  8
0
 10
3.26585
 20
1.87497
 30
0.0
 40
0
 41
0
  0
VERTEX
  8
0
 10
3.26585
 20
1.87064
 30
0.0
 40
0
 41
0
  0
VERTEX
  8
0
 10
3.26585
 20
1.64494
 30
0.0
 40
0
 41
0
  0
VERTEX
  8
0
 10
3.27051
 20
1.64494
 30
0.0
 40
0
 41
0
  0
VERTEX
  8
0
 10
3.27051
 20
1.87064
 30
0.0
 40
0
 41
0
  0
VERTEX
  8
0
 10
3.27051
 20
1.87546
 30
0.0
 40
0
 41
0
  0
VERTEX
  8
0
 10
3.2666
 20
1.88979
 30
0.0
 40
0
 41
0
  0
VERTEX
  8
0
 10
3.25608
 20
1.90542
 30
0.0
 40
0
 41
0
  0
VERTEX
  8
0
 10
3.2405
 20
1.91593
 30
0.0
 40
0
 41
0
  0
VERTEX
  8
0
 10
3.22618
 20
1.91979
 30
0.0
 40
0
 41
0
  0
VERTEX
  8
0
 10
3.22146
 20
1.91979
 30
0.0
 40
0
 41
0
  0
VERTEX
  8
0
 10
2.9706
 20
1.91979
 30
0.0
 40
0
 41
0
  0
VERTEX
  8
0
 10
2.9706
 20
1.91513
 30
0.0
 40
0
 41
0
  0
VERTEX
  8
0
 10
3.22146
 20
1.91513
 30
0.0
 40
0
 41
0
  0
SEQEND
 8
0
  0
POLYLINE
  8
0
 62
     33
 66
     1
 10
0
 20
0
 30
0.0
 70
     1
 40
0
 41
0
  0
VERTEX
  8
0
 10
0.365885
 20
1.89728
 30
0.0
 40
0
 41
0
  0
VERTEX
  8
0
 10
2.97433
 20
1.89728
 30
0.0
 40
0
 41
0
  0
VERTEX
  8
0
 10
2.97433
 20
1.89261
 30
0.0
 40
0
 41
0
  0
VERTEX
  8
0
 10
0.365885
 20
1.89261
 30
0.0
 40
0
 41
0
  0
VERTEX
  8
0
 10
0.365885
 20
1.89728
 30
0.0
 40
0
 41
0
  0
SEQEND
 8
0
  0
POLYLINE
  8
0
 62
     33
 66
     1
 10
0
 20
0
 30
0.0
 70
     1
 40
0
 41
0
  0
VERTEX
  8
0
 10
0.365885
 20
1.91979
 30
0.0
 40
0
 41
0
  0
VERTEX
  8
0
 10
2.97433
 20
1.91979
 30
0.0
 40
0
 41
0
  0
VERTEX
  8
0
 10
2.97433
 20
1.91513
 30
0.0
 40
0
 41
0
  0
VERTEX
  8
0
 10
0.365885
 20
1.91513
 30
0.0
 40
0
 41
0
  0
VERTEX
  8
0
 10
0.365885
 20
1.91979
 30
0.0
 40
0
 41
0
  0
SEQEND
 8
0
  0
POLYLINE
  8
0
 62
     31
 66
     1
 10
0
 20
0
 30
0.0
 70
     1
 40
0
 41
0
  0
VERTEX
  8
0
 10
1.09907
 20
1.19908
 30
0.0
 40
0
 41
0
  0
VERTEX
  8
0
 10
1.09907
 20
1.17803
 30
0.0
 40
0
 41
0
  0
VERTEX
  8
0
 10
1.09646
 20
1.17803
 30
0.0
 40
0
 41
0
  0
VERTEX
  8
0
 10
1.09646
 20
1.18172
 30
0.0
 40
0
 41
0
  0
VERTEX
  8
0
 10
1.09608
 20
1.18237
 30
0.0
 40
0
 41
0
  0
VERTEX
  8
0
 10
1.09353
 20
1.18981
 30
0.0
 40
0
 41
0
  0
VERTEX
  8
0
 10
1.09299
 20
1.1904
 30
0.0
 40
0
 41
0
  0
VERTEX
  8
0
 10
1.09234
 20
1.19013
 30
0.0
 40
0
 41
0
  0
VERTEX
  8
0
 10
1.08632
 20
1.19409
 30
0.0
 40
0
 41
0
  0
VERTEX
  8
0
 10
1.08431
 20
1.19409
 30
0.0
 40
0
 41
0
  0
VERTEX
  8
0
 10
1.03157
 20
1.19409
 30
0.0
 40
0
 41
0
  0
VERTEX
  8
0
 10
1.03157
 20
1.11684
 30
0.0
 40
0
 41
0
  0
VERTEX
  8
0
 10
1.07368
 20
1.11684
 30
0.0
 40
0
 41
0
  0
VERTEX
  8
0
 10
1.07368
 20
1.11684
 30
0.0
 40
0
 41
0
  0
VERTEX
  8
0
 10
1.07709
 20
1.11705
 30
0.0
 40
0
 41
0
  0
VERTEX
  8
0
 10
1.08154
 20
1.11998
 30
0.0
 40
0
 41
0
  0
VERTEX
  8
0
 10
1.08214
 20
1.12053
 30
0.0
 40
0
 41
0
  0
VERTEX
  8
0
 10
1.08214
 20
1.12053
 30
0.0
 40
0
 41
0
  0
VERTEX
  8
0
 10
1.08436
 20
1.12308
 30
0.0
 40
0
 41
0
  0
VERTEX
  8
0
 10
1.08583
 20
1.12753
 30
0.0
 40
0
 41
0
  0
VERTEX
  8
0
 10
1.08583
 20
1.12899
 30
0.0
 40
0
 41
0
  0
VERTEX
  8
0
 10
1.08583
 20
1.13268
 30
0.0
 40
0
 41
0
  0
VERTEX
  8
0
 10
1.08822
 20
1.13268
 30
0.0
 40
0
 41
0
  0
VERTEX
  8
0
 10
1.08822
 20
1.09318
 30
0.0
 40
0
 41
0
  0
VERTEX
  8
0
 10
1.08583
 20
1.09318
 30
0.0
 40
0
 41
0
  0
VERTEX
  8
0
 10
1.08583
 20
1.09709
 30
0.0
 40
0
 41
0
  0
VERTEX
  8
0
 10
1.08518
 20
1.09785
 30
0.0
 40
0
 41
0
  0
VERTEX
  8
0
 10
1.0829
 20
1.10501
 30
0.0
 40
0
 41
0
  0
VERTEX
  8
0
 10
1.08236
 20
1.10555
 30
0.0
 40
0
 41
0
  0
VERTEX
  8
0
 10
1.08143
 20
1.10539
 30
0.0
 40
0
 41
0
  0
VERTEX
  8
0
 10
1.07492
 20
1.10924
 30
0.0
 40
0
 41
0
  0
VERTEX
  8
0
 10
1.07411
 20
1.10924
 30
0.0
 40
0
 41
0
  0
VERTEX
  8
0
 10
1.03157
 20
1.10924
 30
0.0
 40
0
 41
0
  0
VERTEX
  8
0
 10
1.03157
 20
1.04501
 30
0.0
 40
0
 41
0
  0
VERTEX
  8
0
 10
1.03087
 20
1.04376
 30
0.0
 40
0
 41
0
  0
VERTEX
  8
0
 10
1.03157
 20
1.03844
 30
0.0
 40
0
 41
0
  0
VERTEX
  8
0
 10
1.03537
 20
1.0347
 30
0.0
 40
0
 41
0
  0
VERTEX
  8
0
 10
1.03613
 20
1.03394
 30
0.0
 40
0
 41
0
  0
VERTEX
  8
0
 10
1.03592
 20
1.03318
 30
0.0
 40
0
 41
0
  0
VERTEX
  8
0
 10
1.03966
 20
1.02965
 30
0.0
 40
0
 41
0
  0
VERTEX
  8
0
 10
1.04546
 20
1.02938
 30
0.0
 40
0
 41
0
  0
VERTEX
  8
0
 10
1.04742
 20
1.02938
 30
0.0
 40
0
 41
0
  0
VERTEX
  8
0
 10
1.05067
 20
1.02938
 30
0.0
 40
0
 41
0
  0
VERTEX
  8
0
 10
1.05067
 20
1.02678
 30
0.0
 40
0
 41
0
  0
VERTEX
  8
0
 10
0.995985
 20
1.02678
 30
0.0
 40
0
 41
0
  0
VERTEX
  8
0
 10
0.995985
 20
1.02938
 30
0.0
 40
0
 41
0
  0
VERTEX
  8
0
 10
0.99924
 20
1.02938
 30
0.0
 40
0
 41
0
  0
VERTEX
  8
0
 10
0.999946
 20
1.02916
 30
0.0
 40
0
 41
0
  0
VERTEX
  8
0
 10
1.00955
 20
1.03318
 30
0.0
 40
0
 41
0
  0
VERTEX
  8
0
 10
1.01031
 20
1.03394
 30
0.0
 40
0
 41
0
  0
VERTEX
  8
0
 10
1.01096
 20
1.0341
 30
0.0
 40
0
 41
0
  0
VERTEX
  8
0
 10
1.01525
 20
1.04392
 30
0.0
 40
0
 41
0
  0
VERTEX
  8
0
 10
1.0153
 20
1.04501
 30
0.0
 40
0
 41
0
  0
VERTEX
  8
0
 10
1.0153
 20
1.18498
 30
0.0
 40
0
 41
0
  0
VERTEX
  8
0
 10
1.01476
 20
1.18558
 30
0.0
 40
0
 41
0
  0
VERTEX
  8
0
 10
1.01112
 20
1.19453
 30
0.0
 40
0
 41
0
  0
VERTEX
  8
0
 10
1.01031
 20
1.19518
 30
0.0
 40
0
 41
0
  0
VERTEX
  8
0
 10
1.00939
 20
1.19572
 30
0.0
 40
0
 41
0
  0
VERTEX
  8
0
 10
1.00174
 20
1.1993
 30
0.0
 40
0
 41
0
  0
VERTEX
  8
0
 10
0.99924
 20
1.1993
 30
0.0
 40
0
 41
0
  0
VERTEX
  8
0
 10
0.996203
 20
1.1993
 30
0.0
 40
0
 41
0
  0
VERTEX
  8
0
 10
0.995985
 20
1.20169
 30
0.0
 40
0
 41
0
  0
VERTEX
  8
0
 10
1.06934
 20
1.20169
 30
0.0
 40
0
 41
0
  0
VERTEX
  8
0
 10
1.07015
 20
1.20104
 30
0.0
 40
0
 41
0
  0
VERTEX
  8
0
 10
1.07666
 20
1.20104
 30
0.0
 40
0
 41
0
  0
VERTEX
  8
0
 10
1.08453
 20
1.20299
 30
0.0
 40
0
 41
0
  0
VERTEX
  8
0
 10
1.08605
 20
1.20321
 30
0.0
 40
0
 41
0
  0
VERTEX
  8
0
 10
1.08691
 20
1.20267
 30
0.0
 40
0
 41
0
  0
VERTEX
  8
0
 10
1.09288
 20
1.20353
 30
0.0
 40
0
 41
0
  0
VERTEX
  8
0
 10
1.09842
 20
1.20603
 30
0.0
 40
0
 41
0
  0
VERTEX
  8
0
 10
1.09907
 20
1.20625
 30
0.0
 40
0
 41
0
  0
VERTEX
  8
0
 10
1.09907
 20
1.19908
 30
0.0
 40
0
 41
0
  0
SEQEND
 8
0
  0
POLYLINE
  8
0
 62
     31
 66
     1
 10
0
 20
0
 30
0.0
 70
     1
 40
0
 41
0
  0
VERTEX
  8
0
 10
1.13417
 20
1.02938
 30
0.0
 40
0
 41
0
  0
VERTEX
  8
0
 10
1.13487
 20
1.02916
 30
0.0
 40
0
 41
0
  0
VERTEX
  8
0
 10
1.14366
 20
1.03247
 30
0.0
 40
0
 41
0
  0
VERTEX
  8
0
 10
1.14437
 20
1.03307
 30
0.0
 40
0
 41
0
  0
VERTEX
  8
0
 10
1.14437
 20
1.03307
 30
0.0
 40
0
 41
0
  0
VERTEX
  8
0
 10
1.14578
 20
1.03665
 30
0.0
 40
0
 41
0
  0
VERTEX
  8
0
 10
1.14865
 20
1.0417
 30
0.0
 40
0
 41
0
  0
VERTEX
  8
0
 10
1.14871
 20
1.04262
 30
0.0
 40
0
 41
0
  0
VERTEX
  8
0
 10
1.14871
 20
1.16133
 30
0.0
 40
0
 41
0
  0
VERTEX
  8
0
 10
1.14838
 20
1.16143
 30
0.0
 40
0
 41
0
  0
VERTEX
  8
0
 10
1.14507
 20
1.16984
 30
0.0
 40
0
 41
0
  0
VERTEX
  8
0
 10
1.14437
 20
1.17044
 30
0.0
 40
0
 41
0
  0
VERTEX
  8
0
 10
1.14274
 20
1.17066
 30
0.0
 40
0
 41
0
  0
VERTEX
  8
0
 10
1.13802
 20
1.17277
 30
0.0
 40
0
 41
0
  0
VERTEX
  8
0
 10
1.13509
 20
1.17435
 30
0.0
 40
0
 41
0
  0
VERTEX
  8
0
 10
1.13417
 20
1.17435
 30
0.0
 40
0
 41
0
  0
VERTEX
  8
0
 10
1.1307
 20
1.17435
 30
0.0
 40
0
 41
0
  0
VERTEX
  8
0
 10
1.1307
 20
1.17673
 30
0.0
 40
0
 41
0
  0
VERTEX
  8
0
 10
1.20383
 20
1.17673
 30
0.0
 40
0
 41
0
  0
VERTEX
  8
0
 10
1.20524
 20
1.17581
 30
0.0
 40
0
 41
0
  0
VERTEX
  8
0
 10
1.21289
 20
1.17576
 30
0.0
 40
0
 41
0
  0
VERTEX
  8
0
 10
1.22032
 20
1.17803
 30
0.0
 40
0
 41
0
  0
VERTEX
  8
0
 10
1.22163
 20
1.17825
 30
0.0
 40
0
 41
0
  0
VERTEX
  8
0
 10
1.22217
 20
1.1776
 30
0.0
 40
0
 41
0
  0
VERTEX
  8
0
 10
1.22711
 20
1.17809
 30
0.0
 40
0
 41
0
  0
VERTEX
  8
0
 10
1.23139
 20
1.18069
 30
0.0
 40
0
 41
0
  0
VERTEX
  8
0
 10
1.23182
 20
1.18086
 30
0.0
 40
0
 41
0
  0
VERTEX
  8
0
 10
1.23182
 20
1.15221
 30
0.0
 40
0
 41
0
  0
VERTEX
  8
0
 10
1.229
 20
1.15243
 30
0.0
 40
0
 41
0
  0
VERTEX
  8
0
 10
1.229
 20
1.15633
 30
0.0
 40
0
 41
0
  0
VERTEX
  8
0
 10
1.2289
 20
1.15682
 30
0.0
 40
0
 41
0
  0
VERTEX
  8
0
 10
1.22607
 20
1.16463
 30
0.0
 40
0
 41
0
  0
VERTEX
  8
0
 10
1.22553
 20
1.16523
 30
0.0
 40
0
 41
0
  0
VERTEX
  8
0
 10
1.22439
 20
1.16485
 30
0.0
 40
0
 41
0
  0
VERTEX
  8
0
 10
1.22005
 20
1.16632
 30
0.0
 40
0
 41
0
  0
VERTEX
  8
0
 10
1.21728
 20
1.16892
 30
0.0
 40
0
 41
0
  0
VERTEX
  8
0
 10
1.21642
 20
1.16892
 30
0.0
 40
0
 41
0
  0
VERTEX
  8
0
 10
1.16455
 20
1.16892
 30
0.0
 40
0
 41
0
  0
VERTEX
  8
0
 10
1.16455
 20
1.10555
 30
0.0
 40
0
 41
0
  0
VERTEX
  8
0
 10
1.2073
 20
1.10555
 30
0.0
 40
0
 41
0
  0
VERTEX
  8
0
 10
1.20736
 20
1.10523
 30
0.0
 40
0
 41
0
  0
VERTEX
  8
0
 10
1.21077
 20
1.10512
 30
0.0
 40
0
 41
0
  0
VERTEX
  8
0
 10
1.21446
 20
1.1081
 30
0.0
 40
0
 41
0
  0
VERTEX
  8
0
 10
1.2149
 20
1.10859
 30
0.0
 40
0
 41
0
  0
VERTEX
  8
0
 10
1.2149
 20
1.10859
 30
0.0
 40
0
 41
0
  0
VERTEX
  8
0
 10
1.21674
 20
1.11043
 30
0.0
 40
0
 41
0
  0
VERTEX
  8
0
 10
1.2175
 20
1.11461
 30
0.0
 40
0
 41
0
  0
VERTEX
  8
0
 10
1.2175
 20
1.11597
 30
0.0
 40
0
 41
0
  0
VERTEX
  8
0
 10
1.2175
 20
1.11922
 30
0.0
 40
0
 41
0
  0
VERTEX
  8
0
 10
1.22032
 20
1.11922
 30
0.0
 40
0
 41
0
  0
VERTEX
  8
0
 10
1.22032
 20
1.08428
 30
0.0
 40
0
 41
0
  0
VERTEX
  8
0
 10
1.2175
 20
1.08428
 30
0.0
 40
0
 41
0
  0
VERTEX
  8
0
 10
1.2175
 20
1.08754
 30
0.0
 40
0
 41
0
  0
VERTEX
  8
0
 10
1.21723
 20
1.0883
 30
0.0
 40
0
 41
0
  0
VERTEX
  8
0
 10
1.21316
 20
1.09665
 30
0.0
 40
0
 41
0
  0
VERTEX
  8
0
 10
1.21229
 20
1.09709
 30
0.0
 40
0
 41
0
  0
VERTEX
  8
0
 10
1.21121
 20
1.09714
 30
0.0
 40
0
 41
0
  0
VERTEX
  8
0
 10
1.20833
 20
1.09796
 30
0.0
 40
0
 41
0
  0
VERTEX
  8
0
 10
1.20795
 20
1.09796
 30
0.0
 40
0
 41
0
  0
VERTEX
  8
0
 10
1.16455
 20
1.09796
 30
0.0
 40
0
 41
0
  0
VERTEX
  8
0
 10
1.16455
 20
1.03459
 30
0.0
 40
0
 41
0
  0
VERTEX
  8
0
 10
1.20383
 20
1.03459
 30
0.0
 40
0
 41
0
  0
VERTEX
  8
0
 10
1.20546
 20
1.03394
 30
0.0
 40
0
 41
0
  0
VERTEX
  8
0
 10
1.22184
 20
1.03784
 30
0.0
 40
0
 41
0
  0
VERTEX
  8
0
 10
1.22314
 20
1.03849
 30
0.0
 40
0
 41
0
  0
VERTEX
  8
0
 10
1.22369
 20
1.03822
 30
0.0
 40
0
 41
0
  0
VERTEX
  8
0
 10
1.2289
 20
1.04148
 30
0.0
 40
0
 41
0
  0
VERTEX
  8
0
 10
1.23438
 20
1.04717
 30
0.0
 40
0
 41
0
  0
VERTEX
  8
0
 10
1.23508
 20
1.04804
 30
0.0
 40
0
 41
0
  0
VERTEX
  8
0
 10
1.23519
 20
1.04837
 30
0.0
 40
0
 41
0
  0
VERTEX
  8
0
 10
1.23834
 20
1.05347
 30
0.0
 40
0
 41
0
  0
VERTEX
  8
0
 10
1.24278
 20
1.06106
 30
0.0
 40
0
 41
0
  0
VERTEX
  8
0
 10
1.24354
 20
1.06258
 30
0.0
 40
0
 41
0
  0
VERTEX
  8
0
 10
1.24593
 20
1.06258
 30
0.0
 40
0
 41
0
  0
VERTEX
  8
0
 10
1.23226
 20
1.02678
 30
0.0
 40
0
 41
0
  0
VERTEX
  8
0
 10
1.1307
 20
1.02678
 30
0.0
 40
0
 41
0
  0
VERTEX
  8
0
 10
1.1307
 20
1.02938
 30
0.0
 40
0
 41
0
  0
VERTEX
  8
0
 10
1.13417
 20
1.02938
 30
0.0
 40
0
 41
0
  0
SEQEND
 8
0
  0
POLYLINE
  8
0
 62
     31
 66
     1
 10
0
 20
0
 30
0.0
 70
     1
 40
0
 41
0
  0
VERTEX
  8
0
 10
1.27154
 20
1.02938
 30
0.0
 40
0
 41
0
  0
VERTEX
  8
0
 10
1.27224
 20
1.02916
 30
0.0
 40
0
 41
0
  0
VERTEX
  8
0
 10
1.28103
 20
1.03247
 30
0.0
 40
0
 41
0
  0
VERTEX
  8
0
 10
1.28174
 20
1.03307
 30
0.0
 40
0
 41
0
  0
VERTEX
  8
0
 10
1.28174
 20
1.03307
 30
0.0
 40
0
 41
0
  0
VERTEX
  8
0
 10
1.28315
 20
1.03665
 30
0.0
 40
0
 41
0
  0
VERTEX
  8
0
 10
1.28603
 20
1.0417
 30
0.0
 40
0
 41
0
  0
VERTEX
  8
0
 10
1.28608
 20
1.04262
 30
0.0
 40
0
 41
0
  0
VERTEX
  8
0
 10
1.28608
 20
1.16133
 30
0.0
 40
0
 41
0
  0
VERTEX
  8
0
 10
1.28575
 20
1.16143
 30
0.0
 40
0
 41
0
  0
VERTEX
  8
0
 10
1.28244
 20
1.16984
 30
0.0
 40
0
 41
0
  0
VERTEX
  8
0
 10
1.28174
 20
1.17044
 30
0.0
 40
0
 41
0
  0
VERTEX
  8
0
 10
1.28011
 20
1.17066
 30
0.0
 40
0
 41
0
  0
VERTEX
  8
0
 10
1.27539
 20
1.17277
 30
0.0
 40
0
 41
0
  0
VERTEX
  8
0
 10
1.27246
 20
1.17435
 30
0.0
 40
0
 41
0
  0
VERTEX
  8
0
 10
1.27154
 20
1.17435
 30
0.0
 40
0
 41
0
  0
VERTEX
  8
0
 10
1.26807
 20
1.17435
 30
0.0
 40
0
 41
0
  0
VERTEX
  8
0
 10
1.26807
 20
1.17673
 30
0.0
 40
0
 41
0
  0
VERTEX
  8
0
 10
1.3412
 20
1.17673
 30
0.0
 40
0
 41
0
  0
VERTEX
  8
0
 10
1.34261
 20
1.17581
 30
0.0
 40
0
 41
0
  0
VERTEX
  8
0
 10
1.35026
 20
1.17576
 30
0.0
 40
0
 41
0
  0
VERTEX
  8
0
 10
1.35769
 20
1.17803
 30
0.0
 40
0
 41
0
  0
VERTEX
  8
0
 10
1.359
 20
1.17825
 30
0.0
 40
0
 41
0
  0
VERTEX
  8
0
 10
1.35954
 20
1.1776
 30
0.0
 40
0
 41
0
  0
VERTEX
  8
0
 10
1.36448
 20
1.17809
 30
0.0
 40
0
 41
0
  0
VERTEX
  8
0
 10
1.36876
 20
1.18069
 30
0.0
 40
0
 41
0
  0
VERTEX
  8
0
 10
1.36919
 20
1.18086
 30
0.0
 40
0
 41
0
  0
VERTEX
  8
0
 10
1.36919
 20
1.15221
 30
0.0
 40
0
 41
0
  0
VERTEX
  8
0
 10
1.36637
 20
1.15243
 30
0.0
 40
0
 41
0
  0
VERTEX
  8
0
 10
1.36637
 20
1.15633
 30
0.0
 40
0
 41
0
  0
VERTEX
  8
0
 10
1.36627
 20
1.15682
 30
0.0
 40
0
 41
0
  0
VERTEX
  8
0
 10
1.36344
 20
1.16463
 30
0.0
 40
0
 41
0
  0
VERTEX
  8
0
 10
1.3629
 20
1.16523
 30
0.0
 40
0
 41
0
  0
VERTEX
  8
0
 10
1.36176
 20
1.16485
 30
0.0
 40
0
 41
0
  0
VERTEX
  8
0
 10
1.35742
 20
1.16632
 30
0.0
 40
0
 41
0
  0
VERTEX
  8
0
 10
1.35466
 20
1.16892
 30
0.0
 40
0
 41
0
  0
VERTEX
  8
0
 10
1.35379
 20
1.16892
 30
0.0
 40
0
 41
0
  0
VERTEX
  8
0
 10
1.30192
 20
1.16892
 30
0.0
 40
0
 41
0
  0
VERTEX
  8
0
 10
1.30192
 20
1.10555
 30
0.0
 40
0
 41
0
  0
VERTEX
  8
0
 10
1.34467
 20
1.10555
 30
0.0
 40
0
 41
0
  0
VERTEX
  8
0
 10
1.34473
 20
1.10523
 30
0.0
 40
0
 41
0
  0
VERTEX
  8
0
 10
1.34814
 20
1.10512
 30
0.0
 40
0
 41
0
  0
VERTEX
  8
0
 10
1.35183
 20
1.1081
 30
0.0
 40
0
 41
0
  0
VERTEX
  8
0
 10
1.35227
 20
1.10859
 30
0.0
 40
0
 41
0
  0
VERTEX
  8
0
 10
1.35227
 20
1.10859
 30
0.0
 40
0
 41
0
  0
VERTEX
  8
0
 10
1.35411
 20
1.11043
 30
0.0
 40
0
 41
0
  0
VERTEX
  8
0
 10
1.35487
 20
1.11461
 30
0.0
 40
0
 41
0
  0
VERTEX
  8
0
 10
1.35487
 20
1.11597
 30
0.0
 40
0
 41
0
  0
VERTEX
  8
0
 10
1.35487
 20
1.11922
 30
0.0
 40
0
 41
0
  0
VERTEX
  8
0
 10
1.35769
 20
1.11922
 30
0.0
 40
0
 41
0
  0
VERTEX
  8
0
 10
1.35769
 20
1.08428
 30
0.0
 40
0
 41
0
  0
VERTEX
  8
0
 10
1.35487
 20
1.08428
 30
0.0
 40
0
 41
0
  0
VERTEX
  8
0
 10
1.35487
 20
1.08754
 30
0.0
 40
0
 41
0
  0
VERTEX
  8
0
 10
1.3546
 20
1.0883
 30
0.0
 40
0
 41
0
  0
VERTEX
  8
0
 10
1.35053
 20
1.09665
 30
0.0
 40
0
 41
0
  0
VERTEX
  8
0
 10
1.34966
 20
1.09709
 30
0.0
 40
0
 41
0
  0
VERTEX
  8
0
 10
1.34858
 20
1.09714
 30
0.0
 40
0
 41
0
  0
VERTEX
  8
0
 10
1.3457
 20
1.09796
 30
0.0
 40
0
 41
0
  0
VERTEX
  8
0
 10
1.34532
 20
1.09796
 30
0.0
 40
0
 41
0
  0
VERTEX
  8
0
 10
1.30192
 20
1.09796
 30
0.0
 40
0
 41
0
  0
VERTEX
  8
0
 10
1.30192
 20
1.03459
 30
0.0
 40
0
 41
0
  0
VERTEX
  8
0
 10
1.3412
 20
1.03459
 30
0.0
 40
0
 41
0
  0
VERTEX
  8
0
 10
1.34283
 20
1.03394
 30
0.0
 40
0
 41
0
  0
VERTEX
  8
0
 10
1.35921
 20
1.03784
 30
0.0
 40
0
 41
0
  0
VERTEX
  8
0
 10
1.36051
 20
1.03849
 30
0.0
 40
0
 41
0
  0
VERTEX
  8
0
 10
1.36106
 20
1.03822
 30
0.0
 40
0
 41
0
  0
VERTEX
  8
0
 10
1.36627
 20
1.04148
 30
0.0
 40
0
 41
0
  0
VERTEX
  8
0
 10
1.37174
 20
1.04717
 30
0.0
 40
0
 41
0
  0
VERTEX
  8
0
 10
1.37245
 20
1.04804
 30
0.0
 40
0
 41
0
  0
VERTEX
  8
0
 10
1.37256
 20
1.04837
 30
0.0
 40
0
 41
0
  0
VERTEX
  8
0
 10
1.37571
 20
1.05347
 30
0.0
 40
0
 41
0
  0
VERTEX
  8
0
 10
1.38015
 20
1.06106
 30
0.0
 40
0
 41
0
  0
VERTEX
  8
0
 10
1.38091
 20
1.06258
 30
0.0
 40
0
 41
0
  0
VERTEX
  8
0
 10
1.3833
 20
1.06258
 30
0.0
 40
0
 41
0
  0
VERTEX
  8
0
 10
1.36963
 20
1.02678
 30
0.0
 40
0
 41
0
  0
VERTEX
  8
0
 10
1.26807
 20
1.02678
 30
0.0
 40
0
 41
0
  0
VERTEX
  8
0
 10
1.26807
 20
1.02938
 30
0.0
 40
0
 41
0
  0
VERTEX
  8
0
 10
1.27154
 20
1.02938
 30
0.0
 40
0
 41
0
  0
SEQEND
 8
0
  0
POLYLINE
  8
0
 62
     31
 66
     1
 10
0
 20
0
 30
0.0
 70
     1
 40
0
 41
0
  0
VERTEX
  8
0
 10
1.45231
 20
1.16892
 30
0.0
 40
0
 41
0
  0
VERTEX
  8
0
 10
1.43907
 20
1.16892
 30
0.0
 40
0
 41
0
  0
VERTEX
  8
0
 10
1.43907
 20
1.04283
 30
0.0
 40
0
 41
0
  0
VERTEX
  8
0
 10
1.43864
 20
1.04137
 30
0.0
 40
0
 41
0
  0
VERTEX
  8
0
 10
1.44487
 20
1.03177
 30
0.0
 40
0
 41
0
  0
VERTEX
  8
0
 10
1.44601
 20
1.03112
 30
0.0
 40
0
 41
0
  0
VERTEX
  8
0
 10
1.44596
 20
1.03106
 30
0.0
 40
0
 41
0
  0
VERTEX
  8
0
 10
1.44781
 20
1.02927
 30
0.0
 40
0
 41
0
  0
VERTEX
  8
0
 10
1.45182
 20
1.02938
 30
0.0
 40
0
 41
0
  0
VERTEX
  8
0
 10
1.45318
 20
1.02938
 30
0.0
 40
0
 41
0
  0
VERTEX
  8
0
 10
1.45643
 20
1.02938
 30
0.0
 40
0
 41
0
  0
VERTEX
  8
0
 10
1.45687
 20
1.02678
 30
0.0
 40
0
 41
0
  0
VERTEX
  8
0
 10
1.40543
 20
1.02678
 30
0.0
 40
0
 41
0
  0
VERTEX
  8
0
 10
1.40543
 20
1.02938
 30
0.0
 40
0
 41
0
  0
VERTEX
  8
0
 10
1.4089
 20
1.02938
 30
0.0
 40
0
 41
0
  0
VERTEX
  8
0
 10
1.40961
 20
1.02916
 30
0.0
 40
0
 41
0
  0
VERTEX
  8
0
 10
1.41818
 20
1.03247
 30
0.0
 40
0
 41
0
  0
VERTEX
  8
0
 10
1.41889
 20
1.03307
 30
0.0
 40
0
 41
0
  0
VERTEX
  8
0
 10
1.41889
 20
1.03307
 30
0.0
 40
0
 41
0
  0
VERTEX
  8
0
 10
1.42031
 20
1.03665
 30
0.0
 40
0
 41
0
  0
VERTEX
  8
0
 10
1.42301
 20
1.04115
 30
0.0
 40
0
 41
0
  0
VERTEX
  8
0
 10
1.42301
 20
1.04262
 30
0.0
 40
0
 41
0
  0
VERTEX
  8
0
 10
1.42301
 20
1.16133
 30
0.0
 40
0
 41
0
  0
VERTEX
  8
0
 10
1.42269
 20
1.16143
 30
0.0
 40
0
 41
0
  0
VERTEX
  8
0
 10
1.41954
 20
1.16984
 30
0.0
 40
0
 41
0
  0
VERTEX
  8
0
 10
1.41889
 20
1.17044
 30
0.0
 40
0
 41
0
  0
VERTEX
  8
0
 10
1.41726
 20
1.17066
 30
0.0
 40
0
 41
0
  0
VERTEX
  8
0
 10
1.41265
 20
1.17277
 30
0.0
 40
0
 41
0
  0
VERTEX
  8
0
 10
1.40983
 20
1.17435
 30
0.0
 40
0
 41
0
  0
VERTEX
  8
0
 10
1.4089
 20
1.17435
 30
0.0
 40
0
 41
0
  0
VERTEX
  8
0
 10
1.40543
 20
1.17435
 30
0.0
 40
0
 41
0
  0
VERTEX
  8
0
 10
1.40543
 20
1.17673
 30
0.0
 40
0
 41
0
  0
VERTEX
  8
0
 10
1.46838
 20
1.17673
 30
0.0
 40
0
 41
0
  0
VERTEX
  8
0
 10
1.47168
 20
1.17581
 30
0.0
 40
0
 41
0
  0
VERTEX
  8
0
 10
1.48839
 20
1.17266
 30
0.0
 40
0
 41
0
  0
VERTEX
  8
0
 10
1.50299
 20
1.16773
 30
0.0
 40
0
 41
0
  0
VERTEX
  8
0
 10
1.50526
 20
1.16588
 30
0.0
 40
0
 41
0
  0
VERTEX
  8
0
 10
1.50732
 20
1.16409
 30
0.0
 40
0
 41
0
  0
VERTEX
  8
0
 10
1.51893
 20
1.14429
 30
0.0
 40
0
 41
0
  0
VERTEX
  8
0
 10
1.51893
 20
1.13767
 30
0.0
 40
0
 41
0
  0
VERTEX
  8
0
 10
1.51872
 20
1.13366
 30
0.0
 40
0
 41
0
  0
VERTEX
  8
0
 10
1.51585
 20
1.12004
 30
0.0
 40
0
 41
0
  0
VERTEX
  8
0
 10
1.50971
 20
1.11054
 30
0.0
 40
0
 41
0
  0
VERTEX
  8
0
 10
1.50786
 20
1.10859
 30
0.0
 40
0
 41
0
  0
VERTEX
  8
0
 10
1.50564
 20
1.10561
 30
0.0
 40
0
 41
0
  0
VERTEX
  8
0
 10
1.49485
 20
1.09779
 30
0.0
 40
0
 41
0
  0
VERTEX
  8
0
 10
1.48292
 20
1.09524
 30
0.0
 40
0
 41
0
  0
VERTEX
  8
0
 10
1.48008
 20
1.09492
 30
0.0
 40
0
 41
0
  0
VERTEX
  8
0
 10
1.48101
 20
1.09329
 30
0.0
 40
0
 41
0
  0
VERTEX
  8
0
 10
1.48822
 20
1.08678
 30
0.0
 40
0
 41
0
  0
VERTEX
  8
0
 10
1.49735
 20
1.07826
 30
0.0
 40
0
 41
0
  0
VERTEX
  8
0
 10
1.49918
 20
1.0756
 30
0.0
 40
0
 41
0
  0
VERTEX
  8
0
 10
1.49886
 20
1.07544
 30
0.0
 40
0
 41
0
  0
VERTEX
  8
0
 10
1.49994
 20
1.07197
 30
0.0
 40
0
 41
0
  0
VERTEX
  8
0
 10
1.50635
 20
1.06638
 30
0.0
 40
0
 41
0
  0
VERTEX
  8
0
 10
1.50786
 20
1.06454
 30
0.0
 40
0
 41
0
  0
VERTEX
  8
0
 10
1.5089
 20
1.06188
 30
0.0
 40
0
 41
0
  0
VERTEX
  8
0
 10
1.51525
 20
1.05347
 30
0.0
 40
0
 41
0
  0
VERTEX
  8
0
 10
1.52126
 20
1.04842
 30
0.0
 40
0
 41
0
  0
VERTEX
  8
0
 10
1.52219
 20
1.04739
 30
0.0
 40
0
 41
0
  0
VERTEX
  8
0
 10
1.52262
 20
1.04582
 30
0.0
 40
0
 41
0
  0
VERTEX
  8
0
 10
1.53049
 20
1.0386
 30
0.0
 40
0
 41
0
  0
VERTEX
  8
0
 10
1.53108
 20
1.03806
 30
0.0
 40
0
 41
0
  0
VERTEX
  8
0
 10
1.53256
 20
1.03567
 30
0.0
 40
0
 41
0
  0
VERTEX
  8
0
 10
1.54085
 20
1.03014
 30
0.0
 40
0
 41
0
  0
VERTEX
  8
0
 10
1.54949
 20
1.02938
 30
0.0
 40
0
 41
0
  0
VERTEX
  8
0
 10
1.55236
 20
1.02938
 30
0.0
 40
0
 41
0
  0
VERTEX
  8
0
 10
1.55236
 20
1.02678
 30
0.0
 40
0
 41
0
  0
VERTEX
  8
0
 10
1.54454
 20
1.02678
 30
0.0
 40
0
 41
0
  0
VERTEX
  8
0
 10
1.53678
 20
1.02678
 30
0.0
 40
0
 41
0
  0
VERTEX
  8
0
 10
1.51535
 20
1.03329
 30
0.0
 40
0
 41
0
  0
VERTEX
  8
0
 10
1.51351
 20
1.03459
 30
0.0
 40
0
 41
0
  0
VERTEX
  8
0
 10
1.51118
 20
1.03491
 30
0.0
 40
0
 41
0
  0
VERTEX
  8
0
 10
1.50407
 20
1.03996
 30
0.0
 40
0
 41
0
  0
VERTEX
  8
0
 10
1.49924
 20
1.04728
 30
0.0
 40
0
 41
0
  0
VERTEX
  8
0
 10
1.4981
 20
1.04869
 30
0.0
 40
0
 41
0
  0
VERTEX
  8
0
 10
1.49724
 20
1.04848
 30
0.0
 40
0
 41
0
  0
VERTEX
  8
0
 10
1.49294
 20
1.05325
 30
0.0
 40
0
 41
0
  0
VERTEX
  8
0
 10
1.48714
 20
1.06388
 30
0.0
 40
0
 41
0
  0
VERTEX
  8
0
 10
1.48529
 20
1.06649
 30
0.0
 40
0
 41
0
  0
VERTEX
  8
0
 10
1.48258
 20
1.06812
 30
0.0
 40
0
 41
0
  0
VERTEX
  8
0
 10
1.47553
 20
1.07696
 30
0.0
 40
0
 41
0
  0
VERTEX
  8
0
 10
1.47368
 20
1.08287
 30
0.0
 40
0
 41
0
  0
VERTEX
  8
0
 10
1.47358
 20
1.08298
 30
0.0
 40
0
 41
0
  0
VERTEX
  8
0
 10
1.47026
 20
1.08575
 30
0.0
 40
0
 41
0
  0
VERTEX
  8
0
 10
1.45882
 20
1.09546
 30
0.0
 40
0
 41
0
  0
VERTEX
  8
0
 10
1.45085
 20
1.09969
 30
0.0
 40
0
 41
0
  0
VERTEX
  8
0
 10
1.44819
 20
1.09969
 30
0.0
 40
0
 41
0
  0
VERTEX
  8
0
 10
1.44819
 20
1.1023
 30
0.0
 40
0
 41
0
  0
VERTEX
  8
0
 10
1.45296
 20
1.10181
 30
0.0
 40
0
 41
0
  0
VERTEX
  8
0
 10
1.47151
 20
1.1023
 30
0.0
 40
0
 41
0
  0
VERTEX
  8
0
 10
1.48253
 20
1.10485
 30
0.0
 40
0
 41
0
  0
VERTEX
  8
0
 10
1.48356
 20
1.10533
 30
0.0
 40
0
 41
0
  0
VERTEX
  8
0
 10
1.48421
 20
1.10528
 30
0.0
 40
0
 41
0
  0
VERTEX
  8
0
 10
1.48942
 20
1.10848
 30
0.0
 40
0
 41
0
  0
VERTEX
  8
0
 10
1.49431
 20
1.11347
 30
0.0
 40
0
 41
0
  0
VERTEX
  8
0
 10
1.49485
 20
1.11423
 30
0.0
 40
0
 41
0
  0
VERTEX
  8
0
 10
1.49533
 20
1.11559
 30
0.0
 40
0
 41
0
  0
VERTEX
  8
0
 10
1.50092
 20
1.13121
 30
0.0
 40
0
 41
0
  0
VERTEX
  8
0
 10
1.50092
 20
1.13637
 30
0.0
 40
0
 41
0
  0
VERTEX
  8
0
 10
1.49989
 20
1.13789
 30
0.0
 40
0
 41
0
  0
VERTEX
  8
0
 10
1.49713
 20
1.14825
 30
0.0
 40
0
 41
0
  0
VERTEX
  8
0
 10
1.49333
 20
1.15845
 30
0.0
 40
0
 41
0
  0
VERTEX
  8
0
 10
1.49181
 20
1.15981
 30
0.0
 40
0
 41
0
  0
VERTEX
  8
0
 10
1.49007
 20
1.16051
 30
0.0
 40
0
 41
0
  0
VERTEX
  8
0
 10
1.47021
 20
1.16859
 30
0.0
 40
0
 41
0
  0
VERTEX
  8
0
 10
1.46772
 20
1.1687
 30
0.0
 40
0
 41
0
  0
VERTEX
  8
0
 10
1.46604
 20
1.16849
 30
0.0
 40
0
 41
0
  0
VERTEX
  8
0
 10
1.45574
 20
1.16892
 30
0.0
 40
0
 41
0
  0
VERTEX
  8
0
 10
1.45231
 20
1.16892
 30
0.0
 40
0
 41
0
  0
SEQEND
 8
0
  0
POLYLINE
  8
0
 62
     31
 66
     1
 10
0
 20
0
 30
0.0
 70
     1
 40
0
 41
0
  0
VERTEX
  8
0
 10
1.55794
 20
1.09969
 30
0.0
 40
0
 41
0
  0
VERTEX
  8
0
 10
1.55946
 20
1.10533
 30
0.0
 40
0
 41
0
  0
VERTEX
  8
0
 10
1.63456
 20
1.10533
 30
0.0
 40
0
 41
0
  0
VERTEX
  8
0
 10
1.63607
 20
1.09969
 30
0.0
 40
0
 41
0
  0
VERTEX
  8
0
 10
1.63456
 20
1.09405
 30
0.0
 40
0
 41
0
  0
VERTEX
  8
0
 10
1.55946
 20
1.09405
 30
0.0
 40
0
 41
0
  0
VERTEX
  8
0
 10
1.55794
 20
1.09969
 30
0.0
 40
0
 41
0
  0
SEQEND
 8
0
  0
POLYLINE
  8
0
 62
     31
 66
     1
 10
0
 20
0
 30
0.0
 70
     1
 40
0
 41
0
  0
VERTEX
  8
0
 10
1.77681
 20
1.15351
 30
0.0
 40
0
 41
0
  0
VERTEX
  8
0
 10
1.77621
 20
1.15156
 30
0.0
 40
0
 41
0
  0
VERTEX
  8
0
 10
1.773
 20
1.13469
 30
0.0
 40
0
 41
0
  0
VERTEX
  8
0
 10
1.77225
 20
1.13311
 30
0.0
 40
0
 41
0
  0
VERTEX
  8
0
 10
1.77067
 20
1.12942
 30
0.0
 40
0
 41
0
  0
VERTEX
  8
0
 10
1.76058
 20
1.11689
 30
0.0
 40
0
 41
0
  0
VERTEX
  8
0
 10
1.74681
 20
1.10957
 30
0.0
 40
0
 41
0
  0
VERTEX
  8
0
 10
1.74338
 20
1.10837
 30
0.0
 40
0
 41
0
  0
VERTEX
  8
0
 10
1.74214
 20
1.10707
 30
0.0
 40
0
 41
0
  0
VERTEX
  8
0
 10
1.73639
 20
1.1049
 30
0.0
 40
0
 41
0
  0
VERTEX
  8
0
 10
1.73215
 20
1.10577
 30
0.0
 40
0
 41
0
  0
VERTEX
  8
0
 10
1.73079
 20
1.10577
 30
0.0
 40
0
 41
0
  0
VERTEX
  8
0
 10
1.72803
 20
1.10501
 30
0.0
 40
0
 41
0
  0
VERTEX
  8
0
 10
1.7161
 20
1.10604
 30
0.0
 40
0
 41
0
  0
VERTEX
  8
0
 10
1.70594
 20
1.11065
 30
0.0
 40
0
 41
0
  0
VERTEX
  8
0
 10
1.7041
 20
1.11163
 30
0.0
 40
0
 41
0
  0
VERTEX
  8
0
 10
1.7041
 20
1.11402
 30
0.0
 40
0
 41
0
  0
VERTEX
  8
0
 10
1.70682
 20
1.11304
 30
0.0
 40
0
 41
0
  0
VERTEX
  8
0
 10
1.73514
 20
1.11662
 30
0.0
 40
0
 41
0
  0
VERTEX
  8
0
 10
1.73774
 20
1.11792
 30
0.0
 40
0
 41
0
  0
VERTEX
  8
0
 10
1.73926
 20
1.11846
 30
0.0
 40
0
 41
0
  0
VERTEX
  8
0
 10
1.74821
 20
1.12628
 30
0.0
 40
0
 41
0
  0
VERTEX
  8
0
 10
1.75575
 20
1.13832
 30
0.0
 40
0
 41
0
  0
VERTEX
  8
0
 10
1.75662
 20
1.14092
 30
0.0
 40
0
 41
0
  0
VERTEX
  8
0
 10
1.75683
 20
1.14158
 30
0.0
 40
0
 41
0
  0
VERTEX
  8
0
 10
1.75814
 20
1.14825
 30
0.0
 40
0
 41
0
  0
VERTEX
  8
0
 10
1.75814
 20
1.15047
 30
0.0
 40
0
 41
0
  0
VERTEX
  8
0
 10
1.75814
 20
1.15047
 30
0.0
 40
0
 41
0
  0
VERTEX
  8
0
 10
1.75814
 20
1.15471
 30
0.0
 40
0
 41
0
  0
VERTEX
  8
0
 10
1.75814
 20
1.15612
 30
0.0
 40
0
 41
0
  0
VERTEX
  8
0
 10
1.75786
 20
1.15867
 30
0.0
 40
0
 41
0
  0
VERTEX
  8
0
 10
1.75022
 20
1.18216
 30
0.0
 40
0
 41
0
  0
VERTEX
  8
0
 10
1.74881
 20
1.18389
 30
0.0
 40
0
 41
0
  0
VERTEX
  8
0
 10
1.74681
 20
1.1853
 30
0.0
 40
0
 41
0
  0
VERTEX
  8
0
 10
1.73747
 20
1.19116
 30
0.0
 40
0
 41
0
  0
VERTEX
  8
0
 10
1.72754
 20
1.19431
 30
0.0
 40
0
 41
0
  0
VERTEX
  8
0
 10
1.72428
 20
1.19431
 30
0.0
 40
0
 41
0
  0
VERTEX
  8
0
 10
1.69564
 20
1.19431
 30
0.0
 40
0
 41
0
  0
VERTEX
  8
0
 10
1.69564
 20
1.04501
 30
0.0
 40
0
 41
0
  0
VERTEX
  8
0
 10
1.69499
 20
1.0437
 30
0.0
 40
0
 41
0
  0
VERTEX
  8
0
 10
1.69581
 20
1.03844
 30
0.0
 40
0
 41
0
  0
VERTEX
  8
0
 10
1.69965
 20
1.0347
 30
0.0
 40
0
 41
0
  0
VERTEX
  8
0
 10
1.70042
 20
1.03394
 30
0.0
 40
0
 41
0
  0
VERTEX
  8
0
 10
1.70019
 20
1.03318
 30
0.0
 40
0
 41
0
  0
VERTEX
  8
0
 10
1.70372
 20
1.02965
 30
0.0
 40
0
 41
0
  0
VERTEX
  8
0
 10
1.70953
 20
1.02938
 30
0.0
 40
0
 41
0
  0
VERTEX
  8
0
 10
1.71149
 20
1.02938
 30
0.0
 40
0
 41
0
  0
VERTEX
  8
0
 10
1.71474
 20
1.02938
 30
0.0
 40
0
 41
0
  0
VERTEX
  8
0
 10
1.71474
 20
1.02678
 30
0.0
 40
0
 41
0
  0
VERTEX
  8
0
 10
1.66004
 20
1.02678
 30
0.0
 40
0
 41
0
  0
VERTEX
  8
0
 10
1.66004
 20
1.02938
 30
0.0
 40
0
 41
0
  0
VERTEX
  8
0
 10
1.66331
 20
1.02938
 30
0.0
 40
0
 41
0
  0
VERTEX
  8
0
 10
1.66401
 20
1.02916
 30
0.0
 40
0
 41
0
  0
VERTEX
  8
0
 10
1.67361
 20
1.03318
 30
0.0
 40
0
 41
0
  0
VERTEX
  8
0
 10
1.67438
 20
1.03394
 30
0.0
 40
0
 41
0
  0
VERTEX
  8
0
 10
1.67503
 20
1.0341
 30
0.0
 40
0
 41
0
  0
VERTEX
  8
0
 10
1.67931
 20
1.04392
 30
0.0
 40
0
 41
0
  0
VERTEX
  8
0
 10
1.67936
 20
1.04501
 30
0.0
 40
0
 41
0
  0
VERTEX
  8
0
 10
1.67936
 20
1.18476
 30
0.0
 40
0
 41
0
  0
VERTEX
  8
0
 10
1.67865
 20
1.18541
 30
0.0
 40
0
 41
0
  0
VERTEX
  8
0
 10
1.67469
 20
1.19453
 30
0.0
 40
0
 41
0
  0
VERTEX
  8
0
 10
1.67393
 20
1.19518
 30
0.0
 40
0
 41
0
  0
VERTEX
  8
0
 10
1.67312
 20
1.19572
 30
0.0
 40
0
 41
0
  0
VERTEX
  8
0
 10
1.66575
 20
1.1993
 30
0.0
 40
0
 41
0
  0
VERTEX
  8
0
 10
1.66331
 20
1.1993
 30
0.0
 40
0
 41
0
  0
VERTEX
  8
0
 10
1.66026
 20
1.1993
 30
0.0
 40
0
 41
0
  0
VERTEX
  8
0
 10
1.66004
 20
1.20169
 30
0.0
 40
0
 41
0
  0
VERTEX
  8
0
 10
1.72537
 20
1.20169
 30
0.0
 40
0
 41
0
  0
VERTEX
  8
0
 10
1.7284
 20
1.20104
 30
0.0
 40
0
 41
0
  0
VERTEX
  8
0
 10
1.74528
 20
1.19746
 30
0.0
 40
0
 41
0
  0
VERTEX
  8
0
 10
1.76064
 20
1.19106
 30
0.0
 40
0
 41
0
  0
VERTEX
  8
0
 10
1.76292
 20
1.18888
 30
0.0
 40
0
 41
0
  0
VERTEX
  8
0
 10
1.76465
 20
1.18601
 30
0.0
 40
0
 41
0
  0
VERTEX
  8
0
 10
1.77246
 20
1.1725
 30
0.0
 40
0
 41
0
  0
VERTEX
  8
0
 10
1.77681
 20
1.15829
 30
0.0
 40
0
 41
0
  0
VERTEX
  8
0
 10
1.77681
 20
1.15351
 30
0.0
 40
0
 41
0
  0
SEQEND
 8
0
  0
POLYLINE
  8
0
 62
     31
 66
     1
 10
0
 20
0
 30
0.0
 70
     1
 40
0
 41
0
  0
VERTEX
  8
0
 10
1.84472
 20
1.17022
 30
0.0
 40
0
 41
0
  0
VERTEX
  8
0
 10
1.84685
 20
1.17152
 30
0.0
 40
0
 41
0
  0
VERTEX
  8
0
 10
1.86333
 20
1.17717
 30
0.0
 40
0
 41
0
  0
VERTEX
  8
0
 10
1.88108
 20
1.1802
 30
0.0
 40
0
 41
0
  0
VERTEX
  8
0
 10
1.88704
 20
1.1802
 30
0.0
 40
0
 41
0
  0
VERTEX
  8
0
 10
1.88976
 20
1.18015
 30
0.0
 40
0
 41
0
  0
VERTEX
  8
0
 10
1.9075
 20
1.17766
 30
0.0
 40
0
 41
0
  0
VERTEX
  8
0
 10
1.92617
 20
1.1719
 30
0.0
 40
0
 41
0
  0
VERTEX
  8
0
 10
1.92936
 20
1.17022
 30
0.0
 40
0
 41
0
  0
VERTEX
  8
0
 10
1.93257
 20
1.16822
 30
0.0
 40
0
 41
0
  0
VERTEX
  8
0
 10
1.95806
 20
1.14548
 30
0.0
 40
0
 41
0
  0
VERTEX
  8
0
 10
1.95996
 20
1.14244
 30
0.0
 40
0
 41
0
  0
VERTEX
  8
0
 10
1.96158
 20
1.13908
 30
0.0
 40
0
 41
0
  0
VERTEX
  8
0
 10
1.97146
 20
1.11103
 30
0.0
 40
0
 41
0
  0
VERTEX
  8
0
 10
1.97146
 20
1.10165
 30
0.0
 40
0
 41
0
  0
VERTEX
  8
0
 10
1.9714
 20
1.09747
 30
0.0
 40
0
 41
0
  0
VERTEX
  8
0
 10
1.96186
 20
1.0641
 30
0.0
 40
0
 41
0
  0
VERTEX
  8
0
 10
1.95996
 20
1.06106
 30
0.0
 40
0
 41
0
  0
VERTEX
  8
0
 10
1.95779
 20
1.05754
 30
0.0
 40
0
 41
0
  0
VERTEX
  8
0
 10
1.94624
 20
1.04425
 30
0.0
 40
0
 41
0
  0
VERTEX
  8
0
 10
1.93257
 20
1.03475
 30
0.0
 40
0
 41
0
  0
VERTEX
  8
0
 10
1.92936
 20
1.03307
 30
0.0
 40
0
 41
0
  0
VERTEX
  8
0
 10
1.92617
 20
1.03095
 30
0.0
 40
0
 41
0
  0
VERTEX
  8
0
 10
1.89893
 20
1.0233
 30
0.0
 40
0
 41
0
  0
VERTEX
  8
0
 10
1.88986
 20
1.0233
 30
0.0
 40
0
 41
0
  0
VERTEX
  8
0
 10
1.88629
 20
1.02244
 30
0.0
 40
0
 41
0
  0
VERTEX
  8
0
 10
1.8705
 20
1.02347
 30
0.0
 40
0
 41
0
  0
VERTEX
  8
0
 10
1.85667
 20
1.02802
 30
0.0
 40
0
 41
0
  0
VERTEX
  8
0
 10
1.85406
 20
1.02895
 30
0.0
 40
0
 41
0
  0
VERTEX
  8
0
 10
1.85081
 20
1.02976
 30
0.0
 40
0
 41
0
  0
VERTEX
  8
0
 10
1.8386
 20
1.03562
 30
0.0
 40
0
 41
0
  0
VERTEX
  8
0
 10
1.82921
 20
1.04332
 30
0.0
 40
0
 41
0
  0
VERTEX
  8
0
 10
1.82736
 20
1.04501
 30
0.0
 40
0
 41
0
  0
VERTEX
  8
0
 10
1.82471
 20
1.04636
 30
0.0
 40
0
 41
0
  0
VERTEX
  8
0
 10
1.81603
 20
1.0558
 30
0.0
 40
0
 41
0
  0
VERTEX
  8
0
 10
1.81044
 20
1.06752
 30
0.0
 40
0
 41
0
  0
VERTEX
  8
0
 10
1.80935
 20
1.06996
 30
0.0
 40
0
 41
0
  0
VERTEX
  8
0
 10
1.80783
 20
1.07229
 30
0.0
 40
0
 41
0
  0
VERTEX
  8
0
 10
1.80285
 20
1.09644
 30
0.0
 40
0
 41
0
  0
VERTEX
  8
0
 10
1.80285
 20
1.10447
 30
0.0
 40
0
 41
0
  0
VERTEX
  8
0
 10
1.80176
 20
1.10712
 30
0.0
 40
0
 41
0
  0
VERTEX
  8
0
 10
1.80404
 20
1.12291
 30
0.0
 40
0
 41
0
  0
VERTEX
  8
0
 10
1.81222
 20
1.13946
 30
0.0
 40
0
 41
0
  0
VERTEX
  8
0
 10
1.81413
 20
1.14244
 30
0.0
 40
0
 41
0
  0
VERTEX
  8
0
 10
1.81515
 20
1.1451
 30
0.0
 40
0
 41
0
  0
VERTEX
  8
0
 10
1.82611
 20
1.15785
 30
0.0
 40
0
 41
0
  0
VERTEX
  8
0
 10
1.84147
 20
1.16859
 30
0.0
 40
0
 41
0
  0
VERTEX
  8
0
 10
1.84472
 20
1.17022
 30
0.0
 40
0
 41
0
  0
SEQEND
 8
0
  0
POLYLINE
  8
0
 62
     31
 66
     1
 10
0
 20
0
 30
0.0
 70
     1
 40
0
 41
0
  0
VERTEX
  8
0
 10
1.84017
 20
1.05065
 30
0.0
 40
0
 41
0
  0
VERTEX
  8
0
 10
1.84261
 20
1.04652
 30
0.0
 40
0
 41
0
  0
VERTEX
  8
0
 10
1.86025
 20
1.03443
 30
0.0
 40
0
 41
0
  0
VERTEX
  8
0
 10
1.88032
 20
1.03068
 30
0.0
 40
0
 41
0
  0
VERTEX
  8
0
 10
1.88704
 20
1.03068
 30
0.0
 40
0
 41
0
  0
VERTEX
  8
0
 10
1.89057
 20
1.03036
 30
0.0
 40
0
 41
0
  0
VERTEX
  8
0
 10
1.91103
 20
1.03518
 30
0.0
 40
0
 41
0
  0
VERTEX
  8
0
 10
1.93078
 20
1.04734
 30
0.0
 40
0
 41
0
  0
VERTEX
  8
0
 10
1.93392
 20
1.05065
 30
0.0
 40
0
 41
0
  0
VERTEX
  8
0
 10
1.93668
 20
1.05314
 30
0.0
 40
0
 41
0
  0
VERTEX
  8
0
 10
1.9476
 20
1.07219
 30
0.0
 40
0
 41
0
  0
VERTEX
  8
0
 10
1.95301
 20
1.09448
 30
0.0
 40
0
 41
0
  0
VERTEX
  8
0
 10
1.95301
 20
1.10186
 30
0.0
 40
0
 41
0
  0
VERTEX
  8
0
 10
1.95215
 20
1.10664
 30
0.0
 40
0
 41
0
  0
VERTEX
  8
0
 10
1.94694
 20
1.12953
 30
0.0
 40
0
 41
0
  0
VERTEX
  8
0
 10
1.93707
 20
1.14961
 30
0.0
 40
0
 41
0
  0
VERTEX
  8
0
 10
1.93392
 20
1.15286
 30
0.0
 40
0
 41
0
  0
VERTEX
  8
0
 10
1.93033
 20
1.15612
 30
0.0
 40
0
 41
0
  0
VERTEX
  8
0
 10
1.91211
 20
1.16773
 30
0.0
 40
0
 41
0
  0
VERTEX
  8
0
 10
1.89328
 20
1.17283
 30
0.0
 40
0
 41
0
  0
VERTEX
  8
0
 10
1.88704
 20
1.17283
 30
0.0
 40
0
 41
0
  0
VERTEX
  8
0
 10
1.88124
 20
1.17223
 30
0.0
 40
0
 41
0
  0
VERTEX
  8
0
 10
1.8596
 20
1.16697
 30
0.0
 40
0
 41
0
  0
VERTEX
  8
0
 10
1.84332
 20
1.15623
 30
0.0
 40
0
 41
0
  0
VERTEX
  8
0
 10
1.84017
 20
1.15286
 30
0.0
 40
0
 41
0
  0
VERTEX
  8
0
 10
1.83632
 20
1.1495
 30
0.0
 40
0
 41
0
  0
VERTEX
  8
0
 10
1.82493
 20
1.13013
 30
0.0
 40
0
 41
0
  0
VERTEX
  8
0
 10
1.82129
 20
1.10897
 30
0.0
 40
0
 41
0
  0
VERTEX
  8
0
 10
1.82129
 20
1.10186
 30
0.0
 40
0
 41
0
  0
VERTEX
  8
0
 10
1.82101
 20
1.09622
 30
0.0
 40
0
 41
0
  0
VERTEX
  8
0
 10
1.82557
 20
1.07273
 30
0.0
 40
0
 41
0
  0
VERTEX
  8
0
 10
1.83703
 20
1.05401
 30
0.0
 40
0
 41
0
  0
VERTEX
  8
0
 10
1.84017
 20
1.05065
 30
0.0
 40
0
 41
0
  0
SEQEND
 8
0
  0
POLYLINE
  8
0
 62
     31
 66
     1
 10
0
 20
0
 30
0.0
 70
     1
 40
0
 41
0
  0
VERTEX
  8
0
 10
2.16661
 20
1.17435
 30
0.0
 40
0
 41
0
  0
VERTEX
  8
0
 10
2.16558
 20
1.17364
 30
0.0
 40
0
 41
0
  0
VERTEX
  8
0
 10
2.15771
 20
1.17131
 30
0.0
 40
0
 41
0
  0
VERTEX
  8
0
 10
2.15707
 20
1.17066
 30
0.0
 40
0
 41
0
  0
VERTEX
  8
0
 10
2.15593
 20
1.16962
 30
0.0
 40
0
 41
0
  0
VERTEX
  8
0
 10
2.15294
 20
1.16263
 30
0.0
 40
0
 41
0
  0
VERTEX
  8
0
 10
2.15294
 20
1.16176
 30
0.0
 40
0
 41
0
  0
VERTEX
  8
0
 10
2.15294
 20
1.0552
 30
0.0
 40
0
 41
0
  0
VERTEX
  8
0
 10
2.15283
 20
1.05276
 30
0.0
 40
0
 41
0
  0
VERTEX
  8
0
 10
2.15435
 20
1.03003
 30
0.0
 40
0
 41
0
  0
VERTEX
  8
0
 10
2.15468
 20
1.02786
 30
0.0
 40
0
 41
0
  0
VERTEX
  8
0
 10
2.15533
 20
1.0233
 30
0.0
 40
0
 41
0
  0
VERTEX
  8
0
 10
2.15294
 20
1.0233
 30
0.0
 40
0
 41
0
  0
VERTEX
  8
0
 10
2.02294
 20
1.14657
 30
0.0
 40
0
 41
0
  0
VERTEX
  8
0
 10
2.02294
 20
1.04218
 30
0.0
 40
0
 41
0
  0
VERTEX
  8
0
 10
2.02225
 20
1.04142
 30
0.0
 40
0
 41
0
  0
VERTEX
  8
0
 10
2.02262
 20
1.03703
 30
0.0
 40
0
 41
0
  0
VERTEX
  8
0
 10
2.02621
 20
1.03372
 30
0.0
 40
0
 41
0
  0
VERTEX
  8
0
 10
2.02686
 20
1.03307
 30
0.0
 40
0
 41
0
  0
VERTEX
  8
0
 10
2.0275
 20
1.03193
 30
0.0
 40
0
 41
0
  0
VERTEX
  8
0
 10
2.03435
 20
1.02938
 30
0.0
 40
0
 41
0
  0
VERTEX
  8
0
 10
2.03662
 20
1.02938
 30
0.0
 40
0
 41
0
  0
VERTEX
  8
0
 10
2.04096
 20
1.02938
 30
0.0
 40
0
 41
0
  0
VERTEX
  8
0
 10
2.04096
 20
1.02678
 30
0.0
 40
0
 41
0
  0
VERTEX
  8
0
 10
1.99365
 20
1.02678
 30
0.0
 40
0
 41
0
  0
VERTEX
  8
0
 10
1.99365
 20
1.02938
 30
0.0
 40
0
 41
0
  0
VERTEX
  8
0
 10
1.99799
 20
1.02938
 30
0.0
 40
0
 41
0
  0
VERTEX
  8
0
 10
1.99799
 20
1.02938
 30
0.0
 40
0
 41
0
  0
VERTEX
  8
0
 10
2.00151
 20
1.02998
 30
0.0
 40
0
 41
0
  0
VERTEX
  8
0
 10
2.00689
 20
1.03247
 30
0.0
 40
0
 41
0
  0
VERTEX
  8
0
 10
2.00754
 20
1.03307
 30
0.0
 40
0
 41
0
  0
VERTEX
  8
0
 10
2.00749
 20
1.03318
 30
0.0
 40
0
 41
0
  0
VERTEX
  8
0
 10
2.0095
 20
1.03643
 30
0.0
 40
0
 41
0
  0
VERTEX
  8
0
 10
2.01167
 20
1.04077
 30
0.0
 40
0
 41
0
  0
VERTEX
  8
0
 10
2.01167
 20
1.04218
 30
0.0
 40
0
 41
0
  0
VERTEX
  8
0
 10
2.01167
 20
1.14917
 30
0.0
 40
0
 41
0
  0
VERTEX
  8
0
 10
2.01058
 20
1.1508
 30
0.0
 40
0
 41
0
  0
VERTEX
  8
0
 10
2.0096
 20
1.1623
 30
0.0
 40
0
 41
0
  0
VERTEX
  8
0
 10
2.01019
 20
1.17456
 30
0.0
 40
0
 41
0
  0
VERTEX
  8
0
 10
2.00993
 20
1.17652
 30
0.0
 40
0
 41
0
  0
VERTEX
  8
0
 10
2.0095
 20
1.18042
 30
0.0
 40
0
 41
0
  0
VERTEX
  8
0
 10
2.01232
 20
1.1802
 30
0.0
 40
0
 41
0
  0
VERTEX
  8
0
 10
2.14187
 20
1.05803
 30
0.0
 40
0
 41
0
  0
VERTEX
  8
0
 10
2.14187
 20
1.16176
 30
0.0
 40
0
 41
0
  0
VERTEX
  8
0
 10
2.14144
 20
1.16181
 30
0.0
 40
0
 41
0
  0
VERTEX
  8
0
 10
2.13797
 20
1.17006
 30
0.0
 40
0
 41
0
  0
VERTEX
  8
0
 10
2.13732
 20
1.17066
 30
0.0
 40
0
 41
0
  0
VERTEX
  8
0
 10
2.13574
 20
1.17082
 30
0.0
 40
0
 41
0
  0
VERTEX
  8
0
 10
2.13129
 20
1.17283
 30
0.0
 40
0
 41
0
  0
VERTEX
  8
0
 10
2.12879
 20
1.17435
 30
0.0
 40
0
 41
0
  0
VERTEX
  8
0
 10
2.12799
 20
1.17435
 30
0.0
 40
0
 41
0
  0
VERTEX
  8
0
 10
2.12364
 20
1.17435
 30
0.0
 40
0
 41
0
  0
VERTEX
  8
0
 10
2.12364
 20
1.17673
 30
0.0
 40
0
 41
0
  0
VERTEX
  8
0
 10
2.17096
 20
1.17673
 30
0.0
 40
0
 41
0
  0
VERTEX
  8
0
 10
2.17096
 20
1.17435
 30
0.0
 40
0
 41
0
  0
VERTEX
  8
0
 10
2.16661
 20
1.17435
 30
0.0
 40
0
 41
0
  0
SEQEND
 8
0
  0
POLYLINE
  8
0
 62
     31
 66
     1
 10
0
 20
0
 30
0.0
 70
     1
 40
0
 41
0
  0
VERTEX
  8
0
 10
2.27539
 20
1.0233
 30
0.0
 40
0
 41
0
  0
VERTEX
  8
0
 10
2.26828
 20
1.02249
 30
0.0
 40
0
 41
0
  0
VERTEX
  8
0
 10
2.24056
 20
1.02743
 30
0.0
 40
0
 41
0
  0
VERTEX
  8
0
 10
2.21963
 20
1.0411
 30
0.0
 40
0
 41
0
  0
VERTEX
  8
0
 10
2.21593
 20
1.04457
 30
0.0
 40
0
 41
0
  0
VERTEX
  8
0
 10
2.21158
 20
1.04783
 30
0.0
 40
0
 41
0
  0
VERTEX
  8
0
 10
2.19824
 20
1.06904
 30
0.0
 40
0
 41
0
  0
VERTEX
  8
0
 10
2.19358
 20
1.09367
 30
0.0
 40
0
 41
0
  0
VERTEX
  8
0
 10
2.19358
 20
1.10186
 30
0.0
 40
0
 41
0
  0
VERTEX
  8
0
 10
2.19249
 20
1.10745
 30
0.0
 40
0
 41
0
  0
VERTEX
  8
0
 10
2.19754
 20
1.1336
 30
0.0
 40
0
 41
0
  0
VERTEX
  8
0
 10
2.21218
 20
1.15568
 30
0.0
 40
0
 41
0
  0
VERTEX
  8
0
 10
2.21593
 20
1.15915
 30
0.0
 40
0
 41
0
  0
VERTEX
  8
0
 10
2.21903
 20
1.16208
 30
0.0
 40
0
 41
0
  0
VERTEX
  8
0
 10
2.24061
 20
1.17402
 30
0.0
 40
0
 41
0
  0
VERTEX
  8
0
 10
2.26535
 20
1.1802
 30
0.0
 40
0
 41
0
  0
VERTEX
  8
0
 10
2.27365
 20
1.1802
 30
0.0
 40
0
 41
0
  0
VERTEX
  8
0
 10
2.27875
 20
1.18015
 30
0.0
 40
0
 41
0
  0
VERTEX
  8
0
 10
2.30518
 20
1.17641
 30
0.0
 40
0
 41
0
  0
VERTEX
  8
0
 10
2.32964
 20
1.16773
 30
0.0
 40
0
 41
0
  0
VERTEX
  8
0
 10
2.33376
 20
1.16523
 30
0.0
 40
0
 41
0
  0
VERTEX
  8
0
 10
2.33919
 20
1.12986
 30
0.0
 40
0
 41
0
  0
VERTEX
  8
0
 10
2.33703
 20
1.12986
 30
0.0
 40
0
 41
0
  0
VERTEX
  8
0
 10
2.33589
 20
1.13306
 30
0.0
 40
0
 41
0
  0
VERTEX
  8
0
 10
2.32889
 20
1.1482
 30
0.0
 40
0
 41
0
  0
VERTEX
  8
0
 10
2.31913
 20
1.16046
 30
0.0
 40
0
 41
0
  0
VERTEX
  8
0
 10
2.31662
 20
1.16219
 30
0.0
 40
0
 41
0
  0
VERTEX
  8
0
 10
2.31321
 20
1.16312
 30
0.0
 40
0
 41
0
  0
VERTEX
  8
0
 10
2.29699
 20
1.16887
 30
0.0
 40
0
 41
0
  0
VERTEX
  8
0
 10
2.27962
 20
1.17283
 30
0.0
 40
0
 41
0
  0
VERTEX
  8
0
 10
2.27387
 20
1.17283
 30
0.0
 40
0
 41
0
  0
VERTEX
  8
0
 10
2.26844
 20
1.17223
 30
0.0
 40
0
 41
0
  0
VERTEX
  8
0
 10
2.24761
 20
1.16718
 30
0.0
 40
0
 41
0
  0
VERTEX
  8
0
 10
2.23182
 20
1.15693
 30
0.0
 40
0
 41
0
  0
VERTEX
  8
0
 10
2.22894
 20
1.15373
 30
0.0
 40
0
 41
0
  0
VERTEX
  8
0
 10
2.22553
 20
1.15042
 30
0.0
 40
0
 41
0
  0
VERTEX
  8
0
 10
2.21511
 20
1.131
 30
0.0
 40
0
 41
0
  0
VERTEX
  8
0
 10
2.21158
 20
1.10919
 30
0.0
 40
0
 41
0
  0
VERTEX
  8
0
 10
2.21158
 20
1.10186
 30
0.0
 40
0
 41
0
  0
VERTEX
  8
0
 10
2.21132
 20
1.09595
 30
0.0
 40
0
 41
0
  0
VERTEX
  8
0
 10
2.21556
 20
1.07175
 30
0.0
 40
0
 41
0
  0
VERTEX
  8
0
 10
2.22601
 20
1.05303
 30
0.0
 40
0
 41
0
  0
VERTEX
  8
0
 10
2.22894
 20
1.04978
 30
0.0
 40
0
 41
0
  0
VERTEX
  8
0
 10
2.23133
 20
1.04587
 30
0.0
 40
0
 41
0
  0
VERTEX
  8
0
 10
2.24903
 20
1.03432
 30
0.0
 40
0
 41
0
  0
VERTEX
  8
0
 10
2.27024
 20
1.03068
 30
0.0
 40
0
 41
0
  0
VERTEX
  8
0
 10
2.27735
 20
1.03068
 30
0.0
 40
0
 41
0
  0
VERTEX
  8
0
 10
2.28136
 20
1.03036
 30
0.0
 40
0
 41
0
  0
VERTEX
  8
0
 10
2.30436
 20
1.03567
 30
0.0
 40
0
 41
0
  0
VERTEX
  8
0
 10
2.32676
 20
1.04897
 30
0.0
 40
0
 41
0
  0
VERTEX
  8
0
 10
2.33051
 20
1.0526
 30
0.0
 40
0
 41
0
  0
VERTEX
  8
0
 10
2.33074
 20
1.0858
 30
0.0
 40
0
 41
0
  0
VERTEX
  8
0
 10
2.32986
 20
1.08629
 30
0.0
 40
0
 41
0
  0
VERTEX
  8
0
 10
2.32824
 20
1.09253
 30
0.0
 40
0
 41
0
  0
VERTEX
  8
0
 10
2.32769
 20
1.09297
 30
0.0
 40
0
 41
0
  0
VERTEX
  8
0
 10
2.32671
 20
1.09264
 30
0.0
 40
0
 41
0
  0
VERTEX
  8
0
 10
2.32303
 20
1.09362
 30
0.0
 40
0
 41
0
  0
VERTEX
  8
0
 10
2.32015
 20
1.09557
 30
0.0
 40
0
 41
0
  0
VERTEX
  8
0
 10
2.31922
 20
1.09557
 30
0.0
 40
0
 41
0
  0
VERTEX
  8
0
 10
2.31575
 20
1.09557
 30
0.0
 40
0
 41
0
  0
VERTEX
  8
0
 10
2.31575
 20
1.09796
 30
0.0
 40
0
 41
0
  0
VERTEX
  8
0
 10
2.36154
 20
1.09796
 30
0.0
 40
0
 41
0
  0
VERTEX
  8
0
 10
2.36154
 20
1.09557
 30
0.0
 40
0
 41
0
  0
VERTEX
  8
0
 10
2.35807
 20
1.09557
 30
0.0
 40
0
 41
0
  0
VERTEX
  8
0
 10
2.35558
 20
1.09459
 30
0.0
 40
0
 41
0
  0
VERTEX
  8
0
 10
2.34825
 20
1.09139
 30
0.0
 40
0
 41
0
  0
VERTEX
  8
0
 10
2.34679
 20
1.08705
 30
0.0
 40
0
 41
0
  0
VERTEX
  8
0
 10
2.34679
 20
1.08559
 30
0.0
 40
0
 41
0
  0
VERTEX
  8
0
 10
2.34679
 20
1.05542
 30
0.0
 40
0
 41
0
  0
VERTEX
  8
0
 10
2.34392
 20
1.05325
 30
0.0
 40
0
 41
0
  0
VERTEX
  8
0
 10
2.32075
 20
1.03448
 30
0.0
 40
0
 41
0
  0
VERTEX
  8
0
 10
2.31771
 20
1.03285
 30
0.0
 40
0
 41
0
  0
VERTEX
  8
0
 10
2.31369
 20
1.03079
 30
0.0
 40
0
 41
0
  0
VERTEX
  8
0
 10
2.29656
 20
1.02499
 30
0.0
 40
0
 41
0
  0
VERTEX
  8
0
 10
2.28065
 20
1.0233
 30
0.0
 40
0
 41
0
  0
VERTEX
  8
0
 10
2.27539
 20
1.0233
 30
0.0
 40
0
 41
0
  0
SEQEND
 8
0
  0
POLYLINE
  8
0
 62
     33
 66
     1
 10
0
 20
0
 30
0.0
 70
     1
 40
0
 41
0
  0
VERTEX
  8
0
 10
1.38493
 20
0.797392
 30
0.0
 40
0
 41
0
  0
VERTEX
  8
0
 10
1.38493
 20
0.887236
 30
0.0
 40
0
 41
0
  0
VERTEX
  8
0
 10
1.42681
 20
0.887236
 30
0.0
 40
0
 41
0
  0
VERTEX
  8
0
 10
1.42681
 20
0.882028
 30
0.0
 40
0
 41
0
  0
VERTEX
  8
0
 10
1.391
 20
0.882028
 30
0.0
 40
0
 41
0
  0
VERTEX
  8
0
 10
1.391
 20
0.848825
 30
0.0
 40
0
 41
0
  0
VERTEX
  8
0
 10
1.42333
 20
0.848825
 30
0.0
 40
0
 41
0
  0
VERTEX
  8
0
 10
1.42333
 20
0.843833
 30
0.0
 40
0
 41
0
  0
VERTEX
  8
0
 10
1.391
 20
0.843833
 30
0.0
 40
0
 41
0
  0
VERTEX
  8
0
 10
1.391
 20
0.8026
 30
0.0
 40
0
 41
0
  0
VERTEX
  8
0
 10
1.42811
 20
0.8026
 30
0.0
 40
0
 41
0
  0
VERTEX
  8
0
 10
1.42811
 20
0.797392
 30
0.0
 40
0
 41
0
  0
VERTEX
  8
0
 10
1.38493
 20
0.797392
 30
0.0
 40
0
 41
0
  0
SEQEND
 8
0
  0
POLYLINE
  8
0
 62
     33
 66
     1
 10
0
 20
0
 30
0.0
 70
     1
 40
0
 41
0
  0
VERTEX
  8
0
 10
1.49858
 20
0.879207
 30
0.0
 40
0
 41
0
  0
VERTEX
  8
0
 10
1.49599
 20
0.878881
 30
0.0
 40
0
 41
0
  0
VERTEX
  8
0
 10
1.48785
 20
0.880617
 30
0.0
 40
0
 41
0
  0
VERTEX
  8
0
 10
1.48221
 20
0.883112
 30
0.0
 40
0
 41
0
  0
VERTEX
  8
0
 10
1.48036
 20
0.883112
 30
0.0
 40
0
 41
0
  0
VERTEX
  8
0
 10
1.47661
 20
0.88295
 30
0.0
 40
0
 41
0
  0
VERTEX
  8
0
 10
1.4655
 20
0.879478
 30
0.0
 40
0
 41
0
  0
VERTEX
  8
0
 10
1.46213
 20
0.872154
 30
0.0
 40
0
 41
0
  0
VERTEX
  8
0
 10
1.46213
 20
0.869658
 30
0.0
 40
0
 41
0
  0
VERTEX
  8
0
 10
1.46169
 20
0.868464
 30
0.0
 40
0
 41
0
  0
VERTEX
  8
0
 10
1.46556
 20
0.859458
 30
0.0
 40
0
 41
0
  0
VERTEX
  8
0
 10
1.46625
 20
0.85859
 30
0.0
 40
0
 41
0
  0
VERTEX
  8
0
 10
1.46615
 20
0.857343
 30
0.0
 40
0
 41
0
  0
VERTEX
  8
0
 10
1.46963
 20
0.853165
 30
0.0
 40
0
 41
0
  0
VERTEX
  8
0
 10
1.47526
 20
0.850343
 30
0.0
 40
0
 41
0
  0
VERTEX
  8
0
 10
1.47624
 20
0.849693
 30
0.0
 40
0
 41
0
  0
VERTEX
  8
0
 10
1.47678
 20
0.848174
 30
0.0
 40
0
 41
0
  0
VERTEX
  8
0
 10
1.48144
 20
0.844376
 30
0.0
 40
0
 41
0
  0
VERTEX
  8
0
 10
1.48699
 20
0.842368
 30
0.0
 40
0
 41
0
  0
VERTEX
  8
0
 10
1.48796
 20
0.841663
 30
0.0
 40
0
 41
0
  0
VERTEX
  8
0
 10
1.48872
 20
0.840794
 30
0.0
 40
0
 41
0
  0
VERTEX
  8
0
 10
1.49744
 20
0.832657
 30
0.0
 40
0
 41
0
  0
VERTEX
  8
0
 10
1.49815
 20
0.831681
 30
0.0
 40
0
 41
0
  0
VERTEX
  8
0
 10
1.49772
 20
0.830215
 30
0.0
 40
0
 41
0
  0
VERTEX
  8
0
 10
1.49957
 20
0.82479
 30
0.0
 40
0
 41
0
  0
VERTEX
  8
0
 10
1.50228
 20
0.820558
 30
0.0
 40
0
 41
0
  0
VERTEX
  8
0
 10
1.50228
 20
0.819093
 30
0.0
 40
0
 41
0
  0
VERTEX
  8
0
 10
1.50196
 20
0.816544
 30
0.0
 40
0
 41
0
  0
VERTEX
  8
0
 10
1.49989
 20
0.808026
 30
0.0
 40
0
 41
0
  0
VERTEX
  8
0
 10
1.49593
 20
0.80271
 30
0.0
 40
0
 41
0
  0
VERTEX
  8
0
 10
1.49468
 20
0.801732
 30
0.0
 40
0
 41
0
  0
VERTEX
  8
0
 10
1.49257
 20
0.800431
 30
0.0
 40
0
 41
0
  0
VERTEX
  8
0
 10
1.48432
 20
0.79685
 30
0.0
 40
0
 41
0
  0
VERTEX
  8
0
 10
1.47612
 20
0.795874
 30
0.0
 40
0
 41
0
  0
VERTEX
  8
0
 10
1.47342
 20
0.795874
 30
0.0
 40
0
 41
0
  0
VERTEX
  8
0
 10
1.47097
 20
0.794843
 30
0.0
 40
0
 41
0
  0
VERTEX
  8
0
 10
1.46061
 20
0.79609
 30
0.0
 40
0
 41
0
  0
VERTEX
  8
0
 10
1.45199
 20
0.801678
 30
0.0
 40
0
 41
0
  0
VERTEX
  8
0
 10
1.45042
 20
0.802818
 30
0.0
 40
0
 41
0
  0
VERTEX
  8
0
 10
1.45344
 20
0.807375
 30
0.0
 40
0
 41
0
  0
VERTEX
  8
0
 10
1.4541
 20
0.805531
 30
0.0
 40
0
 41
0
  0
VERTEX
  8
0
 10
1.46164
 20
0.801569
 30
0.0
 40
0
 41
0
  0
VERTEX
  8
0
 10
1.47026
 20
0.801299
 30
0.0
 40
0
 41
0
  0
VERTEX
  8
0
 10
1.47319
 20
0.801299
 30
0.0
 40
0
 41
0
  0
VERTEX
  8
0
 10
1.47483
 20
0.800974
 30
0.0
 40
0
 41
0
  0
VERTEX
  8
0
 10
1.48893
 20
0.804933
 30
0.0
 40
0
 41
0
  0
VERTEX
  8
0
 10
1.4899
 20
0.805639
 30
0.0
 40
0
 41
0
  0
VERTEX
  8
0
 10
1.49046
 20
0.805747
 30
0.0
 40
0
 41
0
  0
VERTEX
  8
0
 10
1.49365
 20
0.810033
 30
0.0
 40
0
 41
0
  0
VERTEX
  8
0
 10
1.49576
 20
0.816218
 30
0.0
 40
0
 41
0
  0
VERTEX
  8
0
 10
1.49576
 20
0.818225
 30
0.0
 40
0
 41
0
  0
VERTEX
  8
0
 10
1.49485
 20
0.818606
 30
0.0
 40
0
 41
0
  0
VERTEX
  8
0
 10
1.49333
 20
0.822838
 30
0.0
 40
0
 41
0
  0
VERTEX
  8
0
 10
1.49229
 20
0.828046
 30
0.0
 40
0
 41
0
  0
VERTEX
  8
0
 10
1.49164
 20
0.82886
 30
0.0
 40
0
 41
0
  0
VERTEX
  8
0
 10
1.4904
 20
0.829456
 30
0.0
 40
0
 41
0
  0
VERTEX
  8
0
 10
1.48242
 20
0.837322
 30
0.0
 40
0
 41
0
  0
VERTEX
  8
0
 10
1.48144
 20
0.837974
 30
0.0
 40
0
 41
0
  0
VERTEX
  8
0
 10
1.47976
 20
0.837649
 30
0.0
 40
0
 41
0
  0
VERTEX
  8
0
 10
1.47407
 20
0.840578
 30
0.0
 40
0
 41
0
  0
VERTEX
  8
0
 10
1.47049
 20
0.845732
 30
0.0
 40
0
 41
0
  0
VERTEX
  8
0
 10
1.46951
 20
0.846438
 30
0.0
 40
0
 41
0
  0
VERTEX
  8
0
 10
1.46772
 20
0.846546
 30
0.0
 40
0
 41
0
  0
VERTEX
  8
0
 10
1.46251
 20
0.850235
 30
0.0
 40
0
 41
0
  0
VERTEX
  8
0
 10
1.46018
 20
0.855661
 30
0.0
 40
0
 41
0
  0
VERTEX
  8
0
 10
1.45953
 20
0.856637
 30
0.0
 40
0
 41
0
  0
VERTEX
  8
0
 10
1.45861
 20
0.857343
 30
0.0
 40
0
 41
0
  0
VERTEX
  8
0
 10
1.4554
 20
0.866457
 30
0.0
 40
0
 41
0
  0
VERTEX
  8
0
 10
1.4554
 20
0.86944
 30
0.0
 40
0
 41
0
  0
VERTEX
  8
0
 10
1.45449
 20
0.870581
 30
0.0
 40
0
 41
0
  0
VERTEX
  8
0
 10
1.45546
 20
0.87709
 30
0.0
 40
0
 41
0
  0
VERTEX
  8
0
 10
1.46083
 20
0.882679
 30
0.0
 40
0
 41
0
  0
VERTEX
  8
0
 10
1.46192
 20
0.883547
 30
0.0
 40
0
 41
0
  0
VERTEX
  8
0
 10
1.46262
 20
0.884197
 30
0.0
 40
0
 41
0
  0
VERTEX
  8
0
 10
1.47558
 20
0.888756
 30
0.0
 40
0
 41
0
  0
VERTEX
  8
0
 10
1.47993
 20
0.888756
 30
0.0
 40
0
 41
0
  0
VERTEX
  8
0
 10
1.48107
 20
0.888104
 30
0.0
 40
0
 41
0
  0
VERTEX
  8
0
 10
1.48964
 20
0.886639
 30
0.0
 40
0
 41
0
  0
VERTEX
  8
0
 10
1.49914
 20
0.884957
 30
0.0
 40
0
 41
0
  0
VERTEX
  8
0
 10
1.50076
 20
0.884197
 30
0.0
 40
0
 41
0
  0
VERTEX
  8
0
 10
1.49858
 20
0.879207
 30
0.0
 40
0
 41
0
  0
SEQEND
 8
0
  0
POLYLINE
  8
0
 62
     33
 66
     1
 10
0
 20
0
 30
0.0
 70
     1
 40
0
 41
0
  0
VERTEX
  8
0
 10
1.55268
 20
0.882028
 30
0.0
 40
0
 41
0
  0
VERTEX
  8
0
 10
1.52229
 20
0.882028
 30
0.0
 40
0
 41
0
  0
VERTEX
  8
0
 10
1.52229
 20
0.887236
 30
0.0
 40
0
 41
0
  0
VERTEX
  8
0
 10
1.58914
 20
0.887236
 30
0.0
 40
0
 41
0
  0
VERTEX
  8
0
 10
1.58914
 20
0.882028
 30
0.0
 40
0
 41
0
  0
VERTEX
  8
0
 10
1.55875
 20
0.882028
 30
0.0
 40
0
 41
0
  0
VERTEX
  8
0
 10
1.55875
 20
0.797392
 30
0.0
 40
0
 41
0
  0
VERTEX
  8
0
 10
1.55268
 20
0.797392
 30
0.0
 40
0
 41
0
  0
VERTEX
  8
0
 10
1.55268
 20
0.882028
 30
0.0
 40
0
 41
0
  0
SEQEND
 8
0
  0
POLYLINE
  8
0
 62
     33
 66
     1
 10
0
 20
0
 30
0.0
 70
     1
 40
0
 41
0
  0
VERTEX
  8
0
 10
1.60319
 20
0.797392
 30
0.0
 40
0
 41
0
  0
VERTEX
  8
0
 10
1.60319
 20
0.804119
 30
0.0
 40
0
 41
0
  0
VERTEX
  8
0
 10
1.60992
 20
0.804119
 30
0.0
 40
0
 41
0
  0
VERTEX
  8
0
 10
1.60992
 20
0.797392
 30
0.0
 40
0
 41
0
  0
VERTEX
  8
0
 10
1.60319
 20
0.797392
 30
0.0
 40
0
 41
0
  0
SEQEND
 8
0
  0
POLYLINE
  8
0
 62
     33
 66
     1
 10
0
 20
0
 30
0.0
 70
     1
 40
0
 41
0
  0
VERTEX
  8
0
 10
1.68283
 20
0.797392
 30
0.0
 40
0
 41
0
  0
VERTEX
  8
0
 10
1.68283
 20
0.802383
 30
0.0
 40
0
 41
0
  0
VERTEX
  8
0
 10
1.68571
 20
0.805042
 30
0.0
 40
0
 41
0
  0
VERTEX
  8
0
 10
1.7156
 20
0.834231
 30
0.0
 40
0
 41
0
  0
VERTEX
  8
0
 10
1.71778
 20
0.836889
 30
0.0
 40
0
 41
0
  0
VERTEX
  8
0
 10
1.71978
 20
0.838625
 30
0.0
 40
0
 41
0
  0
VERTEX
  8
0
 10
1.72738
 20
0.850343
 30
0.0
 40
0
 41
0
  0
VERTEX
  8
0
 10
1.73101
 20
0.860597
 30
0.0
 40
0
 41
0
  0
VERTEX
  8
0
 10
1.73101
 20
0.864015
 30
0.0
 40
0
 41
0
  0
VERTEX
  8
0
 10
1.73085
 20
0.864938
 30
0.0
 40
0
 41
0
  0
VERTEX
  8
0
 10
1.72646
 20
0.878339
 30
0.0
 40
0
 41
0
  0
VERTEX
  8
0
 10
1.72558
 20
0.878989
 30
0.0
 40
0
 41
0
  0
VERTEX
  8
0
 10
1.72385
 20
0.878664
 30
0.0
 40
0
 41
0
  0
VERTEX
  8
0
 10
1.71778
 20
0.880563
 30
0.0
 40
0
 41
0
  0
VERTEX
  8
0
 10
1.71192
 20
0.883112
 30
0.0
 40
0
 41
0
  0
VERTEX
  8
0
 10
1.70996
 20
0.883112
 30
0.0
 40
0
 41
0
  0
VERTEX
  8
0
 10
1.70751
 20
0.88295
 30
0.0
 40
0
 41
0
  0
VERTEX
  8
0
 10
1.69032
 20
0.879857
 30
0.0
 40
0
 41
0
  0
VERTEX
  8
0
 10
1.68847
 20
0.879207
 30
0.0
 40
0
 41
0
  0
VERTEX
  8
0
 10
1.68696
 20
0.884415
 30
0.0
 40
0
 41
0
  0
VERTEX
  8
0
 10
1.68793
 20
0.884849
 30
0.0
 40
0
 41
0
  0
VERTEX
  8
0
 10
1.69743
 20
0.887236
 30
0.0
 40
0
 41
0
  0
VERTEX
  8
0
 10
1.70747
 20
0.888756
 30
0.0
 40
0
 41
0
  0
VERTEX
  8
0
 10
1.71083
 20
0.888756
 30
0.0
 40
0
 41
0
  0
VERTEX
  8
0
 10
1.71203
 20
0.888104
 30
0.0
 40
0
 41
0
  0
VERTEX
  8
0
 10
1.72868
 20
0.884089
 30
0.0
 40
0
 41
0
  0
VERTEX
  8
0
 10
1.72993
 20
0.883112
 30
0.0
 40
0
 41
0
  0
VERTEX
  8
0
 10
1.73112
 20
0.881974
 30
0.0
 40
0
 41
0
  0
VERTEX
  8
0
 10
1.73753
 20
0.869169
 30
0.0
 40
0
 41
0
  0
VERTEX
  8
0
 10
1.73753
 20
0.864883
 30
0.0
 40
0
 41
0
  0
VERTEX
  8
0
 10
1.73682
 20
0.861792
 30
0.0
 40
0
 41
0
  0
VERTEX
  8
0
 10
1.7334
 20
0.849964
 30
0.0
 40
0
 41
0
  0
VERTEX
  8
0
 10
1.72721
 20
0.83895
 30
0.0
 40
0
 41
0
  0
VERTEX
  8
0
 10
1.72515
 20
0.836237
 30
0.0
 40
0
 41
0
  0
VERTEX
  8
0
 10
1.72228
 20
0.832657
 30
0.0
 40
0
 41
0
  0
VERTEX
  8
0
 10
1.70947
 20
0.818443
 30
0.0
 40
0
 41
0
  0
VERTEX
  8
0
 10
1.69558
 20
0.805531
 30
0.0
 40
0
 41
0
  0
VERTEX
  8
0
 10
1.69217
 20
0.8026
 30
0.0
 40
0
 41
0
  0
VERTEX
  8
0
 10
1.74229
 20
0.8026
 30
0.0
 40
0
 41
0
  0
VERTEX
  8
0
 10
1.74229
 20
0.797392
 30
0.0
 40
0
 41
0
  0
VERTEX
  8
0
 10
1.68283
 20
0.797392
 30
0.0
 40
0
 41
0
  0
SEQEND
 8
0
  0
POLYLINE
  8
0
 62
     33
 66
     1
 10
0
 20
0
 30
0.0
 70
     1
 40
0
 41
0
  0
VERTEX
  8
0
 10
1.80072
 20
0.795874
 30
0.0
 40
0
 41
0
  0
VERTEX
  8
0
 10
1.79753
 20
0.794951
 30
0.0
 40
0
 41
0
  0
VERTEX
  8
0
 10
1.7864
 20
0.797501
 30
0.0
 40
0
 41
0
  0
VERTEX
  8
0
 10
1.77957
 20
0.806399
 30
0.0
 40
0
 41
0
  0
VERTEX
  8
0
 10
1.77815
 20
0.80846
 30
0.0
 40
0
 41
0
  0
VERTEX
  8
0
 10
1.77632
 20
0.809654
 30
0.0
 40
0
 41
0
  0
VERTEX
  8
0
 10
1.77106
 20
0.821915
 30
0.0
 40
0
 41
0
  0
VERTEX
  8
0
 10
1.76947
 20
0.837378
 30
0.0
 40
0
 41
0
  0
VERTEX
  8
0
 10
1.76947
 20
0.842531
 30
0.0
 40
0
 41
0
  0
VERTEX
  8
0
 10
1.76861
 20
0.845894
 30
0.0
 40
0
 41
0
  0
VERTEX
  8
0
 10
1.77024
 20
0.861411
 30
0.0
 40
0
 41
0
  0
VERTEX
  8
0
 10
1.77632
 20
0.874378
 30
0.0
 40
0
 41
0
  0
VERTEX
  8
0
 10
1.77772
 20
0.876385
 30
0.0
 40
0
 41
0
  0
VERTEX
  8
0
 10
1.77869
 20
0.877688
 30
0.0
 40
0
 41
0
  0
VERTEX
  8
0
 10
1.787
 20
0.884469
 30
0.0
 40
0
 41
0
  0
VERTEX
  8
0
 10
1.79725
 20
0.888756
 30
0.0
 40
0
 41
0
  0
VERTEX
  8
0
 10
1.80072
 20
0.888756
 30
0.0
 40
0
 41
0
  0
VERTEX
  8
0
 10
1.80203
 20
0.888104
 30
0.0
 40
0
 41
0
  0
VERTEX
  8
0
 10
1.81207
 20
0.884686
 30
0.0
 40
0
 41
0
  0
VERTEX
  8
0
 10
1.82215
 20
0.878447
 30
0.0
 40
0
 41
0
  0
VERTEX
  8
0
 10
1.82351
 20
0.876385
 30
0.0
 40
0
 41
0
  0
VERTEX
  8
0
 10
1.82417
 20
0.873564
 30
0.0
 40
0
 41
0
  0
VERTEX
  8
0
 10
1.82861
 20
0.860651
 30
0.0
 40
0
 41
0
  0
VERTEX
  8
0
 10
1.83176
 20
0.847089
 30
0.0
 40
0
 41
0
  0
VERTEX
  8
0
 10
1.83176
 20
0.842531
 30
0.0
 40
0
 41
0
  0
VERTEX
  8
0
 10
1.83149
 20
0.838679
 30
0.0
 40
0
 41
0
  0
VERTEX
  8
0
 10
1.82449
 20
0.810576
 30
0.0
 40
0
 41
0
  0
VERTEX
  8
0
 10
1.82308
 20
0.80846
 30
0.0
 40
0
 41
0
  0
VERTEX
  8
0
 10
1.82096
 20
0.805476
 30
0.0
 40
0
 41
0
  0
VERTEX
  8
0
 10
1.81222
 20
0.797664
 30
0.0
 40
0
 41
0
  0
VERTEX
  8
0
 10
1.8036
 20
0.795874
 30
0.0
 40
0
 41
0
  0
VERTEX
  8
0
 10
1.80072
 20
0.795874
 30
0.0
 40
0
 41
0
  0
SEQEND
 8
0
  0
POLYLINE
  8
0
 62
     33
 66
     1
 10
0
 20
0
 30
0.0
 70
     1
 40
0
 41
0
  0
VERTEX
  8
0
 10
1.7825
 20
0.872479
 30
0.0
 40
0
 41
0
  0
VERTEX
  8
0
 10
1.78065
 20
0.870254
 30
0.0
 40
0
 41
0
  0
VERTEX
  8
0
 10
1.77647
 20
0.858915
 30
0.0
 40
0
 41
0
  0
VERTEX
  8
0
 10
1.77599
 20
0.846492
 30
0.0
 40
0
 41
0
  0
VERTEX
  8
0
 10
1.77599
 20
0.842314
 30
0.0
 40
0
 41
0
  0
VERTEX
  8
0
 10
1.77576
 20
0.838842
 30
0.0
 40
0
 41
0
  0
VERTEX
  8
0
 10
1.78142
 20
0.813994
 30
0.0
 40
0
 41
0
  0
VERTEX
  8
0
 10
1.7825
 20
0.812149
 30
0.0
 40
0
 41
0
  0
VERTEX
  8
0
 10
1.78282
 20
0.810304
 30
0.0
 40
0
 41
0
  0
VERTEX
  8
0
 10
1.78922
 20
0.803903
 30
0.0
 40
0
 41
0
  0
VERTEX
  8
0
 10
1.79785
 20
0.801299
 30
0.0
 40
0
 41
0
  0
VERTEX
  8
0
 10
1.80072
 20
0.801299
 30
0.0
 40
0
 41
0
  0
VERTEX
  8
0
 10
1.80149
 20
0.800974
 30
0.0
 40
0
 41
0
  0
VERTEX
  8
0
 10
1.80925
 20
0.803524
 30
0.0
 40
0
 41
0
  0
VERTEX
  8
0
 10
1.81765
 20
0.810358
 30
0.0
 40
0
 41
0
  0
VERTEX
  8
0
 10
1.81874
 20
0.812149
 30
0.0
 40
0
 41
0
  0
VERTEX
  8
0
 10
1.8195
 20
0.813885
 30
0.0
 40
0
 41
0
  0
VERTEX
  8
0
 10
1.82525
 20
0.835207
 30
0.0
 40
0
 41
0
  0
VERTEX
  8
0
 10
1.82525
 20
0.842314
 30
0.0
 40
0
 41
0
  0
VERTEX
  8
0
 10
1.82437
 20
0.845299
 30
0.0
 40
0
 41
0
  0
VERTEX
  8
0
 10
1.82232
 20
0.859242
 30
0.0
 40
0
 41
0
  0
VERTEX
  8
0
 10
1.81982
 20
0.870743
 30
0.0
 40
0
 41
0
  0
VERTEX
  8
0
 10
1.81874
 20
0.872479
 30
0.0
 40
0
 41
0
  0
VERTEX
  8
0
 10
1.81733
 20
0.873781
 30
0.0
 40
0
 41
0
  0
VERTEX
  8
0
 10
1.80485
 20
0.883112
 30
0.0
 40
0
 41
0
  0
VERTEX
  8
0
 10
1.80072
 20
0.883112
 30
0.0
 40
0
 41
0
  0
VERTEX
  8
0
 10
1.79769
 20
0.88295
 30
0.0
 40
0
 41
0
  0
VERTEX
  8
0
 10
1.78868
 20
0.880183
 30
0.0
 40
0
 41
0
  0
VERTEX
  8
0
 10
1.78358
 20
0.874269
 30
0.0
 40
0
 41
0
  0
VERTEX
  8
0
 10
1.7825
 20
0.872479
 30
0.0
 40
0
 41
0
  0
SEQEND
 8
0
  0
POLYLINE
  8
0
 62
     33
 66
     1
 10
0
 20
0
 30
0.0
 70
     1
 40
0
 41
0
  0
VERTEX
  8
0
 10
1.87283
 20
0.887236
 30
0.0
 40
0
 41
0
  0
VERTEX
  8
0
 10
1.87283
 20
0.797392
 30
0.0
 40
0
 41
0
  0
VERTEX
  8
0
 10
1.86675
 20
0.797392
 30
0.0
 40
0
 41
0
  0
VERTEX
  8
0
 10
1.86675
 20
0.87964
 30
0.0
 40
0
 41
0
  0
VERTEX
  8
0
 10
1.85243
 20
0.872044
 30
0.0
 40
0
 41
0
  0
VERTEX
  8
0
 10
1.85047
 20
0.875951
 30
0.0
 40
0
 41
0
  0
VERTEX
  8
0
 10
1.86893
 20
0.887236
 30
0.0
 40
0
 41
0
  0
VERTEX
  8
0
 10
1.87283
 20
0.887236
 30
0.0
 40
0
 41
0
  0
SEQEND
 8
0
  0
POLYLINE
  8
0
 62
     33
 66
     1
 10
0
 20
0
 30
0.0
 70
     1
 40
0
 41
0
  0
VERTEX
  8
0
 10
1.91331
 20
0.830813
 30
0.0
 40
0
 41
0
  0
VERTEX
  8
0
 10
1.91308
 20
0.827774
 30
0.0
 40
0
 41
0
  0
VERTEX
  8
0
 10
1.9145
 20
0.816761
 30
0.0
 40
0
 41
0
  0
VERTEX
  8
0
 10
1.91851
 20
0.809436
 30
0.0
 40
0
 41
0
  0
VERTEX
  8
0
 10
1.9196
 20
0.808243
 30
0.0
 40
0
 41
0
  0
VERTEX
  8
0
 10
1.91982
 20
0.806453
 30
0.0
 40
0
 41
0
  0
VERTEX
  8
0
 10
1.92557
 20
0.801678
 30
0.0
 40
0
 41
0
  0
VERTEX
  8
0
 10
1.93294
 20
0.801299
 30
0.0
 40
0
 41
0
  0
VERTEX
  8
0
 10
1.93544
 20
0.801299
 30
0.0
 40
0
 41
0
  0
VERTEX
  8
0
 10
1.93614
 20
0.800974
 30
0.0
 40
0
 41
0
  0
VERTEX
  8
0
 10
1.94287
 20
0.802492
 30
0.0
 40
0
 41
0
  0
VERTEX
  8
0
 10
1.95025
 20
0.80694
 30
0.0
 40
0
 41
0
  0
VERTEX
  8
0
 10
1.95128
 20
0.808026
 30
0.0
 40
0
 41
0
  0
VERTEX
  8
0
 10
1.95122
 20
0.808297
 30
0.0
 40
0
 41
0
  0
VERTEX
  8
0
 10
1.95437
 20
0.814265
 30
0.0
 40
0
 41
0
  0
VERTEX
  8
0
 10
1.95757
 20
0.821807
 30
0.0
 40
0
 41
0
  0
VERTEX
  8
0
 10
1.95757
 20
0.824301
 30
0.0
 40
0
 41
0
  0
VERTEX
  8
0
 10
1.95714
 20
0.824844
 30
0.0
 40
0
 41
0
  0
VERTEX
  8
0
 10
1.95562
 20
0.831301
 30
0.0
 40
0
 41
0
  0
VERTEX
  8
0
 10
1.95324
 20
0.838733
 30
0.0
 40
0
 41
0
  0
VERTEX
  8
0
 10
1.95236
 20
0.83971
 30
0.0
 40
0
 41
0
  0
VERTEX
  8
0
 10
1.9515
 20
0.840686
 30
0.0
 40
0
 41
0
  0
VERTEX
  8
0
 10
1.94189
 20
0.845786
 30
0.0
 40
0
 41
0
  0
VERTEX
  8
0
 10
1.93869
 20
0.845786
 30
0.0
 40
0
 41
0
  0
VERTEX
  8
0
 10
1.93722
 20
0.845244
 30
0.0
 40
0
 41
0
  0
VERTEX
  8
0
 10
1.92219
 20
0.841989
 30
0.0
 40
0
 41
0
  0
VERTEX
  8
0
 10
1.92068
 20
0.841229
 30
0.0
 40
0
 41
0
  0
VERTEX
  8
0
 10
1.91894
 20
0.845135
 30
0.0
 40
0
 41
0
  0
VERTEX
  8
0
 10
1.92003
 20
0.845569
 30
0.0
 40
0
 41
0
  0
VERTEX
  8
0
 10
1.92871
 20
0.848607
 30
0.0
 40
0
 41
0
  0
VERTEX
  8
0
 10
1.93767
 20
0.850778
 30
0.0
 40
0
 41
0
  0
VERTEX
  8
0
 10
1.94065
 20
0.850778
 30
0.0
 40
0
 41
0
  0
VERTEX
  8
0
 10
1.94228
 20
0.849801
 30
0.0
 40
0
 41
0
  0
VERTEX
  8
0
 10
1.95654
 20
0.844647
 30
0.0
 40
0
 41
0
  0
VERTEX
  8
0
 10
1.95757
 20
0.843399
 30
0.0
 40
0
 41
0
  0
VERTEX
  8
0
 10
1.95817
 20
0.841826
 30
0.0
 40
0
 41
0
  0
VERTEX
  8
0
 10
1.96386
 20
0.82886
 30
0.0
 40
0
 41
0
  0
VERTEX
  8
0
 10
1.96386
 20
0.824519
 30
0.0
 40
0
 41
0
  0
VERTEX
  8
0
 10
1.96289
 20
0.821535
 30
0.0
 40
0
 41
0
  0
VERTEX
  8
0
 10
1.96035
 20
0.812094
 30
0.0
 40
0
 41
0
  0
VERTEX
  8
0
 10
1.95697
 20
0.805801
 30
0.0
 40
0
 41
0
  0
VERTEX
  8
0
 10
1.95562
 20
0.804336
 30
0.0
 40
0
 41
0
  0
VERTEX
  8
0
 10
1.954
 20
0.802383
 30
0.0
 40
0
 41
0
  0
VERTEX
  8
0
 10
1.94624
 20
0.797175
 30
0.0
 40
0
 41
0
  0
VERTEX
  8
0
 10
1.93842
 20
0.795874
 30
0.0
 40
0
 41
0
  0
VERTEX
  8
0
 10
1.93587
 20
0.795874
 30
0.0
 40
0
 41
0
  0
VERTEX
  8
0
 10
1.93317
 20
0.794951
 30
0.0
 40
0
 41
0
  0
VERTEX
  8
0
 10
1.92361
 20
0.796144
 30
0.0
 40
0
 41
0
  0
VERTEX
  8
0
 10
1.91743
 20
0.801842
 30
0.0
 40
0
 41
0
  0
VERTEX
  8
0
 10
1.91612
 20
0.803035
 30
0.0
 40
0
 41
0
  0
VERTEX
  8
0
 10
1.91411
 20
0.803957
 30
0.0
 40
0
 41
0
  0
VERTEX
  8
0
 10
1.90842
 20
0.813397
 30
0.0
 40
0
 41
0
  0
VERTEX
  8
0
 10
1.90679
 20
0.826472
 30
0.0
 40
0
 41
0
  0
VERTEX
  8
0
 10
1.90679
 20
0.830813
 30
0.0
 40
0
 41
0
  0
VERTEX
  8
0
 10
1.90593
 20
0.831897
 30
0.0
 40
0
 41
0
  0
VERTEX
  8
0
 10
1.90614
 20
0.839222
 30
0.0
 40
0
 41
0
  0
VERTEX
  8
0
 10
1.90896
 20
0.847197
 30
0.0
 40
0
 41
0
  0
VERTEX
  8
0
 10
1.9094
 20
0.848607
 30
0.0
 40
0
 41
0
  0
VERTEX
  8
0
 10
1.90881
 20
0.849258
 30
0.0
 40
0
 41
0
  0
VERTEX
  8
0
 10
1.91075
 20
0.855226
 30
0.0
 40
0
 41
0
  0
VERTEX
  8
0
 10
1.9151
 20
0.861954
 30
0.0
 40
0
 41
0
  0
VERTEX
  8
0
 10
1.91569
 20
0.862931
 30
0.0
 40
0
 41
0
  0
VERTEX
  8
0
 10
1.91585
 20
0.863093
 30
0.0
 40
0
 41
0
  0
VERTEX
  8
0
 10
1.91922
 20
0.867487
 30
0.0
 40
0
 41
0
  0
VERTEX
  8
0
 10
1.92404
 20
0.87351
 30
0.0
 40
0
 41
0
  0
VERTEX
  8
0
 10
1.92503
 20
0.874432
 30
0.0
 40
0
 41
0
  0
VERTEX
  8
0
 10
1.92594
 20
0.874813
 30
0.0
 40
0
 41
0
  0
VERTEX
  8
0
 10
1.93431
 20
0.882842
 30
0.0
 40
0
 41
0
  0
VERTEX
  8
0
 10
1.935
 20
0.883329
 30
0.0
 40
0
 41
0
  0
VERTEX
  8
0
 10
1.93485
 20
0.883547
 30
0.0
 40
0
 41
0
  0
VERTEX
  8
0
 10
1.93821
 20
0.886422
 30
0.0
 40
0
 41
0
  0
VERTEX
  8
0
 10
1.94401
 20
0.88984
 30
0.0
 40
0
 41
0
  0
VERTEX
  8
0
 10
1.94499
 20
0.890492
 30
0.0
 40
0
 41
0
  0
VERTEX
  8
0
 10
1.9476
 20
0.886368
 30
0.0
 40
0
 41
0
  0
VERTEX
  8
0
 10
1.94575
 20
0.885175
 30
0.0
 40
0
 41
0
  0
VERTEX
  8
0
 10
1.94026
 20
0.881322
 30
0.0
 40
0
 41
0
  0
VERTEX
  8
0
 10
1.93674
 20
0.878447
 30
0.0
 40
0
 41
0
  0
VERTEX
  8
0
 10
1.93587
 20
0.877688
 30
0.0
 40
0
 41
0
  0
VERTEX
  8
0
 10
1.93419
 20
0.876168
 30
0.0
 40
0
 41
0
  0
VERTEX
  8
0
 10
1.92925
 20
0.87134
 30
0.0
 40
0
 41
0
  0
VERTEX
  8
0
 10
1.92617
 20
0.867596
 30
0.0
 40
0
 41
0
  0
VERTEX
  8
0
 10
1.92524
 20
0.866403
 30
0.0
 40
0
 41
0
  0
VERTEX
  8
0
 10
1.92318
 20
0.862931
 30
0.0
 40
0
 41
0
  0
VERTEX
  8
0
 10
1.91618
 20
0.848662
 30
0.0
 40
0
 41
0
  0
VERTEX
  8
0
 10
1.91331
 20
0.835315
 30
0.0
 40
0
 41
0
  0
VERTEX
  8
0
 10
1.91331
 20
0.830813
 30
0.0
 40
0
 41
0
  0
SEQEND
 8
0
  0
POLYLINE
  8
0
 62
     20
 66
     1
 10
0
 20
0
 30
0.0
 70
     1
 40
0
 41
0
  0
VERTEX
  8
0
 10
2.11778
 20
0.626276
 30
0.0
 40
0
 41
0
  0
VERTEX
  8
0
 10
2.11822
 20
0.627036
 30
0.0
 40
0
 41
0
  0
VERTEX
  8
0
 10
2.11643
 20
0.631431
 30
0.0
 40
0
 41
0
  0
VERTEX
  8
0
 10
2.11046
 20
0.638538
 30
0.0
 40
0
 41
0
  0
VERTEX
  8
0
 10
2.10097
 20
0.642282
 30
0.0
 40
0
 41
0
  0
VERTEX
  8
0
 10
2.09125
 20
0.639243
 30
0.0
 40
0
 41
0
  0
VERTEX
  8
0
 10
2.08897
 20
0.637182
 30
0.0
 40
0
 41
0
  0
VERTEX
  8
0
 10
2.08886
 20
0.637128
 30
0.0
 40
0
 41
0
  0
VERTEX
  8
0
 10
2.08653
 20
0.633221
 30
0.0
 40
0
 41
0
  0
VERTEX
  8
0
 10
2.08425
 20
0.626114
 30
0.0
 40
0
 41
0
  0
VERTEX
  8
0
 10
2.08425
 20
0.624432
 30
0.0
 40
0
 41
0
  0
VERTEX
  8
0
 10
2.08415
 20
0.619604
 30
0.0
 40
0
 41
0
  0
VERTEX
  8
0
 10
2.09174
 20
0.604847
 30
0.0
 40
0
 41
0
  0
VERTEX
  8
0
 10
2.10986
 20
0.596383
 30
0.0
 40
0
 41
0
  0
VERTEX
  8
0
 10
2.13049
 20
0.599693
 30
0.0
 40
0
 41
0
  0
VERTEX
  8
0
 10
2.1435
 20
0.610706
 30
0.0
 40
0
 41
0
  0
VERTEX
  8
0
 10
2.14551
 20
0.615372
 30
0.0
 40
0
 41
0
  0
VERTEX
  8
0
 10
2.14714
 20
0.619169
 30
0.0
 40
0
 41
0
  0
VERTEX
  8
0
 10
2.14708
 20
0.632733
 30
0.0
 40
0
 41
0
  0
VERTEX
  8
0
 10
2.13921
 20
0.648032
 30
0.0
 40
0
 41
0
  0
VERTEX
  8
0
 10
2.12588
 20
0.660349
 30
0.0
 40
0
 41
0
  0
VERTEX
  8
0
 10
2.11501
 20
0.667075
 30
0.0
 40
0
 41
0
  0
VERTEX
  8
0
 10
2.11122
 20
0.668703
 30
0.0
 40
0
 41
0
  0
VERTEX
  8
0
 10
2.10764
 20
0.670276
 30
0.0
 40
0
 41
0
  0
VERTEX
  8
0
 10
2.08811
 20
0.672121
 30
0.0
 40
0
 41
0
  0
VERTEX
  8
0
 10
2.06842
 20
0.668921
 30
0.0
 40
0
 41
0
  0
VERTEX
  8
0
 10
2.06478
 20
0.667889
 30
0.0
 40
0
 41
0
  0
VERTEX
  8
0
 10
2.05931
 20
0.666425
 30
0.0
 40
0
 41
0
  0
VERTEX
  8
0
 10
2.044
 20
0.657961
 30
0.0
 40
0
 41
0
  0
VERTEX
  8
0
 10
2.02408
 20
0.641033
 30
0.0
 40
0
 41
0
  0
VERTEX
  8
0
 10
2.00385
 20
0.619007
 30
0.0
 40
0
 41
0
  0
VERTEX
  8
0
 10
1.98221
 20
0.593887
 30
0.0
 40
0
 41
0
  0
VERTEX
  8
0
 10
1.95806
 20
0.567521
 30
0.0
 40
0
 41
0
  0
VERTEX
  8
0
 10
1.93033
 20
0.541913
 30
0.0
 40
0
 41
0
  0
VERTEX
  8
0
 10
1.89785
 20
0.51891
 30
0.0
 40
0
 41
0
  0
VERTEX
  8
0
 10
1.86942
 20
0.504153
 30
0.0
 40
0
 41
0
  0
VERTEX
  8
0
 10
1.85954
 20
0.500462
 30
0.0
 40
0
 41
0
  0
VERTEX
  8
0
 10
1.84907
 20
0.496611
 30
0.0
 40
0
 41
0
  0
VERTEX
  8
0
 10
1.79699
 20
0.48435
 30
0.0
 40
0
 41
0
  0
VERTEX
  8
0
 10
1.74501
 20
0.489124
 30
0.0
 40
0
 41
0
  0
VERTEX
  8
0
 10
1.73465
 20
0.493736
 30
0.0
 40
0
 41
0
  0
VERTEX
  8
0
 10
1.73063
 20
0.495526
 30
0.0
 40
0
 41
0
  0
VERTEX
  8
0
 10
1.71929
 20
0.502199
 30
0.0
 40
0
 41
0
  0
VERTEX
  8
0
 10
1.70481
 20
0.514351
 30
0.0
 40
0
 41
0
  0
VERTEX
  8
0
 10
1.69487
 20
0.529922
 30
0.0
 40
0
 41
0
  0
VERTEX
  8
0
 10
1.69243
 20
0.544137
 30
0.0
 40
0
 41
0
  0
VERTEX
  8
0
 10
1.69325
 20
0.548532
 30
0.0
 40
0
 41
0
  0
VERTEX
  8
0
 10
1.69396
 20
0.552383
 30
0.0
 40
0
 41
0
  0
VERTEX
  8
0
 10
1.70454
 20
0.569636
 30
0.0
 40
0
 41
0
  0
VERTEX
  8
0
 10
1.72097
 20
0.578208
 30
0.0
 40
0
 41
0
  0
VERTEX
  8
0
 10
1.72467
 20
0.577611
 30
0.0
 40
0
 41
0
  0
VERTEX
  8
0
 10
1.72672
 20
0.577286
 30
0.0
 40
0
 41
0
  0
VERTEX
  8
0
 10
1.73492
 20
0.570558
 30
0.0
 40
0
 41
0
  0
VERTEX
  8
0
 10
1.74046
 20
0.560522
 30
0.0
 40
0
 41
0
  0
VERTEX
  8
0
 10
1.74115
 20
0.558568
 30
0.0
 40
0
 41
0
  0
VERTEX
  8
0
 10
1.74137
 20
0.557918
 30
0.0
 40
0
 41
0
  0
VERTEX
  8
0
 10
1.74192
 20
0.550756
 30
0.0
 40
0
 41
0
  0
VERTEX
  8
0
 10
1.74035
 20
0.543649
 30
0.0
 40
0
 41
0
  0
VERTEX
  8
0
 10
1.73947
 20
0.542997
 30
0.0
 40
0
 41
0
  0
VERTEX
  8
0
 10
1.73807
 20
0.542075
 30
0.0
 40
0
 41
0
  0
VERTEX
  8
0
 10
1.73085
 20
0.54354
 30
0.0
 40
0
 41
0
  0
VERTEX
  8
0
 10
1.72894
 20
0.553143
 30
0.0
 40
0
 41
0
  0
VERTEX
  8
0
 10
1.72954
 20
0.555747
 30
0.0
 40
0
 41
0
  0
VERTEX
  8
0
 10
1.72971
 20
0.556669
 30
0.0
 40
0
 41
0
  0
VERTEX
  8
0
 10
1.72558
 20
0.560522
 30
0.0
 40
0
 41
0
  0
VERTEX
  8
0
 10
1.71907
 20
0.557538
 30
0.0
 40
0
 41
0
  0
VERTEX
  8
0
 10
1.71838
 20
0.556128
 30
0.0
 40
0
 41
0
  0
VERTEX
  8
0
 10
1.71707
 20
0.553632
 30
0.0
 40
0
 41
0
  0
VERTEX
  8
0
 10
1.71832
 20
0.54354
 30
0.0
 40
0
 41
0
  0
VERTEX
  8
0
 10
1.72771
 20
0.533829
 30
0.0
 40
0
 41
0
  0
VERTEX
  8
0
 10
1.74132
 20
0.530736
 30
0.0
 40
0
 41
0
  0
VERTEX
  8
0
 10
1.75196
 20
0.535349
 30
0.0
 40
0
 41
0
  0
VERTEX
  8
0
 10
1.75401
 20
0.538007
 30
0.0
 40
0
 41
0
  0
VERTEX
  8
0
 10
1.75401
 20
0.538115
 30
0.0
 40
0
 41
0
  0
VERTEX
  8
0
 10
1.75635
 20
0.542456
 30
0.0
 40
0
 41
0
  0
VERTEX
  8
0
 10
1.75814
 20
0.550485
 30
0.0
 40
0
 41
0
  0
VERTEX
  8
0
 10
1.75792
 20
0.552383
 30
0.0
 40
0
 41
0
  0
VERTEX
  8
0
 10
1.75737
 20
0.556886
 30
0.0
 40
0
 41
0
  0
VERTEX
  8
0
 10
1.75146
 20
0.569853
 30
0.0
 40
0
 41
0
  0
VERTEX
  8
0
 10
1.73904
 20
0.579293
 30
0.0
 40
0
 41
0
  0
VERTEX
  8
0
 10
1.72319
 20
0.581735
 30
0.0
 40
0
 41
0
  0
VERTEX
  8
0
 10
1.7066
 20
0.577992
 30
0.0
 40
0
 41
0
  0
VERTEX
  8
0
 10
1.69174
 20
0.569093
 30
0.0
 40
0
 41
0
  0
VERTEX
  8
0
 10
1.68126
 20
0.55591
 30
0.0
 40
0
 41
0
  0
VERTEX
  8
0
 10
1.67785
 20
0.539417
 30
0.0
 40
0
 41
0
  0
VERTEX
  8
0
 10
1.68147
 20
0.524606
 30
0.0
 40
0
 41
0
  0
VERTEX
  8
0
 10
1.68397
 20
0.520428
 30
0.0
 40
0
 41
0
  0
VERTEX
  8
0
 10
1.68679
 20
0.515654
 30
0.0
 40
0
 41
0
  0
VERTEX
  8
0
 10
1.70529
 20
0.498401
 30
0.0
 40
0
 41
0
  0
VERTEX
  8
0
 10
1.72814
 20
0.487171
 30
0.0
 40
0
 41
0
  0
VERTEX
  8
0
 10
1.73313
 20
0.485381
 30
0.0
 40
0
 41
0
  0
VERTEX
  8
0
 10
1.73882
 20
0.483374
 30
0.0
 40
0
 41
0
  0
VERTEX
  8
0
 10
1.77089
 20
0.476267
 30
0.0
 40
0
 41
0
  0
VERTEX
  8
0
 10
1.8036
 20
0.474096
 30
0.0
 40
0
 41
0
  0
VERTEX
  8
0
 10
1.80963
 20
0.474476
 30
0.0
 40
0
 41
0
  0
VERTEX
  8
0
 10
1.81907
 20
0.475181
 30
0.0
 40
0
 41
0
  0
VERTEX
  8
0
 10
1.84754
 20
0.477568
 30
0.0
 40
0
 41
0
  0
VERTEX
  8
0
 10
1.88618
 20
0.485381
 30
0.0
 40
0
 41
0
  0
VERTEX
  8
0
 10
1.92763
 20
0.504099
 30
0.0
 40
0
 41
0
  0
VERTEX
  8
0
 10
1.96326
 20
0.529976
 30
0.0
 40
0
 41
0
  0
VERTEX
  8
0
 10
1.97385
 20
0.53996
 30
0.0
 40
0
 41
0
  0
VERTEX
  8
0
 10
1.98232
 20
0.547935
 30
0.0
 40
0
 41
0
  0
VERTEX
  8
0
 10
2.0045
 20
0.575279
 30
0.0
 40
0
 41
0
  0
VERTEX
  8
0
 10
2.02317
 20
0.606421
 30
0.0
 40
0
 41
0
  0
VERTEX
  8
0
 10
2.03907
 20
0.634253
 30
0.0
 40
0
 41
0
  0
VERTEX
  8
0
 10
2.05512
 20
0.654054
 30
0.0
 40
0
 41
0
  0
VERTEX
  8
0
 10
2.06153
 20
0.659372
 30
0.0
 40
0
 41
0
  0
VERTEX
  8
0
 10
2.06451
 20
0.661867
 30
0.0
 40
0
 41
0
  0
VERTEX
  8
0
 10
2.08182
 20
0.669137
 30
0.0
 40
0
 41
0
  0
VERTEX
  8
0
 10
2.10047
 20
0.668215
 30
0.0
 40
0
 41
0
  0
VERTEX
  8
0
 10
2.10422
 20
0.666588
 30
0.0
 40
0
 41
0
  0
VERTEX
  8
0
 10
2.10818
 20
0.664851
 30
0.0
 40
0
 41
0
  0
VERTEX
  8
0
 10
2.12489
 20
0.65069
 30
0.0
 40
0
 41
0
  0
VERTEX
  8
0
 10
2.13396
 20
0.630617
 30
0.0
 40
0
 41
0
  0
VERTEX
  8
0
 10
2.13417
 20
0.625951
 30
0.0
 40
0
 41
0
  0
VERTEX
  8
0
 10
2.13422
 20
0.623131
 30
0.0
 40
0
 41
0
  0
VERTEX
  8
0
 10
2.13053
 20
0.614342
 30
0.0
 40
0
 41
0
  0
VERTEX
  8
0
 10
2.12125
 20
0.604629
 30
0.0
 40
0
 41
0
  0
VERTEX
  8
0
 10
2.10975
 20
0.602079
 30
0.0
 40
0
 41
0
  0
VERTEX
  8
0
 10
2.10097
 20
0.608915
 30
0.0
 40
0
 41
0
  0
VERTEX
  8
0
 10
2.09956
 20
0.6119
 30
0.0
 40
0
 41
0
  0
VERTEX
  8
0
 10
2.09912
 20
0.612768
 30
0.0
 40
0
 41
0
  0
VERTEX
  8
0
 10
2.09722
 20
0.624432
 30
0.0
 40
0
 41
0
  0
VERTEX
  8
0
 10
2.10113
 20
0.634415
 30
0.0
 40
0
 41
0
  0
VERTEX
  8
0
 10
2.10238
 20
0.634361
 30
0.0
 40
0
 41
0
  0
VERTEX
  8
0
 10
2.10417
 20
0.634197
 30
0.0
 40
0
 41
0
  0
VERTEX
  8
0
 10
2.11176
 20
0.629369
 30
0.0
 40
0
 41
0
  0
VERTEX
  8
0
 10
2.11714
 20
0.625843
 30
0.0
 40
0
 41
0
  0
VERTEX
  8
0
 10
2.11778
 20
0.626276
 30
0.0
 40
0
 41
0
  0
SEQEND
 8
0
  0
POLYLINE
  8
0
 62
     20
 66
     1
 10
0
 20
0
 30
0.0
 70
     1
 40
0
 41
0
  0
VERTEX
  8
0
 10
1.20171
 20
0.615372
 30
0.0
 40
0
 41
0
  0
VERTEX
  8
0
 10
1.20009
 20
0.619224
 30
0.0
 40
0
 41
0
  0
VERTEX
  8
0
 10
1.20009
 20
0.632733
 30
0.0
 40
0
 41
0
  0
VERTEX
  8
0
 10
1.20795
 20
0.648032
 30
0.0
 40
0
 41
0
  0
VERTEX
  8
0
 10
1.2213
 20
0.660349
 30
0.0
 40
0
 41
0
  0
VERTEX
  8
0
 10
1.23215
 20
0.667075
 30
0.0
 40
0
 41
0
  0
VERTEX
  8
0
 10
1.236
 20
0.668703
 30
0.0
 40
0
 41
0
  0
VERTEX
  8
0
 10
1.23958
 20
0.670276
 30
0.0
 40
0
 41
0
  0
VERTEX
  8
0
 10
1.25906
 20
0.672121
 30
0.0
 40
0
 41
0
  0
VERTEX
  8
0
 10
1.27875
 20
0.668921
 30
0.0
 40
0
 41
0
  0
VERTEX
  8
0
 10
1.28244
 20
0.667889
 30
0.0
 40
0
 41
0
  0
VERTEX
  8
0
 10
1.28787
 20
0.666425
 30
0.0
 40
0
 41
0
  0
VERTEX
  8
0
 10
1.30317
 20
0.657961
 30
0.0
 40
0
 41
0
  0
VERTEX
  8
0
 10
1.32308
 20
0.641033
 30
0.0
 40
0
 41
0
  0
VERTEX
  8
0
 10
1.34332
 20
0.619007
 30
0.0
 40
0
 41
0
  0
VERTEX
  8
0
 10
1.36496
 20
0.593887
 30
0.0
 40
0
 41
0
  0
VERTEX
  8
0
 10
1.38911
 20
0.567521
 30
0.0
 40
0
 41
0
  0
VERTEX
  8
0
 10
1.41683
 20
0.541913
 30
0.0
 40
0
 41
0
  0
VERTEX
  8
0
 10
1.44933
 20
0.51891
 30
0.0
 40
0
 41
0
  0
VERTEX
  8
0
 10
1.47775
 20
0.504153
 30
0.0
 40
0
 41
0
  0
VERTEX
  8
0
 10
1.48768
 20
0.500462
 30
0.0
 40
0
 41
0
  0
VERTEX
  8
0
 10
1.4981
 20
0.496611
 30
0.0
 40
0
 41
0
  0
VERTEX
  8
0
 10
1.55018
 20
0.48435
 30
0.0
 40
0
 41
0
  0
VERTEX
  8
0
 10
1.60221
 20
0.489124
 30
0.0
 40
0
 41
0
  0
VERTEX
  8
0
 10
1.61257
 20
0.493736
 30
0.0
 40
0
 41
0
  0
VERTEX
  8
0
 10
1.61654
 20
0.495526
 30
0.0
 40
0
 41
0
  0
VERTEX
  8
0
 10
1.62788
 20
0.502199
 30
0.0
 40
0
 41
0
  0
VERTEX
  8
0
 10
1.64236
 20
0.514351
 30
0.0
 40
0
 41
0
  0
VERTEX
  8
0
 10
1.65229
 20
0.529922
 30
0.0
 40
0
 41
0
  0
VERTEX
  8
0
 10
1.65479
 20
0.544137
 30
0.0
 40
0
 41
0
  0
VERTEX
  8
0
 10
1.65397
 20
0.548532
 30
0.0
 40
0
 41
0
  0
VERTEX
  8
0
 10
1.65321
 20
0.552383
 30
0.0
 40
0
 41
0
  0
VERTEX
  8
0
 10
1.64264
 20
0.569636
 30
0.0
 40
0
 41
0
  0
VERTEX
  8
0
 10
1.62619
 20
0.578208
 30
0.0
 40
0
 41
0
  0
VERTEX
  8
0
 10
1.62256
 20
0.577611
 30
0.0
 40
0
 41
0
  0
VERTEX
  8
0
 10
1.62044
 20
0.577286
 30
0.0
 40
0
 41
0
  0
VERTEX
  8
0
 10
1.61225
 20
0.570558
 30
0.0
 40
0
 41
0
  0
VERTEX
  8
0
 10
1.60678
 20
0.560522
 30
0.0
 40
0
 41
0
  0
VERTEX
  8
0
 10
1.60607
 20
0.558568
 30
0.0
 40
0
 41
0
  0
VERTEX
  8
0
 10
1.60579
 20
0.557918
 30
0.0
 40
0
 41
0
  0
VERTEX
  8
0
 10
1.60525
 20
0.550756
 30
0.0
 40
0
 41
0
  0
VERTEX
  8
0
 10
1.60688
 20
0.543649
 30
0.0
 40
0
 41
0
  0
VERTEX
  8
0
 10
1.60775
 20
0.542997
 30
0.0
 40
0
 41
0
  0
VERTEX
  8
0
 10
1.6091
 20
0.542075
 30
0.0
 40
0
 41
0
  0
VERTEX
  8
0
 10
1.61632
 20
0.54354
 30
0.0
 40
0
 41
0
  0
VERTEX
  8
0
 10
1.61828
 20
0.553143
 30
0.0
 40
0
 41
0
  0
VERTEX
  8
0
 10
1.61768
 20
0.555747
 30
0.0
 40
0
 41
0
  0
VERTEX
  8
0
 10
1.61746
 20
0.556669
 30
0.0
 40
0
 41
0
  0
VERTEX
  8
0
 10
1.62158
 20
0.560522
 30
0.0
 40
0
 41
0
  0
VERTEX
  8
0
 10
1.6281
 20
0.557538
 30
0.0
 40
0
 41
0
  0
VERTEX
  8
0
 10
1.62879
 20
0.556128
 30
0.0
 40
0
 41
0
  0
VERTEX
  8
0
 10
1.63004
 20
0.553632
 30
0.0
 40
0
 41
0
  0
VERTEX
  8
0
 10
1.62879
 20
0.54354
 30
0.0
 40
0
 41
0
  0
VERTEX
  8
0
 10
1.61947
 20
0.533829
 30
0.0
 40
0
 41
0
  0
VERTEX
  8
0
 10
1.60585
 20
0.530736
 30
0.0
 40
0
 41
0
  0
VERTEX
  8
0
 10
1.59521
 20
0.535349
 30
0.0
 40
0
 41
0
  0
VERTEX
  8
0
 10
1.59321
 20
0.538007
 30
0.0
 40
0
 41
0
  0
VERTEX
  8
0
 10
1.59315
 20
0.538115
 30
0.0
 40
0
 41
0
  0
VERTEX
  8
0
 10
1.59082
 20
0.542456
 30
0.0
 40
0
 41
0
  0
VERTEX
  8
0
 10
1.58908
 20
0.550485
 30
0.0
 40
0
 41
0
  0
VERTEX
  8
0
 10
1.58931
 20
0.552383
 30
0.0
 40
0
 41
0
  0
VERTEX
  8
0
 10
1.58979
 20
0.556886
 30
0.0
 40
0
 41
0
  0
VERTEX
  8
0
 10
1.59571
 20
0.569853
 30
0.0
 40
0
 41
0
  0
VERTEX
  8
0
 10
1.60813
 20
0.579293
 30
0.0
 40
0
 41
0
  0
VERTEX
  8
0
 10
1.62397
 20
0.581735
 30
0.0
 40
0
 41
0
  0
VERTEX
  8
0
 10
1.64057
 20
0.577992
 30
0.0
 40
0
 41
0
  0
VERTEX
  8
0
 10
1.65543
 20
0.569093
 30
0.0
 40
0
 41
0
  0
VERTEX
  8
0
 10
1.6659
 20
0.55591
 30
0.0
 40
0
 41
0
  0
VERTEX
  8
0
 10
1.66932
 20
0.539417
 30
0.0
 40
0
 41
0
  0
VERTEX
  8
0
 10
1.66569
 20
0.524606
 30
0.0
 40
0
 41
0
  0
VERTEX
  8
0
 10
1.66325
 20
0.520428
 30
0.0
 40
0
 41
0
  0
VERTEX
  8
0
 10
1.66037
 20
0.515654
 30
0.0
 40
0
 41
0
  0
VERTEX
  8
0
 10
1.64187
 20
0.498401
 30
0.0
 40
0
 41
0
  0
VERTEX
  8
0
 10
1.61908
 20
0.487171
 30
0.0
 40
0
 41
0
  0
VERTEX
  8
0
 10
1.6141
 20
0.485381
 30
0.0
 40
0
 41
0
  0
VERTEX
  8
0
 10
1.60835
 20
0.483374
 30
0.0
 40
0
 41
0
  0
VERTEX
  8
0
 10
1.57622
 20
0.476267
 30
0.0
 40
0
 41
0
  0
VERTEX
  8
0
 10
1.54357
 20
0.474096
 30
0.0
 40
0
 41
0
  0
VERTEX
  8
0
 10
1.5376
 20
0.474476
 30
0.0
 40
0
 41
0
  0
VERTEX
  8
0
 10
1.5281
 20
0.475181
 30
0.0
 40
0
 41
0
  0
VERTEX
  8
0
 10
1.49963
 20
0.477568
 30
0.0
 40
0
 41
0
  0
VERTEX
  8
0
 10
1.46094
 20
0.485381
 30
0.0
 40
0
 41
0
  0
VERTEX
  8
0
 10
1.41954
 20
0.504099
 30
0.0
 40
0
 41
0
  0
VERTEX
  8
0
 10
1.38395
 20
0.529976
 30
0.0
 40
0
 41
0
  0
VERTEX
  8
0
 10
1.37337
 20
0.53996
 30
0.0
 40
0
 41
0
  0
VERTEX
  8
0
 10
1.36491
 20
0.547935
 30
0.0
 40
0
 41
0
  0
VERTEX
  8
0
 10
1.34267
 20
0.575279
 30
0.0
 40
0
 41
0
  0
VERTEX
  8
0
 10
1.324
 20
0.606421
 30
0.0
 40
0
 41
0
  0
VERTEX
  8
0
 10
1.30811
 20
0.634253
 30
0.0
 40
0
 41
0
  0
VERTEX
  8
0
 10
1.29205
 20
0.654054
 30
0.0
 40
0
 41
0
  0
VERTEX
  8
0
 10
1.2857
 20
0.659372
 30
0.0
 40
0
 41
0
  0
VERTEX
  8
0
 10
1.28266
 20
0.661867
 30
0.0
 40
0
 41
0
  0
VERTEX
  8
0
 10
1.26535
 20
0.669137
 30
0.0
 40
0
 41
0
  0
VERTEX
  8
0
 10
1.24669
 20
0.668215
 30
0.0
 40
0
 41
0
  0
VERTEX
  8
0
 10
1.243
 20
0.666588
 30
0.0
 40
0
 41
0
  0
VERTEX
  8
0
 10
1.23899
 20
0.664851
 30
0.0
 40
0
 41
0
  0
VERTEX
  8
0
 10
1.22228
 20
0.65069
 30
0.0
 40
0
 41
0
  0
VERTEX
  8
0
 10
1.21322
 20
0.630617
 30
0.0
 40
0
 41
0
  0
VERTEX
  8
0
 10
1.21305
 20
0.625951
 30
0.0
 40
0
 41
0
  0
VERTEX
  8
0
 10
1.21294
 20
0.623131
 30
0.0
 40
0
 41
0
  0
VERTEX
  8
0
 10
1.21663
 20
0.614342
 30
0.0
 40
0
 41
0
  0
VERTEX
  8
0
 10
1.22591
 20
0.604629
 30
0.0
 40
0
 41
0
  0
VERTEX
  8
0
 10
1.23741
 20
0.602079
 30
0.0
 40
0
 41
0
  0
VERTEX
  8
0
 10
1.24626
 20
0.608915
 30
0.0
 40
0
 41
0
  0
VERTEX
  8
0
 10
1.24767
 20
0.6119
 30
0.0
 40
0
 41
0
  0
VERTEX
  8
0
 10
1.24805
 20
0.612768
 30
0.0
 40
0
 41
0
  0
VERTEX
  8
0
 10
1.24989
 20
0.624432
 30
0.0
 40
0
 41
0
  0
VERTEX
  8
0
 10
1.24604
 20
0.634361
 30
0.0
 40
0
 41
0
  0
VERTEX
  8
0
 10
1.24485
 20
0.634307
 30
0.0
 40
0
 41
0
  0
VERTEX
  8
0
 10
1.24306
 20
0.634143
 30
0.0
 40
0
 41
0
  0
VERTEX
  8
0
 10
1.23541
 20
0.629369
 30
0.0
 40
0
 41
0
  0
VERTEX
  8
0
 10
1.23003
 20
0.625843
 30
0.0
 40
0
 41
0
  0
VERTEX
  8
0
 10
1.22944
 20
0.626276
 30
0.0
 40
0
 41
0
  0
VERTEX
  8
0
 10
1.22895
 20
0.627036
 30
0.0
 40
0
 41
0
  0
VERTEX
  8
0
 10
1.23074
 20
0.631431
 30
0.0
 40
0
 41
0
  0
VERTEX
  8
0
 10
1.23671
 20
0.638538
 30
0.0
 40
0
 41
0
  0
VERTEX
  8
0
 10
1.2462
 20
0.642282
 30
0.0
 40
0
 41
0
  0
VERTEX
  8
0
 10
1.25591
 20
0.639243
 30
0.0
 40
0
 41
0
  0
VERTEX
  8
0
 10
1.25825
 20
0.637182
 30
0.0
 40
0
 41
0
  0
VERTEX
  8
0
 10
1.2583
 20
0.637128
 30
0.0
 40
0
 41
0
  0
VERTEX
  8
0
 10
1.26063
 20
0.633221
 30
0.0
 40
0
 41
0
  0
VERTEX
  8
0
 10
1.26291
 20
0.626114
 30
0.0
 40
0
 41
0
  0
VERTEX
  8
0
 10
1.26297
 20
0.624432
 30
0.0
 40
0
 41
0
  0
VERTEX
  8
0
 10
1.26302
 20
0.619604
 30
0.0
 40
0
 41
0
  0
VERTEX
  8
0
 10
1.25543
 20
0.604847
 30
0.0
 40
0
 41
0
  0
VERTEX
  8
0
 10
1.2373
 20
0.596383
 30
0.0
 40
0
 41
0
  0
VERTEX
  8
0
 10
1.21669
 20
0.599693
 30
0.0
 40
0
 41
0
  0
VERTEX
  8
0
 10
1.20367
 20
0.610706
 30
0.0
 40
0
 41
0
  0
VERTEX
  8
0
 10
1.20171
 20
0.615372
 30
0.0
 40
0
 41
0
  0
SEQEND
 8
0
  0
ENDSEC
  0
EOF
