  0
SECTION
  2
HEADER
  9
$ACADVER
  1
AC1009
  9
$EXTMIN
 10
0.0
 20
0.0
 30
0.0
  9
$EXTMAX
 10
1000.0
 20
1000.0
 30
0.0
  9
$FILLMODE
 70
 0
  9
$SPLFRAME
 70
 1
  0
ENDSEC
  0
SECTION
  2
TABLES
  0
TABLE
  2
LAYER
 70
1
  0
LAYER
  2
0
 70
     0
 62
     7
  6
CONTINUOUS
  0
ENDTAB
  0
ENDSEC
  0
SECTION
  2
ENTITIES
  0
POLYLINE
  8
0
 62
     0
 66
     1
 10
0
 20
0
 30
0.0
 70
     1
 40
7.49994
 41
7.49994
  0
VERTEX
  8
0
 10
1.21501
 20
6.77783
 30
0.0
 40
0.104166
 41
0.104166
  0
VERTEX
  8
0
 10
1.21501
 20
6.76036
 30
0.0
 40
0.104166
 41
0.104166
  0
VERTEX
  8
0
 10
1.20795
 20
6.7079
 30
0.0
 40
0.104166
 41
0.104166
  0
VERTEX
  8
0
 10
1.18777
 20
6.64268
 30
0.0
 40
0.104166
 41
0.104166
  0
VERTEX
  8
0
 10
1.15582
 20
6.58365
 30
0.0
 40
0.104166
 41
0.104166
  0
VERTEX
  8
0
 10
1.1135
 20
6.53222
 30
0.0
 40
0.104166
 41
0.104166
  0
VERTEX
  8
0
 10
1.06223
 20
6.48981
 30
0.0
 40
0.104166
 41
0.104166
  0
VERTEX
  8
0
 10
1.00331
 20
6.45768
 30
0.0
 40
0.104166
 41
0.104166
  0
VERTEX
  8
0
 10
0.938206
 20
6.43744
 30
0.0
 40
0.104166
 41
0.104166
  0
VERTEX
  8
0
 10
0.885796
 20
6.43033
 30
0.0
 40
0.104166
 41
0.104166
  0
VERTEX
  8
0
 10
0.868326
 20
6.43033
 30
0.0
 40
0.104166
 41
0.104166
  0
VERTEX
  8
0
 10
0.850803
 20
6.43033
 30
0.0
 40
0.104166
 41
0.104166
  0
VERTEX
  8
0
 10
0.79834
 20
6.43744
 30
0.0
 40
0.104166
 41
0.104166
  0
VERTEX
  8
0
 10
0.733128
 20
6.45768
 30
0.0
 40
0.104166
 41
0.104166
  0
VERTEX
  8
0
 10
0.6741
 20
6.48981
 30
0.0
 40
0.104166
 41
0.104166
  0
VERTEX
  8
0
 10
0.622667
 20
6.53222
 30
0.0
 40
0.104166
 41
0.104166
  0
VERTEX
  8
0
 10
0.58024
 20
6.58365
 30
0.0
 40
0.104166
 41
0.104166
  0
VERTEX
  8
0
 10
0.548122
 20
6.64268
 30
0.0
 40
0.104166
 41
0.104166
  0
VERTEX
  8
0
 10
0.527886
 20
6.7079
 30
0.0
 40
0.104166
 41
0.104166
  0
VERTEX
  8
0
 10
0.520833
 20
6.76036
 30
0.0
 40
0.104166
 41
0.104166
  0
VERTEX
  8
0
 10
0.520833
 20
6.77783
 30
0.0
 40
0.104166
 41
0.104166
  0
VERTEX
  8
0
 10
0.520833
 20
6.79536
 30
0.0
 40
0.104166
 41
0.104166
  0
VERTEX
  8
0
 10
0.527886
 20
6.84782
 30
0.0
 40
0.104166
 41
0.104166
  0
VERTEX
  8
0
 10
0.548122
 20
6.91297
 30
0.0
 40
0.104166
 41
0.104166
  0
VERTEX
  8
0
 10
0.58024
 20
6.972
 30
0.0
 40
0.104166
 41
0.104166
  0
VERTEX
  8
0
 10
0.622667
 20
7.02344
 30
0.0
 40
0.104166
 41
0.104166
  0
VERTEX
  8
0
 10
0.6741
 20
7.06592
 30
0.0
 40
0.104166
 41
0.104166
  0
VERTEX
  8
0
 10
0.733128
 20
7.09799
 30
0.0
 40
0.104166
 41
0.104166
  0
VERTEX
  8
0
 10
0.79834
 20
7.11828
 30
0.0
 40
0.104166
 41
0.104166
  0
VERTEX
  8
0
 10
0.850803
 20
7.12532
 30
0.0
 40
0.104166
 41
0.104166
  0
VERTEX
  8
0
 10
0.868326
 20
7.12532
 30
0.0
 40
0.104166
 41
0.104166
  0
VERTEX
  8
0
 10
0.885796
 20
7.12532
 30
0.0
 40
0.104166
 41
0.104166
  0
VERTEX
  8
0
 10
0.938206
 20
7.11828
 30
0.0
 40
0.104166
 41
0.104166
  0
VERTEX
  8
0
 10
1.00331
 20
7.09799
 30
0.0
 40
0.104166
 41
0.104166
  0
VERTEX
  8
0
 10
1.06223
 20
7.06592
 30
0.0
 40
0.104166
 41
0.104166
  0
VERTEX
  8
0
 10
1.1135
 20
7.02344
 30
0.0
 40
0.104166
 41
0.104166
  0
VERTEX
  8
0
 10
1.15582
 20
6.972
 30
0.0
 40
0.104166
 41
0.104166
  0
VERTEX
  8
0
 10
1.18777
 20
6.91297
 30
0.0
 40
0.104166
 41
0.104166
  0
VERTEX
  8
0
 10
1.20795
 20
6.84782
 30
0.0
 40
0.104166
 41
0.104166
  0
VERTEX
  8
0
 10
1.21501
 20
6.79536
 30
0.0
 40
0.104166
 41
0.104166
  0
VERTEX
  8
0
 10
1.21501
 20
6.77783
 30
0.0
 40
0.104166
 41
0.104166
  0
SEQEND
 8
0
  0
POLYLINE
  8
0
 62
     0
 66
     1
 10
0
 20
0
 30
0.0
 70
     1
 40
7.49994
 41
7.49994
  0
VERTEX
  8
0
 10
4.51417
 20
1.06288
 30
0.0
 40
0.104166
 41
0.104166
  0
VERTEX
  8
0
 10
4.51417
 20
1.04541
 30
0.0
 40
0.104166
 41
0.104166
  0
VERTEX
  8
0
 10
4.50706
 20
0.992947
 30
0.0
 40
0.104166
 41
0.104166
  0
VERTEX
  8
0
 10
4.48676
 20
0.927735
 30
0.0
 40
0.104166
 41
0.104166
  0
VERTEX
  8
0
 10
4.45469
 20
0.868707
 30
0.0
 40
0.104166
 41
0.104166
  0
VERTEX
  8
0
 10
4.41222
 20
0.817275
 30
0.0
 40
0.104166
 41
0.104166
  0
VERTEX
  8
0
 10
4.36079
 20
0.774794
 30
0.0
 40
0.104166
 41
0.104166
  0
VERTEX
  8
0
 10
4.30176
 20
0.742731
 30
0.0
 40
0.104166
 41
0.104166
  0
VERTEX
  8
0
 10
4.23654
 20
0.722439
 30
0.0
 40
0.104166
 41
0.104166
  0
VERTEX
  8
0
 10
4.18408
 20
0.715332
 30
0.0
 40
0.104166
 41
0.104166
  0
VERTEX
  8
0
 10
4.16661
 20
0.715332
 30
0.0
 40
0.104166
 41
0.104166
  0
VERTEX
  8
0
 10
4.14908
 20
0.715332
 30
0.0
 40
0.104166
 41
0.104166
  0
VERTEX
  8
0
 10
4.09663
 20
0.722439
 30
0.0
 40
0.104166
 41
0.104166
  0
VERTEX
  8
0
 10
4.03147
 20
0.742731
 30
0.0
 40
0.104166
 41
0.104166
  0
VERTEX
  8
0
 10
3.97244
 20
0.774794
 30
0.0
 40
0.104166
 41
0.104166
  0
VERTEX
  8
0
 10
3.92101
 20
0.817275
 30
0.0
 40
0.104166
 41
0.104166
  0
VERTEX
  8
0
 10
3.87853
 20
0.868707
 30
0.0
 40
0.104166
 41
0.104166
  0
VERTEX
  8
0
 10
3.84646
 20
0.927735
 30
0.0
 40
0.104166
 41
0.104166
  0
VERTEX
  8
0
 10
3.82617
 20
0.992947
 30
0.0
 40
0.104166
 41
0.104166
  0
VERTEX
  8
0
 10
3.81912
 20
1.04541
 30
0.0
 40
0.104166
 41
0.104166
  0
VERTEX
  8
0
 10
3.81912
 20
1.06288
 30
0.0
 40
0.104166
 41
0.104166
  0
VERTEX
  8
0
 10
3.81912
 20
1.0804
 30
0.0
 40
0.104166
 41
0.104166
  0
VERTEX
  8
0
 10
3.82617
 20
1.13281
 30
0.0
 40
0.104166
 41
0.104166
  0
VERTEX
  8
0
 10
3.84646
 20
1.19792
 30
0.0
 40
0.104166
 41
0.104166
  0
VERTEX
  8
0
 10
3.87853
 20
1.25678
 30
0.0
 40
0.104166
 41
0.104166
  0
VERTEX
  8
0
 10
3.92101
 20
1.30805
 30
0.0
 40
0.104166
 41
0.104166
  0
VERTEX
  8
0
 10
3.97244
 20
1.35037
 30
0.0
 40
0.104166
 41
0.104166
  0
VERTEX
  8
0
 10
4.03147
 20
1.38232
 30
0.0
 40
0.104166
 41
0.104166
  0
VERTEX
  8
0
 10
4.09663
 20
1.4025
 30
0.0
 40
0.104166
 41
0.104166
  0
VERTEX
  8
0
 10
4.14908
 20
1.4095
 30
0.0
 40
0.104166
 41
0.104166
  0
VERTEX
  8
0
 10
4.16661
 20
1.4095
 30
0.0
 40
0.104166
 41
0.104166
  0
VERTEX
  8
0
 10
4.18408
 20
1.4095
 30
0.0
 40
0.104166
 41
0.104166
  0
VERTEX
  8
0
 10
4.23654
 20
1.4025
 30
0.0
 40
0.104166
 41
0.104166
  0
VERTEX
  8
0
 10
4.30176
 20
1.38232
 30
0.0
 40
0.104166
 41
0.104166
  0
VERTEX
  8
0
 10
4.36079
 20
1.35037
 30
0.0
 40
0.104166
 41
0.104166
  0
VERTEX
  8
0
 10
4.41222
 20
1.30805
 30
0.0
 40
0.104166
 41
0.104166
  0
VERTEX
  8
0
 10
4.45469
 20
1.25678
 30
0.0
 40
0.104166
 41
0.104166
  0
VERTEX
  8
0
 10
4.48676
 20
1.19792
 30
0.0
 40
0.104166
 41
0.104166
  0
VERTEX
  8
0
 10
4.50706
 20
1.13281
 30
0.0
 40
0.104166
 41
0.104166
  0
VERTEX
  8
0
 10
4.51417
 20
1.0804
 30
0.0
 40
0.104166
 41
0.104166
  0
VERTEX
  8
0
 10
4.51417
 20
1.06288
 30
0.0
 40
0.104166
 41
0.104166
  0
SEQEND
 8
0
  0
POLYLINE
  8
0
 62
     0
 66
     1
 10
0
 20
0
 30
0.0
 70
     1
 40
7.49994
 41
7.49994
  0
VERTEX
  8
0
 10
7.81244
 20
6.77783
 30
0.0
 40
0.104166
 41
0.104166
  0
VERTEX
  8
0
 10
7.81244
 20
6.76036
 30
0.0
 40
0.104166
 41
0.104166
  0
VERTEX
  8
0
 10
7.80533
 20
6.7079
 30
0.0
 40
0.104166
 41
0.104166
  0
VERTEX
  8
0
 10
7.7851
 20
6.64268
 30
0.0
 40
0.104166
 41
0.104166
  0
VERTEX
  8
0
 10
7.75299
 20
6.58365
 30
0.0
 40
0.104166
 41
0.104166
  0
VERTEX
  8
0
 10
7.71056
 20
6.53222
 30
0.0
 40
0.104166
 41
0.104166
  0
VERTEX
  8
0
 10
7.65912
 20
6.48981
 30
0.0
 40
0.104166
 41
0.104166
  0
VERTEX
  8
0
 10
7.6001
 20
6.45768
 30
0.0
 40
0.104166
 41
0.104166
  0
VERTEX
  8
0
 10
7.53489
 20
6.43744
 30
0.0
 40
0.104166
 41
0.104166
  0
VERTEX
  8
0
 10
7.48242
 20
6.43033
 30
0.0
 40
0.104166
 41
0.104166
  0
VERTEX
  8
0
 10
7.46496
 20
6.43033
 30
0.0
 40
0.104166
 41
0.104166
  0
VERTEX
  8
0
 10
7.44743
 20
6.43033
 30
0.0
 40
0.104166
 41
0.104166
  0
VERTEX
  8
0
 10
7.39501
 20
6.43744
 30
0.0
 40
0.104166
 41
0.104166
  0
VERTEX
  8
0
 10
7.32992
 20
6.45768
 30
0.0
 40
0.104166
 41
0.104166
  0
VERTEX
  8
0
 10
7.271
 20
6.48981
 30
0.0
 40
0.104166
 41
0.104166
  0
VERTEX
  8
0
 10
7.21972
 20
6.53222
 30
0.0
 40
0.104166
 41
0.104166
  0
VERTEX
  8
0
 10
7.1774
 20
6.58365
 30
0.0
 40
0.104166
 41
0.104166
  0
VERTEX
  8
0
 10
7.14546
 20
6.64268
 30
0.0
 40
0.104166
 41
0.104166
  0
VERTEX
  8
0
 10
7.12528
 20
6.7079
 30
0.0
 40
0.104166
 41
0.104166
  0
VERTEX
  8
0
 10
7.11828
 20
6.76036
 30
0.0
 40
0.104166
 41
0.104166
  0
VERTEX
  8
0
 10
7.11828
 20
6.77783
 30
0.0
 40
0.104166
 41
0.104166
  0
VERTEX
  8
0
 10
7.11828
 20
6.79536
 30
0.0
 40
0.104166
 41
0.104166
  0
VERTEX
  8
0
 10
7.12528
 20
6.84782
 30
0.0
 40
0.104166
 41
0.104166
  0
VERTEX
  8
0
 10
7.14546
 20
6.91297
 30
0.0
 40
0.104166
 41
0.104166
  0
VERTEX
  8
0
 10
7.1774
 20
6.972
 30
0.0
 40
0.104166
 41
0.104166
  0
VERTEX
  8
0
 10
7.21972
 20
7.02344
 30
0.0
 40
0.104166
 41
0.104166
  0
VERTEX
  8
0
 10
7.271
 20
7.06592
 30
0.0
 40
0.104166
 41
0.104166
  0
VERTEX
  8
0
 10
7.32992
 20
7.09799
 30
0.0
 40
0.104166
 41
0.104166
  0
VERTEX
  8
0
 10
7.39501
 20
7.11828
 30
0.0
 40
0.104166
 41
0.104166
  0
VERTEX
  8
0
 10
7.44743
 20
7.12532
 30
0.0
 40
0.104166
 41
0.104166
  0
VERTEX
  8
0
 10
7.46496
 20
7.12532
 30
0.0
 40
0.104166
 41
0.104166
  0
VERTEX
  8
0
 10
7.48242
 20
7.12532
 30
0.0
 40
0.104166
 41
0.104166
  0
VERTEX
  8
0
 10
7.53489
 20
7.11828
 30
0.0
 40
0.104166
 41
0.104166
  0
VERTEX
  8
0
 10
7.6001
 20
7.09799
 30
0.0
 40
0.104166
 41
0.104166
  0
VERTEX
  8
0
 10
7.65912
 20
7.06592
 30
0.0
 40
0.104166
 41
0.104166
  0
VERTEX
  8
0
 10
7.71056
 20
7.02344
 30
0.0
 40
0.104166
 41
0.104166
  0
VERTEX
  8
0
 10
7.75299
 20
6.972
 30
0.0
 40
0.104166
 41
0.104166
  0
VERTEX
  8
0
 10
7.7851
 20
6.91297
 30
0.0
 40
0.104166
 41
0.104166
  0
VERTEX
  8
0
 10
7.80533
 20
6.84782
 30
0.0
 40
0.104166
 41
0.104166
  0
VERTEX
  8
0
 10
7.81244
 20
6.79536
 30
0.0
 40
0.104166
 41
0.104166
  0
VERTEX
  8
0
 10
7.81244
 20
6.77783
 30
0.0
 40
0.104166
 41
0.104166
  0
SEQEND
 8
0
  0
POLYLINE
  8
0
 62
     0
 66
     1
 10
0
 20
0
 30
0.0
 70
     1
 40
7.49994
 41
7.49994
  0
VERTEX
  8
0
 10
5.72911
 20
4.90283
 30
0.0
 40
0.104166
 41
0.104166
  0
VERTEX
  8
0
 10
5.72911
 20
4.8629
 30
0.0
 40
0.104166
 41
0.104166
  0
VERTEX
  8
0
 10
5.72103
 20
4.74306
 30
0.0
 40
0.104166
 41
0.104166
  0
VERTEX
  8
0
 10
5.69738
 20
4.58783
 30
0.0
 40
0.104166
 41
0.104166
  0
VERTEX
  8
0
 10
5.65886
 20
4.4381
 30
0.0
 40
0.104166
 41
0.104166
  0
VERTEX
  8
0
 10
5.60633
 20
4.29449
 30
0.0
 40
0.104166
 41
0.104166
  0
VERTEX
  8
0
 10
5.54058
 20
4.15793
 30
0.0
 40
0.104166
 41
0.104166
  0
VERTEX
  8
0
 10
5.46235
 20
4.02908
 30
0.0
 40
0.104166
 41
0.104166
  0
VERTEX
  8
0
 10
5.3724
 20
3.90881
 30
0.0
 40
0.104166
 41
0.104166
  0
VERTEX
  8
0
 10
5.2716
 20
3.79785
 30
0.0
 40
0.104166
 41
0.104166
  0
VERTEX
  8
0
 10
5.16064
 20
3.69706
 30
0.0
 40
0.104166
 41
0.104166
  0
VERTEX
  8
0
 10
5.04036
 20
3.6071
 30
0.0
 40
0.104166
 41
0.104166
  0
VERTEX
  8
0
 10
4.91151
 20
3.52886
 30
0.0
 40
0.104166
 41
0.104166
  0
VERTEX
  8
0
 10
4.77496
 20
3.46311
 30
0.0
 40
0.104166
 41
0.104166
  0
VERTEX
  8
0
 10
4.63135
 20
3.4106
 30
0.0
 40
0.104166
 41
0.104166
  0
VERTEX
  8
0
 10
4.48161
 20
3.37207
 30
0.0
 40
0.104166
 41
0.104166
  0
VERTEX
  8
0
 10
4.32639
 20
3.34842
 30
0.0
 40
0.104166
 41
0.104166
  0
VERTEX
  8
0
 10
4.20654
 20
3.34033
 30
0.0
 40
0.104166
 41
0.104166
  0
VERTEX
  8
0
 10
4.16661
 20
3.34033
 30
0.0
 40
0.104166
 41
0.104166
  0
VERTEX
  8
0
 10
4.12663
 20
3.34033
 30
0.0
 40
0.104166
 41
0.104166
  0
VERTEX
  8
0
 10
4.00678
 20
3.34842
 30
0.0
 40
0.104166
 41
0.104166
  0
VERTEX
  8
0
 10
3.85161
 20
3.37207
 30
0.0
 40
0.104166
 41
0.104166
  0
VERTEX
  8
0
 10
3.70182
 20
3.4106
 30
0.0
 40
0.104166
 41
0.104166
  0
VERTEX
  8
0
 10
3.55826
 20
3.46311
 30
0.0
 40
0.104166
 41
0.104166
  0
VERTEX
  8
0
 10
3.42165
 20
3.52886
 30
0.0
 40
0.104166
 41
0.104166
  0
VERTEX
  8
0
 10
3.29286
 20
3.6071
 30
0.0
 40
0.104166
 41
0.104166
  0
VERTEX
  8
0
 10
3.17258
 20
3.69706
 30
0.0
 40
0.104166
 41
0.104166
  0
VERTEX
  8
0
 10
3.06164
 20
3.79785
 30
0.0
 40
0.104166
 41
0.104166
  0
VERTEX
  8
0
 10
2.96083
 20
3.90881
 30
0.0
 40
0.104166
 41
0.104166
  0
VERTEX
  8
0
 10
2.87088
 20
4.02908
 30
0.0
 40
0.104166
 41
0.104166
  0
VERTEX
  8
0
 10
2.79264
 20
4.15793
 30
0.0
 40
0.104166
 41
0.104166
  0
VERTEX
  8
0
 10
2.72689
 20
4.29449
 30
0.0
 40
0.104166
 41
0.104166
  0
VERTEX
  8
0
 10
2.67437
 20
4.4381
 30
0.0
 40
0.104166
 41
0.104166
  0
VERTEX
  8
0
 10
2.63585
 20
4.58783
 30
0.0
 40
0.104166
 41
0.104166
  0
VERTEX
  8
0
 10
2.61219
 20
4.74306
 30
0.0
 40
0.104166
 41
0.104166
  0
VERTEX
  8
0
 10
2.60417
 20
4.8629
 30
0.0
 40
0.104166
 41
0.104166
  0
VERTEX
  8
0
 10
2.60417
 20
4.90283
 30
0.0
 40
0.104166
 41
0.104166
  0
VERTEX
  8
0
 10
2.60417
 20
4.94282
 30
0.0
 40
0.104166
 41
0.104166
  0
VERTEX
  8
0
 10
2.61219
 20
5.06267
 30
0.0
 40
0.104166
 41
0.104166
  0
VERTEX
  8
0
 10
2.63585
 20
5.21789
 30
0.0
 40
0.104166
 41
0.104166
  0
VERTEX
  8
0
 10
2.67437
 20
5.36762
 30
0.0
 40
0.104166
 41
0.104166
  0
VERTEX
  8
0
 10
2.72689
 20
5.51124
 30
0.0
 40
0.104166
 41
0.104166
  0
VERTEX
  8
0
 10
2.79264
 20
5.64779
 30
0.0
 40
0.104166
 41
0.104166
  0
VERTEX
  8
0
 10
2.87088
 20
5.77664
 30
0.0
 40
0.104166
 41
0.104166
  0
VERTEX
  8
0
 10
2.96083
 20
5.89692
 30
0.0
 40
0.104166
 41
0.104166
  0
VERTEX
  8
0
 10
3.06164
 20
6.00786
 30
0.0
 40
0.104166
 41
0.104166
  0
VERTEX
  8
0
 10
3.17258
 20
6.10867
 30
0.0
 40
0.104166
 41
0.104166
  0
VERTEX
  8
0
 10
3.29286
 20
6.19862
 30
0.0
 40
0.104166
 41
0.104166
  0
VERTEX
  8
0
 10
3.42165
 20
6.27686
 30
0.0
 40
0.104166
 41
0.104166
  0
VERTEX
  8
0
 10
3.55826
 20
6.34261
 30
0.0
 40
0.104166
 41
0.104166
  0
VERTEX
  8
0
 10
3.70182
 20
6.39513
 30
0.0
 40
0.104166
 41
0.104166
  0
VERTEX
  8
0
 10
3.85161
 20
6.43365
 30
0.0
 40
0.104166
 41
0.104166
  0
VERTEX
  8
0
 10
4.00678
 20
6.45731
 30
0.0
 40
0.104166
 41
0.104166
  0
VERTEX
  8
0
 10
4.12663
 20
6.46533
 30
0.0
 40
0.104166
 41
0.104166
  0
VERTEX
  8
0
 10
4.16661
 20
6.46533
 30
0.0
 40
0.104166
 41
0.104166
  0
VERTEX
  8
0
 10
4.20654
 20
6.46533
 30
0.0
 40
0.104166
 41
0.104166
  0
VERTEX
  8
0
 10
4.32639
 20
6.45731
 30
0.0
 40
0.104166
 41
0.104166
  0
VERTEX
  8
0
 10
4.48161
 20
6.43365
 30
0.0
 40
0.104166
 41
0.104166
  0
VERTEX
  8
0
 10
4.63135
 20
6.39513
 30
0.0
 40
0.104166
 41
0.104166
  0
VERTEX
  8
0
 10
4.77496
 20
6.34261
 30
0.0
 40
0.104166
 41
0.104166
  0
VERTEX
  8
0
 10
4.91151
 20
6.27686
 30
0.0
 40
0.104166
 41
0.104166
  0
VERTEX
  8
0
 10
5.04036
 20
6.19862
 30
0.0
 40
0.104166
 41
0.104166
  0
VERTEX
  8
0
 10
5.16064
 20
6.10867
 30
0.0
 40
0.104166
 41
0.104166
  0
VERTEX
  8
0
 10
5.2716
 20
6.00786
 30
0.0
 40
0.104166
 41
0.104166
  0
VERTEX
  8
0
 10
5.3724
 20
5.89692
 30
0.0
 40
0.104166
 41
0.104166
  0
VERTEX
  8
0
 10
5.46235
 20
5.77664
 30
0.0
 40
0.104166
 41
0.104166
  0
VERTEX
  8
0
 10
5.54058
 20
5.64779
 30
0.0
 40
0.104166
 41
0.104166
  0
VERTEX
  8
0
 10
5.60633
 20
5.51124
 30
0.0
 40
0.104166
 41
0.104166
  0
VERTEX
  8
0
 10
5.65886
 20
5.36762
 30
0.0
 40
0.104166
 41
0.104166
  0
VERTEX
  8
0
 10
5.69738
 20
5.21789
 30
0.0
 40
0.104166
 41
0.104166
  0
VERTEX
  8
0
 10
5.72103
 20
5.06267
 30
0.0
 40
0.104166
 41
0.104166
  0
VERTEX
  8
0
 10
5.72911
 20
4.94282
 30
0.0
 40
0.104166
 41
0.104166
  0
VERTEX
  8
0
 10
5.72911
 20
4.90283
 30
0.0
 40
0.104166
 41
0.104166
  0
SEQEND
 8
0
  0
POLYLINE
  8
0
 62
     0
 66
     1
 10
0
 20
0
 30
0.0
 70
     1
 40
0
 41
0
  0
VERTEX
  8
0
 10
3.31749
 20
6.85618
 30
0.0
 40
0
 41
0
  0
VERTEX
  8
0
 10
3.25131
 20
6.8596
 30
0.0
 40
0
 41
0
  0
VERTEX
  8
0
 10
3.05285
 20
6.87061
 30
0.0
 40
0
 41
0
  0
VERTEX
  8
0
 10
2.83078
 20
6.8846
 30
0.0
 40
0
 41
0
  0
VERTEX
  8
0
 10
2.63118
 20
6.89942
 30
0.0
 40
0
 41
0
  0
VERTEX
  8
0
 10
2.48335
 20
6.91174
 30
0.0
 40
0
 41
0
  0
VERTEX
  8
0
 10
2.43414
 20
6.91613
 30
0.0
 40
0
 41
0
  0
VERTEX
  8
0
 10
2.40744
 20
6.91889
 30
0.0
 40
0
 41
0
  0
VERTEX
  8
0
 10
2.32726
 20
6.9266
 30
0.0
 40
0
 41
0
  0
VERTEX
  8
0
 10
2.22808
 20
6.93511
 30
0.0
 40
0
 41
0
  0
VERTEX
  8
0
 10
2.14231
 20
6.94151
 30
0.0
 40
0
 41
0
  0
VERTEX
  8
0
 10
2.09239
 20
6.94461
 30
0.0
 40
0
 41
0
  0
VERTEX
  8
0
 10
2.07579
 20
6.94532
 30
0.0
 40
0
 41
0
  0
VERTEX
  8
0
 10
2.04112
 20
6.94715
 30
0.0
 40
0
 41
0
  0
VERTEX
  8
0
 10
1.93674
 20
6.94569
 30
0.0
 40
0
 41
0
  0
VERTEX
  8
0
 10
1.83296
 20
6.93115
 30
0.0
 40
0
 41
0
  0
VERTEX
  8
0
 10
1.76747
 20
6.90294
 30
0.0
 40
0
 41
0
  0
VERTEX
  8
0
 10
1.74387
 20
6.8725
 30
0.0
 40
0
 41
0
  0
VERTEX
  8
0
 10
1.74333
 20
6.86199
 30
0.0
 40
0
 41
0
  0
VERTEX
  8
0
 10
1.74311
 20
6.85764
 30
0.0
 40
0
 41
0
  0
VERTEX
  8
0
 10
1.75151
 20
6.8349
 30
0.0
 40
0
 41
0
  0
VERTEX
  8
0
 10
1.7679
 20
6.81722
 30
0.0
 40
0
 41
0
  0
VERTEX
  8
0
 10
1.77165
 20
6.81532
 30
0.0
 40
0
 41
0
  0
VERTEX
  8
0
 10
1.79297
 20
6.80567
 30
0.0
 40
0
 41
0
  0
VERTEX
  8
0
 10
1.85574
 20
6.7736
 30
0.0
 40
0
 41
0
  0
VERTEX
  8
0
 10
1.90653
 20
6.73839
 30
0.0
 40
0
 41
0
  0
VERTEX
  8
0
 10
1.93087
 20
6.70389
 30
0.0
 40
0
 41
0
  0
VERTEX
  8
0
 10
1.93636
 20
6.67426
 30
0.0
 40
0
 41
0
  0
VERTEX
  8
0
 10
1.93582
 20
6.6645
 30
0.0
 40
0
 41
0
  0
VERTEX
  8
0
 10
1.93522
 20
6.65283
 30
0.0
 40
0
 41
0
  0
VERTEX
  8
0
 10
1.92057
 20
6.61843
 30
0.0
 40
0
 41
0
  0
VERTEX
  8
0
 10
1.88331
 20
6.58171
 30
0.0
 40
0
 41
0
  0
VERTEX
  8
0
 10
1.82915
 20
6.55821
 30
0.0
 40
0
 41
0
  0
VERTEX
  8
0
 10
1.77962
 20
6.55111
 30
0.0
 40
0
 41
0
  0
VERTEX
  8
0
 10
1.76335
 20
6.55197
 30
0.0
 40
0
 41
0
  0
VERTEX
  8
0
 10
1.73931
 20
6.55311
 30
0.0
 40
0
 41
0
  0
VERTEX
  8
0
 10
1.66808
 20
6.57161
 30
0.0
 40
0
 41
0
  0
VERTEX
  8
0
 10
1.59631
 20
6.61762
 30
0.0
 40
0
 41
0
  0
VERTEX
  8
0
 10
1.55225
 20
6.68582
 30
0.0
 40
0
 41
0
  0
VERTEX
  8
0
 10
1.53885
 20
6.75071
 30
0.0
 40
0
 41
0
  0
VERTEX
  8
0
 10
1.53999
 20
6.77197
 30
0.0
 40
0
 41
0
  0
VERTEX
  8
0
 10
1.54144
 20
6.79899
 30
0.0
 40
0
 41
0
  0
VERTEX
  8
0
 10
1.57329
 20
6.87842
 30
0.0
 40
0
 41
0
  0
VERTEX
  8
0
 10
1.65776
 20
6.96647
 30
0.0
 40
0
 41
0
  0
VERTEX
  8
0
 10
1.78901
 20
7.0325
 30
0.0
 40
0
 41
0
  0
VERTEX
  8
0
 10
1.91857
 20
7.06685
 30
0.0
 40
0
 41
0
  0
VERTEX
  8
0
 10
1.96251
 20
7.07281
 30
0.0
 40
0
 41
0
  0
VERTEX
  8
0
 10
2.0261
 20
7.08122
 30
0.0
 40
0
 41
0
  0
VERTEX
  8
0
 10
2.21838
 20
7.09511
 30
0.0
 40
0
 41
0
  0
VERTEX
  8
0
 10
2.54525
 20
7.10542
 30
0.0
 40
0
 41
0
  0
VERTEX
  8
0
 10
2.92139
 20
7.1034
 30
0.0
 40
0
 41
0
  0
VERTEX
  8
0
 10
3.22412
 20
7.09392
 30
0.0
 40
0
 41
0
  0
VERTEX
  8
0
 10
3.32497
 20
7.08865
 30
0.0
 40
0
 41
0
  0
VERTEX
  8
0
 10
5.11914
 20
6.99447
 30
0.0
 40
0
 41
0
  0
VERTEX
  8
0
 10
5.18093
 20
6.99132
 30
0.0
 40
0
 41
0
  0
VERTEX
  8
0
 10
5.36638
 20
6.9809
 30
0.0
 40
0
 41
0
  0
VERTEX
  8
0
 10
5.5861
 20
6.96701
 30
0.0
 40
0
 41
0
  0
VERTEX
  8
0
 10
5.79189
 20
6.95182
 30
0.0
 40
0
 41
0
  0
VERTEX
  8
0
 10
5.94607
 20
6.93907
 30
0.0
 40
0
 41
0
  0
VERTEX
  8
0
 10
5.99744
 20
6.93446
 30
0.0
 40
0
 41
0
  0
VERTEX
  8
0
 10
6.0364
 20
6.93072
 30
0.0
 40
0
 41
0
  0
VERTEX
  8
0
 10
6.21733
 20
6.91531
 30
0.0
 40
0
 41
0
  0
VERTEX
  8
0
 10
6.36453
 20
6.90489
 30
0.0
 40
0
 41
0
  0
VERTEX
  8
0
 10
6.38661
 20
6.90365
 30
0.0
 40
0
 41
0
  0
VERTEX
  8
0
 10
6.41764
 20
6.90213
 30
0.0
 40
0
 41
0
  0
VERTEX
  8
0
 10
6.51118
 20
6.90489
 30
0.0
 40
0
 41
0
  0
VERTEX
  8
0
 10
6.60753
 20
6.92139
 30
0.0
 40
0
 41
0
  0
VERTEX
  8
0
 10
6.67031
 20
6.95199
 30
0.0
 40
0
 41
0
  0
VERTEX
  8
0
 10
6.69353
 20
6.98426
 30
0.0
 40
0
 41
0
  0
VERTEX
  8
0
 10
6.69412
 20
6.99533
 30
0.0
 40
0
 41
0
  0
VERTEX
  8
0
 10
6.69439
 20
7.00043
 30
0.0
 40
0
 41
0
  0
VERTEX
  8
0
 10
6.69011
 20
7.016
 30
0.0
 40
0
 41
0
  0
VERTEX
  8
0
 10
6.67475
 20
7.03575
 30
0.0
 40
0
 41
0
  0
VERTEX
  8
0
 10
6.64654
 20
7.05485
 30
0.0
 40
0
 41
0
  0
VERTEX
  8
0
 10
6.6149
 20
7.06961
 30
0.0
 40
0
 41
0
  0
VERTEX
  8
0
 10
6.60411
 20
7.07362
 30
0.0
 40
0
 41
0
  0
VERTEX
  8
0
 10
6.59093
 20
7.07932
 30
0.0
 40
0
 41
0
  0
VERTEX
  8
0
 10
6.55268
 20
7.09924
 30
0.0
 40
0
 41
0
  0
VERTEX
  8
0
 10
6.51867
 20
7.125
 30
0.0
 40
0
 41
0
  0
VERTEX
  8
0
 10
6.50028
 20
7.15349
 30
0.0
 40
0
 41
0
  0
VERTEX
  8
0
 10
6.49533
 20
7.17871
 30
0.0
 40
0
 41
0
  0
VERTEX
  8
0
 10
6.49576
 20
7.18696
 30
0.0
 40
0
 41
0
  0
VERTEX
  8
0
 10
6.49631
 20
7.19863
 30
0.0
 40
0
 41
0
  0
VERTEX
  8
0
 10
6.51178
 20
7.23296
 30
0.0
 40
0
 41
0
  0
VERTEX
  8
0
 10
6.55089
 20
7.26953
 30
0.0
 40
0
 41
0
  0
VERTEX
  8
0
 10
6.60699
 20
7.29297
 30
0.0
 40
0
 41
0
  0
VERTEX
  8
0
 10
6.65739
 20
7.30024
 30
0.0
 40
0
 41
0
  0
VERTEX
  8
0
 10
6.6741
 20
7.29949
 30
0.0
 40
0
 41
0
  0
VERTEX
  8
0
 10
6.68619
 20
7.29883
 30
0.0
 40
0
 41
0
  0
VERTEX
  8
0
 10
6.72244
 20
7.29286
 30
0.0
 40
0
 41
0
  0
VERTEX
  8
0
 10
6.76594
 20
7.27897
 30
0.0
 40
0
 41
0
  0
VERTEX
  8
0
 10
6.80399
 20
7.25846
 30
0.0
 40
0
 41
0
  0
VERTEX
  8
0
 10
6.83599
 20
7.23199
 30
0.0
 40
0
 41
0
  0
VERTEX
  8
0
 10
6.86128
 20
7.20025
 30
0.0
 40
0
 41
0
  0
VERTEX
  8
0
 10
6.87939
 20
7.16379
 30
0.0
 40
0
 41
0
  0
VERTEX
  8
0
 10
6.88971
 20
7.12332
 30
0.0
 40
0
 41
0
  0
VERTEX
  8
0
 10
6.89219
 20
7.09039
 30
0.0
 40
0
 41
0
  0
VERTEX
  8
0
 10
6.8916
 20
7.07949
 30
0.0
 40
0
 41
0
  0
VERTEX
  8
0
 10
6.89014
 20
7.05208
 30
0.0
 40
0
 41
0
  0
VERTEX
  8
0
 10
6.85829
 20
6.97119
 30
0.0
 40
0
 41
0
  0
VERTEX
  8
0
 10
6.77376
 20
6.88303
 30
0.0
 40
0
 41
0
  0
VERTEX
  8
0
 10
6.64258
 20
6.81771
 30
0.0
 40
0
 41
0
  0
VERTEX
  8
0
 10
6.51303
 20
6.78381
 30
0.0
 40
0
 41
0
  0
VERTEX
  8
0
 10
6.46913
 20
6.77783
 30
0.0
 40
0
 41
0
  0
VERTEX
  8
0
 10
6.40576
 20
6.76947
 30
0.0
 40
0
 41
0
  0
VERTEX
  8
0
 10
6.21425
 20
6.75558
 30
0.0
 40
0
 41
0
  0
VERTEX
  8
0
 10
5.88846
 20
6.74522
 30
0.0
 40
0
 41
0
  0
VERTEX
  8
0
 10
5.51237
 20
6.74729
 30
0.0
 40
0
 41
0
  0
VERTEX
  8
0
 10
5.20796
 20
6.75683
 30
0.0
 40
0
 41
0
  0
VERTEX
  8
0
 10
5.10661
 20
6.76199
 30
0.0
 40
0
 41
0
  0
VERTEX
  8
0
 10
3.31749
 20
6.85618
 30
0.0
 40
0
 41
0
  0
SEQEND
 8
0
  0
POLYLINE
  8
0
 62
     0
 66
     1
 10
0
 20
0
 30
0.0
 70
     1
 40
0
 41
0
  0
VERTEX
  8
0
 10
6.30826
 20
4.61535
 30
0.0
 40
0
 41
0
  0
VERTEX
  8
0
 10
6.34429
 20
4.6709
 30
0.0
 40
0
 41
0
  0
VERTEX
  8
0
 10
6.45307
 20
4.83718
 30
0.0
 40
0
 41
0
  0
VERTEX
  8
0
 10
6.57617
 20
5.02251
 30
0.0
 40
0
 41
0
  0
VERTEX
  8
0
 10
6.68864
 20
5.18804
 30
0.0
 40
0
 41
0
  0
VERTEX
  8
0
 10
6.77317
 20
5.3099
 30
0.0
 40
0
 41
0
  0
VERTEX
  8
0
 10
6.8016
 20
5.35032
 30
0.0
 40
0
 41
0
  0
VERTEX
  8
0
 10
6.81739
 20
5.37213
 30
0.0
 40
0
 41
0
  0
VERTEX
  8
0
 10
6.86421
 20
5.43782
 30
0.0
 40
0
 41
0
  0
VERTEX
  8
0
 10
6.92128
 20
5.51947
 30
0.0
 40
0
 41
0
  0
VERTEX
  8
0
 10
6.96978
 20
5.59056
 30
0.0
 40
0
 41
0
  0
VERTEX
  8
0
 10
6.99756
 20
5.63222
 30
0.0
 40
0
 41
0
  0
VERTEX
  8
0
 10
7.00662
 20
5.64615
 30
0.0
 40
0
 41
0
  0
VERTEX
  8
0
 10
7.02556
 20
5.67529
 30
0.0
 40
0
 41
0
  0
VERTEX
  8
0
 10
7.0765
 20
5.76644
 30
0.0
 40
0
 41
0
  0
VERTEX
  8
0
 10
7.11589
 20
5.86367
 30
0.0
 40
0
 41
0
  0
VERTEX
  8
0
 10
7.12414
 20
5.93468
 30
0.0
 40
0
 41
0
  0
VERTEX
  8
0
 10
7.1096
 20
5.97043
 30
0.0
 40
0
 41
0
  0
VERTEX
  8
0
 10
7.10081
 20
5.97613
 30
0.0
 40
0
 41
0
  0
VERTEX
  8
0
 10
7.097
 20
5.97846
 30
0.0
 40
0
 41
0
  0
VERTEX
  8
0
 10
7.07297
 20
5.98221
 30
0.0
 40
0
 41
0
  0
VERTEX
  8
0
 10
7.04932
 20
5.97683
 30
0.0
 40
0
 41
0
  0
VERTEX
  8
0
 10
7.04579
 20
5.9745
 30
0.0
 40
0
 41
0
  0
VERTEX
  8
0
 10
7.03526
 20
5.96707
 30
0.0
 40
0
 41
0
  0
VERTEX
  8
0
 10
7.00325
 20
5.94521
 30
0.0
 40
0
 41
0
  0
VERTEX
  8
0
 10
6.96744
 20
5.92264
 30
0.0
 40
0
 41
0
  0
VERTEX
  8
0
 10
6.93722
 20
5.90642
 30
0.0
 40
0
 41
0
  0
VERTEX
  8
0
 10
6.91162
 20
5.89615
 30
0.0
 40
0
 41
0
  0
VERTEX
  8
0
 10
6.88938
 20
5.8916
 30
0.0
 40
0
 41
0
  0
VERTEX
  8
0
 10
6.86951
 20
5.89225
 30
0.0
 40
0
 41
0
  0
VERTEX
  8
0
 10
6.85092
 20
5.89779
 30
0.0
 40
0
 41
0
  0
VERTEX
  8
0
 10
6.83681
 20
5.905
 30
0.0
 40
0
 41
0
  0
VERTEX
  8
0
 10
6.83247
 20
5.90782
 30
0.0
 40
0
 41
0
  0
VERTEX
  8
0
 10
6.82269
 20
5.91422
 30
0.0
 40
0
 41
0
  0
VERTEX
  8
0
 10
6.8004
 20
5.94412
 30
0.0
 40
0
 41
0
  0
VERTEX
  8
0
 10
6.78733
 20
5.99479
 30
0.0
 40
0
 41
0
  0
VERTEX
  8
0
 10
6.79411
 20
6.0535
 30
0.0
 40
0
 41
0
  0
VERTEX
  8
0
 10
6.81272
 20
6.09999
 30
0.0
 40
0
 41
0
  0
VERTEX
  8
0
 10
6.82161
 20
6.11367
 30
0.0
 40
0
 41
0
  0
VERTEX
  8
0
 10
6.83464
 20
6.13385
 30
0.0
 40
0
 41
0
  0
VERTEX
  8
0
 10
6.88644
 20
6.18614
 30
0.0
 40
0
 41
0
  0
VERTEX
  8
0
 10
6.96218
 20
6.22504
 30
0.0
 40
0
 41
0
  0
VERTEX
  8
0
 10
7.04329
 20
6.22911
 30
0.0
 40
0
 41
0
  0
VERTEX
  8
0
 10
7.10618
 20
6.20856
 30
0.0
 40
0
 41
0
  0
VERTEX
  8
0
 10
7.12414
 20
6.197
 30
0.0
 40
0
 41
0
  0
VERTEX
  8
0
 10
7.14675
 20
6.18229
 30
0.0
 40
0
 41
0
  0
VERTEX
  8
0
 10
7.19976
 20
6.1149
 30
0.0
 40
0
 41
0
  0
VERTEX
  8
0
 10
7.23367
 20
5.99744
 30
0.0
 40
0
 41
0
  0
VERTEX
  8
0
 10
7.2251
 20
5.85058
 30
0.0
 40
0
 41
0
  0
VERTEX
  8
0
 10
7.19006
 20
5.72136
 30
0.0
 40
0
 41
0
  0
VERTEX
  8
0
 10
7.17329
 20
5.68033
 30
0.0
 40
0
 41
0
  0
VERTEX
  8
0
 10
7.162
 20
5.6531
 30
0.0
 40
0
 41
0
  0
VERTEX
  8
0
 10
7.12549
 20
5.57232
 30
0.0
 40
0
 41
0
  0
VERTEX
  8
0
 10
7.06489
 20
5.44781
 30
0.0
 40
0
 41
0
  0
VERTEX
  8
0
 10
6.99274
 20
5.3094
 30
0.0
 40
0
 41
0
  0
VERTEX
  8
0
 10
6.91043
 20
5.15944
 30
0.0
 40
0
 41
0
  0
VERTEX
  8
0
 10
6.81928
 20
5.00038
 30
0.0
 40
0
 41
0
  0
VERTEX
  8
0
 10
6.72054
 20
4.83464
 30
0.0
 40
0
 41
0
  0
VERTEX
  8
0
 10
6.61561
 20
4.66465
 30
0.0
 40
0
 41
0
  0
VERTEX
  8
0
 10
6.53358
 20
4.5356
 30
0.0
 40
0
 41
0
  0
VERTEX
  8
0
 10
6.50581
 20
4.49283
 30
0.0
 40
0
 41
0
  0
VERTEX
  8
0
 10
5.52746
 20
2.98617
 30
0.0
 40
0
 41
0
  0
VERTEX
  8
0
 10
5.49371
 20
2.93431
 30
0.0
 40
0
 41
0
  0
VERTEX
  8
0
 10
5.39193
 20
2.77886
 30
0.0
 40
0
 41
0
  0
VERTEX
  8
0
 10
5.27013
 20
2.59549
 30
0.0
 40
0
 41
0
  0
VERTEX
  8
0
 10
5.15429
 20
2.42475
 30
0.0
 40
0
 41
0
  0
VERTEX
  8
0
 10
5.06625
 20
2.29758
 30
0.0
 40
0
 41
0
  0
VERTEX
  8
0
 10
5.03662
 20
2.25537
 30
0.0
 40
0
 41
0
  0
VERTEX
  8
0
 10
5.01997
 20
2.23204
 30
0.0
 40
0
 41
0
  0
VERTEX
  8
0
 10
4.97043
 20
2.16178
 30
0.0
 40
0
 41
0
  0
VERTEX
  8
0
 10
4.90983
 20
2.07454
 30
0.0
 40
0
 41
0
  0
VERTEX
  8
0
 10
4.85715
 20
1.99735
 30
0.0
 40
0
 41
0
  0
VERTEX
  8
0
 10
4.82536
 20
1.94971
 30
0.0
 40
0
 41
0
  0
VERTEX
  8
0
 10
4.81494
 20
1.93371
 30
0.0
 40
0
 41
0
  0
VERTEX
  8
0
 10
4.79807
 20
1.90761
 30
0.0
 40
0
 41
0
  0
VERTEX
  8
0
 10
4.75364
 20
1.82525
 30
0.0
 40
0
 41
0
  0
VERTEX
  8
0
 10
4.71972
 20
1.7334
 30
0.0
 40
0
 41
0
  0
VERTEX
  8
0
 10
4.71485
 20
1.66357
 30
0.0
 40
0
 41
0
  0
VERTEX
  8
0
 10
4.73133
 20
1.62722
 30
0.0
 40
0
 41
0
  0
VERTEX
  8
0
 10
4.74078
 20
1.62121
 30
0.0
 40
0
 41
0
  0
VERTEX
  8
0
 10
4.74496
 20
1.61849
 30
0.0
 40
0
 41
0
  0
VERTEX
  8
0
 10
4.76042
 20
1.61458
 30
0.0
 40
0
 41
0
  0
VERTEX
  8
0
 10
4.78504
 20
1.618
 30
0.0
 40
0
 41
0
  0
VERTEX
  8
0
 10
4.81543
 20
1.63282
 30
0.0
 40
0
 41
0
  0
VERTEX
  8
0
 10
4.84369
 20
1.65294
 30
0.0
 40
0
 41
0
  0
VERTEX
  8
0
 10
4.85249
 20
1.66037
 30
0.0
 40
0
 41
0
  0
VERTEX
  8
0
 10
4.8641
 20
1.66894
 30
0.0
 40
0
 41
0
  0
VERTEX
  8
0
 10
4.90088
 20
1.69211
 30
0.0
 40
0
 41
0
  0
VERTEX
  8
0
 10
4.94069
 20
1.70882
 30
0.0
 40
0
 41
0
  0
VERTEX
  8
0
 10
4.97467
 20
1.71067
 30
0.0
 40
0
 41
0
  0
VERTEX
  8
0
 10
4.99886
 20
1.70242
 30
0.0
 40
0
 41
0
  0
VERTEX
  8
0
 10
5.00581
 20
1.69786
 30
0.0
 40
0
 41
0
  0
VERTEX
  8
0
 10
5.01557
 20
1.69151
 30
0.0
 40
0
 41
0
  0
VERTEX
  8
0
 10
5.03743
 20
1.66097
 30
0.0
 40
0
 41
0
  0
VERTEX
  8
0
 10
5.04964
 20
1.60872
 30
0.0
 40
0
 41
0
  0
VERTEX
  8
0
 10
5.04194
 20
1.54833
 30
0.0
 40
0
 41
0
  0
VERTEX
  8
0
 10
5.02306
 20
1.50108
 30
0.0
 40
0
 41
0
  0
VERTEX
  8
0
 10
5.01411
 20
1.48703
 30
0.0
 40
0
 41
0
  0
VERTEX
  8
0
 10
5.00136
 20
1.46761
 30
0.0
 40
0
 41
0
  0
VERTEX
  8
0
 10
4.95036
 20
1.41775
 30
0.0
 40
0
 41
0
  0
VERTEX
  8
0
 10
4.87472
 20
1.3807
 30
0.0
 40
0
 41
0
  0
VERTEX
  8
0
 10
4.79378
 20
1.37723
 30
0.0
 40
0
 41
0
  0
VERTEX
  8
0
 10
4.73178
 20
1.39735
 30
0.0
 40
0
 41
0
  0
VERTEX
  8
0
 10
4.71414
 20
1.40869
 30
0.0
 40
0
 41
0
  0
VERTEX
  8
0
 10
4.69119
 20
1.42361
 30
0.0
 40
0
 41
0
  0
VERTEX
  8
0
 10
4.63737
 20
1.49143
 30
0.0
 40
0
 41
0
  0
VERTEX
  8
0
 10
4.60357
 20
1.60861
 30
0.0
 40
0
 41
0
  0
VERTEX
  8
0
 10
4.61274
 20
1.75499
 30
0.0
 40
0
 41
0
  0
VERTEX
  8
0
 10
4.64822
 20
1.88428
 30
0.0
 40
0
 41
0
  0
VERTEX
  8
0
 10
4.66499
 20
1.92535
 30
0.0
 40
0
 41
0
  0
VERTEX
  8
0
 10
4.67622
 20
1.95258
 30
0.0
 40
0
 41
0
  0
VERTEX
  8
0
 10
4.71262
 20
2.03326
 30
0.0
 40
0
 41
0
  0
VERTEX
  8
0
 10
4.773
 20
2.15722
 30
0.0
 40
0
 41
0
  0
VERTEX
  8
0
 10
4.84478
 20
2.29503
 30
0.0
 40
0
 41
0
  0
VERTEX
  8
0
 10
4.92681
 20
2.44444
 30
0.0
 40
0
 41
0
  0
VERTEX
  8
0
 10
5.01779
 20
2.60319
 30
0.0
 40
0
 41
0
  0
VERTEX
  8
0
 10
5.1166
 20
2.76899
 30
0.0
 40
0
 41
0
  0
VERTEX
  8
0
 10
5.22185
 20
2.93967
 30
0.0
 40
0
 41
0
  0
VERTEX
  8
0
 10
5.30447
 20
3.06976
 30
0.0
 40
0
 41
0
  0
VERTEX
  8
0
 10
5.33247
 20
3.11285
 30
0.0
 40
0
 41
0
  0
VERTEX
  8
0
 10
6.30826
 20
4.61535
 30
0.0
 40
0
 41
0
  0
SEQEND
 8
0
  0
POLYLINE
  8
0
 62
     0
 66
     1
 10
0
 20
0
 30
0.0
 70
     1
 40
0
 41
0
  0
VERTEX
  8
0
 10
2.87414
 20
3.14703
 30
0.0
 40
0
 41
0
  0
VERTEX
  8
0
 10
2.90419
 20
3.088
 30
0.0
 40
0
 41
0
  0
VERTEX
  8
0
 10
2.99388
 20
2.91043
 30
0.0
 40
0
 41
0
  0
VERTEX
  8
0
 10
3.09278
 20
2.7111
 30
0.0
 40
0
 41
0
  0
VERTEX
  8
0
 10
3.17964
 20
2.53097
 30
0.0
 40
0
 41
0
  0
VERTEX
  8
0
 10
3.24262
 20
2.39686
 30
0.0
 40
0
 41
0
  0
VERTEX
  8
0
 10
3.26329
 20
2.352
 30
0.0
 40
0
 41
0
  0
VERTEX
  8
0
 10
3.27431
 20
2.32747
 30
0.0
 40
0
 41
0
  0
VERTEX
  8
0
 10
3.308
 20
2.25412
 30
0.0
 40
0
 41
0
  0
VERTEX
  8
0
 10
3.35038
 20
2.1639
 30
0.0
 40
0
 41
0
  0
VERTEX
  8
0
 10
3.38775
 20
2.08649
 30
0.0
 40
0
 41
0
  0
VERTEX
  8
0
 10
3.40989
 20
2.04183
 30
0.0
 40
0
 41
0
  0
VERTEX
  8
0
 10
3.41749
 20
2.02701
 30
0.0
 40
0
 41
0
  0
VERTEX
  8
0
 10
3.43317
 20
1.99604
 30
0.0
 40
0
 41
0
  0
VERTEX
  8
0
 10
3.48671
 20
1.90614
 30
0.0
 40
0
 41
0
  0
VERTEX
  8
0
 10
3.55132
 20
1.8234
 30
0.0
 40
0
 41
0
  0
VERTEX
  8
0
 10
3.60856
 20
1.78082
 30
0.0
 40
0
 41
0
  0
VERTEX
  8
0
 10
3.64654
 20
1.77556
 30
0.0
 40
0
 41
0
  0
VERTEX
  8
0
 10
3.65582
 20
1.78033
 30
0.0
 40
0
 41
0
  0
VERTEX
  8
0
 10
3.65978
 20
1.78222
 30
0.0
 40
0
 41
0
  0
VERTEX
  8
0
 10
3.6754
 20
1.80078
 30
0.0
 40
0
 41
0
  0
VERTEX
  8
0
 10
3.68267
 20
1.82433
 30
0.0
 40
0
 41
0
  0
VERTEX
  8
0
 10
3.68246
 20
1.82867
 30
0.0
 40
0
 41
0
  0
VERTEX
  8
0
 10
3.68115
 20
1.84147
 30
0.0
 40
0
 41
0
  0
VERTEX
  8
0
 10
3.67806
 20
1.87999
 30
0.0
 40
0
 41
0
  0
VERTEX
  8
0
 10
3.67626
 20
1.92219
 30
0.0
 40
0
 41
0
  0
VERTEX
  8
0
 10
3.67731
 20
1.95643
 30
0.0
 40
0
 41
0
  0
VERTEX
  8
0
 10
3.68132
 20
1.98372
 30
0.0
 40
0
 41
0
  0
VERTEX
  8
0
 10
3.68847
 20
2.00521
 30
0.0
 40
0
 41
0
  0
VERTEX
  8
0
 10
3.699
 20
2.02208
 30
0.0
 40
0
 41
0
  0
VERTEX
  8
0
 10
3.713
 20
2.03537
 30
0.0
 40
0
 41
0
  0
VERTEX
  8
0
 10
3.72613
 20
2.04383
 30
0.0
 40
0
 41
0
  0
VERTEX
  8
0
 10
3.73079
 20
2.04617
 30
0.0
 40
0
 41
0
  0
VERTEX
  8
0
 10
3.74126
 20
2.05149
 30
0.0
 40
0
 41
0
  0
VERTEX
  8
0
 10
3.77854
 20
2.05599
 30
0.0
 40
0
 41
0
  0
VERTEX
  8
0
 10
3.8291
 20
2.04204
 30
0.0
 40
0
 41
0
  0
VERTEX
  8
0
 10
3.87657
 20
2.00683
 30
0.0
 40
0
 41
0
  0
VERTEX
  8
0
 10
3.9075
 20
1.96744
 30
0.0
 40
0
 41
0
  0
VERTEX
  8
0
 10
3.91499
 20
1.95285
 30
0.0
 40
0
 41
0
  0
VERTEX
  8
0
 10
3.92589
 20
1.93158
 30
0.0
 40
0
 41
0
  0
VERTEX
  8
0
 10
3.94521
 20
1.86074
 30
0.0
 40
0
 41
0
  0
VERTEX
  8
0
 10
3.94097
 20
1.77556
 30
0.0
 40
0
 41
0
  0
VERTEX
  8
0
 10
3.90392
 20
1.70329
 30
0.0
 40
0
 41
0
  0
VERTEX
  8
0
 10
3.85476
 20
1.65924
 30
0.0
 40
0
 41
0
  0
VERTEX
  8
0
 10
3.83583
 20
1.64953
 30
0.0
 40
0
 41
0
  0
VERTEX
  8
0
 10
3.81164
 20
1.63732
 30
0.0
 40
0
 41
0
  0
VERTEX
  8
0
 10
3.72667
 20
1.62511
 30
0.0
 40
0
 41
0
  0
VERTEX
  8
0
 10
3.60796
 20
1.65424
 30
0.0
 40
0
 41
0
  0
VERTEX
  8
0
 10
3.48503
 20
1.73475
 30
0.0
 40
0
 41
0
  0
VERTEX
  8
0
 10
3.39046
 20
1.82958
 30
0.0
 40
0
 41
0
  0
VERTEX
  8
0
 10
3.36333
 20
1.86453
 30
0.0
 40
0
 41
0
  0
VERTEX
  8
0
 10
3.34532
 20
1.88803
 30
0.0
 40
0
 41
0
  0
VERTEX
  8
0
 10
3.29368
 20
1.96024
 30
0.0
 40
0
 41
0
  0
VERTEX
  8
0
 10
3.21625
 20
2.07519
 30
0.0
 40
0
 41
0
  0
VERTEX
  8
0
 10
3.1326
 20
2.20697
 30
0.0
 40
0
 41
0
  0
VERTEX
  8
0
 10
3.044
 20
2.35331
 30
0.0
 40
0
 41
0
  0
VERTEX
  8
0
 10
2.95199
 20
2.51183
 30
0.0
 40
0
 41
0
  0
VERTEX
  8
0
 10
2.85786
 20
2.68018
 30
0.0
 40
0
 41
0
  0
VERTEX
  8
0
 10
2.76313
 20
2.85601
 30
0.0
 40
0
 41
0
  0
VERTEX
  8
0
 10
2.69228
 20
2.9916
 30
0.0
 40
0
 41
0
  0
VERTEX
  8
0
 10
2.66917
 20
3.037
 30
0.0
 40
0
 41
0
  0
VERTEX
  8
0
 10
1.85331
 20
4.63781
 30
0.0
 40
0
 41
0
  0
VERTEX
  8
0
 10
1.82519
 20
4.69299
 30
0.0
 40
0
 41
0
  0
VERTEX
  8
0
 10
1.74154
 20
4.85867
 30
0.0
 40
0
 41
0
  0
VERTEX
  8
0
 10
1.64361
 20
5.05578
 30
0.0
 40
0
 41
0
  0
VERTEX
  8
0
 10
1.55365
 20
5.2416
 30
0.0
 40
0
 41
0
  0
VERTEX
  8
0
 10
1.48747
 20
5.38178
 30
0.0
 40
0
 41
0
  0
VERTEX
  8
0
 10
1.46582
 20
5.42865
 30
0.0
 40
0
 41
0
  0
VERTEX
  8
0
 10
1.45404
 20
5.45464
 30
0.0
 40
0
 41
0
  0
VERTEX
  8
0
 10
1.41818
 20
5.53239
 30
0.0
 40
0
 41
0
  0
VERTEX
  8
0
 10
1.37299
 20
5.62836
 30
0.0
 40
0
 41
0
  0
VERTEX
  8
0
 10
1.3323
 20
5.71262
 30
0.0
 40
0
 41
0
  0
VERTEX
  8
0
 10
1.30691
 20
5.76411
 30
0.0
 40
0
 41
0
  0
VERTEX
  8
0
 10
1.29834
 20
5.78114
 30
0.0
 40
0
 41
0
  0
VERTEX
  8
0
 10
1.28413
 20
5.80881
 30
0.0
 40
0
 41
0
  0
VERTEX
  8
0
 10
1.23492
 20
5.88829
 30
0.0
 40
0
 41
0
  0
VERTEX
  8
0
 10
1.17225
 20
5.96332
 30
0.0
 40
0
 41
0
  0
VERTEX
  8
0
 10
1.11431
 20
6.00228
 30
0.0
 40
0
 41
0
  0
VERTEX
  8
0
 10
1.07482
 20
6.00624
 30
0.0
 40
0
 41
0
  0
VERTEX
  8
0
 10
1.065
 20
6.00114
 30
0.0
 40
0
 41
0
  0
VERTEX
  8
0
 10
1.06044
 20
5.99892
 30
0.0
 40
0
 41
0
  0
VERTEX
  8
0
 10
1.04915
 20
5.98753
 30
0.0
 40
0
 41
0
  0
VERTEX
  8
0
 10
1.03966
 20
5.96442
 30
0.0
 40
0
 41
0
  0
VERTEX
  8
0
 10
1.03716
 20
5.9305
 30
0.0
 40
0
 41
0
  0
VERTEX
  8
0
 10
1.04042
 20
5.89589
 30
0.0
 40
0
 41
0
  0
VERTEX
  8
0
 10
1.04248
 20
5.8845
 30
0.0
 40
0
 41
0
  0
VERTEX
  8
0
 10
1.04405
 20
5.87022
 30
0.0
 40
0
 41
0
  0
VERTEX
  8
0
 10
1.0459
 20
5.82688
 30
0.0
 40
0
 41
0
  0
VERTEX
  8
0
 10
1.04042
 20
5.7844
 30
0.0
 40
0
 41
0
  0
VERTEX
  8
0
 10
1.0249
 20
5.75435
 30
0.0
 40
0
 41
0
  0
VERTEX
  8
0
 10
1.00564
 20
5.73747
 30
0.0
 40
0
 41
0
  0
VERTEX
  8
0
 10
0.998318
 20
5.73367
 30
0.0
 40
0
 41
0
  0
VERTEX
  8
0
 10
0.987956
 20
5.72835
 30
0.0
 40
0
 41
0
  0
VERTEX
  8
0
 10
0.950629
 20
5.72456
 30
0.0
 40
0
 41
0
  0
VERTEX
  8
0
 10
0.899468
 20
5.74001
 30
0.0
 40
0
 41
0
  0
VERTEX
  8
0
 10
0.851238
 20
5.77692
 30
0.0
 40
0
 41
0
  0
VERTEX
  8
0
 10
0.819988
 20
5.81711
 30
0.0
 40
0
 41
0
  0
VERTEX
  8
0
 10
0.8125
 20
5.83197
 30
0.0
 40
0
 41
0
  0
VERTEX
  8
0
 10
0.801921
 20
5.8526
 30
0.0
 40
0
 41
0
  0
VERTEX
  8
0
 10
0.783963
 20
5.9215
 30
0.0
 40
0
 41
0
  0
VERTEX
  8
0
 10
0.789551
 20
6.00553
 30
0.0
 40
0
 41
0
  0
VERTEX
  8
0
 10
0.826986
 20
6.07742
 30
0.0
 40
0
 41
0
  0
VERTEX
  8
0
 10
0.875435
 20
6.12088
 30
0.0
 40
0
 41
0
  0
VERTEX
  8
0
 10
0.894151
 20
6.13032
 30
0.0
 40
0
 41
0
  0
VERTEX
  8
0
 10
0.918511
 20
6.14274
 30
0.0
 40
0
 41
0
  0
VERTEX
  8
0
 10
1.00412
 20
6.15549
 30
0.0
 40
0
 41
0
  0
VERTEX
  8
0
 10
1.12245
 20
6.12631
 30
0.0
 40
0
 41
0
  0
VERTEX
  8
0
 10
1.24452
 20
6.04542
 30
0.0
 40
0
 41
0
  0
VERTEX
  8
0
 10
1.33865
 20
5.95031
 30
0.0
 40
0
 41
0
  0
VERTEX
  8
0
 10
1.36583
 20
5.91531
 30
0.0
 40
0
 41
0
  0
VERTEX
  8
0
 10
1.38373
 20
5.89187
 30
0.0
 40
0
 41
0
  0
VERTEX
  8
0
 10
1.43539
 20
5.81982
 30
0.0
 40
0
 41
0
  0
VERTEX
  8
0
 10
1.51258
 20
5.70546
 30
0.0
 40
0
 41
0
  0
VERTEX
  8
0
 10
1.59608
 20
5.57428
 30
0.0
 40
0
 41
0
  0
VERTEX
  8
0
 10
1.68457
 20
5.4286
 30
0.0
 40
0
 41
0
  0
VERTEX
  8
0
 10
1.77658
 20
5.27051
 30
0.0
 40
0
 41
0
  0
VERTEX
  8
0
 10
1.87088
 20
5.10221
 30
0.0
 40
0
 41
0
  0
VERTEX
  8
0
 10
1.96604
 20
4.92589
 30
0.0
 40
0
 41
0
  0
VERTEX
  8
0
 10
2.03749
 20
4.78939
 30
0.0
 40
0
 41
0
  0
VERTEX
  8
0
 10
2.06082
 20
4.74365
 30
0.0
 40
0
 41
0
  0
VERTEX
  8
0
 10
2.87414
 20
3.14703
 30
0.0
 40
0
 41
0
  0
SEQEND
 8
0
  0
ENDSEC
  0
EOF
