<?xml version="1.0" encoding="UTF-8" standalone="no"?>
<!-- Created with Inkscape (http://www.inkscape.org/) -->

<svg
   xmlns:dc="http://purl.org/dc/elements/1.1/"
   xmlns:cc="http://creativecommons.org/ns#"
   xmlns:rdf="http://www.w3.org/1999/02/22-rdf-syntax-ns#"
   xmlns:svg="http://www.w3.org/2000/svg"
   xmlns="http://www.w3.org/2000/svg"
   xmlns:sodipodi="http://sodipodi.sourceforge.net/DTD/sodipodi-0.dtd"
   xmlns:inkscape="http://www.inkscape.org/namespaces/inkscape"
   width="187.85277mm"
   height="168.56558mm"
   viewBox="0 0 187.85277 168.56558"
   version="1.1"
   id="svg8"
   inkscape:version="0.92.1 r15371"
   sodipodi:docname="89OriginalLogo.svg"
   inkscape:export-filename="F:\GitProjects\FeerPong\PhysicalDesign\2DLogoLaserCutting\Data\89OriginalLogo.png"
   inkscape:export-xdpi="96"
   inkscape:export-ydpi="96">
  <defs
     id="defs2">
    <pattern
       y="0"
       x="0"
       height="6"
       width="6"
       patternUnits="userSpaceOnUse"
       id="EMFhbasepattern" />
    <pattern
       patternUnits="userSpaceOnUse"
       width="709.99473"
       height="637.09825"
       patternTransform="matrix(0.26458333,0,0,0.26458333,12.662898,76.64578)"
       id="pattern3713">
      <g
         transform="translate(-44.999667,-425.8939)"
         id="g3711">
        <path
           style="fill:none;stroke:#000000;stroke-width:9.99992561px;stroke-linecap:butt;stroke-linejoin:miter;stroke-miterlimit:10;stroke-dasharray:none;stroke-opacity:1"
           d="m 116.63914,475.99647 c 0,18.39987 -14.87989,33.35976 -33.279757,33.35976 -18.399864,0 -33.359753,-14.95989 -33.359753,-33.35976 0,-18.39986 14.959889,-33.35975 33.359753,-33.35975 18.399867,0 33.279757,14.95989 33.279757,33.35975 z"
           id="path3683" />
        <path
           style="fill:none;stroke:#000000;stroke-width:9.99992561px;stroke-linecap:butt;stroke-linejoin:miter;stroke-miterlimit:10;stroke-dasharray:none;stroke-opacity:1"
           d="m 433.35679,1024.6324 c 0,18.3999 -14.95989,33.3598 -33.35975,33.3598 -18.39987,0 -33.35976,-14.9599 -33.35976,-33.3598 0,-18.3999 14.95989,-33.27974 33.35976,-33.27974 18.39986,0 33.35975,14.87984 33.35975,33.27974 z"
           id="path3685" />
        <path
           style="fill:none;stroke:#000000;stroke-width:9.99992561px;stroke-linecap:butt;stroke-linejoin:miter;stroke-miterlimit:10;stroke-dasharray:none;stroke-opacity:1"
           d="m 749.99444,475.99647 c 0,18.39987 -14.95988,33.35976 -33.35975,33.35976 -18.39986,0 -33.27975,-14.95989 -33.27975,-33.35976 0,-18.39986 14.87989,-33.35975 33.27975,-33.35975 18.39987,0 33.35975,14.95989 33.35975,33.35975 z"
           id="path3687" />
        <path
           style="fill:none;stroke:#000000;stroke-width:9.99992561px;stroke-linecap:butt;stroke-linejoin:miter;stroke-miterlimit:10;stroke-dasharray:none;stroke-opacity:1"
           d="m 549.99593,655.99514 c 0,82.87939 -67.11951,149.99889 -149.99889,149.99889 -82.87939,0 -149.99889,-67.1195 -149.99889,-149.99889 0,-82.87939 67.1195,-149.99889 149.99889,-149.99889 82.87938,0 149.99889,67.1195 149.99889,149.99889 z"
           id="path3689" />
        <path
           style="fill:#000000;fill-opacity:1;fill-rule:nonzero;stroke:none"
           d="m 318.47764,468.47653 c -37.43972,-1.91999 -58.87956,-3.43997 -84.79937,-5.75996 -13.9199,-1.43999 -27.3598,-2.47998 -34.39975,-2.79998 -19.91985,-1.03999 -31.59976,1.99999 -31.91976,7.99994 -0.08,1.67999 1.27999,3.75998 2.71998,4.47997 13.1999,5.99996 16.07988,8.87993 15.75988,14.47989 -0.31999,6.31996 -7.59994,11.27992 -16.55987,10.79992 -13.5199,-0.63999 -22.07984,-9.11993 -21.43985,-21.11984 0.8,-14.63989 15.83989,-25.51981 40.5597,-28.87979 27.2798,-3.59997 78.31942,-4.23996 130.79904,-1.51998 l 172.23872,9.03993 c 33.99975,1.75999 57.43957,3.35997 84.31938,5.75996 14.95988,1.43998 28.87978,2.47998 37.35972,2.95997 17.51987,0.88 29.19978,-2.47998 29.51978,-8.79993 0.16,-2.71998 -2.23998,-5.11996 -8.63994,-7.51995 -7.75994,-3.35997 -10.63992,-6.15995 -10.39992,-10.87991 0.32,-6.31996 8.07994,-11.19992 17.11987,-10.79992 12.95991,0.71999 21.51984,9.51992 20.87985,21.11984 -0.79999,15.03989 -15.83988,25.59981 -40.5597,28.95978 -27.1998,3.59998 -77.83942,4.23997 -130.79903,1.51999 z"
           id="path3691" />
        <path
           style="fill:#000000;fill-opacity:1;fill-rule:nonzero;stroke:none"
           d="m 605.59551,683.59494 c 20.39985,-31.43977 32.39976,-49.27964 47.35965,-70.55948 8.23994,-11.35992 15.83989,-22.47983 19.67986,-28.39979 10.87992,-16.71988 14.07989,-28.39979 9.03993,-31.67977 -1.43999,-0.87999 -3.91997,-0.71999 -5.27996,0.16 -11.83991,8.39994 -15.67988,9.51993 -20.47985,6.39996 -5.27996,-3.43998 -5.91995,-12.23991 -1.03999,-19.75986 7.35994,-11.35991 18.95986,-14.47989 29.03978,-7.99994 12.31991,7.99994 14.1599,26.5598 4.71997,49.59963 -10.47992,25.35982 -35.43974,69.99949 -64.07953,113.99916 l -93.9193,144.63893 c -18.55986,28.55979 -31.59977,48.07964 -47.11965,70.15948 -8.71994,12.23991 -16.63988,23.75982 -21.27984,30.87977 -9.51993,14.71989 -12.47991,26.5598 -7.11995,29.99978 2.23998,1.43999 5.51996,0.63999 10.71992,-3.75997 6.87995,-5.03997 10.79992,-6.15996 14.71989,-3.59998 5.27996,3.43998 5.67996,12.63991 0.79999,20.23985 -7.11994,10.87992 -18.95986,13.8399 -28.79978,7.51995 -12.55991,-8.15994 -14.1599,-26.47981 -4.71997,-49.59964 10.47993,-25.35981 35.19974,-69.51948 64.07953,-113.99915 z"
           id="path3693" />
        <path
           style="fill:#000000;fill-opacity:1;fill-rule:nonzero;stroke:none"
           d="m 275.91796,824.55389 c 17.03987,33.43975 26.4798,52.71961 37.35972,76.31944 5.75996,12.7999 11.59991,24.95981 14.79989,31.19977 9.03993,17.83986 17.59987,26.3998 22.87983,23.67982 1.51999,-0.71999 2.63998,-2.95998 2.55998,-4.63997 -1.43999,-14.39989 -0.4,-18.31986 4.63997,-20.87984 5.67995,-2.87998 13.5999,0.95999 17.67987,8.95993 6.15995,11.99991 3.03997,23.67983 -7.59995,29.11979 -13.1199,6.63995 -30.07977,-0.96 -45.35966,-20.63985 C 306.15773,925.83314 280.07793,881.91347 256.2381,835.11381 L 177.91868,681.43495 c -15.43988,-30.31977 -25.83981,-51.35962 -37.19972,-75.91944 -6.15996,-13.59989 -12.23991,-26.2398 -16.07988,-33.83974 -7.99994,-15.59989 -16.79988,-23.99983 -22.39984,-21.11985 -2.39998,1.19999 -3.359972,4.47997 -2.15998,11.19992 0.95999,8.47994 -0.08,12.31991 -4.23997,14.47989 -5.599958,2.87998 -13.759898,-1.35999 -17.839868,-9.43993 -5.919956,-11.51991 -2.559981,-23.35983 7.839942,-28.63979 13.359901,-6.79995 29.999776,0.96 45.279666,20.63985 16.71987,21.83984 42.63968,65.27952 66.7195,112.47917 z"
           id="path3695" />
      </g>
    </pattern>
    <pattern
       y="0"
       x="0"
       height="6"
       width="6"
       patternUnits="userSpaceOnUse"
       id="EMFhbasepattern-0" />
    <pattern
       patternUnits="userSpaceOnUse"
       width="709.99473"
       height="637.09825"
       patternTransform="translate(44.999667,425.89391)"
       id="pattern69">
      <path
         inkscape:connector-curvature="0"
         style="fill:none;stroke:#000000;stroke-width:9.99992561px;stroke-linecap:butt;stroke-linejoin:miter;stroke-miterlimit:10;stroke-dasharray:none;stroke-opacity:1"
         d="m 71.639472,50.10256 c 0,18.39987 -14.87989,33.35976 -33.279757,33.35976 -18.399863,0 -33.3597523,-14.95989 -33.3597523,-33.35976 0,-18.39986 14.9598893,-33.35975 33.3597523,-33.35975 18.399867,0 33.279757,14.95989 33.279757,33.35975 z"
         id="path39" />
      <path
         inkscape:connector-curvature="0"
         style="fill:none;stroke:#000000;stroke-width:9.99992561px;stroke-linecap:butt;stroke-linejoin:miter;stroke-miterlimit:10;stroke-dasharray:none;stroke-opacity:1"
         d="m 388.35712,598.73848 c 0,18.3999 -14.95989,33.3598 -33.35975,33.3598 -18.39987,0 -33.35976,-14.9599 -33.35976,-33.3598 0,-18.3999 14.95989,-33.27974 33.35976,-33.27974 18.39986,0 33.35975,14.87984 33.35975,33.27974 z"
         id="path41" />
      <path
         inkscape:connector-curvature="0"
         style="fill:none;stroke:#000000;stroke-width:9.99992561px;stroke-linecap:butt;stroke-linejoin:miter;stroke-miterlimit:10;stroke-dasharray:none;stroke-opacity:1"
         d="m 704.99476,50.10256 c 0,18.39987 -14.95988,33.35976 -33.35975,33.35976 -18.39986,0 -33.27975,-14.95989 -33.27975,-33.35976 0,-18.39986 14.87989,-33.35975 33.27975,-33.35975 18.39987,0 33.35975,14.95989 33.35975,33.35975 z"
         id="path43" />
      <path
         inkscape:connector-curvature="0"
         style="fill:none;stroke:#000000;stroke-width:9.99992561px;stroke-linecap:butt;stroke-linejoin:miter;stroke-miterlimit:10;stroke-dasharray:none;stroke-opacity:1"
         d="m 504.99626,230.10123 c 0,82.87939 -67.11951,149.99889 -149.99889,149.99889 -82.87939,0 -149.99889,-67.1195 -149.99889,-149.99889 0,-82.87939 67.1195,-149.99889 149.99889,-149.99889 82.87938,0 149.99889,67.1195 149.99889,149.99889 z"
         id="path45" />
      <path
         inkscape:connector-curvature="0"
         style="fill:#000000;fill-opacity:1;fill-rule:nonzero;stroke:none"
         d="m 273.47797,42.58262 c -37.43972,-1.91999 -58.87956,-3.43997 -84.79937,-5.75996 -13.9199,-1.43999 -27.3598,-2.47998 -34.39975,-2.79998 -19.91985,-1.03999 -31.59976,1.99999 -31.91976,7.99994 -0.08,1.67999 1.27999,3.75998 2.71998,4.47997 13.1999,5.99996 16.07988,8.87993 15.75988,14.47989 -0.31999,6.31996 -7.59994,11.27992 -16.55987,10.79992 -13.5199,-0.63999 -22.07984,-9.11993 -21.43985,-21.11984 0.8,-14.63989 15.83989,-25.51981 40.5597,-28.87979 27.2798,-3.59997 78.31942,-4.23996 130.79904,-1.51998 l 172.23872,9.03993 c 33.99975,1.75999 57.43957,3.35997 84.31938,5.75996 14.95988,1.43998 28.87978,2.47998 37.35972,2.95997 17.51987,0.88 29.19978,-2.47998 29.51978,-8.79993 0.16,-2.71998 -2.23998,-5.11996 -8.63994,-7.51995 -7.75994,-3.35997 -10.63992,-6.15995 -10.39992,-10.87991 0.32,-6.3199595 8.07994,-11.19991941 17.11987,-10.79991942 12.95991,0.71998999 21.51984,9.51991992 20.87985,21.11983942 -0.79999,15.03989 -15.83988,25.59981 -40.5597,28.95978 -27.1998,3.59998 -77.83942,4.23997 -130.79903,1.51999 z"
         id="path47" />
      <path
         inkscape:connector-curvature="0"
         style="fill:#000000;fill-opacity:1;fill-rule:nonzero;stroke:none"
         d="m 560.59584,257.70103 c 20.39985,-31.43977 32.39976,-49.27964 47.35965,-70.55948 8.23994,-11.35992 15.83988,-22.47983 19.67985,-28.39979 10.87992,-16.71988 14.07989,-28.39979 9.03993,-31.67977 -1.43999,-0.87999 -3.91997,-0.71999 -5.27996,0.16 -11.8399,8.39994 -15.67987,9.51993 -20.47984,6.39996 -5.27996,-3.43998 -5.91995,-12.23991 -1.03999,-19.75986 7.35994,-11.35991 18.95985,-14.479891 29.03977,-7.99994 12.31991,7.99994 14.1599,26.5598 4.71997,49.59963 -10.47992,25.35982 -35.43973,69.99949 -64.07952,113.99916 l -93.9193,144.63893 c -18.55986,28.55979 -31.59977,48.07963 -47.11965,70.15947 -8.71994,12.23991 -16.63988,23.75982 -21.27984,30.87977 -9.51993,14.71989 -12.47991,26.5598 -7.11995,29.99978 2.23998,1.43999 5.51996,0.63999 10.71992,-3.75997 6.87995,-5.03997 10.79992,-6.15996 14.71989,-3.59998 5.27996,3.43998 5.67996,12.63991 0.79999,20.23985 -7.11994,10.87992 -18.95986,13.8399 -28.79978,7.51995 -12.55991,-8.15994 -14.1599,-26.47981 -4.71997,-49.59964 10.47993,-25.35981 35.19974,-69.51948 64.07953,-113.99914 z"
         id="path49" />
      <path
         inkscape:connector-curvature="0"
         style="fill:#000000;fill-opacity:1;fill-rule:nonzero;stroke:none"
         d="m 230.91829,398.65998 c 17.03987,33.43975 26.4798,52.7196 37.35972,76.31943 5.75996,12.7999 11.59991,24.95981 14.79989,31.19977 9.03993,17.83986 17.59987,26.3998 22.87983,23.67982 1.51999,-0.71999 2.63998,-2.95998 2.55998,-4.63997 -1.43999,-14.39989 -0.4,-18.31986 4.63997,-20.87984 5.67995,-2.87998 13.5999,0.95999 17.67987,8.95993 6.15995,11.99991 3.03997,23.67983 -7.59995,29.11979 -13.1199,6.63995 -30.07977,-0.96 -45.35966,-20.63985 C 261.15806,499.93922 235.07826,456.01955 211.23843,409.2199 L 132.91901,255.54104 C 117.47913,225.22127 107.0792,204.18142 95.719292,179.6216 c -6.15996,-13.59989 -12.23991,-26.2398 -16.07988,-33.83974 -7.99994,-15.59989 -16.79988,-23.99983 -22.39984,-21.11985 -2.39998,1.19999 -3.359972,4.47997 -2.15998,11.19992 0.95999,8.47994 -0.08,12.31991 -4.23997,14.47989 -5.599958,2.87998 -13.759898,-1.35999 -17.839868,-9.43993 -5.919956,-11.51991 -2.559981,-23.35983 7.839942,-28.63979 13.359901,-6.79995 29.999776,0.96 45.279666,20.63985 16.719868,21.83984 42.639678,65.27952 66.719498,112.47917 z"
         id="path51" />
    </pattern>
  </defs>
  <sodipodi:namedview
     id="base"
     pagecolor="#ffffff"
     bordercolor="#666666"
     borderopacity="1.0"
     inkscape:pageopacity="0.0"
     inkscape:pageshadow="2"
     inkscape:zoom="0.35"
     inkscape:cx="-63.574063"
     inkscape:cy="344.26339"
     inkscape:document-units="mm"
     inkscape:current-layer="g67"
     showgrid="false"
     inkscape:window-width="2560"
     inkscape:window-height="1377"
     inkscape:window-x="1912"
     inkscape:window-y="-8"
     inkscape:window-maximized="1" />
  <metadata
     id="metadata5">
    <rdf:RDF>
      <cc:Work
         rdf:about="">
        <dc:format>image/svg+xml</dc:format>
        <dc:type
           rdf:resource="http://purl.org/dc/dcmitype/StillImage" />
        <dc:title></dc:title>
      </cc:Work>
    </rdf:RDF>
  </metadata>
  <g
     inkscape:label="Layer 1"
     inkscape:groupmode="layer"
     id="layer1"
     transform="translate(-9.6390899,-71.354111)">
    <g
       id="g67"
       transform="matrix(0.26458333,0,0,0.26458333,-2.2670719,-41.330318)">
      <rect
         style="stroke:none;fill:url(#pattern69)"
         width="709.99474"
         height="637.09825"
         x="44.999667"
         y="425.89391"
         id="rect78" />
    </g>
  </g>
</svg>
